<svg xmlns="http://www.w3.org/2000/svg" viewBox="0 0 283.5 283.5"><path d="M112.7,145.8a17.2,17.2,0,0,1,16.2,11.8,19.1,19.1,0,0,0,.9-5.4,17.1,17.1,0,0,0-34.2,0,19.1,19.1,0,0,0,.8,5.4A17.3,17.3,0,0,1,112.7,145.8Z" stroke="#000" stroke-linecap="round" stroke-linejoin="round" stroke-width="0.71"/><ellipse cx="112.7" cy="157.6" rx="16.2" ry="11.7" fill="#fff" stroke="#000" stroke-linecap="round" stroke-linejoin="round" stroke-width="0.71"/><circle cx="112.7" cy="157.6" r="4.7" stroke="#000" stroke-linecap="round" stroke-linejoin="round" stroke-width="0.71"/><path d="M170.8,145.8a17.1,17.1,0,0,0-16.2,11.8,16.1,16.1,0,0,1-.9-5.4,17.1,17.1,0,1,1,34.2,0,16.1,16.1,0,0,1-.9,5.4A17.1,17.1,0,0,0,170.8,145.8Z" stroke="#000" stroke-linecap="round" stroke-linejoin="round" stroke-width="0.71"/><ellipse cx="170.8" cy="157.6" rx="16.2" ry="11.7" fill="#fff" stroke="#000" stroke-linecap="round" stroke-linejoin="round" stroke-width="0.71"/><circle cx="170.8" cy="157.6" r="4.7" stroke="#000" stroke-linecap="round" stroke-linejoin="round" stroke-width="0.71"/><rect x="99.5" y="121.1" width="26.3" height="9.33" rx="4.7" stroke="#000" stroke-linecap="round" stroke-linejoin="round" stroke-width="0.71"/><rect x="157.6" y="121.1" width="26.3" height="9.33" rx="4.7" stroke="#000" stroke-linecap="round" stroke-linejoin="round" stroke-width="0.71"/></svg>