<svg xmlns="http://www.w3.org/2000/svg" viewBox="0 0 283.5 283.5"><ellipse cx="111.1" cy="152.2" rx="24.6" ry="18.1" fill="#728490" stroke="#000" stroke-linecap="round" stroke-linejoin="round" stroke-width="0.71"/><path d="M111.1,146.5A15.4,15.4,0,0,1,125.7,157a15.1,15.1,0,0,0,.7-4.8,15.4,15.4,0,1,0-30.7,0,12.7,12.7,0,0,0,.8,4.8A15.4,15.4,0,0,1,111.1,146.5Z" stroke="#000" stroke-linecap="round" stroke-linejoin="round" stroke-width="0.71"/><ellipse cx="111.1" cy="157" rx="14.6" ry="10.6" fill="#fff" stroke="#000" stroke-linecap="round" stroke-linejoin="round" stroke-width="0.71"/><circle cx="111.1" cy="159.9" r="5.5" fill="#edcd51" stroke="#000" stroke-linecap="round" stroke-linejoin="round" stroke-width="0.71"/><ellipse cx="172.4" cy="152.2" rx="24.6" ry="18.1" fill="#728490" stroke="#000" stroke-linecap="round" stroke-linejoin="round" stroke-width="0.71"/><path d="M172.4,146.5A15.4,15.4,0,0,1,187,157a15.1,15.1,0,0,0,.8-4.8,15.4,15.4,0,0,0-30.8,0,15.1,15.1,0,0,0,.8,4.8A15.4,15.4,0,0,1,172.4,146.5Z" stroke="#000" stroke-linecap="round" stroke-linejoin="round" stroke-width="0.71"/><ellipse cx="172.4" cy="157" rx="14.6" ry="10.6" fill="#fff" stroke="#000" stroke-linecap="round" stroke-linejoin="round" stroke-width="0.71"/><circle cx="172.4" cy="159.9" r="5.5" fill="#edcd51" stroke="#000" stroke-linecap="round" stroke-linejoin="round" stroke-width="0.71"/></svg>