<svg id="EYES" xmlns="http://www.w3.org/2000/svg" viewBox="0 0 283.5 283.5">
  <g>
    <path d="M108.5,167.6c-6.9-2.1-15.6-8.3-19.1-25.8,0,0-16,31.7,14.2,41.7a8.1,8.1,0,0,0,10.2-4.8A8.3,8.3,0,0,0,108.5,167.6Z" fill="#a6a6a6" stroke="#000" stroke-linecap="round" stroke-linejoin="round" stroke-width="0.71"/>
    <g>
      <g>
        <path d="M159.9,113.2a7.4,7.4,0,0,0-4.3,12.2h0a7.7,7.7,0,0,0,7.2,2.1c6.6-1.6,20.1-2.7,30.2,11.3C193,138.8,191.1,108.3,159.9,113.2Z" stroke="#000" stroke-linecap="round" stroke-linejoin="round" stroke-width="0.71"/>
        <path d="M123.6,113.2c-31.2-4.9-33.1,25.6-33.1,25.6,10-14,23.6-12.9,30.2-11.3a7.5,7.5,0,0,0,7.1-2.1A7.3,7.3,0,0,0,123.6,113.2Z" stroke="#000" stroke-linecap="round" stroke-linejoin="round" stroke-width="0.71"/>
      </g>
      <g>
        <g>
          <path d="M118,136a16,16,0,0,0-5.3-.9,17.1,17.1,0,0,0,0,34.2,16,16,0,0,0,5.3-.9,17.1,17.1,0,0,1,0-32.4Z" stroke="#000" stroke-linecap="round" stroke-linejoin="round" stroke-width="0.71"/>
          <path d="M164.5,152.2A17,17,0,0,1,176.2,136a16.1,16.1,0,0,0-5.4-.9,17.1,17.1,0,0,0,0,34.2,16.1,16.1,0,0,0,5.4-.9A17.1,17.1,0,0,1,164.5,152.2Z" stroke="#000" stroke-linecap="round" stroke-linejoin="round" stroke-width="0.71"/>
        </g>
        <g>
          <ellipse cx="118" cy="152.2" rx="11.7" ry="16.2" fill="#fff" stroke="#000" stroke-linecap="round" stroke-linejoin="round" stroke-width="0.71"/>
          <ellipse cx="176.2" cy="152.2" rx="11.7" ry="16.2" fill="#fff" stroke="#000" stroke-linecap="round" stroke-linejoin="round" stroke-width="0.71"/>
        </g>
      </g>
    </g>
  </g>
</svg>
