<svg xmlns="http://www.w3.org/2000/svg" viewBox="0 0 283.5 283.5"><path d="M109.4,97.1c14.6,0,12,11.3,28.9,8.6s23-15.4,35.7-4.1" fill="none" stroke="#000" stroke-linecap="round" stroke-linejoin="round" stroke-width="0.71"/><path d="M122,112.1c8.9,0,7.3,6.9,17.6,5.2s14-9.4,21.8-2.5" fill="none" stroke="#000" stroke-linecap="round" stroke-linejoin="round" stroke-width="0.71"/><path d="M143.8,182.3h0a5.8,5.8,0,0,1-1.1-8.2l50.6-68.8a5.8,5.8,0,0,1,8.2-1.1h0a6,6,0,0,1,1.1,8.2L152,181.2A5.8,5.8,0,0,1,143.8,182.3Z" fill="#cb5f66" stroke="#000" stroke-linecap="round" stroke-linejoin="round" stroke-width="0.71"/><circle cx="175.6" cy="157.9" r="18.4" fill="#3d478c" stroke="#000" stroke-linecap="round" stroke-linejoin="round" stroke-width="0.71"/><ellipse cx="106.8" cy="151.7" rx="22.5" ry="18.5" fill="#cb5f66" stroke="#000" stroke-linecap="round" stroke-linejoin="round" stroke-width="0.71"/><path d="M130.4,142h0a7.3,7.3,0,0,1-7-2.6c-4.3-5.2-14.5-14.2-31-9,0,0,19.8-23.3,41.9-.7A7.3,7.3,0,0,1,130.4,142Z" stroke="#000" stroke-linecap="round" stroke-linejoin="round" stroke-width="0.71"/><path d="M153.1,142h0a7.1,7.1,0,0,0,6.9-2.6c4.4-5.2,14.6-14.2,31-9,0,0-19.8-23.3-41.8-.7A7.3,7.3,0,0,0,153.1,142Z" stroke="#000" stroke-linecap="round" stroke-linejoin="round" stroke-width="0.71"/><path d="M106.3,152.2A17,17,0,0,1,118,136a16,16,0,0,0-5.3-.9,17.1,17.1,0,0,0,0,34.2,16,16,0,0,0,5.3-.9A17.1,17.1,0,0,1,106.3,152.2Z" stroke="#000" stroke-linecap="round" stroke-linejoin="round" stroke-width="0.71"/><ellipse cx="118" cy="152.2" rx="11.7" ry="16.2" fill="#fff" stroke="#000" stroke-linecap="round" stroke-linejoin="round" stroke-width="0.71"/><path d="M164.5,152.2A17,17,0,0,1,176.2,136a16.1,16.1,0,0,0-5.4-.9,17.1,17.1,0,0,0,0,34.2,16.1,16.1,0,0,0,5.4-.9A17.1,17.1,0,0,1,164.5,152.2Z" stroke="#000" stroke-linecap="round" stroke-linejoin="round" stroke-width="0.71"/><ellipse cx="176.2" cy="152.2" rx="11.7" ry="16.2" fill="#ef7c78" stroke="#000" stroke-linecap="round" stroke-linejoin="round" stroke-width="0.71"/><circle cx="118" cy="151.6" r="5.6" stroke="#000" stroke-linecap="round" stroke-linejoin="round" stroke-width="0.71"/><circle cx="176.2" cy="151.6" r="5.6" stroke="#000" stroke-linecap="round" stroke-linejoin="round" stroke-width="0.71"/></svg>