<svg id="EYES" xmlns="http://www.w3.org/2000/svg" viewBox="0 0 283.5 283.5">
  <g>
    <g>
      <path d="M159.9,113.2a7.4,7.4,0,0,0-4.3,12.2h0a7.7,7.7,0,0,0,7.2,2.1c6.6-1.6,20.1-2.7,30.2,11.3C193,138.8,191.1,108.3,159.9,113.2Z" stroke="#000" stroke-linecap="round" stroke-linejoin="round" stroke-width="0.71"/>
      <path d="M123.6,113.2c-31.2-4.9-33.1,25.6-33.1,25.6,10-14,23.6-12.9,30.2-11.3a7.5,7.5,0,0,0,7.1-2.1A7.3,7.3,0,0,0,123.6,113.2Z" stroke="#000" stroke-linecap="round" stroke-linejoin="round" stroke-width="0.71"/>
    </g>
    <g>
      <g>
        <path d="M118,144.2a30.7,30.7,0,0,0-5.3-.5c-9.5,0-17.1,3.8-17.1,8.5s7.6,8.4,17.1,8.4a30.8,30.8,0,0,0,5.3-.4c-6.8-1.1-11.7-4.3-11.7-8S111.2,145.3,118,144.2Z" stroke="#000" stroke-linecap="round" stroke-linejoin="round" stroke-width="0.71"/>
        <path d="M164.5,152.2c0-3.8,4.9-6.9,11.7-8a31,31,0,0,0-5.4-.5c-9.4,0-17.1,3.8-17.1,8.5s7.7,8.4,17.1,8.4a31.2,31.2,0,0,0,5.4-.4C169.4,159.1,164.5,155.9,164.5,152.2Z" stroke="#000" stroke-linecap="round" stroke-linejoin="round" stroke-width="0.71"/>
      </g>
      <g>
        <ellipse cx="118" cy="152.2" rx="11.7" ry="8" fill="#fff" stroke="#000" stroke-linecap="round" stroke-linejoin="round" stroke-width="0.71"/>
        <ellipse cx="176.2" cy="152.2" rx="11.7" ry="8" fill="#fff" stroke="#000" stroke-linecap="round" stroke-linejoin="round" stroke-width="0.71"/>
      </g>
    </g>
  </g>
</svg>
