<svg id="EYES" xmlns="http://www.w3.org/2000/svg" viewBox="0 0 283.5 283.5">
  <g>
    <g>
      <path d="M96.4,183.9a2.9,2.9,0,0,0,3,3,3,3,0,0,0,3.1-3v-2.2a1.5,1.5,0,0,1,1.5-1.5,1.5,1.5,0,0,1,1.4,1.5v11.2a4,4,0,0,0,8,0V154.3h-17Z" fill="#2b2b2b" stroke="#000" stroke-linecap="round" stroke-linejoin="round" stroke-width="0.71"/>
      <path d="M170,154.3v38.6a4.1,4.1,0,0,0,8.1,0V181.7a1.5,1.5,0,0,1,1.4-1.5,1.5,1.5,0,0,1,1.5,1.5v2.2a2.9,2.9,0,0,0,3,3h0a3,3,0,0,0,3.1-3V154.3Z" fill="#2b2b2b" stroke="#000" stroke-linecap="round" stroke-linejoin="round" stroke-width="0.71"/>
    </g>
    <g>
      <g>
        <g>
          <g>
            <path d="M112.7,158.5a17.2,17.2,0,0,1-16.3-11.7,19.1,19.1,0,0,0-.8,5.4,17.1,17.1,0,1,0,34.2,0,19.1,19.1,0,0,0-.9-5.4A17.2,17.2,0,0,1,112.7,158.5Z" stroke="#000" stroke-linecap="round" stroke-linejoin="round" stroke-width="0.71"/>
            <path d="M187,146.8a17.1,17.1,0,0,1-32.4,0,16.1,16.1,0,0,0-.9,5.4,17.1,17.1,0,1,0,34.2,0A16.1,16.1,0,0,0,187,146.8Z" stroke="#000" stroke-linecap="round" stroke-linejoin="round" stroke-width="0.71"/>
          </g>
          <g>
            <ellipse cx="112.7" cy="146.8" rx="16.2" ry="11.7" fill="#fff" stroke="#000" stroke-linecap="round" stroke-linejoin="round" stroke-width="0.71"/>
            <ellipse cx="170.8" cy="146.8" rx="16.2" ry="11.7" fill="#fff" stroke="#000" stroke-linecap="round" stroke-linejoin="round" stroke-width="0.71"/>
          </g>
        </g>
        <g>
          <path d="M121.2,125.8h-17a4.7,4.7,0,1,0,0,9.3h17a4.7,4.7,0,0,0,0-9.3Z" stroke="#000" stroke-linecap="round" stroke-linejoin="round" stroke-width="0.71"/>
          <path d="M179.3,125.8h-17a4.7,4.7,0,1,0,0,9.3h17a4.7,4.7,0,1,0,0-9.3Z" stroke="#000" stroke-linecap="round" stroke-linejoin="round" stroke-width="0.71"/>
        </g>
      </g>
      <g>
        <path d="M112.7,143.2a3.6,3.6,0,0,0-3.7,3.6,3.7,3.7,0,1,0,7.3,0A3.6,3.6,0,0,0,112.7,143.2Z" stroke="#000" stroke-linecap="round" stroke-linejoin="round" stroke-width="0.71"/>
        <circle cx="170.8" cy="146.8" r="3.7" stroke="#000" stroke-linecap="round" stroke-linejoin="round" stroke-width="0.71"/>
      </g>
    </g>
  </g>
</svg>
