<svg xmlns="http://www.w3.org/2000/svg" viewBox="0 0 283.5 283.5"><path d="M155.6,125.4h0a7.7,7.7,0,0,0,7.2,2.1c6.6-1.6,20.1-2.7,30.2,11.3,0,0-1.9-30.5-33.1-25.6A7.4,7.4,0,0,0,155.6,125.4Z" stroke="#000" stroke-linecap="round" stroke-linejoin="round" stroke-width="0.71"/><path d="M127.8,125.4h0a7.5,7.5,0,0,1-7.1,2.1c-6.6-1.6-20.2-2.7-30.2,11.3,0,0,1.9-30.5,33.1-25.6A7.3,7.3,0,0,1,127.8,125.4Z" stroke="#000" stroke-linecap="round" stroke-linejoin="round" stroke-width="0.71"/><path d="M106.3,152.2c0-3.8,4.9-6.9,11.7-8a30.7,30.7,0,0,0-5.3-.5c-9.5,0-17.1,3.8-17.1,8.5s7.6,8.4,17.1,8.4a30.8,30.8,0,0,0,5.3-.4C111.2,159.1,106.3,155.9,106.3,152.2Z" stroke="#000" stroke-linecap="round" stroke-linejoin="round" stroke-width="0.71"/><ellipse cx="118" cy="152.2" rx="11.7" ry="8" fill="#fff" stroke="#000" stroke-linecap="round" stroke-linejoin="round" stroke-width="0.71"/><path d="M164.5,152.2c0-3.8,4.9-6.9,11.7-8a31,31,0,0,0-5.4-.5c-9.4,0-17.1,3.8-17.1,8.5s7.7,8.4,17.1,8.4a31.2,31.2,0,0,0,5.4-.4C169.4,159.1,164.5,155.9,164.5,152.2Z" stroke="#000" stroke-linecap="round" stroke-linejoin="round" stroke-width="0.71"/><ellipse cx="176.2" cy="152.2" rx="11.7" ry="8" fill="#fff" stroke="#000" stroke-linecap="round" stroke-linejoin="round" stroke-width="0.71"/></svg>