<svg id="EYES" xmlns="http://www.w3.org/2000/svg" viewBox="0 0 283.5 283.5">
  <g>
    <g>
      <path d="M199.6,129.9c-13.9-.9-32.3-.2-45.8,7.8a20,20,0,0,1-10.4,2.8h-3.3a20.4,20.4,0,0,1-10.5-2.8c-13.4-8-31.9-8.7-45.7-7.8a21,21,0,0,0-19.6,21,21.3,21.3,0,0,0,12.4,19.3c23.1,10.4,43.8.7,52.6-4.6a20.7,20.7,0,0,1,10.8-3h3.2a21.1,21.1,0,0,1,10.9,3c8.7,5.3,29.5,15,52.6,4.6a21.1,21.1,0,0,0-7.2-40.3Zm6.2,38.2a49.5,49.5,0,0,1-20.3,4.4c-13.6,0-24.7-5.5-30.2-8.8a22.6,22.6,0,0,0-12-3.3h-3.2a23.1,23.1,0,0,0-12,3.3c-5.4,3.3-16.6,8.8-30.1,8.8a50.3,50.3,0,0,1-20.4-4.4,18.9,18.9,0,0,1,6.4-36l8.9-.3c14.9,0,26.8,2.7,35.6,7.8a21.9,21.9,0,0,0,11.6,3.1h3.3a22.2,22.2,0,0,0,11.6-3.1c8.7-5.1,20.7-7.8,35.6-7.8l8.8.3a18.9,18.9,0,0,1,6.4,36Z" stroke="#000" stroke-linecap="round" stroke-linejoin="round" stroke-width="0.71"/>
      <path d="M199.4,132.1l-8.8-.3c-14.9,0-26.9,2.7-35.6,7.8a22.2,22.2,0,0,1-11.6,3.1h-3.3a21.9,21.9,0,0,1-11.6-3.1c-8.8-5.1-20.7-7.8-35.6-7.8l-8.9.3a18.9,18.9,0,0,0-6.4,36A50.3,50.3,0,0,0,98,172.5c13.5,0,24.7-5.5,30.1-8.8a23.1,23.1,0,0,1,12-3.3h3.2a22.6,22.6,0,0,1,12,3.3c5.5,3.3,16.6,8.8,30.2,8.8a49.5,49.5,0,0,0,20.3-4.4,18.9,18.9,0,0,0-6.4-36Z" fill="#1f1f1f" stroke="#000" stroke-linecap="round" stroke-linejoin="round" stroke-width="0.71"/>
    </g>
    <circle cx="175.6" cy="157.9" r="18.4" transform="translate(-23 30.2) rotate(-9.2)" fill="#3d478c" stroke="#000" stroke-linecap="round" stroke-linejoin="round" stroke-width="0.71"/>
    <g>
      <g>
        <ellipse cx="112.7" cy="146.8" rx="16.2" ry="11.7" fill="#fff" stroke="#000" stroke-linecap="round" stroke-linejoin="round" stroke-width="0.71"/>
        <g>
          <g>
            <path d="M112.7,158.5a17.2,17.2,0,0,1-16.3-11.7,19.1,19.1,0,0,0-.8,5.4,17.1,17.1,0,1,0,34.2,0,19.1,19.1,0,0,0-.9-5.4A17.2,17.2,0,0,1,112.7,158.5Z" stroke="#000" stroke-linecap="round" stroke-linejoin="round" stroke-width="0.71"/>
            <path d="M187,146.8a17.1,17.1,0,0,1-32.4,0,16.1,16.1,0,0,0-.9,5.4,17.1,17.1,0,1,0,34.2,0A16.1,16.1,0,0,0,187,146.8Z" stroke="#000" stroke-linecap="round" stroke-linejoin="round" stroke-width="0.71"/>
          </g>
          <ellipse cx="170.8" cy="146.8" rx="16.2" ry="11.7" fill="#ef7c78" stroke="#000" stroke-linecap="round" stroke-linejoin="round" stroke-width="0.71"/>
        </g>
        <g>
          <path d="M121.2,125.8h-17a4.7,4.7,0,1,0,0,9.3h17a4.7,4.7,0,0,0,0-9.3Z" stroke="#000" stroke-linecap="round" stroke-linejoin="round" stroke-width="0.71"/>
          <path d="M179.3,125.8h-17a4.7,4.7,0,1,0,0,9.3h17a4.7,4.7,0,1,0,0-9.3Z" stroke="#000" stroke-linecap="round" stroke-linejoin="round" stroke-width="0.71"/>
        </g>
      </g>
      <g>
        <path d="M112.7,143.2a3.6,3.6,0,0,0-3.7,3.6,3.7,3.7,0,1,0,7.3,0A3.6,3.6,0,0,0,112.7,143.2Z" stroke="#000" stroke-linecap="round" stroke-linejoin="round" stroke-width="0.71"/>
        <path d="M170.8,143.2a3.7,3.7,0,0,0-3.7,3.6,3.7,3.7,0,1,0,7.4,0A3.7,3.7,0,0,0,170.8,143.2Z" stroke="#000" stroke-linecap="round" stroke-linejoin="round" stroke-width="0.71"/>
      </g>
    </g>
  </g>
</svg>
