<svg xmlns="http://www.w3.org/2000/svg" viewBox="0 0 283.5 283.5"><path d="M96.8,155.7v22.7a2.6,2.6,0,0,0,2.6,2.5h0a2.6,2.6,0,0,0,2.5-2.5v-1.8a1.2,1.2,0,0,1,1.2-1.2h0a1.1,1.1,0,0,1,1.1,1.2v9.1a3.3,3.3,0,0,0,3.3,3.3h0a3.3,3.3,0,0,0,3.3-3.3v-9.6a2.1,2.1,0,0,1,2.1-2h0a2,2,0,0,1,2.1,2v6.4a2.2,2.2,0,0,0,2.1,2.2h0a2.2,2.2,0,0,0,2.2-2.2v-6.8a2.1,2.1,0,0,1,2.1-2.1h0a2.1,2.1,0,0,1,2.2,2.1v1.8a2.4,2.4,0,0,0,2.4,2.4h0a2.4,2.4,0,0,0,2.4-2.4V155.7Z" fill="#2b2b2b" stroke="#000" stroke-linecap="round" stroke-linejoin="round" stroke-width="0.71"/><path d="M186.6,155.7v22.7a2.5,2.5,0,0,1-2.5,2.5h0a2.5,2.5,0,0,1-2.5-2.5v-1.8a1.2,1.2,0,0,0-1.2-1.2h0a1.2,1.2,0,0,0-1.2,1.2v9.1a3.3,3.3,0,0,1-3.3,3.3h0a3.3,3.3,0,0,1-3.3-3.3v-9.6a2,2,0,0,0-2-2h0a2,2,0,0,0-2.1,2v6.4a2.2,2.2,0,0,1-2.2,2.2h0a2.1,2.1,0,0,1-2.1-2.2v-6.8a2.1,2.1,0,0,0-2.2-2.1h0a2.1,2.1,0,0,0-2.1,2.1v1.8a2.4,2.4,0,0,1-2.4,2.4h0a2.4,2.4,0,0,1-2.4-2.4V155.7Z" fill="#2b2b2b" stroke="#000" stroke-linecap="round" stroke-linejoin="round" stroke-width="0.71"/><path d="M106.3,152.2A17,17,0,0,1,118,136a16,16,0,0,0-5.3-.9,17.1,17.1,0,0,0,0,34.2,16,16,0,0,0,5.3-.9A17.1,17.1,0,0,1,106.3,152.2Z" stroke="#000" stroke-linecap="round" stroke-linejoin="round" stroke-width="0.71"/><ellipse cx="118" cy="152.2" rx="11.7" ry="16.2" fill="#fff" stroke="#000" stroke-linecap="round" stroke-linejoin="round" stroke-width="0.71"/><rect x="99.5" y="117.3" width="26.3" height="9.33" rx="4.7" stroke="#000" stroke-linecap="round" stroke-linejoin="round" stroke-width="0.71"/><path d="M164.5,152.2A17,17,0,0,1,176.2,136a16.1,16.1,0,0,0-5.4-.9,17.1,17.1,0,0,0,0,34.2,16.1,16.1,0,0,0,5.4-.9A17.1,17.1,0,0,1,164.5,152.2Z" stroke="#000" stroke-linecap="round" stroke-linejoin="round" stroke-width="0.71"/><ellipse cx="176.2" cy="152.2" rx="11.7" ry="16.2" fill="#fff" stroke="#000" stroke-linecap="round" stroke-linejoin="round" stroke-width="0.71"/><rect x="157.6" y="117.3" width="26.3" height="9.33" rx="4.7" stroke="#000" stroke-linecap="round" stroke-linejoin="round" stroke-width="0.71"/><circle cx="118" cy="152.2" r="6.2" fill="#75e4fc" stroke="#000" stroke-linecap="round" stroke-linejoin="round" stroke-width="0.71"/><circle cx="176.2" cy="152.2" r="6.2" fill="#75e4fc" stroke="#000" stroke-linecap="round" stroke-linejoin="round" stroke-width="0.71"/></svg>