<svg xmlns="http://www.w3.org/2000/svg" viewBox="0 0 283.5 283.5"><circle cx="175.6" cy="157.9" r="18.4" fill="#3d478c" stroke="#000" stroke-linecap="round" stroke-linejoin="round" stroke-width="0.71"/><path d="M112.7,158.5a17.2,17.2,0,0,1-16.3-11.7,19.1,19.1,0,0,0-.8,5.4,17.1,17.1,0,1,0,34.2,0,19.1,19.1,0,0,0-.9-5.4A17.2,17.2,0,0,1,112.7,158.5Z" stroke="#000" stroke-linecap="round" stroke-linejoin="round" stroke-width="0.71"/><ellipse cx="112.7" cy="146.8" rx="16.2" ry="11.7" fill="#fff" stroke="#000" stroke-linecap="round" stroke-linejoin="round" stroke-width="0.71"/><rect x="99.5" y="125.8" width="26.3" height="9.33" rx="4.7" stroke="#000" stroke-linecap="round" stroke-linejoin="round" stroke-width="0.71"/><path d="M170.8,158.5a17,17,0,0,1-16.2-11.7,16.1,16.1,0,0,0-.9,5.4,17.1,17.1,0,1,0,34.2,0,16.1,16.1,0,0,0-.9-5.4A17,17,0,0,1,170.8,158.5Z" stroke="#000" stroke-linecap="round" stroke-linejoin="round" stroke-width="0.71"/><ellipse cx="170.8" cy="146.8" rx="16.2" ry="11.7" fill="#ef7c78" stroke="#000" stroke-linecap="round" stroke-linejoin="round" stroke-width="0.71"/><rect x="157.6" y="125.8" width="26.3" height="9.33" rx="4.7" stroke="#000" stroke-linecap="round" stroke-linejoin="round" stroke-width="0.71"/><circle cx="112.7" cy="146.8" r="3.7" stroke="#000" stroke-linecap="round" stroke-linejoin="round" stroke-width="0.71"/><circle cx="170.8" cy="146.8" r="3.7" stroke="#000" stroke-linecap="round" stroke-linejoin="round" stroke-width="0.71"/></svg>