<svg xmlns="http://www.w3.org/2000/svg" viewBox="0 0 283.5 283.5"><path d="M112.7,151.6H95.6v29.5a3,3,0,0,0,3,3.1h0a3.1,3.1,0,0,0,3.1-3.1V179a1.5,1.5,0,0,1,1.5-1.5h0a1.4,1.4,0,0,1,1.4,1.5v11.1a4,4,0,0,0,4,4h0a4,4,0,0,0,4.1-4V151.6Z" fill="#2b2b2b" stroke="#000" stroke-linecap="round" stroke-linejoin="round" stroke-width="0.71"/><path d="M170.8,151.6h17.1v29.5a3.1,3.1,0,0,1-3.1,3.1h0a3,3,0,0,1-3-3.1V179a1.5,1.5,0,0,0-1.5-1.5h0a1.5,1.5,0,0,0-1.5,1.5v11.1a4,4,0,0,1-4,4h0a4,4,0,0,1-4-4V151.6Z" fill="#2b2b2b" stroke="#000" stroke-linecap="round" stroke-linejoin="round" stroke-width="0.71"/><path d="M106.3,152.2A17,17,0,0,1,118,136a16,16,0,0,0-5.3-.9,17.1,17.1,0,0,0,0,34.2,16,16,0,0,0,5.3-.9A17.1,17.1,0,0,1,106.3,152.2Z" stroke="#000" stroke-linecap="round" stroke-linejoin="round" stroke-width="0.71"/><ellipse cx="118" cy="152.2" rx="11.7" ry="16.2" fill="red" stroke="#000" stroke-linecap="round" stroke-linejoin="round" stroke-width="0.71"/><rect x="99.5" y="125.8" width="26.3" height="9.33" rx="4.7" stroke="#000" stroke-linecap="round" stroke-linejoin="round" stroke-width="0.71"/><path d="M164.5,152.2A17,17,0,0,1,176.2,136a16.1,16.1,0,0,0-5.4-.9,17.1,17.1,0,0,0,0,34.2,16.1,16.1,0,0,0,5.4-.9A17.1,17.1,0,0,1,164.5,152.2Z" stroke="#000" stroke-linecap="round" stroke-linejoin="round" stroke-width="0.71"/><ellipse cx="176.2" cy="152.2" rx="11.7" ry="16.2" fill="red" stroke="#000" stroke-linecap="round" stroke-linejoin="round" stroke-width="0.71"/><rect x="157.6" y="125.8" width="26.3" height="9.33" rx="4.7" stroke="#000" stroke-linecap="round" stroke-linejoin="round" stroke-width="0.71"/><circle cx="116.2" cy="152.2" r="4.1" stroke="#000" stroke-linecap="round" stroke-linejoin="round" stroke-width="0.71"/><circle cx="174.4" cy="152.2" r="4.1" stroke="#000" stroke-linecap="round" stroke-linejoin="round" stroke-width="0.71"/></svg>