<svg xmlns="http://www.w3.org/2000/svg" viewBox="0 0 283.5 283.5"><path d="M95.6,152.6v26.2a2.7,2.7,0,0,0,2.7,2.7h0a2.7,2.7,0,0,0,2.7-2.7v-2a1.3,1.3,0,0,1,1.3-1.3h0a1.3,1.3,0,0,1,1.3,1.3v9.9a3.6,3.6,0,0,0,3.6,3.6h0a3.6,3.6,0,0,0,3.5-3.6V176.4a2.3,2.3,0,0,1,2.3-2.3h0a2.3,2.3,0,0,1,2.3,2.3v6.9a2.3,2.3,0,0,0,2.3,2.3h0a2.3,2.3,0,0,0,2.3-2.3v-7.4a2.3,2.3,0,0,1,2.3-2.3h0a2.3,2.3,0,0,1,2.4,2.3v2a2.6,2.6,0,0,0,2.6,2.6h0a2.6,2.6,0,0,0,2.6-2.6V152.6Z" fill="#2b2b2b" stroke="#000" stroke-linecap="round" stroke-linejoin="round" stroke-width="0.71"/><path d="M187.9,152.6v26.2a2.7,2.7,0,0,1-2.7,2.7h0a2.7,2.7,0,0,1-2.7-2.7v-2a1.3,1.3,0,0,0-1.3-1.3h0a1.3,1.3,0,0,0-1.3,1.3v9.9a3.6,3.6,0,0,1-3.6,3.6h0a3.6,3.6,0,0,1-3.6-3.6V176.4a2.2,2.2,0,0,0-2.2-2.3h0a2.3,2.3,0,0,0-2.3,2.3v6.9a2.3,2.3,0,0,1-2.3,2.3h0a2.3,2.3,0,0,1-2.3-2.3v-7.4a2.3,2.3,0,0,0-2.4-2.3h0a2.3,2.3,0,0,0-2.3,2.3v2a2.6,2.6,0,0,1-2.6,2.6h0a2.6,2.6,0,0,1-2.6-2.6V152.6Z" fill="#2b2b2b" stroke="#000" stroke-linecap="round" stroke-linejoin="round" stroke-width="0.71"/><path d="M106.3,152.2A17,17,0,0,1,118,136a16,16,0,0,0-5.3-.9,17.1,17.1,0,0,0,0,34.2,16,16,0,0,0,5.3-.9A17.1,17.1,0,0,1,106.3,152.2Z" stroke="#000" stroke-linecap="round" stroke-linejoin="round" stroke-width="0.71"/><ellipse cx="118" cy="152.2" rx="11.7" ry="16.2" fill="red" stroke="#000" stroke-linecap="round" stroke-linejoin="round" stroke-width="0.71"/><rect x="99.5" y="125.8" width="26.3" height="9.33" rx="4.7" stroke="#000" stroke-linecap="round" stroke-linejoin="round" stroke-width="0.71"/><path d="M164.5,152.2A17,17,0,0,1,176.2,136a16.1,16.1,0,0,0-5.4-.9,17.1,17.1,0,0,0,0,34.2,16.1,16.1,0,0,0,5.4-.9A17.1,17.1,0,0,1,164.5,152.2Z" stroke="#000" stroke-linecap="round" stroke-linejoin="round" stroke-width="0.71"/><ellipse cx="176.2" cy="152.2" rx="11.7" ry="16.2" fill="red" stroke="#000" stroke-linecap="round" stroke-linejoin="round" stroke-width="0.71"/><rect x="157.6" y="125.8" width="26.3" height="9.33" rx="4.7" stroke="#000" stroke-linecap="round" stroke-linejoin="round" stroke-width="0.71"/><circle cx="116.2" cy="152.2" r="4.1" stroke="#000" stroke-linecap="round" stroke-linejoin="round" stroke-width="0.71"/><circle cx="174.4" cy="152.2" r="4.1" stroke="#000" stroke-linecap="round" stroke-linejoin="round" stroke-width="0.71"/></svg>