<svg xmlns="http://www.w3.org/2000/svg" viewBox="0 0 283.5 283.5"><path d="M143.8,182.3h0a5.8,5.8,0,0,1-1.1-8.2l50.6-68.8a5.8,5.8,0,0,1,8.2-1.1h0a6,6,0,0,1,1.1,8.2L152,181.2A5.8,5.8,0,0,1,143.8,182.3Z" fill="#cb5f66" stroke="#000" stroke-linecap="round" stroke-linejoin="round" stroke-width="0.71"/><path d="M113.8,178.7h0a8.3,8.3,0,0,0-5.3-11.1c-6.9-2.1-15.6-8.3-19.1-25.8,0,0-16,31.7,14.2,41.7A8.1,8.1,0,0,0,113.8,178.7Z" fill="#a6a6a6" stroke="#000" stroke-linecap="round" stroke-linejoin="round" stroke-width="0.71"/><ellipse cx="106.8" cy="151.7" rx="22.5" ry="18.5" fill="#cb5f66" stroke="#000" stroke-linecap="round" stroke-linejoin="round" stroke-width="0.71"/><path d="M106.3,152.2A17,17,0,0,1,118,136a16,16,0,0,0-5.3-.9,17.1,17.1,0,0,0,0,34.2,16,16,0,0,0,5.3-.9A17.1,17.1,0,0,1,106.3,152.2Z" stroke="#000" stroke-linecap="round" stroke-linejoin="round" stroke-width="0.71"/><ellipse cx="118" cy="152.2" rx="11.7" ry="16.2" fill="#fff" stroke="#000" stroke-linecap="round" stroke-linejoin="round" stroke-width="0.71"/><path d="M164.5,152.2A17,17,0,0,1,176.2,136a16.1,16.1,0,0,0-5.4-.9,17.1,17.1,0,0,0,0,34.2,16.1,16.1,0,0,0,5.4-.9A17.1,17.1,0,0,1,164.5,152.2Z" stroke="#000" stroke-linecap="round" stroke-linejoin="round" stroke-width="0.71"/><ellipse cx="176.2" cy="152.2" rx="11.7" ry="16.2" fill="#fff" stroke="#000" stroke-linecap="round" stroke-linejoin="round" stroke-width="0.71"/><circle cx="122.3" cy="145.4" r="3.7" stroke="#000" stroke-linecap="round" stroke-linejoin="round" stroke-width="0.71"/><circle cx="180.4" cy="145.4" r="3.7" stroke="#000" stroke-linecap="round" stroke-linejoin="round" stroke-width="0.71"/><path d="M107.8,114.7c4.8,7.4,11.8,15.2,21.8,19.8l-31.5-4.8a9.8,9.8,0,0,1-7.4-13.6h0A9.7,9.7,0,0,1,107.8,114.7Z" stroke="#000" stroke-linecap="round" stroke-linejoin="round" stroke-width="0.71"/><path d="M175.7,114.7c-4.8,7.4-11.9,15.2-21.8,19.8l31.4-4.8a9.8,9.8,0,0,0,7.5-13.6h0A9.7,9.7,0,0,0,175.7,114.7Z" stroke="#000" stroke-linecap="round" stroke-linejoin="round" stroke-width="0.71"/></svg>