<svg xmlns="http://www.w3.org/2000/svg" viewBox="0 0 283.5 283.5"><path d="M199.6,129.9c-13.9-.9-32.3-.2-45.8,7.8a20,20,0,0,1-10.4,2.8h-3.3a20.4,20.4,0,0,1-10.5-2.8c-13.4-8-31.9-8.7-45.7-7.8a21,21,0,0,0-19.6,21h0a21.3,21.3,0,0,0,12.4,19.3c23.1,10.4,43.8.7,52.6-4.6a20.7,20.7,0,0,1,10.8-3h3.2a21.1,21.1,0,0,1,10.9,3c8.7,5.3,29.5,15,52.6,4.6a21.3,21.3,0,0,0,12.4-19.3h0A21.1,21.1,0,0,0,199.6,129.9Zm6.2,38.2a49.5,49.5,0,0,1-20.3,4.4c-13.6,0-24.7-5.5-30.2-8.8a22.6,22.6,0,0,0-12-3.3h-3.2a23.1,23.1,0,0,0-12,3.3c-5.4,3.3-16.6,8.8-30.1,8.8a50.3,50.3,0,0,1-20.4-4.4,18.9,18.9,0,0,1,6.4-36l8.9-.3c14.9,0,26.8,2.7,35.6,7.8a21.9,21.9,0,0,0,11.6,3.1h3.3a22.2,22.2,0,0,0,11.6-3.1c8.7-5.1,20.7-7.8,35.6-7.8l8.8.3a18.9,18.9,0,0,1,6.4,36Z" stroke="#000" stroke-linecap="round" stroke-linejoin="round" stroke-width="0.71"/><path d="M185.5,172.5c-13.6,0-24.7-5.5-30.2-8.8a22.6,22.6,0,0,0-12-3.3h-3.2a23.1,23.1,0,0,0-12,3.3c-5.4,3.3-16.6,8.8-30.1,8.8a50.3,50.3,0,0,1-20.4-4.4,18.9,18.9,0,0,1,6.4-36l8.9-.3c14.9,0,26.8,2.7,35.6,7.8a21.9,21.9,0,0,0,11.6,3.1h3.3a22.2,22.2,0,0,0,11.6-3.1c8.7-5.1,20.7-7.8,35.6-7.8l8.8.3a18.9,18.9,0,0,1,6.4,36A49.5,49.5,0,0,1,185.5,172.5Z" fill="#1f1f1f" stroke="#000" stroke-linecap="round" stroke-linejoin="round" stroke-width="0.71"/><ellipse cx="106.8" cy="151.7" rx="22.5" ry="18.5" fill="#d95763" stroke="#000" stroke-linecap="round" stroke-linejoin="round" stroke-width="0.71"/><path d="M106.3,152.2A17,17,0,0,1,118,136a16,16,0,0,0-5.3-.9,17.1,17.1,0,0,0,0,34.2,16,16,0,0,0,5.3-.9A17.1,17.1,0,0,1,106.3,152.2Z" stroke="#000" stroke-linecap="round" stroke-linejoin="round" stroke-width="0.71"/><ellipse cx="118" cy="152.2" rx="11.7" ry="16.2" fill="#fff" stroke="#000" stroke-linecap="round" stroke-linejoin="round" stroke-width="0.71"/><rect x="99.5" y="125.8" width="26.3" height="9.33" rx="4.7" stroke="#000" stroke-linecap="round" stroke-linejoin="round" stroke-width="0.71"/><path d="M164.5,152.2A17,17,0,0,1,176.2,136a16.1,16.1,0,0,0-5.4-.9,17.1,17.1,0,0,0,0,34.2,16.1,16.1,0,0,0,5.4-.9A17.1,17.1,0,0,1,164.5,152.2Z" stroke="#000" stroke-linecap="round" stroke-linejoin="round" stroke-width="0.71"/><ellipse cx="176.2" cy="152.2" rx="11.7" ry="16.2" fill="#fff" stroke="#000" stroke-linecap="round" stroke-linejoin="round" stroke-width="0.71"/><rect x="157.6" y="125.8" width="26.3" height="9.33" rx="4.7" stroke="#000" stroke-linecap="round" stroke-linejoin="round" stroke-width="0.71"/><circle cx="118" cy="152.2" r="3.7" stroke="#000" stroke-linecap="round" stroke-linejoin="round" stroke-width="0.71"/><circle cx="176.2" cy="152.2" r="3.7" stroke="#000" stroke-linecap="round" stroke-linejoin="round" stroke-width="0.71"/></svg>