<svg id="EYES" xmlns="http://www.w3.org/2000/svg" viewBox="0 0 283.5 283.5">
  <g>
    <g>
      <g>
        <path d="M128.9,146.8a17.1,17.1,0,0,1-32.5,0,19.1,19.1,0,0,0-.8,5.4,17.1,17.1,0,1,0,34.2,0A19.1,19.1,0,0,0,128.9,146.8Z" stroke="#000" stroke-linecap="round" stroke-linejoin="round" stroke-width="0.71"/>
        <ellipse cx="112.7" cy="146.8" rx="16.2" ry="11.7" fill="#fff" stroke="#000" stroke-linecap="round" stroke-linejoin="round" stroke-width="0.71"/>
      </g>
      <rect x="99.5" y="125.8" width="26.3" height="9.33" rx="4.7" stroke="#000" stroke-linecap="round" stroke-linejoin="round" stroke-width="0.71"/>
      <g>
        <path d="M187,146.8a17.1,17.1,0,0,1-32.4,0,16.1,16.1,0,0,0-.9,5.4,17.1,17.1,0,1,0,34.2,0A16.1,16.1,0,0,0,187,146.8Z" stroke="#000" stroke-linecap="round" stroke-linejoin="round" stroke-width="0.71"/>
        <ellipse cx="170.8" cy="146.8" rx="16.2" ry="11.7" fill="#fff" stroke="#000" stroke-linecap="round" stroke-linejoin="round" stroke-width="0.71"/>
      </g>
      <rect x="157.6" y="125.8" width="26.3" height="9.33" rx="4.7" stroke="#000" stroke-linecap="round" stroke-linejoin="round" stroke-width="0.71"/>
    </g>
    <path d="M112.7,143.2a3.6,3.6,0,0,0-3.7,3.6,3.7,3.7,0,1,0,7.3,0A3.6,3.6,0,0,0,112.7,143.2Z" stroke="#000" stroke-linecap="round" stroke-linejoin="round" stroke-width="0.71"/>
    <circle cx="170.8" cy="146.8" r="3.7" stroke="#000" stroke-linecap="round" stroke-linejoin="round" stroke-width="0.71"/>
  </g>
</svg>
