<svg xmlns="http://www.w3.org/2000/svg" viewBox="0 0 283.5 283.5"><rect x="88" y="163.4" width="31.4" height="10.46" rx="5.2" fill="#fff" stroke="#000" stroke-linecap="round" stroke-linejoin="round" stroke-width="0.71"/><rect x="155.1" y="164" width="31.4" height="10.46" rx="5.2" transform="translate(1.5 340.1) rotate(-90)" stroke="#000" stroke-linecap="round" stroke-linejoin="round" stroke-width="0.71"/><path d="M112.7,145.8a17.2,17.2,0,0,1,16.2,11.8,19.1,19.1,0,0,0,.9-5.4,17.1,17.1,0,0,0-34.2,0,19.1,19.1,0,0,0,.8,5.4A17.3,17.3,0,0,1,112.7,145.8Z" stroke="#000" stroke-linecap="round" stroke-linejoin="round" stroke-width="0.71"/><ellipse cx="112.7" cy="157.6" rx="16.2" ry="11.7" fill="#fff" stroke="#000" stroke-linecap="round" stroke-linejoin="round" stroke-width="0.71"/><path d="M92.4,129h0a7.5,7.5,0,0,0,7.1,2.1c6.7-1.6,20.2-2.7,30.3,11.3,0,0-2-30.5-33.2-25.6A7.4,7.4,0,0,0,92.4,129Z" stroke="#000" stroke-linecap="round" stroke-linejoin="round" stroke-width="0.71"/><circle cx="112.7" cy="157.6" r="4.7" stroke="#000" stroke-linecap="round" stroke-linejoin="round" stroke-width="0.71"/><path d="M170.8,145.8a17.1,17.1,0,0,0-16.2,11.8,16.1,16.1,0,0,1-.9-5.4,17.1,17.1,0,1,1,34.2,0,16.1,16.1,0,0,1-.9,5.4A17.1,17.1,0,0,0,170.8,145.8Z" stroke="#000" stroke-linecap="round" stroke-linejoin="round" stroke-width="0.71"/><ellipse cx="170.8" cy="157.6" rx="16.2" ry="11.7" fill="#fff" stroke="#000" stroke-linecap="round" stroke-linejoin="round" stroke-width="0.71"/><path d="M191,129h0a7.5,7.5,0,0,1-7.1,2.1c-6.6-1.6-20.1-2.7-30.2,11.3,0,0,1.9-30.5,33.1-25.6A7.3,7.3,0,0,1,191,129Z" stroke="#000" stroke-linecap="round" stroke-linejoin="round" stroke-width="0.71"/><circle cx="170.8" cy="157.6" r="4.7" stroke="#000" stroke-linecap="round" stroke-linejoin="round" stroke-width="0.71"/></svg>