<svg xmlns="http://www.w3.org/2000/svg" viewBox="0 0 283.5 283.5"><ellipse cx="172.4" cy="152.2" rx="24.6" ry="18.1" fill="#728490" stroke="#000" stroke-linecap="round" stroke-linejoin="round" stroke-width="0.71"/><path d="M166.7,152.2a15.4,15.4,0,0,1,10.5-14.6,15.1,15.1,0,0,0-4.8-.8,15.4,15.4,0,0,0,0,30.8,15.1,15.1,0,0,0,4.8-.8A15.4,15.4,0,0,1,166.7,152.2Z" stroke="#000" stroke-linecap="round" stroke-linejoin="round" stroke-width="0.71"/><ellipse cx="177.2" cy="152.2" rx="10.6" ry="14.6" fill="#505050" stroke="#000" stroke-linecap="round" stroke-linejoin="round" stroke-width="0.71"/><ellipse cx="111.1" cy="152.2" rx="24.6" ry="18.1" fill="#728490" stroke="#000" stroke-linecap="round" stroke-linejoin="round" stroke-width="0.71"/><path d="M105.3,152.2a15.4,15.4,0,0,1,10.6-14.6,15.1,15.1,0,0,0-4.8-.8,15.4,15.4,0,0,0,0,30.8,15.1,15.1,0,0,0,4.8-.8A15.4,15.4,0,0,1,105.3,152.2Z" stroke="#000" stroke-linecap="round" stroke-linejoin="round" stroke-width="0.71"/><ellipse cx="115.9" cy="152.2" rx="10.6" ry="14.6" fill="#fff" stroke="#000" stroke-linecap="round" stroke-linejoin="round" stroke-width="0.71"/><path d="M135.1,148.5H87a13.9,13.9,0,0,0,0,7.4h48.1a13.9,13.9,0,0,0,0-7.4Z" fill="#ff0" stroke="#000" stroke-linecap="round" stroke-linejoin="round" stroke-width="0.71"/></svg>