<svg id="EYES" xmlns="http://www.w3.org/2000/svg" viewBox="0 0 283.5 283.5">
  <g>
    <path d="M96.4,153.2v29.6a2.9,2.9,0,0,0,3,3,3,3,0,0,0,3.1-3v-2.2a1.5,1.5,0,0,1,1.5-1.5,1.5,1.5,0,0,1,1.4,1.5v11.1a4,4,0,1,0,8,0V153.2Z" fill="#2b2b2b" stroke="#000" stroke-linecap="round" stroke-linejoin="round" stroke-width="0.71"/>
    <path d="M110.7,139.8c-11.6,0-21,6.8-21,15.2s9.4,15.1,21,15.1,21.1-6.8,21.1-15.1S122.4,139.8,110.7,139.8Z" fill="#cb5f66" stroke="#000" stroke-linecap="round" stroke-linejoin="round" stroke-width="0.71"/>
    <path d="M170,153.2v38.5a4,4,0,0,0,4,4.1h0a4.1,4.1,0,0,0,4.1-4.1V180.6a1.5,1.5,0,0,1,1.4-1.5,1.5,1.5,0,0,1,1.5,1.5v2.2a2.9,2.9,0,0,0,3,3,3,3,0,0,0,3.1-3V153.2Z" fill="#2b2b2b" stroke="#000" stroke-linecap="round" stroke-linejoin="round" stroke-width="0.71"/>
    <g>
      <path d="M104.9,154.3c0-5.2,6.1-9.5,14.4-10.7a31.9,31.9,0,0,0-4.5-.3c-10.4,0-18.9,4.9-18.9,11s8.5,11,18.9,11a31.9,31.9,0,0,0,4.5-.3C111,163.8,104.9,159.5,104.9,154.3Z" stroke="#000" stroke-linecap="round" stroke-linejoin="round" stroke-width="0.71"/>
      <path d="M119.3,143.6c-8.3,1.2-14.4,5.5-14.4,10.7s6.1,9.5,14.4,10.7c8.3-1.2,14.4-5.5,14.4-10.7S127.6,144.8,119.3,143.6Z" fill="#fff" stroke="#000" stroke-linecap="round" stroke-linejoin="round" stroke-width="0.71"/>
    </g>
    <path d="M128.8,128.4H103.1a5,5,0,0,0,0,9.9h25.7a5,5,0,0,0,0-9.9Z" stroke="#000" stroke-linecap="round" stroke-linejoin="round" stroke-width="0.71"/>
    <g>
      <path d="M158.7,154.3c0-5.2,6.2-9.5,14.4-10.7a31.9,31.9,0,0,0-4.5-.3c-10.4,0-18.9,4.9-18.9,11s8.5,11,18.9,11a31.9,31.9,0,0,0,4.5-.3C164.9,163.8,158.7,159.5,158.7,154.3Z" stroke="#000" stroke-linecap="round" stroke-linejoin="round" stroke-width="0.71"/>
      <path d="M173.1,143.6c-8.2,1.2-14.4,5.5-14.4,10.7s6.2,9.5,14.4,10.7c8.3-1.2,14.5-5.5,14.5-10.7S181.4,144.8,173.1,143.6Z" fill="#fff" stroke="#000" stroke-linecap="round" stroke-linejoin="round" stroke-width="0.71"/>
    </g>
    <path d="M182.6,128.4H156.9a5,5,0,0,0,0,9.9h25.7a5,5,0,1,0,0-9.9Z" stroke="#000" stroke-linecap="round" stroke-linejoin="round" stroke-width="0.71"/>
    <path d="M119.3,150.6a3.7,3.7,0,0,0-3.6,3.7,3.6,3.6,0,0,0,3.6,3.6,3.7,3.7,0,0,0,3.7-3.6A3.8,3.8,0,0,0,119.3,150.6Z" stroke="#000" stroke-linecap="round" stroke-linejoin="round" stroke-width="0.71"/>
    <path d="M173.1,150.6a3.7,3.7,0,0,0-3.6,3.7,3.6,3.6,0,0,0,3.6,3.6,3.7,3.7,0,0,0,3.7-3.6A3.8,3.8,0,0,0,173.1,150.6Z" stroke="#000" stroke-linecap="round" stroke-linejoin="round" stroke-width="0.71"/>
  </g>
</svg>
