<svg xmlns="http://www.w3.org/2000/svg" viewBox="0 0 283.5 283.5"><path d="M106.3,152.2A17,17,0,0,1,118,136a16,16,0,0,0-5.3-.9,17.1,17.1,0,0,0,0,34.2,16,16,0,0,0,5.3-.9A17.1,17.1,0,0,1,106.3,152.2Z" stroke="#000" stroke-linecap="round" stroke-linejoin="round" stroke-width="0.71"/><ellipse cx="118" cy="152.2" rx="11.7" ry="16.2" fill="#74ebfc" stroke="#000" stroke-linecap="round" stroke-linejoin="round" stroke-width="0.71"/><path d="M164.5,152.2A17,17,0,0,1,176.2,136a16.1,16.1,0,0,0-5.4-.9,17.1,17.1,0,0,0,0,34.2,16.1,16.1,0,0,0,5.4-.9A17.1,17.1,0,0,1,164.5,152.2Z" stroke="#000" stroke-linecap="round" stroke-linejoin="round" stroke-width="0.71"/><ellipse cx="176.2" cy="152.2" rx="11.7" ry="16.2" fill="#74ebfc" stroke="#000" stroke-linecap="round" stroke-linejoin="round" stroke-width="0.71"/><path d="M141.7,248.6c-17.8,0-31.8-7.1-41.6-21C91.9,216,88.5,201.7,87,191.8a9.1,9.1,0,0,1,2.2-7.4,9.4,9.4,0,0,1,14-.3c7.8,8.5,20.9,18.6,38.5,18.6s30.8-10.1,38.6-18.6a9.3,9.3,0,0,1,6.8-3,9.4,9.4,0,0,1,7.2,3.3,9.1,9.1,0,0,1,2.1,7.4c-1.4,9.9-4.8,24.2-13,35.8C173.6,241.5,159.6,248.6,141.7,248.6Z" fill="#4c676b" stroke="#000" stroke-linecap="round" stroke-linejoin="round" stroke-width="0.71"/><path d="M191.4,191.1a4.3,4.3,0,0,0-7.4-3.5c-8.3,9-22.6,20.2-42.3,20.2s-34-11.2-42.3-20.2a4.2,4.2,0,0,0-7.3,3.5c2.8,19.7,13.1,52.4,49.6,52.4S188.6,210.8,191.4,191.1Z" fill="#74ebfc" stroke="#000" stroke-linecap="round" stroke-linejoin="round" stroke-width="0.71"/><path d="M141.3,220.4c26.4,0,39.1-17.1,45.2-34a4.1,4.1,0,0,0-2.4,1.3c-8.3,9-22.6,20.2-42.3,20.2s-34-11.2-42.3-20.2a4.2,4.2,0,0,0-3.4-1.3C102.2,203.3,114.9,220.4,141.3,220.4Z" fill="#fff" stroke="#000" stroke-linecap="round" stroke-linejoin="round" stroke-width="0.71"/></svg>