<svg xmlns="http://www.w3.org/2000/svg" viewBox="0 0 283.5 283.5"><path d="M118,151.6H95.6v38.8a4,4,0,0,0,4,4.1h0a4,4,0,0,0,4-4.1v-2.8a2,2,0,0,1,2-2h0a2,2,0,0,1,1.9,2v14.6a5.2,5.2,0,0,0,5.3,5.3h0a5.2,5.2,0,0,0,5.2-5.3V151.6Z" fill="#cb5f66" stroke="#000" stroke-linecap="round" stroke-linejoin="round" stroke-width="0.71"/><path d="M106.3,152.2A17,17,0,0,1,118,136a16,16,0,0,0-5.3-.9,17.1,17.1,0,0,0,0,34.2,16,16,0,0,0,5.3-.9A17.1,17.1,0,0,1,106.3,152.2Z" stroke="#000" stroke-linecap="round" stroke-linejoin="round" stroke-width="0.71"/><ellipse cx="118" cy="152.2" rx="11.7" ry="16.2" fill="#fff" stroke="#000" stroke-linecap="round" stroke-linejoin="round" stroke-width="0.71"/><rect x="99.5" y="117.3" width="26.3" height="9.33" rx="4.7" stroke="#000" stroke-linecap="round" stroke-linejoin="round" stroke-width="0.71"/><path d="M164.5,152.2A17,17,0,0,1,176.2,136a16.1,16.1,0,0,0-5.4-.9,17.1,17.1,0,0,0,0,34.2,16.1,16.1,0,0,0,5.4-.9A17.1,17.1,0,0,1,164.5,152.2Z" stroke="#000" stroke-linecap="round" stroke-linejoin="round" stroke-width="0.71"/><ellipse cx="176.2" cy="152.2" rx="11.7" ry="16.2" fill="#fff" stroke="#000" stroke-linecap="round" stroke-linejoin="round" stroke-width="0.71"/><rect x="157.6" y="117.3" width="26.3" height="9.33" rx="4.7" stroke="#000" stroke-linecap="round" stroke-linejoin="round" stroke-width="0.71"/><circle cx="118" cy="152.2" r="6.2" stroke="#000" stroke-linecap="round" stroke-linejoin="round" stroke-width="0.71"/><circle cx="176.2" cy="152.2" r="6.2" stroke="#000" stroke-linecap="round" stroke-linejoin="round" stroke-width="0.71"/></svg>