<svg xmlns="http://www.w3.org/2000/svg" viewBox="0 0 283.5 283.5"><path d="M113.8,178.7h0a8.3,8.3,0,0,0-5.3-11.1c-6.9-2.1-15.6-8.3-19.1-25.8,0,0-16,31.7,14.2,41.7A8.1,8.1,0,0,0,113.8,178.7Z" fill="#a6a6a6" stroke="#000" stroke-linecap="round" stroke-linejoin="round" stroke-width="0.71"/><path d="M130.4,142h0a7.3,7.3,0,0,1-7-2.6c-4.3-5.2-14.5-14.2-31-9,0,0,19.8-23.3,41.9-.7A7.3,7.3,0,0,1,130.4,142Z" stroke="#000" stroke-linecap="round" stroke-linejoin="round" stroke-width="0.71"/><path d="M153.1,142h0a7.1,7.1,0,0,0,6.9-2.6c4.4-5.2,14.6-14.2,31-9,0,0-19.8-23.3-41.8-.7A7.3,7.3,0,0,0,153.1,142Z" stroke="#000" stroke-linecap="round" stroke-linejoin="round" stroke-width="0.71"/><path d="M106.3,152.2A17,17,0,0,1,118,136a16,16,0,0,0-5.3-.9,17.1,17.1,0,0,0,0,34.2,16,16,0,0,0,5.3-.9A17.1,17.1,0,0,1,106.3,152.2Z" stroke="#000" stroke-linecap="round" stroke-linejoin="round" stroke-width="0.71"/><ellipse cx="118" cy="152.2" rx="11.7" ry="16.2" fill="#fff" stroke="#000" stroke-linecap="round" stroke-linejoin="round" stroke-width="0.71"/><path d="M164.5,152.2A17,17,0,0,1,176.2,136a16.1,16.1,0,0,0-5.4-.9,17.1,17.1,0,0,0,0,34.2,16.1,16.1,0,0,0,5.4-.9A17.1,17.1,0,0,1,164.5,152.2Z" stroke="#000" stroke-linecap="round" stroke-linejoin="round" stroke-width="0.71"/><ellipse cx="176.2" cy="152.2" rx="11.7" ry="16.2" fill="#fff" stroke="#000" stroke-linecap="round" stroke-linejoin="round" stroke-width="0.71"/><circle cx="118" cy="145.9" r="5.6" stroke="#000" stroke-linecap="round" stroke-linejoin="round" stroke-width="0.71"/><circle cx="176.2" cy="145.9" r="5.6" stroke="#000" stroke-linecap="round" stroke-linejoin="round" stroke-width="0.71"/></svg>