<svg xmlns="http://www.w3.org/2000/svg" viewBox="0 0 283.5 283.5"><path d="M113.4,153.2h-17v29.6a2.9,2.9,0,0,0,3,3h0a3,3,0,0,0,3.1-3v-2.2a1.5,1.5,0,0,1,1.5-1.5h0a1.5,1.5,0,0,1,1.4,1.5v11.1a4,4,0,0,0,4,4.1h0a4,4,0,0,0,4-4.1V153.2Z" fill="#2b2b2b" stroke="#000" stroke-linecap="round" stroke-linejoin="round" stroke-width="0.71"/><ellipse cx="110.7" cy="155" rx="21.1" ry="15.2" fill="#cb5f66" stroke="#000" stroke-linecap="round" stroke-linejoin="round" stroke-width="0.71"/><path d="M170,153.2h17.1v29.6a3,3,0,0,1-3.1,3h0a2.9,2.9,0,0,1-3-3v-2.2a1.5,1.5,0,0,0-1.5-1.5h0a1.5,1.5,0,0,0-1.4,1.5v11.1a4.1,4.1,0,0,1-4.1,4.1h0a4,4,0,0,1-4-4.1V153.2Z" fill="#2b2b2b" stroke="#000" stroke-linecap="round" stroke-linejoin="round" stroke-width="0.71"/><path d="M104.9,154.3c0-5.2,6.1-9.5,14.4-10.7a31.9,31.9,0,0,0-4.5-.3c-10.4,0-18.9,4.9-18.9,11s8.5,11,18.9,11a31.9,31.9,0,0,0,4.5-.3C111,163.8,104.9,159.5,104.9,154.3Z" stroke="#000" stroke-linecap="round" stroke-linejoin="round" stroke-width="0.71"/><path d="M133.7,154.3c0-5.2-6.1-9.5-14.4-10.7-8.3,1.2-14.4,5.5-14.4,10.7s6.1,9.5,14.4,10.7C127.6,163.8,133.7,159.5,133.7,154.3Z" fill="#fff" stroke="#000" stroke-linecap="round" stroke-linejoin="round" stroke-width="0.71"/><rect x="98.2" y="128.4" width="35.6" height="9.91" rx="5" stroke="#000" stroke-linecap="round" stroke-linejoin="round" stroke-width="0.71"/><path d="M158.7,154.3c0-5.2,6.2-9.5,14.4-10.7a31.9,31.9,0,0,0-4.5-.3c-10.4,0-18.9,4.9-18.9,11s8.5,11,18.9,11a31.9,31.9,0,0,0,4.5-.3C164.9,163.8,158.7,159.5,158.7,154.3Z" stroke="#000" stroke-linecap="round" stroke-linejoin="round" stroke-width="0.71"/><path d="M187.6,154.3c0-5.2-6.2-9.5-14.5-10.7-8.2,1.2-14.4,5.5-14.4,10.7s6.2,9.5,14.4,10.7C181.4,163.8,187.6,159.5,187.6,154.3Z" fill="#fff" stroke="#000" stroke-linecap="round" stroke-linejoin="round" stroke-width="0.71"/><rect x="152" y="128.4" width="35.6" height="9.91" rx="5" stroke="#000" stroke-linecap="round" stroke-linejoin="round" stroke-width="0.71"/><circle cx="119.3" cy="154.3" r="3.7" stroke="#000" stroke-linecap="round" stroke-linejoin="round" stroke-width="0.71"/><circle cx="173.1" cy="154.3" r="3.7" stroke="#000" stroke-linecap="round" stroke-linejoin="round" stroke-width="0.71"/></svg>