<svg id="EYES" xmlns="http://www.w3.org/2000/svg" viewBox="0 0 283.5 283.5">
  <g>
    <g>
      <g>
        <g>
          <path d="M104.9,154.3c0-5.2,6.1-9.5,14.4-10.7a31.9,31.9,0,0,0-4.5-.3c-10.4,0-18.9,4.9-18.9,11s8.5,11,18.9,11a31.9,31.9,0,0,0,4.5-.3C111,163.8,104.9,159.5,104.9,154.3Z" stroke="#000" stroke-linecap="round" stroke-linejoin="round" stroke-width="0.71"/>
          <path d="M119.3,143.6c-8.3,1.2-14.4,5.5-14.4,10.7s6.1,9.5,14.4,10.7c8.3-1.2,14.4-5.5,14.4-10.7S127.6,144.8,119.3,143.6Z" fill="#fff" stroke="#000" stroke-linecap="round" stroke-linejoin="round" stroke-width="0.71"/>
        </g>
        <g>
          <path d="M158.7,154.3c0-5.2,6.2-9.5,14.4-10.7a31.9,31.9,0,0,0-4.5-.3c-10.4,0-18.9,4.9-18.9,11s8.5,11,18.9,11a31.9,31.9,0,0,0,4.5-.3C164.9,163.8,158.7,159.5,158.7,154.3Z" stroke="#000" stroke-linecap="round" stroke-linejoin="round" stroke-width="0.71"/>
          <path d="M173.1,143.6c-8.2,1.2-14.4,5.5-14.4,10.7s6.2,9.5,14.4,10.7c8.3-1.2,14.5-5.5,14.5-10.7S181.4,144.8,173.1,143.6Z" fill="#fff" stroke="#000" stroke-linecap="round" stroke-linejoin="round" stroke-width="0.71"/>
        </g>
        <path d="M96.6,116.8A7.4,7.4,0,0,0,92.4,129h0a7.5,7.5,0,0,0,7.1,2.1c6.7-1.6,20.2-2.7,30.3,11.3C129.8,142.4,127.8,111.9,96.6,116.8Z" stroke="#000" stroke-linecap="round" stroke-linejoin="round" stroke-width="0.71"/>
        <path d="M186.8,116.8c-31.2-4.9-33.1,25.6-33.1,25.6,10.1-14,23.6-12.9,30.2-11.3A7.5,7.5,0,0,0,191,129h0A7.3,7.3,0,0,0,186.8,116.8Z" stroke="#000" stroke-linecap="round" stroke-linejoin="round" stroke-width="0.71"/>
      </g>
      <path d="M119.3,150.6a3.7,3.7,0,0,0-3.6,3.7,3.6,3.6,0,0,0,3.6,3.6,3.7,3.7,0,0,0,3.7-3.6A3.8,3.8,0,0,0,119.3,150.6Z" stroke="#000" stroke-linecap="round" stroke-linejoin="round" stroke-width="0.71"/>
      <path d="M173.1,150.6a3.7,3.7,0,0,0-3.6,3.7,3.6,3.6,0,0,0,3.6,3.6,3.7,3.7,0,0,0,3.7-3.6A3.8,3.8,0,0,0,173.1,150.6Z" stroke="#000" stroke-linecap="round" stroke-linejoin="round" stroke-width="0.71"/>
    </g>
    <path d="M109.4,97.1c14.6,0,12,11.3,28.9,8.6s23-15.4,35.7-4.1" fill="none" stroke="#000" stroke-linecap="round" stroke-linejoin="round" stroke-width="0.71"/>
    <path d="M122,112.1c8.9,0,7.3,6.9,17.6,5.2s14-9.4,21.8-2.5" fill="none" stroke="#000" stroke-linecap="round" stroke-linejoin="round" stroke-width="0.71"/>
  </g>
</svg>
