<svg xmlns="http://www.w3.org/2000/svg" viewBox="0 0 283.5 283.5"><g style="isolation:isolate"><path d="M219.1,144.8a9.7,9.7,0,0,1-.1-1.7,17,17,0,0,0,.1,2.2Z" fill="none"/><path d="M218.8,140.1v-.6c0-.5-.1-1-.1-1.5s.1,1.6.1,2.4Z" fill="none"/><path d="M218.4,134.9a1.3,1.3,0,0,0-.1-.6,4.9,4.9,0,0,0-.1-1.2l.3,2.5A1.7,1.7,0,0,1,218.4,134.9Z" fill="none"/><path d="M217.1,124.6c-.1-.1-.1-.2-.1-.4a4.3,4.3,0,0,1-.1-.5c.1.8.3,1.5.4,2.3A6.8,6.8,0,0,1,217.1,124.6Z" fill="none"/><path d="M217.8,129.7a1.1,1.1,0,0,0-.1-.5,2.2,2.2,0,0,0-.1-.8l.3,2.4A4.1,4.1,0,0,0,217.8,129.7Z" fill="none"/><path d="M216.1,119.6h0a.6.6,0,0,0-.1-.4,15.5,15.5,0,0,1,.4,2.1Z" fill="none"/><path d="M215,114.5c.1.5.3,1,.4,1.5S215.1,115,215,114.5Z" fill="none"/><path d="M215.4,116l.6,3.1Z" fill="#1d1d1d" stroke="#000" stroke-miterlimit="10" stroke-width="0.71"/><path d="M217.9,130.8l.3,2.3Z" fill="#1d1d1d" stroke="#000" stroke-miterlimit="10" stroke-width="0.71"/><path d="M216.4,121.2a22.1,22.1,0,0,1,.5,2.5A22.1,22.1,0,0,0,216.4,121.2Z" fill="#1d1d1d" stroke="#000" stroke-miterlimit="10" stroke-width="0.71"/><path d="M217.3,126l.3,2.4Z" fill="#1d1d1d" stroke="#000" stroke-miterlimit="10" stroke-width="0.71"/><path d="M218.5,135.6a19.4,19.4,0,0,0,.2,2.4A19.4,19.4,0,0,1,218.5,135.6Z" fill="#1d1d1d" stroke="#000" stroke-miterlimit="10" stroke-width="0.71"/><path d="M215,186.5a147.2,147.2,0,0,0,4.1-41.2c0,1.6.1,3.3.1,5,0-1.7-.1-3.4-.1-5a17,17,0,0,1-.1-2.2c-.1-.9-.1-1.8-.2-2.7s-.1-1.6-.1-2.4a19.4,19.4,0,0,1-.2-2.4l-.3-2.5-.3-2.3-.3-2.4-.3-2.4c-.1-.8-.3-1.5-.4-2.3a22.1,22.1,0,0,0-.5-2.5,15.5,15.5,0,0,0-.4-2.1l-.6-3.1c-.1-.5-.3-1-.4-1.5s-.7-3-1.1-4.5h0c-.1.3-.1.6-.2,1s-28-13.1-38.9-29.5a21.5,21.5,0,0,0-14-9.1,82.7,82.7,0,0,1-8.3-1.9v-30a55.6,55.6,0,0,0-21.5,0v30a82.7,82.7,0,0,1-8.3,1.9,21.3,21.3,0,0,0-14,9.1C97.8,97.9,69.8,111,69.8,111s-.1-.7-.2-1c-7.1,24.3-7,51.7-.9,76.5,20.5-2.6,31.5,10.3,11.1,29.9,13.3,26.1,34.7,44.4,61.9,44.7,25.3.4,47.8-17.7,62-44.7C183.2,196.7,194.3,183.8,215,186.5ZM67.3,119.6c-.3,1.5-.6,3.1-.8,4.6a.8.8,0,0,0-.1.4c-.3,1.5-.5,3.1-.7,4.6a.7.7,0,0,1-.1.5c-.2,1.5-.3,3.1-.5,4.6v.6c-.2,1.5-.3,3.1-.4,4.6a1.3,1.3,0,0,1-.1.6c-.1,1.6-.1,3.2-.2,4.7v.5c-.1,1.6-.1,3.3-.1,5,0-1.7,0-3.4.1-5v-.5c.1-1.5.1-3.1.2-4.7a1.3,1.3,0,0,0,.1-.6c.1-1.5.2-3.1.4-4.6v-.6c.2-1.5.3-3.1.5-4.6a.7.7,0,0,0,.1-.5c.2-1.5.4-3.1.7-4.6a.8.8,0,0,1,.1-.4c.2-1.5.5-3.1.8-4.6h0Z" fill="#1d1d1d" stroke="#000" stroke-miterlimit="10" stroke-width="0.71"/><path d="M218.8,140.4c.1.9.1,1.8.2,2.7C218.9,142.2,218.9,141.3,218.8,140.4Z" fill="#1d1d1d" stroke="#000" stroke-miterlimit="10" stroke-width="0.71"/><path d="M215,114.5c-.3-1.5-.7-3-1.1-4.5h0C214.3,111.5,214.7,113,215,114.5Z" fill="#1d1d1d" stroke="#000" stroke-miterlimit="10" stroke-width="0.71"/><circle cx="103.6" cy="144.7" r="23.9" fill="#262626" style="mix-blend-mode:multiply"/><path d="M183,230.9c-5.1-11.4-17.3-31-41.3-31s-36.2,19.6-41.3,31a27.8,27.8,0,0,0-.7,21c9.1,23.2,42,21.2,42,21.2s33,2,42-21.2A26.9,26.9,0,0,0,183,230.9Z" fill="#95a294" stroke="#000" stroke-linecap="round" stroke-linejoin="round" stroke-width="0.71"/><circle cx="112.4" cy="135.9" r="25" fill="#5b5b5b" stroke="#000" stroke-linecap="round" stroke-linejoin="round" stroke-width="0.71"/><circle cx="107.5" cy="140.9" r="20" fill="#878787" stroke="#000" stroke-linecap="round" stroke-linejoin="round" stroke-width="0.71"/><circle cx="171.1" cy="135.9" r="25" fill="#5b5b5b" stroke="#000" stroke-linecap="round" stroke-linejoin="round" stroke-width="0.71"/><circle cx="179.8" cy="144.7" r="23.9" fill="#262626" style="mix-blend-mode:multiply"/><circle cx="176" cy="140.9" r="20" fill="#878787" stroke="#000" stroke-linecap="round" stroke-linejoin="round" stroke-width="0.71"/><circle cx="141.7" cy="246.4" r="10.5" fill="#212121" stroke="#000" stroke-linecap="round" stroke-linejoin="round" stroke-width="0.71"/><path d="M152.2,190.6c3.4-13.1,1.3-25.3-10.5-25.3s-13.9,12.2-10.5,25.3c-35.6,4.1-39.1,32.9-39,44.7,1.9,2.2,3.8,4.3,5.8,6.3a28.3,28.3,0,0,1,2.4-10.7c5.1-11.4,17.4-31,41.3-31s36.2,19.6,41.3,31a28.4,28.4,0,0,1,2.5,10.7q3-3,5.7-6.3C191.3,223.5,187.9,194.7,152.2,190.6Z" fill="#363636" stroke="#000" stroke-linecap="round" stroke-linejoin="round" stroke-width="0.71"/><path d="M146.6,238.7a12.6,12.6,0,0,1,2.7.4,10.5,10.5,0,1,0-10.2,17.4,10.3,10.3,0,0,1-3-7.3A10.5,10.5,0,0,1,146.6,238.7Z" fill="#212121" stroke="#000" stroke-linecap="round" stroke-linejoin="round" stroke-width="0.71" style="mix-blend-mode:multiply"/><path d="M97.3,145.9a20.1,20.1,0,0,1,20-20,25.8,25.8,0,0,1,3.9.4,19.9,19.9,0,0,0-13.7-5.5,20,20,0,0,0-3.9,39.7A19.8,19.8,0,0,1,97.3,145.9Z"/><path d="M165.8,145.9a20.1,20.1,0,0,1,20.1-20,23.3,23.3,0,0,1,3.8.4,20,20,0,1,0-17.6,34.2A20.1,20.1,0,0,1,165.8,145.9Z"/><path d="M137.4,135.9a25,25,0,0,0-44-16.2,25.2,25.2,0,0,1,14.1-4.3,25,25,0,0,1,24.9,25,24.7,24.7,0,0,1-6,16.2A25.1,25.1,0,0,0,137.4,135.9Z"/><path d="M146.1,135.9A25,25,0,0,1,190,119.7a25,25,0,0,0-39,20.7,25.3,25.3,0,0,0,6,16.2A25,25,0,0,1,146.1,135.9Z"/><path d="M182.3,244.1c-8.7,22.4-40.6,20.5-40.6,20.5s-31.8,1.9-40.5-20.5a22.1,22.1,0,0,1-1.5-5.6,25.2,25.2,0,0,0,1.5,13c8.7,22.4,40.5,20.5,40.5,20.5s31.9,1.9,40.6-20.5a26.3,26.3,0,0,0,1.5-13A27.3,27.3,0,0,1,182.3,244.1Z" fill="#d0d6d0"/><path d="M141.7,170.8c7,0,10.7,3.9,12,9.7.1-8.7-3.3-15.2-12-15.2s-12,6.5-11.9,15.2C131,174.7,134.8,170.8,141.7,170.8Z"/><path d="M189.2,219.9c-3.4-12.2-12.5-25.9-35.4-29.1a48.2,48.2,0,0,1-1.1,5.2C174.2,198.4,184.4,209.1,189.2,219.9Z"/><path d="M130.8,196a32.1,32.1,0,0,1-1.1-5.2c-23,3.2-32,16.9-35.5,29.1C99,209.1,109.3,198.4,130.8,196Z"/><path d="M184.5,247.2a24.4,24.4,0,0,0-1-2.4c-5.2-11.7-17.5-31.3-41.8-31.3s-36.6,19.6-41.8,31.3l-.9,2.4a27.2,27.2,0,0,1,2-16.1c5.1-11.4,17.1-30.6,40.7-30.6s35.7,19.2,40.8,30.6A27.2,27.2,0,0,1,184.5,247.2Z" fill="#6e776d"/></g></svg>