<svg xmlns="http://www.w3.org/2000/svg" viewBox="0 0 283.5 283.5"><path d="M142.1,39.4l72.5,74.7C204.2,70.9,175.7,39.8,142.1,39.4Z" fill="#fff" stroke="#000" stroke-linecap="round" stroke-linejoin="round" stroke-width="0.71"/><path d="M214.6,114.1,142.1,39.4c-24.3-7.3-36.7,12.8-36.7,12.8L217.9,167.9C226.7,149.5,221.8,121,214.6,114.1Z" fill="#fff" stroke="#000" stroke-linecap="round" stroke-linejoin="round" stroke-width="0.71"/><path d="M217.9,167.9,105.4,52.2c-24.8,3-23.2,26.6-23.2,26.6l125.4,129C210.8,210.7,223.9,183,217.9,167.9Z" fill="#fff" stroke="#000" stroke-linecap="round" stroke-linejoin="round" stroke-width="0.71"/><path d="M141.4,261.1c26.4,0,49.7-18.9,63.7-47.7L126.4,259A54.3,54.3,0,0,0,141.4,261.1Z" fill="#fff" stroke="#000" stroke-linecap="round" stroke-linejoin="round" stroke-width="0.71"/><path d="M154.1,152.8,72.3,200.2s-1.4,17.7,11.2,23.6L172.8,172Z" fill="#fff" stroke="#000" stroke-linecap="round" stroke-linejoin="round" stroke-width="0.71"/><path d="M172.8,172,83.5,223.8c2.2,17.5,16.7,20.3,16.7,20.3l91.3-52.9Z" fill="#fff" stroke="#000" stroke-linecap="round" stroke-linejoin="round" stroke-width="0.71"/><path d="M191.5,191.2l-91.3,52.9c7.2,18.1,26.2,14.9,26.2,14.9l78.7-45.6c.9-1.8,1.7-3.7,2.5-5.6Z" fill="#fff" stroke="#000" stroke-linecap="round" stroke-linejoin="round" stroke-width="0.71"/><path d="M82.2,78.8c-17.6,7.7-26.6,44.5,0,44.5h43.3Z" fill="#fff" stroke="#000" stroke-linecap="round" stroke-linejoin="round" stroke-width="0.71"/><path d="M82.2,122.7c-8.6,0-14.2-4.1-15.8-11.5-2.3-11.4,5.4-26.9,15.7-31.7l2.5,2.6c-7.1,8.9-9.7,21.5-6,29.4,1.9,3.9,6.1,8.5,15.6,8.5h27.3l2.6,2.7Z" fill="#bbb"/><path d="M208.2,207.4H208L82.8,78.6c-.1-2.4-.3-22.9,22.4-25.8l4.4,4.5c-14,7.4-13,24-13,24.1v.2L212.8,201.2c-2.2,4.5-4,6.2-4.6,6.2Z" fill="#bbb"/><path d="M106.1,52.1c1.5-2.2,10.2-13.7,25.5-13.7a36.7,36.7,0,0,1,9.7,1.4,34.2,34.2,0,0,0-19.2,13.7l-.3.4,99.2,102a45.6,45.6,0,0,1-3.3,11Z" fill="#bbb"/><path d="M205.2,103.6C194.3,69.9,172.1,46,146.6,40.3c30.1,2.9,56.5,31,67,71.9Z" fill="#bbb"/><path d="M73.4,207.9a35.1,35.1,0,0,1-.6-7.4l81.2-47,17.9,18.4-4.6,2.6-13.1-13.4Z" fill="#bbb"/><path d="M85.8,230.6a27,27,0,0,1-1.7-6.5l88.6-51.4,17.9,18.4-4.5,2.6-13.2-13.6Z" fill="#bbb"/><path d="M104.5,250.4a25.8,25.8,0,0,1-3.6-6.1l90.5-52.4,15.5,16c-.8,1.9-1.5,3.6-2.3,5.1h-.2L191.6,200Z" fill="#bbb"/><path d="M143.3,260.5c18.9-4,36.3-17.8,48.6-38.8l11.8-6.9C189.6,242.7,167.3,259.6,143.3,260.5Z" fill="#bbb"/></svg>