<svg xmlns="http://www.w3.org/2000/svg" viewBox="0 0 283.5 283.5"><g style="isolation:isolate"><path d="M148.7,168.5a15.1,15.1,0,0,0-14,0c-12.2,6.6-36.3,22.4-36.3,46.1,0,31.8,23.4,46.3,43.3,46.3s43.4-14.5,43.4-46.3C185.1,190.9,161,175.1,148.7,168.5Z" fill="#506572" stroke="#000" stroke-linecap="round" stroke-linejoin="round" stroke-width="0.71"/><path d="M145.3,190.8a7.5,7.5,0,0,0-7.1,0,47.3,47.3,0,0,0-11.9,8.7h30.8A47,47,0,0,0,145.3,190.8Z" fill="#1c1c1c" stroke="#000" stroke-linecap="round" stroke-linejoin="round" stroke-width="0.71"/><path d="M119.7,214.2a26.3,26.3,0,0,0,.3,4.1h43.5a26.3,26.3,0,0,0,.3-4.1,22.1,22.1,0,0,0-.4-3.7H120.1A15,15,0,0,0,119.7,214.2Z" fill="#1c1c1c" stroke="#000" stroke-linecap="round" stroke-linejoin="round" stroke-width="0.71"/><path d="M141.7,237.8a21.9,21.9,0,0,0,17.3-8.4H124.4A22.1,22.1,0,0,0,141.7,237.8Z" fill="#1c1c1c" stroke="#000" stroke-linecap="round" stroke-linejoin="round" stroke-width="0.71"/><path d="M126.3,199.5a22.8,22.8,0,0,0-6.2,11h43.3a22.9,22.9,0,0,0-6.3-11Z" fill="#b9dfe8" stroke="#000" stroke-linecap="round" stroke-linejoin="round" stroke-width="0.71"/><path d="M124.4,229.4H159a22.3,22.3,0,0,0,4.5-11.1H120A23.2,23.2,0,0,0,124.4,229.4Z" fill="#b9dfe8" stroke="#000" stroke-linecap="round" stroke-linejoin="round" stroke-width="0.71"/><circle cx="141.7" cy="213.8" r="8" fill="#1c1c1c" stroke="#000" stroke-linecap="round" stroke-linejoin="round" stroke-width="0.71"/><rect x="132.2" y="275.7" width="19.1" height="7.78" fill="#7acbe1" stroke="#000" stroke-linecap="round" stroke-linejoin="round" stroke-width="0.71"/><rect x="132.2" y="267.3" width="19.1" height="8.38" fill="#b9dfe8" stroke="#000" stroke-linecap="round" stroke-linejoin="round" stroke-width="0.71"/><rect x="132.2" y="258.9" width="19.1" height="8.38" fill="#7acbe1" stroke="#000" stroke-linecap="round" stroke-linejoin="round" stroke-width="0.71"/><rect x="132.2" y="250.6" width="19.1" height="8.38" fill="#b9dfe8" stroke="#000" stroke-linecap="round" stroke-linejoin="round" stroke-width="0.71"/><path d="M151.4,235.5a22.6,22.6,0,0,1-9.7,2.3,22,22,0,0,1-9.5-2.2v6.6h19.2Z" fill="#b9dfe8" stroke="#000" stroke-linecap="round" stroke-linejoin="round" stroke-width="0.71"/><rect x="132.2" y="242.2" width="19.1" height="8.38" fill="#7acbe1" stroke="#000" stroke-linecap="round" stroke-linejoin="round" stroke-width="0.71"/><path d="M101.6,199.9a46.5,46.5,0,0,1,6.2-10h0s-31.6-10.7-43.4-42.5v2.8c0,3.6.1,7.2.3,10.7C73.5,183.4,92,195.1,101.6,199.9Z" fill="#1c1c1c" stroke="#000" stroke-linecap="round" stroke-linejoin="round" stroke-width="0.71"/><path d="M181.8,199.9a46.1,46.1,0,0,0-6.1-10h0s31.5-10.7,43.4-42.5v2.8c0,3.6-.1,7.2-.4,10.7C210,183.4,191.5,195.1,181.8,199.9Z" fill="#1c1c1c" stroke="#000" stroke-linecap="round" stroke-linejoin="round" stroke-width="0.71"/><path d="M111.5,222.2c0-22.8,23.1-38.1,34.9-44.4a14.6,14.6,0,0,1,13.5,0l1.7.9a107.5,107.5,0,0,0-13.5-8.6,14.6,14.6,0,0,0-13.5,0c-11.8,6.3-35,21.6-35,44.4s11.6,35.3,25.2,41.1C116.9,248.3,111.5,237.3,111.5,222.2Z" fill="#192833"/><path d="M69.9,158.8a63.4,63.4,0,0,1-5.5-11.4v2.8c0,3.6.1,7.2.3,10.7a68.7,68.7,0,0,0,16.6,24.6,67.5,67.5,0,0,1-11.1-18.6Z"/><path d="M105.8,192.5c.7-.9,1.3-1.8,2-2.6h0a80.2,80.2,0,0,1-26.6-17A81,81,0,0,0,105.8,192.5Z"/><path d="M213.5,158.8a71.1,71.1,0,0,0,5.6-11.4v2.8c0,3.6-.1,7.2-.4,10.7a67.3,67.3,0,0,1-16.5,24.6,64.9,64.9,0,0,0,11-18.6Q213.5,162.8,213.5,158.8Z"/><path d="M177.6,192.5a24.8,24.8,0,0,0-1.9-2.6h0a79.3,79.3,0,0,0,26.5-17A79.8,79.8,0,0,1,177.6,192.5Z"/><path d="M138.4,215.8a8,8,0,0,1,8-8h.7a7.9,7.9,0,0,0-5.4-2.1,8,8,0,0,0-.7,16A8.1,8.1,0,0,1,138.4,215.8Z" fill="#1c1c1c" style="mix-blend-mode:multiply"/><path d="M146.2,193.4a6.3,6.3,0,0,1,2.3-.8l-3.2-1.8a7.5,7.5,0,0,0-7.1,0,47.3,47.3,0,0,0-11.9,8.7h10.8A51.4,51.4,0,0,1,146.2,193.4Z"/><path d="M127.7,216.8a15.5,15.5,0,0,1,.4-3.7,25.8,25.8,0,0,1,.8-2.6h-8.8a15,15,0,0,0-.4,3.7,26.3,26.3,0,0,0,.3,4.1h7.7Z"/><path d="M132.4,232a23.3,23.3,0,0,1-1.7-2.6h-6.3a22.5,22.5,0,0,0,14.6,8.2A21.9,21.9,0,0,1,132.4,232Z"/><path d="M133.7,202.4l2.4-2.3h-9.5a20.4,20.4,0,0,0-5.5,9.8h7.7A23.2,23.2,0,0,1,133.7,202.4Z" fill="#7da2a8"/><path d="M127.9,221.2a16.4,16.4,0,0,1-.2-2.3h-7a20.2,20.2,0,0,0,4,9.9h5.7A21.3,21.3,0,0,1,127.9,221.2Z" fill="#7da2a8"/><rect x="132.7" y="276.2" width="5" height="6.73" fill="#519cad"/><rect x="132.7" y="259.4" width="5" height="7.46" fill="#519cad"/><rect x="132.7" y="267.8" width="5" height="7.46" fill="#8ab3ba"/><rect x="132.7" y="251" width="5" height="7.46" fill="#8ab3ba"/><path d="M137.8,238.1v3.6h-5.1v-5.3A30.1,30.1,0,0,0,137.8,238.1Z" fill="#8ab3ba"/><rect x="132.7" y="242.6" width="5" height="7.46" fill="#519cad"/></g></svg>