<svg xmlns="http://www.w3.org/2000/svg" viewBox="0 0 283.5 283.5"><path d="M182.9,208.3a59.9,59.9,0,0,0-25.7-28.4,31.7,31.7,0,0,0-31,0,60.9,60.9,0,0,0-25.7,28.4c-12.8,29.3,17.2,52.8,41.2,52.8S195.8,237.6,182.9,208.3Z" fill="#cfcfcf" stroke="#000" stroke-linecap="round" stroke-linejoin="round" stroke-width="0.71"/><path d="M113.2,189.8c-14-5.7-40.3-19.3-48.9-42.3v2.8c0,3.6.1,7.2.4,10.7,6.7,17.4,27.7,30.1,41.4,37.3A60.3,60.3,0,0,1,113.2,189.8Z" fill="#1c1c1c" stroke="#000" stroke-linecap="round" stroke-linejoin="round" stroke-width="0.71"/><path d="M170.3,189.8c13.9-5.7,40.3-19.3,48.8-42.3,0,.9.1,1.9.1,2.8,0,3.6-.2,7.2-.4,10.7-6.7,17.4-27.8,30.1-41.5,37.3A59.8,59.8,0,0,0,170.3,189.8Z" fill="#1c1c1c" stroke="#000" stroke-linecap="round" stroke-linejoin="round" stroke-width="0.71"/><path d="M166.1,186a56.6,56.6,0,0,0-8.9-6.1,31.7,31.7,0,0,0-31,0,61.1,61.1,0,0,0-8.8,6.1l19.5,26.1a6,6,0,0,0,9.6,0Z" fill="#e1e1e1" stroke="#000" stroke-linecap="round" stroke-linejoin="round" stroke-width="0.71"/><path d="M136.9,212.1,117.4,186c1.4-1.2,2.9-2.3,4.3-3.3a61.2,61.2,0,0,0-21.2,25.6c-12.8,29.3,17.2,52.8,41.2,52.8h0V214.5A6,6,0,0,1,136.9,212.1Z" fill="#929292" stroke="#000" stroke-linecap="round" stroke-linejoin="round" stroke-width="0.71"/><path d="M71.1,161a4.9,4.9,0,0,0-.1-1.2,56.3,56.3,0,0,1-6.7-12.3v2.8c0,3.6.1,7.2.4,10.7,6.7,17.4,27.7,30.1,41.4,37.3l1.8-2.5C94.5,188.3,77.1,176.5,71.1,161Z"/><path d="M212.4,161v-1.2a49,49,0,0,0,6.7-12.3c0,.9.1,1.9.1,2.8,0,3.6-.2,7.2-.4,10.7-6.7,17.4-27.8,30.1-41.5,37.3l-1.8-2.5C188.9,188.3,206.4,176.5,212.4,161Z"/><path d="M118.6,186.1l9,12s15.4-17.9,33.5-14.7C161.1,183.4,141,166.5,118.6,186.1Z" fill="#fff"/><path d="M117.4,187.4l8.3,10.9s-28.3,28.6,5.9,57.8C103.9,254.7,82.4,217.4,117.4,187.4Z" fill="#b7b7b7"/></svg>