<svg xmlns="http://www.w3.org/2000/svg" viewBox="0 0 283.5 283.5"><path d="M230.4,283.5s-6.5-34.5-38.5-41.8H91.6C59.5,249,53,283.5,53,283.5Z" fill="#060508" stroke="#000" stroke-linecap="round" stroke-linejoin="round" stroke-width="0.71"/><rect x="91.6" y="234.7" width="100.3" height="48.78" fill="#222033" stroke="#000" stroke-linecap="round" stroke-linejoin="round" stroke-width="0.71"/><path d="M191.9,234.7v15.8c-14.1,14.5-31.5,23-50.2,23s-36-8.5-50.1-23V234.7Z"/><path d="M141.7,261.1c39.3,0,72.2-39.7,80-92.5a7.4,7.4,0,0,0-7.4-8.6H69.2a7.5,7.5,0,0,0-7.5,8.6C69.6,221.4,102.4,261.1,141.7,261.1Z" fill="#222033" stroke="#000" stroke-miterlimit="10" stroke-width="0.75"/><path d="M169.7,160c-6.9,45-31.8,80.3-63.4,89.6,10.8,7.3,22.8,11.5,35.4,11.5,39.3,0,72.2-39.7,80-92.5a7.4,7.4,0,0,0-7.4-8.6Z"/></svg>