<svg xmlns="http://www.w3.org/2000/svg" viewBox="0 0 283.5 283.5"><rect width="283.5" height="283.46" fill="#d63ca5" stroke="#000" stroke-linecap="round" stroke-linejoin="round" stroke-width="0.71"/><path d="M26.7,191.2h230a120.6,120.6,0,0,0,6.5-19.5H20.2A143.8,143.8,0,0,0,26.7,191.2Z" fill="#d1763a" stroke="#000" stroke-linecap="round" stroke-linejoin="round" stroke-width="0.71"/><path d="M17.4,127.8H266.1a124.4,124.4,0,0,0-3.7-19.5H21.1A124.4,124.4,0,0,0,17.4,127.8Z" fill="#d3893e" stroke="#000" stroke-linecap="round" stroke-linejoin="round" stroke-width="0.71"/><path d="M16.6,141.7a129.8,129.8,0,0,0,1.2,17.8H265.6a129.7,129.7,0,0,0,1.3-17.8V140H16.6Z" fill="#d3893e" stroke="#000" stroke-linecap="round" stroke-linejoin="round" stroke-width="0.71"/><path d="M46.5,222.9H237a121.3,121.3,0,0,0,13.6-19.5H32.9A121.3,121.3,0,0,0,46.5,222.9Z" fill="#c44e00" stroke="#000" stroke-linecap="round" stroke-linejoin="round" stroke-width="0.71"/><path d="M110.1,254.6h63.3a77.2,77.2,0,0,0,51.3-19.2l.3-.2H58.5l.3.2A77.2,77.2,0,0,0,110.1,254.6Z" fill="#c44e00" stroke="#000" stroke-linecap="round" stroke-linejoin="round" stroke-width="0.71"/><path d="M25.2,96H258.3a130.1,130.1,0,0,0-9.7-19.4H34.9A130.1,130.1,0,0,0,25.2,96Z" fill="#d59c42" stroke="#000" stroke-linecap="round" stroke-linejoin="round" stroke-width="0.71"/><path d="M141.7,16.6a125,125,0,0,0-61.3,16H203A124.4,124.4,0,0,0,141.7,16.6Z" fill="#d7ae46" stroke="#000" stroke-linecap="round" stroke-linejoin="round" stroke-width="0.71"/><path d="M43.4,64.3H240.1A134.7,134.7,0,0,0,221,44.9H62.5A125.1,125.1,0,0,0,43.4,64.3Z" fill="#d59c42" stroke="#000" stroke-linecap="round" stroke-linejoin="round" stroke-width="0.71"/></svg>