<svg xmlns="http://www.w3.org/2000/svg" viewBox="0 0 283.5 283.5"><rect width="283.5" height="283.46" fill="#3c802e" stroke="#000" stroke-linecap="round" stroke-linejoin="round" stroke-width="0.71"/><path d="M9.3,21.4l4-4.1h7l4,4.1v3.5H19.2V22.3h-5V37.5h5V34.9h5.1v3.5l-4,4.1h-7l-4-4.1Z" fill="#88fb77" stroke="#000" stroke-linecap="round" stroke-linejoin="round" stroke-width="0.71"/><path d="M11.8,81.8V66.6H9.3v-5H22.9l4,4.2v7l-1.5,1.5,1.5,1.4v6.1h2.6v5H19.7v-5h2.1v-5H17v5h2.1v5H9.3v-5Zm10-15.2H17v5.1h4.8Z" fill="#88fb77" stroke="#000" stroke-linecap="round" stroke-linejoin="round" stroke-width="0.71"/><path d="M9.3,126.1h2.6V113.6H9.3v-3.8l2.6-3.8H17v20.1h2.4v5.1H9.3v-5.1Z" fill="#88fb77" stroke="#000" stroke-linecap="round" stroke-linejoin="round" stroke-width="0.71"/><path d="M9.3,154.5l4-4.2h7l4,4.2V158H19.2v-2.7h-5v15.2h5v-2.6h5.1v3.5l-4,4.1h-7l-4-4.1Z" fill="#88fb77" stroke="#000" stroke-linecap="round" stroke-linejoin="round" stroke-width="0.71"/><path d="M9.3,215.8v-17l4.1-4.2h6.9l4.2,4.2v17l-4.2,4.1H13.4Zm10.1-1V199.7h-5v15.1h5Z" fill="#88fb77" stroke="#000" stroke-linecap="round" stroke-linejoin="round" stroke-width="0.71"/><path d="M14.3,259.2h4.9V244H16.8v-5H26.9v5H24.2v16.1l-3.9,4.1H13.2l-3.9-4.1v-3.5h5v2.6Z" fill="#88fb77" stroke="#000" stroke-linecap="round" stroke-linejoin="round" stroke-width="0.71"/><path d="M39.9,38.4v-17l4.2-4.1h6.8l4.2,4.1v17l-4.2,4.1H44.1ZM50,37.5V22.3H45V37.5h5Z" fill="#88fb77" stroke="#000" stroke-linecap="round" stroke-linejoin="round" stroke-width="0.71"/><path d="M39.9,81.8h2.6V66.6H39.9v-5H50v5H47.4V81.8h5V79.2h5.1v7.6H39.9v-5Z" fill="#88fb77" stroke="#000" stroke-linecap="round" stroke-linejoin="round" stroke-width="0.71"/><path d="M39.9,110.1l4-4.1h7l4,4.1v3.5h-5V111H44.8v15.1h5.1v-2.5h5v3.5l-4,4.1h-7l-4-4.1Z" fill="#88fb77" stroke="#000" stroke-linecap="round" stroke-linejoin="round" stroke-width="0.71"/><path d="M39.9,170.5h2.6V158H39.9v-3.9l2.6-3.8h5.1v20.2H50v5H39.9v-5Z" fill="#88fb77" stroke="#000" stroke-linecap="round" stroke-linejoin="round" stroke-width="0.71"/><path d="M39.9,214.8h2.6V202.3H39.9v-3.8l2.6-3.9h5.1v20.2H50v5.1H39.9v-5.1Z" fill="#88fb77" stroke="#000" stroke-linecap="round" stroke-linejoin="round" stroke-width="0.71"/><path d="M39.9,243.2l4-4.2h7l4,4.2v3.5h-5V244H44.8v15.2h5.1v-2.6h5v3.5l-4,4.1h-7l-4-4.1Z" fill="#88fb77" stroke="#000" stroke-linecap="round" stroke-linejoin="round" stroke-width="0.71"/><path d="M73.1,37.5V22.3H70.6v-5H84.2l4,4.1v7.1L86.6,30l1.6,1.4v6.1h2.5v5H80.9v-5h2.2V32.4H78.2v5.1h2.1v5H70.6v-5Zm10-15.2H78.2v5.1h4.9Z" fill="#88fb77" stroke="#000" stroke-linecap="round" stroke-linejoin="round" stroke-width="0.71"/><path d="M70.6,82.7V65.8l4.1-4.2h6.9l4.1,4.2V82.7l-4.1,4.1H74.7Zm10.1-.9V66.6H75.6V81.8h5.1Z" fill="#88fb77" stroke="#000" stroke-linecap="round" stroke-linejoin="round" stroke-width="0.71"/><path d="M70.6,126.1h2.6V113.6H70.6v-3.8l2.6-3.8h5.1v20.1h2.4v5.1H70.6v-5.1Z" fill="#88fb77" stroke="#000" stroke-linecap="round" stroke-linejoin="round" stroke-width="0.71"/><path d="M75.6,170.5h4.9V155.3H78v-5H88.2v5H85.5v16.1l-4,4.1h-7l-3.9-4.1v-3.5h5v2.6Z" fill="#88fb77" stroke="#000" stroke-linecap="round" stroke-linejoin="round" stroke-width="0.71"/><path d="M70.6,214.8h2.5V199.7H70.6v-5.1h10v5.1H78v15.1h5.1v-2.6h5.1v7.7H70.6v-5.1Z" fill="#88fb77" stroke="#000" stroke-linecap="round" stroke-linejoin="round" stroke-width="0.71"/><path d="M70.6,260.1V243.2l4.1-4.2h6.9l4.1,4.2v16.9l-4.1,4.1H74.7Zm10.1-.9V244H75.6v15.2h5.1Z" fill="#88fb77" stroke="#000" stroke-linecap="round" stroke-linejoin="round" stroke-width="0.71"/><path d="M101.2,37.5h2.6V24.9h-2.6V21.1l2.6-3.8h5.1V37.5h2.4v5H101.2v-5Z" fill="#88fb77" stroke="#000" stroke-linecap="round" stroke-linejoin="round" stroke-width="0.71"/><path d="M101.2,65.8l4-4.2h7l4,4.2v3.5h-5.1V66.6h-5V81.8h5V79.2h5.1v3.5l-4,4.1h-7l-4-4.1Z" fill="#88fb77" stroke="#000" stroke-linecap="round" stroke-linejoin="round" stroke-width="0.71"/><path d="M101.2,126.1h2.6V111h-2.6v-5h10.1v5h-2.6v15.1h5v-2.5h5.1v7.6H101.2v-5.1Z" fill="#88fb77" stroke="#000" stroke-linecap="round" stroke-linejoin="round" stroke-width="0.71"/><path d="M103.8,170.5V155.3h-2.6v-5h13.6l4,4.2v7l-1.5,1.5,1.5,1.4v6.1h2.6v5h-9.8v-5h2.1v-5h-4.8v5H111v5h-9.8v-5Zm9.9-15.2h-4.8v5.1h4.8Z" fill="#88fb77" stroke="#000" stroke-linecap="round" stroke-linejoin="round" stroke-width="0.71"/><path d="M101.2,198.8l4-4.2h7l4,4.2v3.5h-5.1v-2.6h-5v15.1h5v-2.6h5.1v3.6l-4,4.1h-7l-4-4.1Z" fill="#88fb77" stroke="#000" stroke-linecap="round" stroke-linejoin="round" stroke-width="0.71"/><path d="M101.2,259.2h2.6V246.7h-2.6v-3.9l2.6-3.8h5.1v20.2h2.4v5H101.2v-5Z" fill="#88fb77" stroke="#000" stroke-linecap="round" stroke-linejoin="round" stroke-width="0.71"/><path d="M133.7,38.4v-17l4.2-4.1h6.8l4.2,4.1v17l-4.2,4.1h-6.8Zm10.1-.9V22.3h-5V37.5h5Z" fill="#88fb77" stroke="#000" stroke-linecap="round" stroke-linejoin="round" stroke-width="0.71"/><path d="M133.7,81.8h2.6V66.6h-2.6v-5h10.1v5h-2.6V81.8h5V79.2h5.1v7.6H133.7v-5Z" fill="#88fb77" stroke="#000" stroke-linecap="round" stroke-linejoin="round" stroke-width="0.71"/><path d="M133.7,110.1l4-4.1h7l4,4.1v3.5h-5V111h-5.1v15.1h5.1v-2.5h5v3.5l-4,4.1h-7l-4-4.1Z" fill="#88fb77" stroke="#000" stroke-linecap="round" stroke-linejoin="round" stroke-width="0.71"/><path d="M133.7,170.5h2.6V158h-2.6v-3.9l2.6-3.8h5.1v20.2h2.4v5H133.7v-5Z" fill="#88fb77" stroke="#000" stroke-linecap="round" stroke-linejoin="round" stroke-width="0.71"/><path d="M133.7,214.8h2.6V202.3h-2.6v-3.8l2.6-3.9h5.1v20.2h2.4v5.1H133.7v-5.1Z" fill="#88fb77" stroke="#000" stroke-linecap="round" stroke-linejoin="round" stroke-width="0.71"/><path d="M133.7,243.2l4-4.2h7l4,4.2v3.5h-5V244h-5.1v15.2h5.1v-2.6h5v3.5l-4,4.1h-7l-4-4.1Z" fill="#88fb77" stroke="#000" stroke-linecap="round" stroke-linejoin="round" stroke-width="0.71"/><path d="M166.9,37.5V22.3h-2.5v-5H178l4,4.1v7.1L180.4,30l1.6,1.4v6.1h2.5v5h-9.8v-5h2.2V32.4H172v5.1h2.1v5h-9.7v-5Zm10-15.2H172v5.1h4.9Z" fill="#88fb77" stroke="#000" stroke-linecap="round" stroke-linejoin="round" stroke-width="0.71"/><path d="M164.4,82.7V65.8l4.1-4.2h6.9l4.1,4.2V82.7l-4.1,4.1h-6.9Zm10.1-.9V66.6h-5.1V81.8h5.1Z" fill="#88fb77" stroke="#000" stroke-linecap="round" stroke-linejoin="round" stroke-width="0.71"/><path d="M164.4,126.1H167V113.6h-2.6v-3.8L167,106h5.1v20.1h2.4v5.1H164.4v-5.1Z" fill="#88fb77" stroke="#000" stroke-linecap="round" stroke-linejoin="round" stroke-width="0.71"/><path d="M169.4,170.5h4.9V155.3h-2.5v-5H182v5h-2.7v16.1l-4,4.1h-7l-3.9-4.1v-3.5h5v2.6Z" fill="#88fb77" stroke="#000" stroke-linecap="round" stroke-linejoin="round" stroke-width="0.71"/><path d="M164.4,214.8h2.5V199.7h-2.5v-5.1h10v5.1h-2.6v15.1h5.1v-2.6H182v7.7H164.4v-5.1Z" fill="#88fb77" stroke="#000" stroke-linecap="round" stroke-linejoin="round" stroke-width="0.71"/><path d="M164.4,260.1V243.2l4.1-4.2h6.9l4.1,4.2v16.9l-4.1,4.1h-6.9Zm10.1-.9V244h-5.1v15.2h5.1Z" fill="#88fb77" stroke="#000" stroke-linecap="round" stroke-linejoin="round" stroke-width="0.71"/><path d="M195,37.5h2.6V24.9H195V21.1l2.6-3.8h5.1V37.5h2.4v5H195v-5Z" fill="#88fb77" stroke="#000" stroke-linecap="round" stroke-linejoin="round" stroke-width="0.71"/><path d="M195,65.8l4-4.2h7l4,4.2v3.5h-5.1V66.6h-5V81.8h5V79.2H210v3.5l-4,4.1h-7l-4-4.1Z" fill="#88fb77" stroke="#000" stroke-linecap="round" stroke-linejoin="round" stroke-width="0.71"/><path d="M195,126.1h2.6V111H195v-5h10.1v5h-2.6v15.1h5v-2.5h5.1v7.6H195v-5.1Z" fill="#88fb77" stroke="#000" stroke-linecap="round" stroke-linejoin="round" stroke-width="0.71"/><path d="M197.6,170.5V155.3H195v-5h13.6l4,4.2v7l-1.5,1.5,1.5,1.4v6.1h2.6v5h-9.8v-5h2.1v-5h-4.8v5h2.1v5H195v-5Zm9.9-15.2h-4.8v5.1h4.8Z" fill="#88fb77" stroke="#000" stroke-linecap="round" stroke-linejoin="round" stroke-width="0.71"/><path d="M195,198.8l4-4.2h7l4,4.2v3.5h-5.1v-2.6h-5v15.1h5v-2.6H210v3.6l-4,4.1h-7l-4-4.1Z" fill="#88fb77" stroke="#000" stroke-linecap="round" stroke-linejoin="round" stroke-width="0.71"/><path d="M195,259.2h2.6V246.7H195v-3.9l2.6-3.8h5.1v20.2h2.4v5H195v-5Z" fill="#88fb77" stroke="#000" stroke-linecap="round" stroke-linejoin="round" stroke-width="0.71"/><path d="M227.5,38.4v-17l4.2-4.1h6.8l4.2,4.1v17l-4.2,4.1h-6.8Zm10.1-.9V22.3h-5V37.5h5Z" fill="#88fb77" stroke="#000" stroke-linecap="round" stroke-linejoin="round" stroke-width="0.71"/><path d="M227.5,81.8h2.6V66.6h-2.6v-5h10.1v5H235V81.8h5V79.2h5.1v7.6H227.5v-5Z" fill="#88fb77" stroke="#000" stroke-linecap="round" stroke-linejoin="round" stroke-width="0.71"/><path d="M227.5,110.1l4-4.1h7l4,4.1v3.5h-5V111h-5.1v15.1h5.1v-2.5h5v3.5l-4,4.1h-7l-4-4.1Z" fill="#88fb77" stroke="#000" stroke-linecap="round" stroke-linejoin="round" stroke-width="0.71"/><path d="M227.5,170.5h2.6V158h-2.6v-3.9l2.6-3.8h5.1v20.2h2.4v5H227.5v-5Z" fill="#88fb77" stroke="#000" stroke-linecap="round" stroke-linejoin="round" stroke-width="0.71"/><path d="M227.5,214.8h2.6V202.3h-2.6v-3.8l2.6-3.9h5.1v20.2h2.4v5.1H227.5v-5.1Z" fill="#88fb77" stroke="#000" stroke-linecap="round" stroke-linejoin="round" stroke-width="0.71"/><path d="M227.5,243.2l4-4.2h7l4,4.2v3.5h-5V244h-5.1v15.2h5.1v-2.6h5v3.5l-4,4.1h-7l-4-4.1Z" fill="#88fb77" stroke="#000" stroke-linecap="round" stroke-linejoin="round" stroke-width="0.71"/><path d="M260.7,37.5V22.3h-2.5v-5h13.6l4,4.1v7.1L274.2,30l1.6,1.4v6.1h2.5v5h-9.8v-5h2.2V32.4h-4.9v5.1h2.1v5h-9.7v-5Zm10-15.2h-4.9v5.1h4.9Z" fill="#88fb77" stroke="#000" stroke-linecap="round" stroke-linejoin="round" stroke-width="0.71"/><path d="M258.2,82.7V65.8l4.1-4.2h6.9l4.1,4.2V82.7l-4.1,4.1h-6.9Zm10.1-.9V66.6h-5.1V81.8h5.1Z" fill="#88fb77" stroke="#000" stroke-linecap="round" stroke-linejoin="round" stroke-width="0.71"/><path d="M258.2,126.1h2.6V113.6h-2.6v-3.8l2.6-3.8h5.1v20.1h2.4v5.1H258.2v-5.1Z" fill="#88fb77" stroke="#000" stroke-linecap="round" stroke-linejoin="round" stroke-width="0.71"/><path d="M263.2,170.5h4.9V155.3h-2.5v-5h10.2v5h-2.7v16.1l-4,4.1h-7l-3.9-4.1v-3.5h5v2.6Z" fill="#88fb77" stroke="#000" stroke-linecap="round" stroke-linejoin="round" stroke-width="0.71"/><path d="M258.2,214.8h2.5V199.7h-2.5v-5.1h10v5.1h-2.6v15.1h5.1v-2.6h5.1v7.7H258.2v-5.1Z" fill="#88fb77" stroke="#000" stroke-linecap="round" stroke-linejoin="round" stroke-width="0.71"/><path d="M258.2,260.1V243.2l4.1-4.2h6.9l4.1,4.2v16.9l-4.1,4.1h-6.9Zm10.1-.9V244h-5.1v15.2h5.1Z" fill="#88fb77" stroke="#000" stroke-linecap="round" stroke-linejoin="round" stroke-width="0.71"/></svg>