<svg xmlns="http://www.w3.org/2000/svg" viewBox="0 0 283.5 283.5"><path d="M65,122.2h41.6a0,0,0,0,1,0,0v11a0,0,0,0,1,0,0H65a5.5,5.5,0,0,1-5.5-5.5v0A5.5,5.5,0,0,1,65,122.2Z" fill="#181818" stroke="#000" stroke-linecap="round" stroke-linejoin="round" stroke-width="0.71"/><path d="M72.2,206.2a6.7,6.7,0,0,1-4.9-2.1,7,7,0,0,1-.1-9.9L191.9,67.7A7.1,7.1,0,0,1,202,77.6L77.3,204.1A7.3,7.3,0,0,1,72.2,206.2Z" fill="#181818" stroke="#000" stroke-linecap="round" stroke-linejoin="round" stroke-width="0.71"/><circle cx="115.7" cy="145.1" r="27.5" fill="#181818" stroke="#000" stroke-linecap="round" stroke-linejoin="round" stroke-width="0.71"/><circle cx="115.7" cy="145.1" r="22.9" fill="#2f2f2f" stroke="#000" stroke-linecap="round" stroke-linejoin="round" stroke-width="0.71"/><path d="M105,141.7a23,23,0,0,1,10.9-19.5h-.2a22.9,22.9,0,0,0,0,45.8,22.4,22.4,0,0,0,12-3.4A22.9,22.9,0,0,1,105,141.7Z"/><circle cx="115.7" cy="145.1" r="9.2" fill="red" stroke="#000" stroke-linecap="round" stroke-linejoin="round" stroke-width="0.71"/></svg>