<svg xmlns="http://www.w3.org/2000/svg" viewBox="0 0 283.5 283.5"><path d="M82.3,139h46.2c2.3,0,4.1,1.2,4.1,2.6v15.8c0,2.4-1.5,4.8-4.1,6.6l-.3.2a21.5,21.5,0,0,1-11.7,3.2H94a21.8,21.8,0,0,1-11.1-2.8h0c-3-1.8-4.7-4.4-4.7-7v-16C78.2,140.2,80,139,82.3,139Z" fill="#181818" stroke="#000" stroke-linecap="round" stroke-linejoin="round" stroke-width="0.71"/><path d="M94,162a9.7,9.7,0,0,1-5-1.2,4,4,0,0,1-2.2-3.2V144.4H124v13a3.8,3.8,0,0,1-1.9,3l-.3.2a9.7,9.7,0,0,1-5.3,1.4Z" fill="#79acc7" stroke="#000" stroke-linecap="round" stroke-linejoin="round" stroke-width="0.71"/><path d="M155,139h46.2c2.3,0,4.1,1.2,4.1,2.6v15.8c0,2.4-1.5,4.8-4.1,6.6l-.3.2a21.5,21.5,0,0,1-11.7,3.2H166.7a21.4,21.4,0,0,1-11-2.8h0c-3.1-1.8-4.8-4.4-4.8-7v-16C150.9,140.2,152.7,139,155,139Z" fill="#181818" stroke="#000" stroke-linecap="round" stroke-linejoin="round" stroke-width="0.71"/><path d="M166.7,162a9.7,9.7,0,0,1-5-1.2,4,4,0,0,1-2.2-3.2V144.4h37.2v13a3.8,3.8,0,0,1-1.9,3l-.3.2a9.7,9.7,0,0,1-5.3,1.4Z" fill="#79acc7" stroke="#000" stroke-linecap="round" stroke-linejoin="round" stroke-width="0.71"/><rect x="132.6" y="144.4" width="18.2" height="5.98" fill="#181818" stroke="#000" stroke-linecap="round" stroke-linejoin="round" stroke-width="0.71"/><path d="M64.3,144.4H78.2a0,0,0,0,1,0,0v6a0,0,0,0,1,0,0H64.3a3,3,0,0,1-3-3v0a3,3,0,0,1,3-3Z" fill="#181818" stroke="#000" stroke-linecap="round" stroke-linejoin="round" stroke-width="0.71"/><path d="M208.3,144.4h13.9a0,0,0,0,1,0,0v6a0,0,0,0,1,0,0H208.3a3,3,0,0,1-3-3v0a3,3,0,0,1,3-3Z" transform="translate(427.5 294.8) rotate(-180)" fill="#181818" stroke="#000" stroke-linecap="round" stroke-linejoin="round" stroke-width="0.71"/><path d="M170.3,157.1a3.5,3.5,0,0,1-1.9-2.8v-8.7h-8.2v11.8c.2,2.8,3.8,4,6.4,4h22.7c2.6-.1,5.3-.9,6.4-3.1H174.8A8.2,8.2,0,0,1,170.3,157.1Z" fill="#2a6793"/><path d="M97.6,157.1a3.6,3.6,0,0,1-2-2.8v-8.7H87.5v11.8c.1,2.8,3.7,4,6.4,4h22.6c2.7-.1,5.4-.9,6.5-3.1H102.1A8.2,8.2,0,0,1,97.6,157.1Z" fill="#2a6793"/></svg>