<svg xmlns="http://www.w3.org/2000/svg" viewBox="0 0 283.5 283.5"><path d="M215.7,118.5H67.8c0,11.7-4.2,52.9,25.6,52.9C115,171.4,120,150,120,150h43.4s5,21.4,26.7,21.4C219.9,171.4,215.7,130.2,215.7,118.5Zm-62.6,21.7H130.4V128.8h22.7Z" fill="#1b1b1b" stroke="#000" stroke-linecap="round" stroke-linejoin="round" stroke-width="0.71"/><path d="M120,141.9a8,8,0,0,0-7.8,6.2c-.4,1.5-4.2,15.2-18.8,15.2-4.6,0-8-1.2-10.5-3.9-6.9-7.1-7.4-22.8-7.2-32.8H120Z" fill="#e7d29c" stroke="#000" stroke-linecap="round" stroke-linejoin="round" stroke-width="0.71"/><path d="M163.4,141.9a8.1,8.1,0,0,1,7.9,6.2c.4,1.5,4.2,15.2,18.8,15.2,4.6,0,7.9-1.2,10.5-3.9,6.9-7.1,7.3-22.8,7.2-32.8H163.4Z" fill="#e7d29c" stroke="#000" stroke-linecap="round" stroke-linejoin="round" stroke-width="0.71"/><path d="M92.9,155.3c-5.7-5.9-6.6-18.1-6.6-27.2H76.8c-.2,9.2.3,23.7,6.6,30.2,2.4,2.4,5.5,3.6,9.7,3.6a16.9,16.9,0,0,0,9.9-3h-.4C98.4,158.9,95.3,157.8,92.9,155.3Z" fill="#d1ad5f"/><path d="M190.5,155.3c5.7-5.9,6.6-18.1,6.7-27.2h9.5c.1,9.2-.3,23.7-6.6,30.2-2.4,2.4-5.5,3.6-9.7,3.6a17.5,17.5,0,0,1-10-3h.4C185.1,158.9,188.1,157.8,190.5,155.3Z" fill="#d1ad5f"/><path d="M169.8,152.2h-4.2c1.8,4.2,5.7,11.3,13.5,15.1A32.3,32.3,0,0,1,169.8,152.2Z"/><path d="M74.1,122.8H212.7c0-1.4-.1-2.6-.1-3.5H68.8c0,9.8-3,41.1,15,49.3C71.7,157.2,74.1,131.5,74.1,122.8Z"/></svg>