<svg xmlns="http://www.w3.org/2000/svg" viewBox="0 0 283.5 283.5"><g style="isolation:isolate"><path d="M97.3,170.1c-12,0-17.6-1.5-20.2-2.8s-2.2-1.4-2.2-3.5V135.9h44.8v26.2C119.7,164.1,113,170.1,97.3,170.1Z" fill="#506675" stroke="#000" stroke-linecap="round" stroke-linejoin="round" stroke-width="0.85" opacity="0.5"/><path d="M186.1,170.1c12.1,0,17.7-1.5,20.2-2.8s2.2-1.4,2.2-3.5V135.9H163.7v26.2C163.7,164.1,170.5,170.1,186.1,170.1Z" fill="#506675" stroke="#000" stroke-linecap="round" stroke-linejoin="round" stroke-width="0.85" opacity="0.5"/><path d="M153.1,130.9v5H130.3v-5a5.6,5.6,0,0,0-5.5-5.6H70.1a5.8,5.8,0,0,0-5.8,5.8v32.7c0,12.3,10.7,16.9,33,16.9,19.4,0,33-8.3,33-18.6v-9.5a4.4,4.4,0,0,1,4.4-4.4h14.1a4.3,4.3,0,0,1,4.3,4.4v9.5c0,10.3,13.6,18.6,33,18.6,22.4,0,33.1-4.6,33.1-16.9V131.1a5.8,5.8,0,0,0-5.8-5.8H158.7A5.6,5.6,0,0,0,153.1,130.9Zm-33.4,31.2c0,2-6.7,8-22.4,8-12,0-17.6-1.5-20.2-2.8s-2.2-1.4-2.2-3.5V135.9h44.8Zm88.8,1.7c0,2.1-.3,2.6-2.2,3.5s-8.1,2.8-20.2,2.8c-15.6,0-22.4-6-22.4-8V135.9h44.8Z" fill="#232323" stroke="#000" stroke-linecap="round" stroke-linejoin="round" stroke-width="0.85"/><path d="M86.1,162c-1.9-.9-2.2-1.4-2.2-3.5V135.9h-9v27.9c0,2.1.4,2.6,2.2,3.5s8.2,2.8,20.2,2.8c13.7,0,20.6-4.6,22.1-7.1a42.6,42.6,0,0,1-13.1,1.8C94.2,164.8,88.6,163.3,86.1,162Z" fill="#506675" style="mix-blend-mode:multiply"/><path d="M197.4,162c1.8-.9,2.2-1.4,2.2-3.5V135.9h8.9v27.9c0,2.1-.3,2.6-2.2,3.5s-8.1,2.8-20.2,2.8c-13.7,0-20.5-4.6-22-7.1a42.1,42.1,0,0,0,13.1,1.8C189.3,164.8,194.8,163.3,197.4,162Z" fill="#506675" style="mix-blend-mode:multiply"/><path d="M71.9,166.9V134.1a5.7,5.7,0,0,1,5.7-5.7h52.1a5.6,5.6,0,0,0-4.9-3.1H70.1a5.8,5.8,0,0,0-5.8,5.8v32.7c0,8,4.5,12.7,13.8,15.1C73.9,176.2,71.9,172.3,71.9,166.9Z"/><path d="M160.7,165.2v-9.6a4.4,4.4,0,0,0-4.4-4.4h-3.4a6.8,6.8,0,0,1,.2,1.4v9.5c0,7.2,6.7,13.4,17.3,16.5C164.3,175.2,160.7,170.5,160.7,165.2Z"/><path d="M160.7,139v-5a5.6,5.6,0,0,1,5.5-5.6h52.3a5.9,5.9,0,0,0-5.1-3.1H158.7a5.6,5.6,0,0,0-5.6,5.6v5H137.9V139Z"/></g></svg>