<svg xmlns="http://www.w3.org/2000/svg" viewBox="0 0 283.5 283.5"><path d="M141.7,124.8h-83v9.3h9.4s5.2,29,34.2,29,34.2-29.5,34.2-29.5H147s5.2,29.5,34.2,29.5,34.2-29,34.2-29h9.4v-9.3Z" fill="#181818" stroke="#000" stroke-linecap="round" stroke-linejoin="round" stroke-width="0.71"/><path d="M154.8,133.6H147s5.2,29.5,34.2,29.5l3.9-.2C159.6,160.4,154.8,133.6,154.8,133.6Z"/><rect x="58.7" y="124.8" width="7.9" height="9.38"/><path d="M75.9,134.1H68.1s5.2,29,34.2,29l3.9-.2C80.7,160.4,75.9,134.1,75.9,134.1Z"/><path d="M77.6,134.4s1,18.6,19.2,21.7a4.8,4.8,0,0,0,4.7-1.9h0a4.9,4.9,0,0,0-3.2-7.8C92.4,145.6,84.7,142.8,77.6,134.4Z" fill="#fff" stroke="#000" stroke-linecap="round" stroke-linejoin="round" stroke-width="0.71"/><path d="M154.1,134.4s1,18.6,19.1,21.7a5,5,0,0,0,4.8-1.9h0a4.9,4.9,0,0,0-3.2-7.8C168.9,145.6,161.2,142.8,154.1,134.4Z" fill="#fff" stroke="#000" stroke-linecap="round" stroke-linejoin="round" stroke-width="0.71"/><path d="M175.7,134.4s1.1,18.6,19.2,21.7a4.8,4.8,0,0,0,4.7-1.9h0a4.9,4.9,0,0,0-3.2-7.8C190.6,145.6,182.8,142.8,175.7,134.4Z" fill="#fff" stroke="#000" stroke-linecap="round" stroke-linejoin="round" stroke-width="0.71"/></svg>