<svg xmlns="http://www.w3.org/2000/svg" viewBox="0 0 283.5 283.5"><path d="M230.4,283.5s-6.5-34.5-38.5-41.8H91.6C59.5,249,53,283.5,53,283.5Z" fill="#903380" stroke="#000" stroke-linecap="round" stroke-linejoin="round" stroke-width="0.71"/><rect x="91.6" y="234.7" width="100.3" height="48.78" fill="#6bb5e5" stroke="#000" stroke-linecap="round" stroke-linejoin="round" stroke-width="0.71"/><path d="M190.7,234.7v15.8c-13.8,14.5-30.7,23-49,23s-35.1-8.5-48.9-23V234.7Z" fill="#3390ca"/><ellipse cx="141.7" cy="150.3" rx="77.4" ry="110.8" fill="#6bb5e5" stroke="#000" stroke-linecap="round" stroke-linejoin="round" stroke-width="0.71"/><path d="M87.6,150.3c0-55,27.7-100.4,63.8-108.1A49,49,0,0,0,140.6,41C99.3,41,65.9,89.9,65.9,150.3s33.4,109.2,74.7,109.2a55.7,55.7,0,0,0,10.8-1.1C115.3,250.7,87.6,205.2,87.6,150.3Z" fill="#3390ca"/><path d="M141.7,202.6c4.8,5.7,19.6,2.4,15.7-8.6-1.9-5.4-5.8-10.1-9.2-13.5a55.4,55.4,0,0,0-6.5-5.3S129.9,183.1,126,194,137,208.3,141.7,202.6Z" stroke="#000" stroke-linecap="round" stroke-linejoin="round" stroke-width="0.71"/><path d="M68.7,187c0-.1-.1-.2-.1-.4s0,.3.1.4Z" stroke="#000" stroke-linecap="round" stroke-linejoin="round" stroke-width="0.71"/><path d="M68.6,186.6a.7.7,0,0,1-.1-.5h-.1C68.5,186.3,68.5,186.5,68.6,186.6Z" stroke="#000" stroke-linecap="round" stroke-linejoin="round" stroke-width="0.71"/><path d="M171,219.3a12.7,12.7,0,0,1-19.9-.7c-1.4-1.8-4.2-3.5-9.4-3.5s-7.9,1.7-9.4,3.5a12.5,12.5,0,0,1-19.8.7L64.8,162.6a147.7,147.7,0,0,0,3.7,23.5l38.4,43.7a106.6,106.6,0,0,1,10,13.9,16.4,16.4,0,0,0,14.3,7.4,11.7,11.7,0,0,0,10.5,6.8,11.5,11.5,0,0,0,10.5-6.8,16.2,16.2,0,0,0,14.3-7.4,107.3,107.3,0,0,1,10.1-13.9L215,186.1a160.1,160.1,0,0,0,3.7-23.5Z" stroke="#000" stroke-linecap="round" stroke-linejoin="round" stroke-width="0.71"/><path d="M141.7,196.3c-3.6,4.5-13.2,3.5-15.7-2.2-3.7,10.9,11,14.2,15.7,8.5,4.7,5.7,19.5,2.4,15.8-8.5C155,199.8,145.4,200.8,141.7,196.3Z" fill="#a9defc" stroke="#000" stroke-linecap="round" stroke-linejoin="round" stroke-width="0.71"/><line x1="141.7" y1="196.3" x2="141.7" y2="202.6" fill="none" stroke="#000" stroke-linecap="round" stroke-linejoin="round" stroke-width="0.71"/><path d="M141.7,102.2s-15.8-.5-23.6,7.5c0,0,9.3,22.7,23.6,22.7s23.6-22.7,23.6-22.7C157.6,101.7,141.7,102.2,141.7,102.2Z" fill="#3390ca"/><path d="M97.2,170.2l-2.8-3.4a17.8,17.8,0,0,1-4.1-11.2v-5.8a17.5,17.5,0,0,1,11-16.2,17.4,17.4,0,0,0-12.1-.3h0a17.6,17.6,0,0,0-11.8,16.5v5.8a17.8,17.8,0,0,0,4.1,11.2l2.9,3.4a17.4,17.4,0,0,0,19.8,5A18.9,18.9,0,0,1,97.2,170.2Z" fill="#c3e8fd" stroke="#000" stroke-linecap="round" stroke-linejoin="round" stroke-width="0.71"/><path d="M132.3,154.1a74.3,74.3,0,0,1-25.1-16.6,17.9,17.9,0,0,0-5.9-3.9,17.5,17.5,0,0,0-11,16.2v5.8a17.8,17.8,0,0,0,4.1,11.2l2.8,3.4a18.9,18.9,0,0,0,7,5,17.2,17.2,0,0,0,4.3-2.5Z" stroke="#000" stroke-linecap="round" stroke-linejoin="round" stroke-width="0.71"/><path d="M186.2,170.2l2.9-3.4a17.7,17.7,0,0,0,4-11.2v-5.8a17.5,17.5,0,0,0-11-16.2,17.4,17.4,0,0,1,12.1-.3h0A17.4,17.4,0,0,1,206,149.8v5.8a17.2,17.2,0,0,1-4.1,11.2l-2.8,3.4a17.4,17.4,0,0,1-19.8,5A17.8,17.8,0,0,0,186.2,170.2Z" fill="#c3e8fd" stroke="#000" stroke-linecap="round" stroke-linejoin="round" stroke-width="0.71"/><path d="M151.1,154.1a74.8,74.8,0,0,0,25.2-16.6,18.5,18.5,0,0,1,5.8-3.9,17.5,17.5,0,0,1,11,16.2v5.8a17.7,17.7,0,0,1-4,11.2l-2.9,3.4a17.8,17.8,0,0,1-6.9,5,15.6,15.6,0,0,1-4.3-2.5Z" stroke="#000" stroke-linecap="round" stroke-linejoin="round" stroke-width="0.71"/><path d="M168.8,229.8c-4.9,7-13,7.5-15.6,7.5a12.9,12.9,0,0,1-11.5,6.7,12.7,12.7,0,0,1-11.4-6.7c-2.7,0-10.7-.5-15.6-7.5a105,105,0,0,0-11-13.9L66.6,177.2c.6,3,1.2,6,1.9,8.9l38.4,43.7a106.6,106.6,0,0,1,10,13.9,16.4,16.4,0,0,0,14.3,7.4,11.7,11.7,0,0,0,10.5,6.8,11.5,11.5,0,0,0,10.5-6.8,16.3,16.3,0,0,0,14.3-7.4,107.3,107.3,0,0,1,10.1-13.9L215,186.1c.7-2.9,1.3-5.9,1.8-8.9l-37,38.7A97.4,97.4,0,0,0,168.8,229.8Z" fill="#c3e8fd" stroke="#000" stroke-linecap="round" stroke-linejoin="round" stroke-width="0.71"/><line x1="130.3" y1="237.3" x2="131.2" y2="251.1" fill="none" stroke="#000" stroke-linecap="round" stroke-linejoin="round" stroke-width="0.71"/><line x1="152.2" y1="251.1" x2="153.2" y2="237.3" fill="none" stroke="#000" stroke-linecap="round" stroke-linejoin="round" stroke-width="0.71"/></svg>