<svg xmlns="http://www.w3.org/2000/svg" viewBox="0 0 283.5 283.5"><path d="M230.4,283.5s-6.5-34.5-38.5-41.8H91.6C59.5,249,53,283.5,53,283.5Z" fill="#701722" stroke="#000" stroke-linecap="round" stroke-linejoin="round" stroke-width="0.71"/><rect x="91.6" y="234.7" width="100.3" height="48.78" fill="#e8c49f" stroke="#000" stroke-linecap="round" stroke-linejoin="round" stroke-width="0.71"/><path d="M190.7,234.7v15.8c-13.8,14.5-30.7,23-49,23s-35.1-8.5-48.9-23V234.7Z" fill="#dcaa7d"/><path d="M64.4,118.1c-13.7,0-24.8,12.5-24.8,27.8s11.1,27.9,24.8,27.9H219.1c13.7,0,24.7-12.5,24.7-27.9s-11-27.8-24.7-27.8Z" fill="#d1a16f" stroke="#000" stroke-linecap="round" stroke-linejoin="round" stroke-width="0.71"/><ellipse cx="141.7" cy="150.3" rx="77.4" ry="110.8" fill="#e8c49f" stroke="#000" stroke-linecap="round" stroke-linejoin="round" stroke-width="0.71"/><path d="M218.3,133.3s13.6-1.6,14.7,16.5" fill="none" stroke="#000" stroke-linecap="round" stroke-linejoin="round" stroke-width="0.71"/><path d="M65.2,133.3s-13.7-1.6-14.7,16.5" fill="none" stroke="#000" stroke-linecap="round" stroke-linejoin="round" stroke-width="0.71"/><path d="M87.6,150.3c0-55,27.7-100.4,63.8-108.1A49,49,0,0,0,140.6,41C99.3,41,65.9,89.9,65.9,150.3s33.4,109.2,74.7,109.2a55.7,55.7,0,0,0,10.8-1.1C115.3,250.7,87.6,205.2,87.6,150.3Z" fill="#dcaa7d"/></svg>