<svg xmlns="http://www.w3.org/2000/svg" viewBox="0 0 283.5 283.5"><path d="M82.9,262.5l1.5-1.5,11.2,11.2-1.5,1.5a7.9,7.9,0,0,1-11.2,0h0A7.9,7.9,0,0,1,82.9,262.5Z" fill="#e95635" stroke="#000" stroke-linecap="round" stroke-linejoin="round" stroke-width="0.71"/><path d="M130.7,220.1a3.8,3.8,0,0,0-5.4,0l-8.4,8.4h0L84.4,261l11.2,11.2,35.1-46.7A3.8,3.8,0,0,0,130.7,220.1Z" fill="#638254" stroke="#000" stroke-linecap="round" stroke-linejoin="round" stroke-width="0.71"/><circle cx="79.6" cy="239.9" r="14.8" fill="#fff" stroke="#000" stroke-linecap="round" stroke-linejoin="round" stroke-width="0.71" opacity="0.63"/><circle cx="63.1" cy="217.1" r="19.4" fill="#fff" stroke="#000" stroke-linecap="round" stroke-linejoin="round" stroke-width="0.71" opacity="0.44"/><circle cx="68.6" cy="177" r="9.4" fill="#fff" stroke="#000" stroke-linecap="round" stroke-linejoin="round" stroke-width="0.71" opacity="0.73"/><circle cx="78" cy="211.1" r="13.5" fill="#fff" stroke="#000" stroke-linecap="round" stroke-linejoin="round" stroke-width="0.71" opacity="0.62"/><circle cx="77.4" cy="197.1" r="6.8" fill="#fff" stroke="#000" stroke-linecap="round" stroke-linejoin="round" stroke-width="0.71" opacity="0.65"/><circle cx="80.9" cy="256.3" r="8.2" fill="#fff" stroke="#000" stroke-linecap="round" stroke-linejoin="round" stroke-width="0.71" opacity="0.74"/><circle cx="75.4" cy="155.8" r="5.9" fill="#fff" stroke="#000" stroke-linecap="round" stroke-linejoin="round" stroke-width="0.71" opacity="0.36"/></svg>