<svg xmlns="http://www.w3.org/2000/svg" viewBox="0 0 283.5 283.5"><path d="M152.8,218.5h0a3.8,3.8,0,0,0,0,5.4l40.9,40.8,5.4-5.4-40.9-40.8A3.8,3.8,0,0,0,152.8,218.5Z" fill="#eaeaea" stroke="#000" stroke-linecap="round" stroke-linejoin="round" stroke-width="0.71"/><rect x="196.1" y="260.6" width="7.6" height="10.08" transform="translate(-129.2 219.2) rotate(-45)" fill="#a03c37" stroke="#000" stroke-linecap="round" stroke-linejoin="round" stroke-width="0.71"/><path d="M152.8,218.5h0a3.8,3.8,0,0,0,0,5.4l8.4,8.3,5.4-5.4-8.4-8.3A3.8,3.8,0,0,0,152.8,218.5Z" fill="#d2763a" stroke="#000" stroke-linecap="round" stroke-linejoin="round" stroke-width="0.71"/><circle cx="203.9" cy="238.2" r="14.8" fill="#fff" stroke="#000" stroke-linecap="round" stroke-linejoin="round" stroke-width="0.71" opacity="0.63"/><circle cx="220.3" cy="215.4" r="19.4" fill="#fff" stroke="#000" stroke-linecap="round" stroke-linejoin="round" stroke-width="0.71" opacity="0.44"/><circle cx="214.8" cy="175.3" r="9.4" fill="#fff" stroke="#000" stroke-linecap="round" stroke-linejoin="round" stroke-width="0.71" opacity="0.73"/><circle cx="205.4" cy="209.4" r="13.5" fill="#fff" stroke="#000" stroke-linecap="round" stroke-linejoin="round" stroke-width="0.71" opacity="0.62"/><circle cx="206.1" cy="195.4" r="6.8" fill="#fff" stroke="#000" stroke-linecap="round" stroke-linejoin="round" stroke-width="0.71" opacity="0.65"/><circle cx="202.6" cy="254.7" r="8.2" fill="#fff" stroke="#000" stroke-linecap="round" stroke-linejoin="round" stroke-width="0.71" opacity="0.74"/><circle cx="208" cy="154.1" r="5.9" fill="#fff" stroke="#000" stroke-linecap="round" stroke-linejoin="round" stroke-width="0.71" opacity="0.36"/></svg>