<svg xmlns="http://www.w3.org/2000/svg" viewBox="0 0 283.5 283.5"><path d="M188.9,199.7s4.9-35.7,60.7-35.7c0,0,9.6,7.9,0,17.8,10.3,2.5,17.8,29.1.7,46.6,6,18.1,1.4,23.8-9,24.5s-50.6-1.4-52.4-45.2Z" fill="#d44a4a" stroke="#000" stroke-linecap="round" stroke-linejoin="round" stroke-width="0.71"/><path d="M107.3,208.6c-3.4-12.6-14.4-13.8-14.4-13.8,10.5,8.3,6.1,18.6,5.9,18.9a20,20,0,0,0,2.4-1.6A36.8,36.8,0,0,1,107.3,208.6Z" fill="#5ab433" stroke="#000" stroke-linecap="round" stroke-linejoin="round" stroke-width="0.71"/><path d="M145.4,244.2s-5.8-7.6-4-16.8a28,28,0,0,1-4.6-1.2C136.9,230.8,138,239.5,145.4,244.2Z" fill="#5ab433" stroke="#000" stroke-linecap="round" stroke-linejoin="round" stroke-width="0.71"/><path d="M141.4,227.4h0a19.5,19.5,0,0,0,.5,9.4c2.4.1,9.9-.4,9.6-8.9h-3.1A30.4,30.4,0,0,1,141.4,227.4Z" fill="#1c1c1c" stroke="#000" stroke-linecap="round" stroke-linejoin="round" stroke-width="0.71"/><path d="M242.8,175.1s8.9,7.2,0,16.5c7.3,1.7,13,16.3,8.4,30.4,12.4-16,5.7-37.9-3.3-40,8.9-9.3,0-16.5,0-16.5-41,0-52.3,20.7-55.3,29.3C199.4,185.6,213.6,175.1,242.8,175.1Z" fill="#b22020"/><path d="M244.8,239a38.8,38.8,0,0,1,2.3,11.3c4.9-2.2,6.5-7.6,3.1-18.7A34.1,34.1,0,0,1,244.8,239Z" fill="#b22020"/><path d="M188.9,207.7c-29.7-1.3-15.8,20.2-40.5,20.3s-26.9-22.5-47.2-7.8c-16.7,12.2-46.7,7.6-56.5,5.7a3.9,3.9,0,0,1-3.2-3.9h0a4,4,0,0,1,4.7-3.9c11,2.1,39.1,5.6,55-6,20.3-14.7,22.5,8,47.2,7.9s10.8-21.7,40.5-20.3Z" fill="#7dc45e" stroke="#000" stroke-linecap="round" stroke-linejoin="round" stroke-width="0.71"/><path d="M155,208.5H128.7a5.2,5.2,0,0,0-5.2,5.2,5.1,5.1,0,0,0,2.5,4.4,5,5,0,0,0,2.7.8H155a5.2,5.2,0,0,0,5.2-5.2A5.3,5.3,0,0,0,155,208.5Z" fill="#1c1c1c" stroke="#000" stroke-linecap="round" stroke-linejoin="round" stroke-width="0.71"/><path d="M126,218.1h0l5.1,14.5,4.9-13.7h-7.3A5,5,0,0,1,126,218.1Z" fill="#fff" stroke="#000" stroke-linecap="round" stroke-linejoin="round" stroke-width="0.71"/><path d="M104.5,209.3a9.3,9.3,0,0,1,1.9-1.1c-2.8-10.2-11.1-12.1-11.1-12.1a15.1,15.1,0,0,1,4,5.3A15.8,15.8,0,0,1,104.5,209.3Z" fill="#23740f"/><path d="M139.2,227.5l-1.8-.5c.1,3.5,1.4,10.6,5.5,14.3C142.9,241.3,138.6,237.5,139.2,227.5Z" fill="#23740f"/><path d="M129.1,219.8a4.7,4.7,0,0,1-2.1-.6h0l3.9,10.9,1.4-3.7-2.4-6.6Z" fill="#cecece"/><path d="M132.3,211.2h27.3a5.3,5.3,0,0,0-4.6-2.8H128.7a5.2,5.2,0,0,0-5.2,5.2,5.4,5.4,0,0,0,4.2,5.1,4.8,4.8,0,0,1-.6-2.4A5.2,5.2,0,0,1,132.3,211.2Z"/><path d="M148.4,228h0c-1,4.3-4.5,5.6-7.1,5.9a13.6,13.6,0,0,0,.6,2.9c2.4.1,9.9-.4,9.6-8.9Z"/><path d="M157.7,218.1h0l-5.1,14.5-4.9-13.7H155A5,5,0,0,0,157.7,218.1Z" fill="#fff" stroke="#000" stroke-linecap="round" stroke-linejoin="round" stroke-width="0.71"/><path d="M154.5,219.8a4.7,4.7,0,0,0,2.1-.6h0l-3.9,10.9-1.4-3.7,2.4-6.6Z" fill="#cecece"/><path d="M94.4,217.8c-12.3,5.6-37,3.6-43.9,2s-9.4.6-6.6,5.1c0,0-3-6.2,5.5-4.4S86.1,224.6,94.4,217.8Z" fill="#23740f"/><path d="M100.5,219.6s11.2-10.4,23.4-1C123.9,218.6,113.6,205,100.5,219.6Z" fill="#23740f"/><path d="M167.6,209.6s5.1-10.8,19.9-8.4C187.5,201.2,174.8,199.9,167.6,209.6Z" fill="#23740f"/></svg>