<svg xmlns="http://www.w3.org/2000/svg" viewBox="0 0 283.5 283.5"><g style="isolation:isolate"><path d="M193.3,217.2c-13.1,0-23.6-3.7-23.6-8.1,0,12-10.4,16.7-19.4,15.4a7.6,7.6,0,0,0-8.6,7.5c0,10.9,75.2,58.2,75.2-22.9C216.9,213.5,206.3,217.2,193.3,217.2Z" fill="#755048" stroke="#000" stroke-linecap="round" stroke-linejoin="round" stroke-width="0.71"/><path d="M193.3,201c-13.1,0-23.6,3.6-23.6,8.1s10.5,8.1,23.6,8.1,23.6-3.7,23.6-8.1S206.3,201,193.3,201Z" fill="#3d0b00" stroke="#000" stroke-linecap="round" stroke-linejoin="round" stroke-width="0.71"/><path d="M214.9,212.3a4.3,4.3,0,0,0,2-3.2c0-4.5-10.6-8.1-23.6-8.1s-23.6,3.6-23.6,8.1a4.4,4.4,0,0,0,1.9,3.2c3.7-2.9,12-4.9,21.7-4.9S211.3,209.4,214.9,212.3Z" fill="#755048" style="mix-blend-mode:multiply"/><circle cx="202.4" cy="191.7" r="14.8" fill="#d6ffff" stroke="#000" stroke-linecap="round" stroke-linejoin="round" stroke-width="0.71" opacity="0.63"/><circle cx="218.8" cy="168.8" r="19.4" fill="#d6ffff" stroke="#000" stroke-linecap="round" stroke-linejoin="round" stroke-width="0.71" opacity="0.44"/><circle cx="207.2" cy="162.9" r="10.2" fill="#d6ffff" stroke="#000" stroke-linecap="round" stroke-linejoin="round" stroke-width="0.71" opacity="0.62"/><circle cx="204.6" cy="148.9" r="6.8" fill="#d6ffff" stroke="#000" stroke-linecap="round" stroke-linejoin="round" stroke-width="0.71" opacity="0.65"/><circle cx="201.1" cy="208.1" r="8.2" fill="#d6ffff" stroke="#000" stroke-linecap="round" stroke-linejoin="round" stroke-width="0.71" opacity="0.74"/><path d="M169.7,211.8s11,10.9,40.7,4C210.4,215.8,181.9,228.3,169.7,211.8Z" fill="#41298f"/><path d="M186,255.3c-20.8,0-42.9-16.6-43.9-22.9,8.7,7.5,24.3,15.4,38.2,15.4,11.8,0,26.6-5.7,30.3-32.9,3-1.1,5.1-2.5,6-4C216.1,247.6,199.7,255.3,186,255.3Z" fill="#3e0b00"/></g></svg>