<svg xmlns="http://www.w3.org/2000/svg" viewBox="0 0 283.5 283.5"><rect x="113.9" y="211.5" width="55.7" height="19.1" rx="9.6" fill="#1c1c1c" stroke="#000" stroke-linecap="round" stroke-linejoin="round" stroke-width="0.71"/><path d="M123.5,230.6s19.5,1.3,20.4,21.9A16.1,16.1,0,0,0,159.8,268h.6a16,16,0,0,0,15.9-18.1c-1.5-11-6.9-23.8-22.8-28.9,0,0-11.5-3.1-15.2,4.5C129.3,223,123.6,226.4,123.5,230.6Z" fill="#ea9593" stroke="#000" stroke-miterlimit="10" stroke-width="0.71"/><path d="M129.3,216h36.6a9.9,9.9,0,0,1,2.4.3,9.4,9.4,0,0,0-8.3-4.8H123.5a9.5,9.5,0,0,0-9.6,9.5h0a9.5,9.5,0,0,0,7.1,9.2,9.5,9.5,0,0,1-1.3-4.7A9.6,9.6,0,0,1,129.3,216Z"/><path d="M131.4,232.2a23.9,23.9,0,0,0-7.3-2.1c.5-2.9,3.8-4.9,8.4-4.9a19.7,19.7,0,0,1,5.6.9h.5l.2-.4c1.9-4,6.3-4.8,9.5-4.8a17.4,17.4,0,0,1,5.1.6,31.6,31.6,0,0,1,9.7,4.9l-2.4-.9a25.9,25.9,0,0,0-5.4-.6c-3.5,0-8,.9-10.3,5a22.8,22.8,0,0,0-5.5-.8C136,229.2,133.1,230.3,131.4,232.2Z" fill="#c75b5b"/><path d="M152.4,265.2c.1.1,0,.3-.2.2a15.6,15.6,0,0,1-7.7-12.9,24.6,24.6,0,0,0-3.5-12.1c-.1-.1.1-.3.2-.2,4.4,2.9,8.7,8.2,9.1,17.5A19.6,19.6,0,0,0,152.4,265.2Z" fill="#c75b5b"/><path d="M138.3,225.5s10.3,0,15.6,13.7" fill="none" stroke="#000" stroke-miterlimit="10" stroke-width="0.71"/></svg>