<svg xmlns="http://www.w3.org/2000/svg" viewBox="0 0 283.5 283.5"><path d="M159.1,204.4h70.4a0,0,0,0,1,0,0v15.7a0,0,0,0,1,0,0H159.1a7.9,7.9,0,0,1-7.9-7.9v0a7.9,7.9,0,0,1,7.9-7.9Z" transform="translate(-49 57.3) rotate(-15.2)" fill="#55441b" stroke="#000" stroke-linecap="round" stroke-linejoin="round" stroke-width="0.71"/><rect x="217.4" y="195.6" width="11" height="15.71" transform="translate(-45.5 65.5) rotate(-15.2)" fill="#cc342a" stroke="#000" stroke-linecap="round" stroke-linejoin="round" stroke-width="0.71"/><circle cx="221.3" cy="185" r="12.6" fill="#fff" stroke="#000" stroke-linecap="round" stroke-linejoin="round" stroke-width="0.71" opacity="0.63"/><circle cx="235.2" cy="165.7" r="16.4" fill="#fff" stroke="#000" stroke-linecap="round" stroke-linejoin="round" stroke-width="0.71" opacity="0.44"/><circle cx="230.6" cy="131.8" r="7.9" fill="#fff" stroke="#000" stroke-linecap="round" stroke-linejoin="round" stroke-width="0.71" opacity="0.73"/><circle cx="222.6" cy="160.6" r="11.4" fill="#fff" stroke="#000" stroke-linecap="round" stroke-linejoin="round" stroke-width="0.71" opacity="0.62"/><circle cx="223.2" cy="148.8" r="5.7" fill="#fff" stroke="#000" stroke-linecap="round" stroke-linejoin="round" stroke-width="0.71" opacity="0.65"/><circle cx="220.2" cy="198.9" r="6.9" fill="#fff" stroke="#000" stroke-linecap="round" stroke-linejoin="round" stroke-width="0.71" opacity="0.74"/><circle cx="224.8" cy="113.8" r="5" fill="#fff" stroke="#000" stroke-linecap="round" stroke-linejoin="round" stroke-width="0.71" opacity="0.36"/><polygon points="182.4 206.3 173.1 208.8 176.6 224.2 185.9 221.6 182.4 206.3" fill="#3f2e1b" stroke="#000" stroke-linecap="round" stroke-linejoin="round" stroke-width="0.71"/></svg>