<svg xmlns="http://www.w3.org/2000/svg" viewBox="0 0 283.5 283.5"><path d="M209.3,73.9c.7-21.4-26.6-37.6-67.6-37.6S73.5,52.5,74.2,73.9c-22.3,25.9,0,50.3,0,50.3s20.8-7.4,21.6-37c0,0,20.8,9.6,26.5-6.6,0,0,1.5,25.8,19.4,25.8s19.4-25.8,19.4-25.8c5.8,16.2,26.6,6.6,26.6,6.6.7,29.6,21.6,37,21.6,37S231.5,99.8,209.3,73.9Z" fill="#634c25" stroke="#000" stroke-miterlimit="10" stroke-width="0.71"/><path d="M187.7,87.2s1.7-18.3,21.6-13.3" fill="none" stroke="#000" stroke-miterlimit="10" stroke-width="0.71"/><path d="M141.7,105.9c-9,0-13.7-7-16-13a13.5,13.5,0,0,0,7.6-6.9c.5,4.4,2.4,14.2,8.6,19.9Z" fill="#3f2c11"/><path d="M74.4,123.5c-2.4-2.8-20.1-25.5.2-49.2l.2-.2v-.2c-.3-6.7,2.4-13.2,7.8-18.7,11.2-11.7,32.8-18.4,59.1-18.4a125,125,0,0,1,29,3.2A142.5,142.5,0,0,0,153,38.9c-26.6,0-48.5,6.8-60,18.7-5.5,5.7-8.3,12.3-8.1,19.3-15,17.6-9.7,34.5-4.9,43.3A28.2,28.2,0,0,1,74.4,123.5Z" fill="#3f2c11"/><path d="M209.1,123.5c-2.5-1.1-17.3-8.2-20.3-29.8a36,36,0,0,0,9.6-2.4c.6,15.6,6.9,25,12.3,30.1Z" fill="#3f2c11"/><path d="M95.8,87.2S94.4,68.5,74.2,73.9" fill="none" stroke="#000" stroke-miterlimit="10" stroke-width="0.71"/><path d="M122.3,80.6s6.5-34.7-30.7-33.1" fill="none" stroke="#000" stroke-miterlimit="10" stroke-width="0.71"/><path d="M161.1,80.6c.7-22.1-4.2-43.9-27-44.1" fill="none" stroke="#000" stroke-miterlimit="10" stroke-width="0.71"/></svg>