<svg xmlns="http://www.w3.org/2000/svg" viewBox="0 0 283.5 283.5"><path d="M209.2,74.2s-9-35.8-67.5-35.8S74.2,74.2,74.2,74.2C44,95,66.5,131.6,66.5,131.6s7.1-15.8,23.2-9.4,22.5,15.8,52,15.8,36-9.3,52.1-15.8,23.2,9.4,23.2,9.4S239.5,95,209.2,74.2Z" fill="#b3b3b3" stroke="#000" stroke-miterlimit="10" stroke-width="0.71"/><path d="M141.7,137.4c-21.4,0-30.6-4.9-40.2-10.1l-5.8-3a15.1,15.1,0,0,1,9-3.1,19.2,19.2,0,0,1,7.2,1.6,95.2,95.2,0,0,1,11.5,5.5c6.9,3.7,13.4,7.2,24.1,9Z" fill="#626262"/><path d="M66.5,130.4c-3.1-5.7-18.8-37.3,8.1-55.7v-.4c0-.1,2.3-8.9,11.7-17.7s25.2-17.7,55.2-17.7h5c-13.1,1.9-29,6.8-40.4,18.7-7.4,7.7-9.7,14.8-10.1,16.2-19.9,13.8-16.8,34.5-12.9,46.3H82.2C73.1,120.1,68,127.7,66.5,130.4Z" fill="#626262"/></svg>