<svg xmlns="http://www.w3.org/2000/svg" viewBox="0 0 283.5 283.5"><path d="M108.1,39.4s-27.2-9.2-35,16.4C57.9,47.4,43.8,68,55.8,79.7c-16.9,0-12.4,14.7,3.7,23.9-10.3,8.4,9.9,19.7,4.9,34.4,0,0,33.4-8,34.2-29.8,12,.9,23.5-23,40,8,0,0,9.1-5.5,4.6-18.5,0,0,18.9,11.8,44.5-.4,1.6,21.4,9.4,25.6,20.1,29.4s10.3,20.5,10.3,20.5,23.1-27.6,11.6-54.7c9.9-12.4,1.6-39.2-14-44.3-5-15.1-23.1-23-49.5-15.9C141.1,21.8,123.8,17.2,108.1,39.4Z" fill="#1c2b17" stroke="#000" stroke-linecap="round" stroke-linejoin="round" stroke-width="0.71"/><path d="M65.3,137.2c1.8-6.9-1.5-13-4.5-18.4s-5.9-10.7-.9-14.8l.6-.5-.7-.4c-9.4-5.4-15.3-13-14-18.1.9-3.1,4.4-4.7,10-4.7h1.4l-1-1A13.9,13.9,0,0,1,53,63.6c2.3-5.5,7.4-9.2,12.9-9.2a13.6,13.6,0,0,1,6.9,1.9l.6.3.2-.6c4.5-14.6,15.3-17.6,23.6-17.6A36.8,36.8,0,0,1,107.9,40h.4l.3-.3c7.5-10.7,15.8-15.6,26.1-15.6,6.3,0,13.4,1.6,23.6,5.6-4.4,2.5-8.6,6.5-12.5,12a38.8,38.8,0,0,0-10.7-1.5c-8.5,0-19.7,3.1-24.4,17.7a15.9,15.9,0,0,0-6.9-1.7c-6,0-11.5,3.9-14,10a14.9,14.9,0,0,0,2.6,15.9c-5.4.3-8.9,2.2-9.8,5.5-1.4,5.5,4.4,13.4,13.8,19-3.7,3.5-2.7,7.5-1.1,11.1C88.2,130.1,69.7,136,65.3,137.2Z" fill="#0d160a"/><path d="M218.7,145.6a47.2,47.2,0,0,0-1.1-7.4c-1.7-6.3-5-10.4-9.6-12.1-9.3-3.2-16.1-6.7-18.8-21.4a50.4,50.4,0,0,0,13,1.7,53.7,53.7,0,0,0,22.8-5.2c.8,8.8,2.6,15,5.8,19.5A73.3,73.3,0,0,1,218.7,145.6Z" fill="#0d160a"/></svg>