<svg xmlns="http://www.w3.org/2000/svg" viewBox="0 0 283.5 283.5"><g style="isolation:isolate"><path d="M141.7,85.2a36.5,36.5,0,0,1-35.8-29.7,38.2,38.2,0,0,0-.7,6.8,36.5,36.5,0,0,0,73,0,38.2,38.2,0,0,0-.6-6.8A36.5,36.5,0,0,1,141.7,85.2Z" fill="#404040" opacity="0.45" style="mix-blend-mode:multiply"/><path d="M113.4,69.1s1.7,16.4-27.5,25.8c.5,35.7-16.4,94.8-16.4,94.8s-10-28.7-4.7-50.4c-10.6-6.4-22.3-66.1,41.5-87.8Z" fill="#dfe4a5" stroke="#000" stroke-miterlimit="10" stroke-width="0.71"/><path d="M170.1,69.1s-1.8,16.4,27.5,25.8c-.6,35.7,16.4,94.8,16.4,94.8s10-28.7,4.7-50.4c10.5-6.4,22.2-66.1-41.6-87.8Z" fill="#dfe4a5" stroke="#000" stroke-miterlimit="10" stroke-width="0.71"/><path d="M59.9,130.8a51.1,51.1,0,0,1-2.8-14.3,62.7,62.7,0,0,1,4-25.1C66,78.9,77.8,62,106,52.3l3.6,8.8C58.8,78.4,58.4,117.4,59.9,130.8Z" fill="#959663"/><path d="M223.6,130.8c1.5-13.4,1.1-52.4-49.7-69.7l3.6-8.8c28.2,9.7,39.9,26.6,44.8,39.1a59.4,59.4,0,0,1,4,25.1A47.8,47.8,0,0,1,223.6,130.8Z" fill="#959663"/><circle cx="141.7" cy="48.8" r="36.5" fill="#f9febb" stroke="#000" stroke-miterlimit="10" stroke-width="0.71"/><circle cx="141.7" cy="48.8" r="18.6" fill="#dfe4a5" stroke="#000" stroke-miterlimit="10" stroke-width="0.71"/><path d="M68.1,183.1c-2.2-8.3-5.5-23.7-3.9-37.5a12.1,12.1,0,0,0,3.4,4.1C65.1,160.6,66.2,173.1,68.1,183.1Z" fill="#959663"/><path d="M215.3,183.1c1.9-10,3.1-22.5.6-33.4a12,12,0,0,0,3.3-4.1C220.8,159.4,217.6,174.8,215.3,183.1Z" fill="#959663"/><path d="M141.7,73.5a18.1,18.1,0,0,1-18-18v-.3a19.1,19.1,0,0,0,36,0v.3A18,18,0,0,1,141.7,73.5Z" fill="#bbbc86"/><path d="M140.4,66.7a18,18,0,0,1,1.3-35.9,16.8,16.8,0,0,1,5,.7,19.1,19.1,0,0,0-6.3,35.2Z" fill="#bbbc86"/><path d="M141.7,84.7a35.9,35.9,0,0,1-2-71.8,37,37,0,0,0,13.1,70A34.9,34.9,0,0,1,141.7,84.7Z" fill="#c7c995"/></g></svg>