<svg xmlns="http://www.w3.org/2000/svg" viewBox="0 0 283.5 283.5"><path d="M109.9,59.2S65.5,78.1,65.5,155.8c0,0-23.6-80.8,37.9-107.6Z" fill="#1a1a1a" stroke="#000" stroke-miterlimit="10" stroke-width="0.71"/><path d="M173.6,59.2s44.3,18.9,44.3,96.6c0,0,23.7-80.8-37.8-107.6Z" fill="#1a1a1a" stroke="#000" stroke-miterlimit="10" stroke-width="0.71"/><path d="M181,45.6s13.8-13.4-39.3-13.4-39.2,13.4-39.2,13.4S90.9,74.7,118.6,88c5.1,12.8,15.4,14,23.1,14s18-1.2,23.2-14C192.6,74.7,181,45.6,181,45.6Z" fill="#1a1a1a" stroke="#000" stroke-miterlimit="10" stroke-width="0.71"/><path d="M144.4,80.7c-9.4,0-18.2-3.9-22.9-10.1a3.6,3.6,0,0,1,1.3-5.2,4.7,4.7,0,0,1,5.9,1.1c3.1,4.2,9.1,6.7,15.7,6.7,9.8,0,17.8-5.5,17.8-12.4s-8-12.3-17.8-12.3a23.1,23.1,0,0,0-10.2,2.2,4.6,4.6,0,0,1-5.8-1.4,3.5,3.5,0,0,1,1.6-5A31.7,31.7,0,0,1,144.4,41c14.5,0,26.3,8.9,26.3,19.8S158.9,80.7,144.4,80.7Z" fill="#373737" stroke="#000" stroke-miterlimit="10" stroke-width="0.71"/><path d="M130.1,89.8C102.5,76.5,114,47.4,114,47.4S100.3,34,153.3,34c7.7,0,13.9.3,19,.8-6.1-1.5-15.7-2.6-30.6-2.6-53,0-39.2,13.4-39.2,13.4S90.9,74.7,118.6,88c5.1,12.8,15.3,14,23.1,14C137.1,100.2,132.9,96.7,130.1,89.8Z"/><path d="M162.3,60.8c0-5.2-4.6-9.6-11.1-11.5,3.2,2.3,5.2,5.4,5.2,8.8,0,6.8-8,12.4-17.8,12.4a28.4,28.4,0,0,1-6.6-.9,22.7,22.7,0,0,0,12.5,3.6C154.3,73.2,162.3,67.6,162.3,60.8Z"/></svg>