<svg xmlns="http://www.w3.org/2000/svg" viewBox="0 0 283.5 283.5"><path d="M141.7,25.2C37.3,25.2,64.2,145,64.2,145s10.7-64.5,77.5-64.5S219.3,145,219.3,145,246.1,25.2,141.7,25.2Z" fill="#202020" stroke="#000" stroke-linecap="round" stroke-linejoin="round" stroke-width="0.71"/><path d="M156.9,33.2c13.8,0,25.2,2.1,34.7,5.7-11.8-8.3-27.9-13.7-49.9-13.7C37.3,25.2,64.2,145,64.2,145a88.2,88.2,0,0,1,12.2-29.9C77.7,80,91.7,33.2,156.9,33.2Z" stroke="#000" stroke-linecap="round" stroke-linejoin="round" stroke-width="0.71"/><path d="M186.8,93.6c27,18.9,32.5,51.4,32.5,51.4a159.6,159.6,0,0,0,2.8-22.2C214.9,111.6,203.8,100.1,186.8,93.6Z" stroke="#000" stroke-linecap="round" stroke-linejoin="round" stroke-width="0.71"/></svg>