<svg xmlns="http://www.w3.org/2000/svg" viewBox="0 0 283.5 283.5"><path d="M59.5,167.8h0a3.6,3.6,0,0,1,3.6,3.6v27.3a0,0,0,0,1,0,0H55.9a0,0,0,0,1,0,0V171.4A3.6,3.6,0,0,1,59.5,167.8Z" fill="#c4c4c4" stroke="#000" stroke-linecap="round" stroke-linejoin="round" stroke-width="0.71"/><path d="M220.4,167.8h7.1a0,0,0,0,1,0,0v27.3a3.6,3.6,0,0,1-3.6,3.6h0a3.6,3.6,0,0,1-3.6-3.6V167.8a0,0,0,0,1,0,0Z" transform="translate(448 366.5) rotate(-180)" fill="#c4c4c4" stroke="#000" stroke-linecap="round" stroke-linejoin="round" stroke-width="0.71"/><path d="M56.5,198.1V171.4a2.9,2.9,0,0,1,3-3,2.8,2.8,0,0,1,1.5.4,4.1,4.1,0,0,0-2.1,3.6v25.7Z" fill="#797979"/><path d="M224.5,198.1V172.4a4.2,4.2,0,0,0-2-3.6,2.4,2.4,0,0,1,1.5-.4,3,3,0,0,1,3,3v26.7Z" fill="#797979"/><path d="M198.6,74.7c-7.7,5.5-24.2,13.4-56.9,13.4S92.6,80.2,84.9,74.7a3.6,3.6,0,0,0-5.7,2.9A10.8,10.8,0,0,0,83.1,86c6.7,5.6,23.2,14.8,58.6,14.8s51.9-9.2,58.6-14.8a10.9,10.9,0,0,0,4-8.4A3.6,3.6,0,0,0,198.6,74.7Z" fill="#eaeaea" stroke="#000" stroke-linecap="round" stroke-linejoin="round" stroke-width="0.71"/><circle cx="141.7" cy="101.9" r="3.5" fill="#eaeaea" stroke="#000" stroke-linecap="round" stroke-linejoin="round" stroke-width="0.71"/><circle cx="141.7" cy="118.1" r="12.7" fill="#eaeaea" stroke="#000" stroke-linecap="round" stroke-linejoin="round" stroke-width="0.71"/><circle cx="53" cy="192" r="12.5" fill="#eaeaea" stroke="#000" stroke-linecap="round" stroke-linejoin="round" stroke-width="0.71"/><circle cx="230.4" cy="192" r="12.5" fill="#eaeaea" stroke="#000" stroke-linecap="round" stroke-linejoin="round" stroke-width="0.71"/><path d="M140.2,104.4a3.1,3.1,0,0,1-1.4-2.5,2.9,2.9,0,0,1,2.9-2.9h0a4,4,0,0,0-2,3.5A4.1,4.1,0,0,0,140.2,104.4Z" fill="#b3b3b3"/><path d="M48.7,203.2A12,12,0,0,1,53,180.1a11.8,11.8,0,0,1,7.5,2.6h-1a13.1,13.1,0,0,0-10.8,20.5Z" fill="#b3b3b3"/><path d="M234.7,203.2a13.2,13.2,0,0,0,2.3-7.4,13.1,13.1,0,0,0-13-13.1h-1a11.7,11.7,0,0,1,7.4-2.6A11.9,11.9,0,0,1,242.3,192,12.1,12.1,0,0,1,234.7,203.2Z" fill="#b3b3b3"/><path d="M140.4,130.2a12.2,12.2,0,0,1,1.3-24.3,13.3,13.3,0,0,1,5.3,1.2,13.3,13.3,0,0,0-11.1,13.2A13,13,0,0,0,140.4,130.2Z" fill="#b3b3b3"/><path d="M104.7,95.8c-10.8-3-17.4-7-21.2-10.2a10.4,10.4,0,0,1-3.8-8,3.1,3.1,0,0,1,3.1-3.1,3,3,0,0,1,1.8.6A28.4,28.4,0,0,0,88,77.3a4.2,4.2,0,0,0-.6,2.1,11.3,11.3,0,0,0,4.2,8.9A47.1,47.1,0,0,0,104.7,95.8Z" fill="#b3b3b3"/><path d="M150.5,89.3a170.7,170.7,0,0,1-18-.9c3,.2,6.1.2,9.2.2,31.9,0,48.7-7.3,57.2-13.5a2.7,2.7,0,0,1,1.7-.6,3.1,3.1,0,0,1,3.1,3.1v.6C195.1,83.3,179,89.3,150.5,89.3Z" fill="#b3b3b3"/></svg>