<svg xmlns="http://www.w3.org/2000/svg" viewBox="0 0 283.5 283.5"><path d="M20.3,236s26.7-2,53.3-33a146.9,146.9,0,0,1-7.3-27.6C63.6,185.9,54,206.9,20.3,236Z" fill="#be66c2" stroke="#000" stroke-linecap="round" stroke-linejoin="round" stroke-width="0.71"/><path d="M263.1,236s-26.6-2-53.3-33a133.1,133.1,0,0,0,7.3-27.6C219.9,185.9,229.5,206.9,263.1,236Z" fill="#be66c2" stroke="#000" stroke-linecap="round" stroke-linejoin="round" stroke-width="0.71"/><path d="M22.2,235.2c30.4-26.7,40.6-46.5,44-57.2a125.6,125.6,0,0,0,3.1,13.5c-6.3,12-16.5,24.8-30.6,38.2A67.1,67.1,0,0,1,22.2,235.2Z" fill="#723777"/><path d="M261.3,235.2a67.4,67.4,0,0,1-16.6-5.5c-14-13.4-24.3-26.2-30.5-38.2,1.2-4.4,2.3-9,3.1-13.5C220.7,188.7,230.9,208.5,261.3,235.2Z" fill="#723777"/><path d="M181,43.6c-3.3-19.6-29.5-25.5-39.3-25.5s-36,5.9-39.2,25.5c-60.2,15.1-45.2,75.6-45.2,75.6C80.2,124.8,77,164.7,77,164.7s8.5-32.7,0-48.4c15-3.3,37.2-23.6,39.9-42.6,0,0,8.5,5.9,24.8,5.9s24.9-5.9,24.9-5.9c2.6,19,24.9,39.3,39.9,42.6-8.5,15.7,0,48.4,0,48.4s-3.3-39.9,19.6-45.5C226.1,119.2,241.2,58.7,181,43.6Z" fill="#be66c2" stroke="#000" stroke-linecap="round" stroke-linejoin="round" stroke-width="0.71"/><path d="M41,205.7a2.3,2.3,0,0,0-3.9-.8l-4.5,4.7-4.5,4.7a2.3,2.3,0,0,0,1.1,3.9l9.8,2.9,2.7-2.8,2.7-2.9Z" fill="#ffff24" stroke="#000" stroke-linecap="round" stroke-linejoin="round" stroke-width="0.71"/><path d="M58,221.7a2.4,2.4,0,0,1,1,3.9l-4.5,4.8-4.4,4.7a2.4,2.4,0,0,1-4-.8l-3.4-9.7,2.7-2.9,2.7-2.9Z" fill="#ffff24" stroke="#000" stroke-linecap="round" stroke-linejoin="round" stroke-width="0.71"/><circle cx="43.6" cy="220" r="7" fill="#6c1aff" stroke="#000" stroke-linecap="round" stroke-linejoin="round" stroke-width="0.71"/><path d="M242.4,205.7a2.4,2.4,0,0,1,4-.8l4.5,4.7,4.5,4.7a2.4,2.4,0,0,1-1.1,3.9l-9.9,2.9-2.7-2.8-2.7-2.9Z" fill="#ffff24" stroke="#000" stroke-linecap="round" stroke-linejoin="round" stroke-width="0.71"/><path d="M225.5,221.7a2.4,2.4,0,0,0-1.1,3.9l4.5,4.8,4.5,4.7a2.4,2.4,0,0,0,4-.8l3.4-9.7-2.7-2.9-2.7-2.9Z" fill="#ffff24" stroke="#000" stroke-linecap="round" stroke-linejoin="round" stroke-width="0.71"/><circle cx="239.9" cy="220" r="7" fill="#6c1aff" stroke="#000" stroke-linecap="round" stroke-linejoin="round" stroke-width="0.71"/><path d="M77.7,158.8c-.1-6.6-.9-17.7-5-26.5,3,3.1,5.3,7.3,7,12.7C79.2,150.3,78.4,155.3,77.7,158.8Z" fill="#723777"/><path d="M61.8,120.3a19.7,19.7,0,0,0-4-1.6,78.8,78.8,0,0,1,.1-31.6c3.4-15.3,13.9-35.2,44.7-42.9h.4v-.4c1.8-10.4,10.2-16.5,16.9-19.7a55.3,55.3,0,0,1,21.8-5.3c7.8,0,25.5,3.6,34.1,14.7-9.2-6.4-21.4-8.7-28-8.7-11,0-36.2,6.4-39.7,25.6-21.3,5.4-35.6,17-42.4,34.6C60.3,98.6,60.9,112.5,61.8,120.3Z" fill="#723777"/><path d="M176.9,94.3a55,55,0,0,1-7-11.3l2.4-1.2A39,39,0,0,0,176.9,94.3Z" fill="#723777"/><path d="M212.9,62.1a68.9,68.9,0,0,0-25.3-11.8,24.2,24.2,0,0,0-1.3-4.6C197.3,49.3,206.3,54.7,212.9,62.1Z" fill="#723777"/><path d="M205.8,158.8c-1.7-8.8-4.2-25.8-.7-37.5a37.3,37.3,0,0,0,6.7,2.5c-1.9,3.8-3.1,8.8-3.4,15A74.6,74.6,0,0,0,205.8,158.8Z" fill="#723777"/><path d="M37.4,221.6a6.1,6.1,0,0,1,1.5-6,6.3,6.3,0,0,1,4.7-2,6.6,6.6,0,0,1,4.4,1.7,6,6,0,0,1,1.4,2.1,7.3,7.3,0,0,0-4.7-1.7,7.7,7.7,0,0,0-5.5,2.4A7.8,7.8,0,0,0,37.4,221.6Z" fill="#310989"/><path d="M246.1,221.6a7.1,7.1,0,0,0-1.9-3.5,7.3,7.3,0,0,0-5.4-2.4,7.1,7.1,0,0,0-4.7,1.7,6,6,0,0,1,1.4-2.1,6.5,6.5,0,0,1,9.1.3A6.3,6.3,0,0,1,246.1,221.6Z" fill="#310989"/></svg>