<svg xmlns="http://www.w3.org/2000/svg" viewBox="0 0 283.5 283.5"><path d="M210.3,77.3c10-18.1-16.5-41.3-68.6-41.3S63.2,59.2,73.2,77.3c-20,21.2,0,56.3,0,56.3s13.5-19.1,10.5-39.3c9.5,2.6,6-8.7,19.5-8.7,0,0,12.5,32,38.5,32s38.5-32,38.5-32c13.6,0,10.1,11.3,19.6,8.7-3,20.2,10.5,39.3,10.5,39.3S230.3,98.5,210.3,77.3Z" fill="#73d4fb" stroke="#000" stroke-linecap="round" stroke-linejoin="round" stroke-width="0.71"/><path d="M133.6,38.1c-4.3.2-8.3.6-12.2,1.1,21.2,33.2,11.8,77.2,11.8,77.2h0C145.8,80.4,138.8,51.8,133.6,38.1Z" fill="#439eba"/><path d="M210.2,132.5c-2.4-3.7-12.1-19.9-10-37,0,.1.1.1.1.2,1.5,1.9,2.9,3.7,5.9,3.7l1.9-.2c-1.4,10.6,1.8,20.9,4.7,27.7C211.7,129.5,210.7,131.5,210.2,132.5Zm-13-38.4c-2.4,0-3.6-1.4-5-3.2l-.4-.5a11.1,11.1,0,0,1,7.1,3.6Z" fill="#439eba"/><path d="M129.6,114.5c-11.6-5-19.2-16.3-23-23.3a13.8,13.8,0,0,1,5.2-.9C112.8,92.6,118.7,105.8,129.6,114.5Z" fill="#439eba"/><path d="M73.3,132.5c-2.8-5.4-17.5-36,.3-54.8l.3-.3-.2-.4c-2.9-5.2-2.7-10.9.6-16.4,8.6-14.6,35.1-24.1,67.4-24.1,16.9,0,32.4,2.6,44.5,7.3a138.1,138.1,0,0,0-35.5-4.3C125.9,39.5,93,46,82.3,64.2c-3.4,5.7-3.7,11.7-.8,17.1-6.9,7.5-13.2,21.4-4.8,45.2C75.2,129.3,73.9,131.4,73.3,132.5Z" fill="#439eba"/></svg>