<svg xmlns="http://www.w3.org/2000/svg" viewBox="0 0 283.5 283.5"><path d="M141.7,21.2c-59.2,0-85.3,43-85.3,70.8V218.6c0,24,24.7,24,24.7,24V118.4c11.3,8.3,28.2.1,28.2-9.7,14.1,5.6,32.4,0,32.4,0s18.4,5.6,32.5,0c0,9.8,16.9,18,28.2,9.7V242.6s24.6,0,24.6-24V92C227,64.2,201,21.2,141.7,21.2Z" fill="#723f34" stroke="#000" stroke-linecap="round" stroke-linejoin="round" stroke-width="0.71"/><path d="M202.9,131.4a21.6,21.6,0,0,0,5.6.8,18.6,18.6,0,0,0,10.1-2.9V236.6c-6,4.6-13.6,5.3-15.7,5.4Z" fill="#49231d"/><path d="M75.8,241.4c-7.6-1.6-18.8-6.6-18.8-22.8V92c0-28.3,26.9-70.2,84.7-70.2,20.3,0,37.8,4.9,52.3,14.7a101.7,101.7,0,0,0-35.5-6c-58.6,0-85.9,42.5-85.9,71.3V228.5A25.4,25.4,0,0,0,75.8,241.4Z" fill="#49231d"/></svg>