<svg xmlns="http://www.w3.org/2000/svg" viewBox="0 0 283.5 283.5"><path d="M217.3,105.1s9.3-25-7.7-29.1c5.1-13.7-13-41.9-67.9-41.9S68.7,62.3,73.9,76c-17.1,4.1-7.8,29.1-7.8,29.1s-11.9,1.3-10.8,30.4,18.6,41,18.6,41,5.7-22.3,0-37.3c22.3-7.8,32.6-28.7,15-44.6,22.8,3.2,21.2-12.7,17.6-18.6,0,0,11.9,5.9,35.2,5.9S176.9,76,176.9,76c-3.6,5.9-5.1,21.8,17.6,18.6-17.6,15.9-7.2,36.8,15.1,44.6-5.7,15,0,37.3,0,37.3s17.6-11.9,18.6-41S217.3,105.1,217.3,105.1Z" fill="#e6e6e6" stroke="#000" stroke-miterlimit="10" stroke-width="0.71"/><path d="M209.9,175.5c-.9-4.2-4.8-23.1.2-36.1v-.3a45.9,45.9,0,0,0,11,5.8c-1.9,5.3-2.7,12.2-2.2,20.3A42.1,42.1,0,0,1,209.9,175.5Zm-.6-37c-11.6-4.2-19.9-11.9-22.4-20.9-1.8-6.6-.2-13.1,4.6-19a19.1,19.1,0,0,0,9.9,2.3,26.8,26.8,0,0,0,3.9-.2c-6.3,6.3-8.9,13.7-7.4,21.2S203.2,133.9,209.3,138.5Z" fill="#9b9b9b"/><path d="M73.6,175.5c-3.2-2.5-16.9-14.8-17.8-40-1-28.1,10.3-29.9,10.4-29.9h.7l-.2-.6c-.1-.2-5.2-14.1-.7-22.5a11.8,11.8,0,0,1,8-5.9h.7l-.3-.6c-1.8-4.9-.4-11.4,3.7-17.4s21-23.7,63.6-23.7c16.4,0,30.9,2.6,42.5,7.6a122.1,122.1,0,0,0-30.1-3.4c-43.2,0-59.5,16.9-64.6,24.2s-5.6,12.7-4,17.8a12.7,12.7,0,0,0-8.1,6.3c-4.2,8-.6,19.9.4,22.8-2.6.8-11.6,5.3-10.7,30.9.4,10.6,2.9,20.1,7.6,28.3C74.3,172.1,73.8,174.3,73.6,175.5Z" fill="#9b9b9b"/><path d="M187.8,94.4c-8.8-.3-11.6-4.7-12.2-8.5a73.7,73.7,0,0,0,12.5-3.4C186.5,85.9,186,90.7,187.8,94.4Z" fill="#9b9b9b"/></svg>