<svg xmlns="http://www.w3.org/2000/svg" viewBox="0 0 283.5 283.5"><path d="M140.3,107.6S111,85.5,111,53.2c0,0-.9-17.6,17.2-24.2s4-20.5,4-20.5S217.1,25.2,140.3,107.6Z" fill="#fd94f2" stroke="#000" stroke-linecap="round" stroke-linejoin="round" stroke-width="0.71"/><path d="M140.2,106.8c-3.5-2.8-28.6-24-28.6-53.6,0-.2-.7-17.3,16.8-23.7,5.9-2.1,9.3-5.1,10-8.9S136,11.7,134,9.5a70.2,70.2,0,0,1,12.3,4.4c1.7,1.8,5.3,6.3,4.2,10.7s-3.8,5.8-9.2,7.7C123.1,39,123.8,56.9,123.8,57c0,19.9,10.7,35.9,19.9,45.9Z" fill="#8e438b"/></svg>