<svg xmlns="http://www.w3.org/2000/svg" viewBox="0 0 283.5 283.5"><path d="M169.9,77.7c53.2,0,48.5,86.4,48.5,86.4s28.2-64.6-9.4-94.5c-5.5-15.7-21.1-25.2-67.3-25.2S79.9,53.9,74.5,69.6c-37.6,29.9-9.4,94.5-9.4,94.5s-4.7-86.4,48.5-86.4Z" fill="#eae39b" stroke="#000" stroke-linecap="round" stroke-linejoin="round" stroke-width="0.71"/><path d="M219,161c.2-12.7-1.1-59.5-26.3-77,21.6,7.5,29.9,33.2,32.9,54.2A152.8,152.8,0,0,1,219,161Z" fill="#bab174"/><path d="M64.4,160.9C59.5,148,42.6,95.7,74.8,70H75C81.2,52.2,100.5,45,141.7,45c19,0,33.5,1.6,44.1,5-9.3-1.8-20.8-2.6-34.7-2.6-41.7,0-61.3,7.3-67.7,25.3C62,89.9,61.9,118.1,65.6,138.9A171.4,171.4,0,0,0,64.4,160.9Z" fill="#bab174"/><path d="M73.8,92.1h0c-4.5,4.8-12.3,6.5-19,4.1C41.6,91.4,21,81,13.1,61.2c0,0,15.8,12.6,28.4,9,0,0-28.4-23.5-28.4-47.5,0,0,11.4,29,55.8,49.7C77.5,76.4,79.8,85.7,73.8,92.1Z" fill="#ff0" stroke="#000" stroke-linecap="round" stroke-linejoin="round" stroke-width="0.71"/><path d="M92.8,62.6h0c5.1-3.6,4.7-10.2-.8-13.2C80.9,43.2,65.7,31.5,64,13.1c0,0-12.9,27.2,15.6,49.2A11.4,11.4,0,0,0,92.8,62.6Z" fill="#ff0" stroke="#000" stroke-linecap="round" stroke-linejoin="round" stroke-width="0.71"/><path d="M147.9,97.3c10.5,0,19-7.1,19-15.8V51.4S197,31.3,174,5.4c0,0,1.7,18.6-13.6,26.8S141.7,5.4,141.7,5.4s-3.3,34.9-18.6,26.8S109.4,5.4,109.4,5.4c-23,25.9,7.1,46,7.1,46V81.5c0,8.7,8.6,15.8,19.1,15.8Z" fill="#ff0" stroke="#000" stroke-linecap="round" stroke-linejoin="round" stroke-width="0.71"/><path d="M209.7,92.1h0c4.5,4.8,12.3,6.5,18.9,4.1,13.3-4.8,33.9-15.2,41.8-35,0,0-15.9,12.6-28.5,9,0,0,28.5-23.5,28.5-47.5,0,0-11.4,29-55.8,49.7C206,76.4,203.6,85.7,209.7,92.1Z" fill="#ff0" stroke="#000" stroke-linecap="round" stroke-linejoin="round" stroke-width="0.71"/><path d="M190.6,62.6h0c-5-3.6-4.7-10.2.8-13.2,11.2-6.2,26.4-17.9,28.1-36.3,0,0,12.8,27.2-15.6,49.2A11.6,11.6,0,0,1,190.6,62.6Z" fill="#ff0" stroke="#000" stroke-linecap="round" stroke-linejoin="round" stroke-width="0.71"/><path d="M38.3,63.2l-3.7-.3c-7.4-7.7-19.5-22.4-20.8-37.4a56.9,56.9,0,0,0,4.7,7.7c6.9,14.5,20,26.6,23.4,29.6a13.7,13.7,0,0,1-3.6.4Z" fill="#bcb706"/><path d="M61.1,96.7A18.3,18.3,0,0,1,55,95.6C43.4,91.4,22.9,81.7,14.4,62.8A53.2,53.2,0,0,0,22,67.4C31.8,79.1,46,86,56.2,89.6a18.1,18.1,0,0,0,6.5,1.1,17.8,17.8,0,0,0,13.1-5.3l.8-.9a11.5,11.5,0,0,1-3.2,7.2A17,17,0,0,1,61.1,96.7Z" fill="#bcb706"/><path d="M86.3,64a10.7,10.7,0,0,1-6.4-2.1C65.4,50.7,62,38.1,61.7,29.5a38.4,38.4,0,0,1,2-14c.1.4.1.8.2,1.2C63,26.9,65.5,41.9,82.4,55.1a11.9,11.9,0,0,0,7.2,2.3,12,12,0,0,0,6.2-1.7,7.2,7.2,0,0,1-3.3,6.4A10.8,10.8,0,0,1,86.3,64Z" fill="#bcb706"/><path d="M245.2,63.2a15,15,0,0,1-3.7-.4c3.5-3,16.6-15.1,23.5-29.6a80.5,80.5,0,0,0,4.7-7.7c-1.4,15-13.4,29.7-20.9,37.4A22.8,22.8,0,0,1,245.2,63.2Z" fill="#bcb706"/><path d="M222.3,96.7a17,17,0,0,1-12.2-5,11,11,0,0,1-3.2-7.2l.8.9a18.9,18.9,0,0,0,19.5,4.2c10.2-3.6,24.4-10.5,34.2-22.2a55.3,55.3,0,0,0,7.7-4.6c-8.6,18.9-29,28.6-40.7,32.8A17.8,17.8,0,0,1,222.3,96.7Z" fill="#bcb706"/><path d="M197.1,64a10.8,10.8,0,0,1-6.1-1.9,6.9,6.9,0,0,1-3.3-6.4,12,12,0,0,0,6.2,1.7h0a11.4,11.4,0,0,0,7.1-2.3c17-13.2,19.5-28.2,18.6-38.4a5,5,0,0,1,.2-1.2c2.2,6.7,7,28.4-16.3,46.4A10.7,10.7,0,0,1,197.1,64Z" fill="#bcb706"/><path d="M138.8,32.8a10.1,10.1,0,0,1-4.2-1.1l-1-.6c4.9-5,7.2-15.5,8.1-21.4.7,4.5,2.2,11.5,5,16.9-2.3,4.1-4.9,6.2-7.9,6.2Z" fill="#bcb706"/><path d="M167.2,32.8a7.2,7.2,0,0,1-4.3-1.5c10.7-7.2,11.7-19.8,11.8-24.3,3.7,4.6,6.1,9.2,7,13.8a23.9,23.9,0,0,1-10.4,10.9,9.3,9.3,0,0,1-4.1,1.1Z" fill="#bcb706"/><path d="M135.6,96.7c-10.2,0-18.5-6.8-18.5-15.2V51.1l-.2-.2c-.2-.1-13.7-9.2-15.4-22.8-.9-7.1,1.6-14.2,7.3-21.1a34.9,34.9,0,0,0,3,14c-3,16.9,13.2,29.1,15.4,30.6V81.5c0,6.9,5.2,12.8,12.4,15.2Z" fill="#bcb706"/></svg>