<svg xmlns="http://www.w3.org/2000/svg" viewBox="0 0 283.5 283.5"><path d="M102.4,78.7S100,44.1,67.5,38.2c0,0,11.3,8.8,5.9,17.7,0,0-18.3,1.8-21.2-6.5,0,0-1.2,16.6,14.1,18.3,0,0-5.9.1-14.2,11,0,0,20.4-4.5,19,12.7Z" fill="#1e1e1e" stroke="#000" stroke-miterlimit="10" stroke-width="0.71"/><path d="M71.1,102s-1.2,24.3-21.9,34.3c0,0,35.5-4.7,47.9-34.3Z" fill="#1e1e1e" stroke="#000" stroke-miterlimit="10" stroke-width="0.71"/><path d="M74.5,69c-10.1-1.1-13.1-8.8-13.9-13.8-3.8-.9-7.3-2.6-8.4-5.8,0,0-1.2,16.6,14.1,18.3,0,0-5.9.1-14.2,11a28.4,28.4,0,0,1,9.4-.2C69.1,69.1,74.5,69,74.5,69Z"/><path d="M81.6,57.2c3.9-6.4-1-12.8-3.9-15.9a42.1,42.1,0,0,0-10.2-3.1S78.8,47,73.4,55.9A43.9,43.9,0,0,1,67,56C73.3,58,81.6,57.2,81.6,57.2Z"/><path d="M79.1,102h-8s-1.2,24.3-21.9,34.3a67.8,67.8,0,0,0,14.5-4C78.2,121,79.1,102,79.1,102Z"/><path d="M181.1,78.7s2.3-34.6,34.8-40.5c0,0-11.2,8.8-5.9,17.7,0,0,18.3,1.8,21.3-6.5,0,0,1.2,16.6-14.2,18.3,0,0,6,.1,14.2,11,0,0-20.4-4.5-18.9,12.7Z" fill="#1e1e1e" stroke="#000" stroke-miterlimit="10" stroke-width="0.71"/><path d="M212.4,102s1.2,24.3,21.9,34.3c0,0-35.5-4.7-47.9-34.3Z" fill="#1e1e1e" stroke="#000" stroke-miterlimit="10" stroke-width="0.71"/><path d="M209,69c10.1-1.1,13-8.8,13.9-13.8,3.8-.9,7.3-2.6,8.4-5.8,0,0,1.2,16.6-14.2,18.3,0,0,6,.1,14.2,11a27.7,27.7,0,0,0-9.3-.2C214.3,69.1,209,69,209,69Z"/><path d="M201.9,57.2c-3.9-6.4.9-12.8,3.9-15.9a42.7,42.7,0,0,1,10.1-3.1S204.7,47,210,55.9a45.7,45.7,0,0,0,6.5.1C210.1,58,201.9,57.2,201.9,57.2Z"/><path d="M204.4,102h8s1.2,24.3,21.9,34.3a67.8,67.8,0,0,1-14.5-4C205.3,121,204.4,102,204.4,102Z"/><rect x="61.7" y="78.7" width="160.1" height="32.45" rx="16.2" stroke="#000" stroke-linecap="round" stroke-linejoin="round" stroke-width="0.71"/><path d="M77.9,108.3a13.4,13.4,0,0,1,0-26.8H205.6a13.4,13.4,0,1,1,0,26.8Z" fill="#fff" stroke="#000" stroke-miterlimit="10" stroke-width="0.71"/><path d="M120,81.5H82.5C87.5,89,98.7,97.7,120,81.5Z" fill="#9eacb6" stroke="#000" stroke-linecap="round" stroke-linejoin="round" stroke-width="0.71"/><path d="M179.8,90.4c-13.9,14.9-25.7,4-49.8,4.5-13.1.3-17.3,7.2-18.3,13.4h24a65.7,65.7,0,0,1,9.8-4.6c10.9-3.9,20.6-.3,29.2,4.6h30.9a12.6,12.6,0,0,0,5.5-1.2C213.6,91.4,191.7,77.8,179.8,90.4Z" fill="#9eacb6" stroke="#000" stroke-linecap="round" stroke-linejoin="round" stroke-width="0.71"/><circle cx="77.3" cy="94.9" r="8.2" fill="#9eacb6" stroke="#000" stroke-linecap="round" stroke-linejoin="round" stroke-width="0.71"/><circle cx="162.8" cy="89.7" r="6.2" fill="#9eacb6" stroke="#000" stroke-linecap="round" stroke-linejoin="round" stroke-width="0.71"/></svg>