<svg xmlns="http://www.w3.org/2000/svg" viewBox="0 0 283.5 283.5"><path d="M74,141.7s16.1-15.8,10.6-36.5c11.1,2.5,13.1-4.6,10.1-10.6,0,0,7.6,5.5,29.8,0,1.5,14.1,42.5,50,97.1,34.8,0,0,6-60.1-42-80.3-1.5-11.7-59.1-28.8-87.4,0-13.7,1-29.9,9.1-25.8,26.8C66.4,75.9,51.7,111.6,74,141.7Z" fill="#4b3f3c" stroke="#000" stroke-miterlimit="10" stroke-width="0.71"/><path d="M74,140.9c-21.2-29.5-7.2-64.5-7.1-64.8v-.4c-1.3-6-.4-11.2,2.8-15.6s12.7-9.7,22.5-10.5h.4c12.7-12.9,30.2-15.7,42.7-15.7a91.6,91.6,0,0,1,26.4,4,89,89,0,0,0-12.6-.9c-12.7,0-30.5,2.8-43.4,15.8-10,.8-18.7,4.9-23.2,11-3.3,4.5-4.3,10-2.9,16.3-.9,2.4-10.2,27.7.2,52.9A48.8,48.8,0,0,1,74,140.9Z" fill="#281e1c"/><path d="M168.2,128.5c-19.6-6-34.2-17.7-40.3-27.2a80.3,80.3,0,0,0,9.9-1.8C139.1,106.7,149.9,119.6,168.2,128.5Z" fill="#281e1c"/></svg>