<svg xmlns="http://www.w3.org/2000/svg" viewBox="0 0 283.5 283.5"><path d="M75.8,114.1c-7-2.6-17.9-5-29.3-.7,0,0,9.1-15.9,32.6-15a8,8,0,0,1,7.3,10.5v.2A8,8,0,0,1,75.8,114.1Z" fill="#85fb5c" stroke="#000" stroke-miterlimit="10" stroke-width="0.71"/><path d="M66.5,50.7s-7.9,36,41,42.5C107.5,93.2,113.3,50,66.5,50.7Z" fill="#85fb5c" stroke="#000" stroke-miterlimit="10" stroke-width="0.71"/><path d="M132.7,94.3s-23.8-16.2-14.4-42.5,19.1-19.6,14.4-44.7C132.7,7.1,199.7,59.7,132.7,94.3Z" fill="#85fb5c" stroke="#000" stroke-miterlimit="10" stroke-width="0.71"/><path d="M207.7,114.1c7-2.6,17.9-5,29.2-.7,0,0-9-15.9-32.5-15a8,8,0,0,0-7.4,10.5v.2A8,8,0,0,0,207.7,114.1Z" fill="#85fb5c" stroke="#000" stroke-miterlimit="10" stroke-width="0.71"/><path d="M217,50.7s7.9,36-41.1,42.5C175.9,93.2,170.2,50,217,50.7Z" fill="#85fb5c" stroke="#000" stroke-miterlimit="10" stroke-width="0.71"/><path d="M48,112.3c2.7-3.7,11.7-13.4,29.3-13.4h1.8a7.5,7.5,0,0,1,5.9,3.3c-11.9.1-19.8,4.5-24.4,8.3h-1A37.5,37.5,0,0,0,48,112.3Z" fill="#63c63e"/><path d="M107,92.6c-16.4-2.3-28.1-8.2-34.6-17.5S66.6,53.6,67,51.3h.6a65.2,65.2,0,0,1,9.1.6c-.8,6.2-1.9,30.6,30.4,39.6A3.7,3.7,0,0,1,107,92.6Z" fill="#63c63e"/><path d="M235.5,112.3a37.7,37.7,0,0,0-11.7-1.8h-.9c-4.6-3.8-12.5-8.2-24.4-8.3a7.4,7.4,0,0,1,5.9-3.3h1.8C223.8,98.9,232.7,108.6,235.5,112.3Z" fill="#63c63e"/><path d="M176.4,92.6V91.5c32.2-9,31.2-33.4,30.3-39.6a67.7,67.7,0,0,1,9.2-.6h.6c.4,2.3,1.8,13.6-5.4,23.8S192.9,90.3,176.4,92.6Z" fill="#63c63e"/><path d="M132.8,93.6C130.2,91.7,110.2,76,118.9,52a71.4,71.4,0,0,1,10.3-19.8c4.3-6.1,6.8-9.5,4.4-23.7a123.5,123.5,0,0,1,10.7,10.6,29.8,29.8,0,0,1-4.1,6.9,77.4,77.4,0,0,0-10.5,20.1c-7.9,22,7.1,37,12.8,41.7A88.8,88.8,0,0,1,132.8,93.6Z" fill="#63c63e"/></svg>