<svg xmlns="http://www.w3.org/2000/svg" viewBox="0 0 283.5 283.5"><path d="M148.9,79.1C98.2,76.3,83,46.2,79.1,35.3c1.9,9.9,5.3,35.9-8.4,45.1-17,11.7-25.9,41-25.9,41s11.6-14.3,23.2-8.2c0,0,1.3,36.2-5.1,64.8,0,0,24.9-43.7,22.2-71,0,0,13.6-2.7,21.1,18.5,0,0,6.8-8.6,6.2-24.8,0,0,6.2,3.3,16.8,2.9C151.6,92.9,148.9,79.1,148.9,79.1Z" fill="#636363" stroke="#000" stroke-linecap="round" stroke-linejoin="round" stroke-width="0.87"/><path d="M157.8,38.1s-20.5-24.5-79.9-6.8a31.3,31.3,0,0,0,1.2,4c3.9,10.9,19.1,41,69.8,43.8,0,0,2.7,13.8-19.7,24.5a83.7,83.7,0,0,1-8.3,3.4s27.3,6.2,51.9-10.9c0,0,33.4,13.7,32.7,56.7,0,0,14.4-29,6.8-52.1C236.2,83.2,232.8,15.6,157.8,38.1Z" fill="#151515" stroke="#000" stroke-linecap="round" stroke-linejoin="round" stroke-width="0.87"/><path d="M64.2,174.3c4.9-24.5,4.6-53,4.4-59.7a15.1,15.1,0,0,1,5-.9,12.1,12.1,0,0,1,5.6,1.3c0,2,.3,12.6-.4,26.1A227.2,227.2,0,0,1,64.2,174.3Z" fill="#3e3e3e"/><path d="M46.2,119c2.6-7.3,11.1-28.7,24.9-38.1,12-8.1,11.1-28.6,9.4-40.8A60.4,60.4,0,0,0,92,56.8c-.3,12.1-3.6,20.4-9.9,24.6-10.1,6.9-17.4,20-21.7,29.8C54.2,111.9,48.9,116.4,46.2,119Z" fill="#3e3e3e"/><path d="M106.4,124.2c-2.3-5.9-5.3-10.5-8.9-13.6,0-.6-.1-1.1-.1-1.7h.9c2.5,0,7.4.8,12.1,5.8A33.8,33.8,0,0,1,106.4,124.2Z" fill="#3e3e3e"/><path d="M133.1,107.5a70.8,70.8,0,0,1-10-.7,59.7,59.7,0,0,0,6.3-2.7c15.8-7.5,19.4-16.6,20-21.7a102.5,102.5,0,0,0,17,2.2c.1,2.1.1,11.6-13.5,20.3a76.3,76.3,0,0,1-19.8,2.6Z"/><path d="M206.1,150.2c-.4-23.2-10.7-37.5-19.7-45.6,1.5-.9,3-1.8,4.4-2.8a56.5,56.5,0,0,1,22.8,20.5A104.1,104.1,0,0,1,206.1,150.2Z"/><path d="M175.9,42.5a34.6,34.6,0,0,0-8.6-6.2,84.3,84.3,0,0,1,17.9-2.1,47.9,47.9,0,0,1,20,3.9h-2A99.6,99.6,0,0,0,175.9,42.5Z"/><path d="M129.7,75.9c-34.9-8.1-46.6-31-50.1-40.8-.5-1.6-.9-2.8-1-3.4,14-4.1,27.1-6.3,38.7-6.3a74.7,74.7,0,0,1,25.6,4.2c-2.5-.2-5-.3-7.6-.3-11.9,0-25.2,2.2-39.6,6.5h-.5v.5c.1.1.4,1.6,1.2,4.1C99.1,47.8,107.4,65.2,129.7,75.9Z"/></svg>