<svg xmlns="http://www.w3.org/2000/svg" viewBox="0 0 283.5 283.5"><path d="M141.7,21.2c-123.5,0-74.9,156.4-74.9,156.4s0-72.1,23.4-72.1,28.1,26.2,51.5,26.2,28.1-26.2,51.5-26.2,23.4,72.1,23.4,72.1S265.3,21.2,141.7,21.2Z" fill="#55422d" stroke="#000" stroke-miterlimit="10" stroke-width="0.71"/><path d="M217.1,173.8c-.1-4.9-.5-13.7-1.6-23.4-2.2-18.8-6-32-11.4-39.2a28.3,28.3,0,0,1,4.1-.3c6.9,0,12.5,6.9,16.5,20.3A253.7,253.7,0,0,1,217.1,173.8Z" fill="#301900"/><path d="M138.8,131c-9.8-1-15.9-6.8-22.4-12.8a79.8,79.8,0,0,0-8.3-7.1c9.8,1,15.9,6.7,22.4,12.8C133.2,126.3,135.8,128.8,138.8,131Z" fill="#301900"/><path d="M66.3,173.7c-4.4-16.4-20.1-84.3,8.6-123.4,13.9-18.9,36.4-28.5,66.8-28.5A108.7,108.7,0,0,1,176.4,27a124,124,0,0,0-19.7-1.5c-27.2,0-48.2,7.7-62.5,22.7C77.7,65.6,70.2,92.5,72,128.1,67.6,144.5,66.6,165.3,66.3,173.7Z" fill="#301900"/><rect x="136.4" y="17.2" width="10.7" height="117.69" rx="5.4" fill="#3f3021" stroke="#000" stroke-miterlimit="10" stroke-width="0.71"/><rect x="112.7" y="19.8" width="10.1" height="104.62" rx="5.1" transform="translate(-2.7 4.6) rotate(-2.2)" fill="#3f3021" stroke="#000" stroke-miterlimit="10" stroke-width="0.71"/><rect x="86.4" y="30.7" width="11.4" height="79.83" rx="5.7" transform="translate(-4.7 6.7) rotate(-4)" fill="#3f3021" stroke="#000" stroke-miterlimit="10" stroke-width="0.71"/><path d="M77.2,121.4h0a4.7,4.7,0,0,1-5.8-3.4L59.9,68.6a4.8,4.8,0,0,1,3.4-5.8h0a4.8,4.8,0,0,1,5.8,3.4l11.4,49.5A4.6,4.6,0,0,1,77.2,121.4Z" fill="#3f3021" stroke="#000" stroke-miterlimit="10" stroke-width="0.71"/><path d="M76,121a4.3,4.3,0,0,1-4.1-3.1L60.5,68.4a3.7,3.7,0,0,1,.4-3.1,4.4,4.4,0,0,1,2.5-2h1.1a3.9,3.9,0,0,1,2.1.6,5.5,5.5,0,0,0-2.7,6.1l11.5,49.4a3.8,3.8,0,0,0,.8,1.7Z" fill="#261504"/><path d="M92.9,109.6a5.2,5.2,0,0,1-3.5-4.5L84.6,36.8a4.9,4.9,0,0,1,1.2-3.7,5,5,0,0,1,3.5-1.8h.4a5.3,5.3,0,0,1,2.4.6,6.3,6.3,0,0,0-5,6.6L92,106.7A5.2,5.2,0,0,0,92.9,109.6Z" fill="#261504"/><path d="M118.3,123.7a4.6,4.6,0,0,1-3.2-4.2l-3.6-94.4a4.2,4.2,0,0,1,1.1-3.2,5,5,0,0,1,3.2-1.5h.1a4.9,4.9,0,0,1,3.6,1.7,5.7,5.7,0,0,0-3.5,1.8,5.4,5.4,0,0,0-1.5,4l3.6,94.5A6.9,6.9,0,0,0,118.3,123.7Z" fill="#261504"/><rect x="160.6" y="19.8" width="10.1" height="104.62" rx="5.1" transform="translate(328.5 150.6) rotate(-177.8)" fill="#3f3021" stroke="#000" stroke-miterlimit="10" stroke-width="0.71"/><rect x="185.7" y="30.7" width="11.4" height="79.83" rx="5.7" transform="translate(377.3 154.5) rotate(-176)" fill="#3f3021" stroke="#000" stroke-miterlimit="10" stroke-width="0.71"/><path d="M206.3,121.4h0a4.7,4.7,0,0,0,5.8-3.4l11.4-49.4a4.6,4.6,0,0,0-3.3-5.8h0a4.7,4.7,0,0,0-5.8,3.4l-11.5,49.5A4.7,4.7,0,0,0,206.3,121.4Z" fill="#3f3021" stroke="#000" stroke-miterlimit="10" stroke-width="0.71"/><path d="M207.5,121a4.2,4.2,0,0,0,4-3.1L223,68.4a4.1,4.1,0,0,0-.4-3.1,4.3,4.3,0,0,0-2.6-2h-1a4.3,4.3,0,0,0-2.2.6,5.2,5.2,0,0,1,2.7,6.1l-11.4,49.4a5.3,5.3,0,0,1-.8,1.7Z" fill="#261504"/><path d="M190.6,109.6a5.3,5.3,0,0,0,3.5-4.5l4.8-68.3a5,5,0,0,0-1.3-3.7,4.7,4.7,0,0,0-3.5-1.8h-.3a4.8,4.8,0,0,0-2.4.6,6.2,6.2,0,0,1,4.9,6.6l-4.8,68.2A7.5,7.5,0,0,1,190.6,109.6Z" fill="#261504"/><path d="M165.1,123.7a4.6,4.6,0,0,0,3.3-4.2L172,25.1a4.3,4.3,0,0,0-1.2-3.2,4.6,4.6,0,0,0-3.1-1.5h-.2a4.7,4.7,0,0,0-3.5,1.7,5.7,5.7,0,0,1,3.5,1.8,5.9,5.9,0,0,1,1.5,4l-3.7,94.5A6.9,6.9,0,0,1,165.1,123.7Z" fill="#261504"/><path d="M140.6,134.2a4.8,4.8,0,0,1-3.7-4.7V22.6a4.8,4.8,0,0,1,8.4-3.2,5.9,5.9,0,0,0-5.1,5.8v107A4.8,4.8,0,0,0,140.6,134.2Z" fill="#261504"/><ellipse cx="141.8" cy="35.2" rx="24" ry="18.2" fill="#2c1900"/><ellipse cx="141.7" cy="26.4" rx="26.1" ry="22.6" fill="#3f3021" stroke="#000" stroke-miterlimit="10" stroke-width="0.79"/><path d="M126.9,44.4c-6.7-4.1-10.7-10.8-10.7-18,0-12.1,11.4-22,25.5-22a27.9,27.9,0,0,1,17.7,6.1,30.2,30.2,0,0,0-9.9-1.6c-14.7,0-26.7,10.4-26.7,23.1A21.7,21.7,0,0,0,126.9,44.4Z" fill="#301900"/></svg>