<svg xmlns="http://www.w3.org/2000/svg" viewBox="0 0 283.5 283.5"><rect x="220.2" y="182.5" width="9.4" height="27.41" transform="translate(421.1 -28.7) rotate(90)" fill="#929292" stroke="#000" stroke-linecap="round" stroke-linejoin="round" stroke-width="0.71"/><polygon points="237.8 194 237.8 192.2 211.8 192.2 211.8 200.2 213.9 200.2 213.9 194 237.8 194" fill="#545454"/><rect x="220.2" y="181.1" width="9.4" height="37.92" fill="#aeaeae" stroke="#000" stroke-linecap="round" stroke-linejoin="round" stroke-width="0.71"/><polygon points="228.3 183.8 228.3 181.7 220.8 181.7 220.8 218 223.6 218 223.6 183.8 228.3 183.8" fill="#777"/><circle cx="57.6" cy="176.7" r="6.4" fill="#aeaeae" stroke="#000" stroke-linecap="round" stroke-linejoin="round" stroke-width="0.71"/><path d="M55.4,178a5.6,5.6,0,0,1,5.6-5.6h.1a5.7,5.7,0,0,0-3.6-1.3,5.6,5.6,0,0,0-.1,11.2A5.5,5.5,0,0,1,55.4,178Z" fill="#777"/><circle cx="224.9" cy="176.7" r="4.3" fill="#aeaeae" stroke="#000" stroke-linecap="round" stroke-linejoin="round" stroke-width="0.71"/><path d="M223.4,177.6a3.7,3.7,0,0,1,3.6-3.7h0a3.2,3.2,0,0,0-2.3-.9,3.6,3.6,0,0,0-3.6,3.6,3.7,3.7,0,0,0,3.6,3.7A3.7,3.7,0,0,1,223.4,177.6Z" fill="#777"/></svg>