<svg xmlns="http://www.w3.org/2000/svg" viewBox="0 0 283.5 283.5">
    <circle cx="48.5" cy="124.6" r="6.9" fill="#8441a8" stroke="#000" stroke-linecap="round" stroke-linejoin="round"
            stroke-width="0.71"/>
    <path d="M48.2,130.8a6.2,6.2,0,0,1,3.4-11.3h.1a6.7,6.7,0,0,0-3.4-1,6.2,6.2,0,0,0-.1,12.3Z" fill="#5d058c"/>
    <circle cx="39.6" cy="150.3" r="6.9" fill="#518dd3" stroke="#000" stroke-linecap="round" stroke-linejoin="round"
            stroke-width="0.71"/>
    <path d="M39.4,156.4a6.2,6.2,0,0,1-2.7-5.1,6.1,6.1,0,0,1,6.1-6.1h.1a6,6,0,0,0-3.4-1.1,6.2,6.2,0,0,0-6.2,6.2A6.1,6.1,0,0,0,39.4,156.4Z"
          fill="#004ebe"/>
    <circle cx="50.1" cy="168.7" r="6.9" fill="#afd361" stroke="#000" stroke-linecap="round" stroke-linejoin="round"
            stroke-width="0.71"/>
    <path d="M49.9,174.9a6.1,6.1,0,0,1-2.8-5.2,6.2,6.2,0,0,1,6.2-6.1h0a6.2,6.2,0,0,0-3.4-1,6.1,6.1,0,0,0-6.1,6.1A6.2,6.2,0,0,0,49.9,174.9Z"
          fill="#477200"/>
    <circle cx="235" cy="124.6" r="6.9" fill="#8441a8" stroke="#000" stroke-linecap="round" stroke-linejoin="round"
            stroke-width="0.71"/>
    <path d="M235.2,130.8a6.1,6.1,0,0,0,2.8-5.1,6.2,6.2,0,0,0-6.2-6.2h0a6.2,6.2,0,0,1,3.4-1,6.2,6.2,0,0,1,0,12.3Z"
          fill="#5d058c"/>
    <circle cx="243.8" cy="150.3" r="6.9" fill="#518dd3" stroke="#000" stroke-linecap="round" stroke-linejoin="round"
            stroke-width="0.71"/>
    <path d="M244,156.4a6.1,6.1,0,0,0-3.4-11.2h0a5.8,5.8,0,0,1,3.4-1.1,6.2,6.2,0,0,1,0,12.3Z" fill="#004ebe"/>
    <circle cx="233.4" cy="168.7" r="6.9" fill="#afd361" stroke="#000" stroke-linecap="round" stroke-linejoin="round"
            stroke-width="0.71"/>
    <path d="M233.6,174.9a6.3,6.3,0,0,0,2.7-5.2,6.1,6.1,0,0,0-6.1-6.1h-.1a6.7,6.7,0,0,1,3.4-1,6.1,6.1,0,0,1,6.2,6.1A6.2,6.2,0,0,1,233.6,174.9Z"
          fill="#477200"/>
</svg>
