<svg id="EAR_ACCESSORIES" data-name="EAR ACCESSORIES" xmlns="http://www.w3.org/2000/svg" viewBox="0 0 283.5 283.5">
  <g>
    <path d="M66.1,173.7s-8.6,28.2,12.1,47.1c9.3,8.6,12,21.3,12,21.3S82.4,146.7,66.1,173.7Z" fill="#7acbe1" stroke="#000" stroke-linecap="round" stroke-linejoin="round" stroke-width="0.71"/>
    <path d="M217.4,173.7c-16.3-27-24.1,68.4-24.1,68.4s2.6-12.7,12-21.3C226,201.9,217.4,173.7,217.4,173.7Z" fill="#7acbe1" stroke="#000" stroke-linecap="round" stroke-linejoin="round" stroke-width="0.71"/>
  </g>
  <g>
    <path d="M67.6,118.4h0a17.3,17.3,0,0,0-3.2-.3c-13.7,0-24.8,12.5-24.8,27.8s11.1,27.9,24.8,27.9h1.7s11-6.5,5.7-27.8S67.6,118.4,67.6,118.4Z" fill="#696a6a" stroke="#000" stroke-linecap="round" stroke-linejoin="round" stroke-width="0.71"/>
    <path d="M219.1,118.1a16.6,16.6,0,0,0-3.2.3h0s1.2,6.3-4.2,27.5,5.7,27.8,5.7,27.8h1.7c13.7,0,24.7-12.5,24.7-27.9S232.8,118.1,219.1,118.1Z" fill="#696a6a" stroke="#000" stroke-linecap="round" stroke-linejoin="round" stroke-width="0.71"/>
  </g>
  <g>
    <path d="M66.5,125.6a20.4,20.4,0,0,1,0-5.1h0c-13.9-2-25.8,10.2-25.8,25.4,0,13.4,9.1,24.4,20.7,25.6A26.8,26.8,0,0,1,51,149.9C51,138.6,57.5,129,66.5,125.6Z" fill="#4a4b4b"/>
    <path d="M217,120.5h0a26.9,26.9,0,0,1-.1,5.1c9.1,3.4,15.6,13,15.6,24.3A26.6,26.6,0,0,1,222,171.5c11.6-1.2,20.7-12.2,20.7-25.6C242.7,130.7,230.8,118.5,217,120.5Z" fill="#4a4b4b"/>
  </g>
  <g>
    <path d="M75.6,172.5c-1.8-2-3.1-2.7-5-2-.5,2.3-3.8,4-3.8,4-8.3,35.2,12.8,34.4,22.1,62l-2.2-17.2C70.2,202.6,71.2,181.9,75.6,172.5Z" fill="#3aa2c7"/>
    <path d="M216.7,174.5h0s-3.4-1.7-3.9-4c-1.8-.7-3.1,0-5,2,4.4,9.4,5.5,30.1-11,46.8l-2.3,17.2C203.6,208.8,224.8,210.8,216.7,174.5Z" fill="#3aa2c7"/>
  </g>
</svg>
