<svg xmlns="http://www.w3.org/2000/svg" viewBox="0 0 283.5 283.5"><path d="M66.1,173.7s-8.6,28.2,12.1,47.1c9.3,8.6,12,21.3,12,21.3S82.4,146.7,66.1,173.7Z" fill="#7acbe1" stroke="#000" stroke-linecap="round" stroke-linejoin="round" stroke-width="0.71"/><path d="M71.8,145.9c-5.4-21.2-4.2-27.5-4.2-27.5h0a17.3,17.3,0,0,0-3.2-.3c-13.7,0-24.8,12.5-24.8,27.8s11.1,27.9,24.8,27.9h1.7S77.1,167.2,71.8,145.9Zm-4.2-27.5" fill="#696a6a" stroke="#000" stroke-linecap="round" stroke-linejoin="round" stroke-width="0.71"/><path d="M51,149.9c0-11.3,6.5-20.9,15.5-24.3a20.4,20.4,0,0,1,0-5.1h0c-13.9-2-25.8,10.2-25.8,25.4,0,13.4,9.1,24.4,20.7,25.6A26.8,26.8,0,0,1,51,149.9Z" fill="#4a4b4b"/><path d="M86.7,219.3c-16.5-16.7-15.5-37.4-11.1-46.8h0c-1.8-2-3.1-2.7-5-2-.5,2.3-3.8,4-3.8,4-8.3,35.2,12.8,34.4,22.1,62Z" fill="#3aa2c7"/><path d="M217.4,173.7s8.6,28.2-12.1,47.1c-9.4,8.6-12,21.3-12,21.3S201.1,146.7,217.4,173.7Z" fill="#7acbe1" stroke="#000" stroke-linecap="round" stroke-linejoin="round" stroke-width="0.71"/><path d="M217.4,173.7h1.7c13.7,0,24.7-12.5,24.7-27.9s-11-27.8-24.7-27.8a16.6,16.6,0,0,0-3.2.3h0s1.2,6.3-4.2,27.5S217.4,173.7,217.4,173.7Zm-1.5-55.3" fill="#696a6a" stroke="#000" stroke-linecap="round" stroke-linejoin="round" stroke-width="0.71"/><path d="M232.5,149.9c0-11.3-6.5-20.9-15.6-24.3a26.9,26.9,0,0,0,.1-5.1h0c13.8-2,25.7,10.2,25.7,25.4,0,13.4-9.1,24.4-20.7,25.6A26.6,26.6,0,0,0,232.5,149.9Z" fill="#4a4b4b"/><path d="M196.8,219.3c16.5-16.7,15.4-37.4,11-46.8h0c1.9-2,3.2-2.7,5-2,.5,2.3,3.9,4,3.9,4h0c8.1,36.3-13.1,34.3-22.2,62Z" fill="#3aa2c7"/></svg>