<svg xmlns="http://www.w3.org/2000/svg" viewBox="0 0 283.5 283.5"><path d="M66.1,173.7H64.4l-2.8-.2a10.1,10.1,0,0,1,1.4,5.2,9.6,9.6,0,0,1-9.1,9.1,9.5,9.5,0,0,1-9.7-9.4,9.4,9.4,0,0,1,6.9-9l.7-.2a2.3,2.3,0,0,0-.9-4.5,12,12,0,0,0-3.6,1.3,13.9,13.9,0,1,0,20,14.9C66.8,178.6,66.4,176.2,66.1,173.7Z" fill="#b1f8fd" stroke="#000" stroke-linecap="round" stroke-linejoin="round" stroke-width="0.71"/><path d="M43.1,180a13,13,0,0,1,9-13.8c-16.7-.2-14.9,26.9,2.3,25.1A12.8,12.8,0,0,1,43.1,180Z" fill="#5fc2c7"/><path d="M57.6,187.9s9.3-3.9,5.2-13.4C62.8,174.5,69.6,184.5,57.6,187.9Z" fill="#5fc2c7"/><path d="M217.4,173.7h1.7l2.8-.2a8.5,8.5,0,0,0-1.4,5.2,9.5,9.5,0,0,0,9.1,9.1,9.4,9.4,0,0,0,9.6-9.4,9.2,9.2,0,0,0-6.9-9l-.6-.2a2.2,2.2,0,0,1-1.8-2.2,2.2,2.2,0,0,1,2.6-2.3,12.6,12.6,0,0,1,3.7,1.3,13.8,13.8,0,0,1,7.5,14,14,14,0,0,1-27.6.9C216.6,178.6,217,176.2,217.4,173.7Z" fill="#b1f8fd" stroke="#000" stroke-linecap="round" stroke-linejoin="round" stroke-width="0.71"/><path d="M240.4,180a12.9,12.9,0,0,0-9.1-13.8c16.8-.2,15,26.9-2.3,25.1A13,13,0,0,0,240.4,180Z" fill="#5fc2c7"/><path d="M225.9,187.9s-9.3-3.9-5.2-13.4C220.7,174.5,213.8,184.5,225.9,187.9Z" fill="#5fc2c7"/></svg>