<svg xmlns="http://www.w3.org/2000/svg" viewBox="0 0 283.5 283.5"><rect x="53.9" y="182.5" width="9.4" height="27.41" transform="translate(254.8 137.6) rotate(90)" fill="#e0da07" stroke="#000" stroke-linecap="round" stroke-linejoin="round" stroke-width="0.71"/><polygon points="45.6 194 45.6 192.2 71.7 192.2 71.7 200.2 69.5 200.2 69.5 194 45.6 194" fill="#bfb504"/><rect x="53.9" y="181.1" width="9.4" height="37.92" transform="translate(117.2 400.1) rotate(-180)" fill="#ff0" stroke="#000" stroke-linecap="round" stroke-linejoin="round" stroke-width="0.71"/><polygon points="55.1 183.8 55.1 181.7 62.6 181.7 62.6 218 59.9 218 59.9 183.8 55.1 183.8" fill="#c9c300"/><circle cx="225.8" cy="176.7" r="6.4" fill="#ff0" stroke="#000" stroke-linecap="round" stroke-linejoin="round" stroke-width="0.71"/><path d="M228.1,178a5.6,5.6,0,0,0-5.6-5.6h-.1a5.7,5.7,0,0,1,3.6-1.3,5.6,5.6,0,1,1,0,11.2A5.3,5.3,0,0,0,228.1,178Z" fill="#c9c300"/><circle cx="58.6" cy="176.7" r="4.3" fill="#ff0" stroke="#000" stroke-linecap="round" stroke-linejoin="round" stroke-width="0.71"/><path d="M60.1,177.6a3.7,3.7,0,0,0-3.6-3.7h-.1a3.5,3.5,0,0,1,2.3-.9,3.7,3.7,0,0,1,3.7,3.6,3.7,3.7,0,0,1-3.6,3.7A3.7,3.7,0,0,0,60.1,177.6Z" fill="#c9c300"/></svg>