<svg xmlns="http://www.w3.org/2000/svg" viewBox="0 0 283.5 283.5"><circle cx="220.8" cy="188.4" r="4.8" fill="#9d9d9d" stroke="#000" stroke-linecap="round" stroke-linejoin="round" stroke-width="0.71"/><circle cx="220.8" cy="198" r="4.8" fill="#bfbfbf" stroke="#000" stroke-linecap="round" stroke-linejoin="round" stroke-width="0.71"/><path d="M219.1,189.3a4,4,0,0,1,4-4h.1a3.9,3.9,0,0,0-2.6-.9,4,4,0,0,0,0,8A4.2,4.2,0,0,1,219.1,189.3Z" fill="#585858"/><path d="M219.1,199a4,4,0,0,1,4-4.1h.1a4.5,4.5,0,0,0-2.6-.9,4,4,0,0,0,0,8A3.8,3.8,0,0,1,219.1,199Z" fill="#8d8d8d"/><polygon points="220.8 183.2 220.8 166 213.7 166 210.3 170.8 220.8 183.2" fill="#53abf8" stroke="#000" stroke-linecap="round" stroke-linejoin="round" stroke-width="0.71"/><polygon points="220.8 183.2 217.2 170.8 220.8 170.8 220.8 183.2" fill="#c6e5fc" stroke="#000" stroke-linecap="round" stroke-linejoin="round" stroke-width="0.71"/><polygon points="220.8 166 217.2 170.8 220.8 170.8 220.8 166" fill="none" stroke="#000" stroke-linecap="round" stroke-linejoin="round" stroke-width="0.71"/><polygon points="213.7 166 217.2 170.8 220.8 166 213.7 166" fill="#53abf8" stroke="#000" stroke-linecap="round" stroke-linejoin="round" stroke-width="0.71"/><polygon points="210.3 170.8 217.2 170.8 213.7 166 210.3 170.8" fill="#c6e5fc" stroke="#000" stroke-linecap="round" stroke-linejoin="round" stroke-width="0.71"/><polygon points="220.8 183.2 220.8 166 227.9 166 231.2 170.8 220.8 183.2" fill="#c6e5fc" stroke="#000" stroke-linecap="round" stroke-linejoin="round" stroke-width="0.71"/><polygon points="220.8 183.2 224.4 170.8 220.8 170.8 220.8 183.2" fill="#53abf8" stroke="#000" stroke-linecap="round" stroke-linejoin="round" stroke-width="0.71"/><polygon points="220.8 166 224.4 170.8 220.8 170.8 220.8 166" fill="#53abf8" stroke="#000" stroke-linecap="round" stroke-linejoin="round" stroke-width="0.71"/><polygon points="227.9 166 224.4 170.8 220.8 166 227.9 166" fill="#c6e5fc" stroke="#000" stroke-linecap="round" stroke-linejoin="round" stroke-width="0.71"/><polygon points="231.2 170.8 224.4 170.8 227.9 166 231.2 170.8" fill="#53abf8" stroke="#000" stroke-linecap="round" stroke-linejoin="round" stroke-width="0.71"/></svg>