<svg xmlns="http://www.w3.org/2000/svg" viewBox="0 0 283.5 283.5"><circle cx="225" cy="176.7" r="6.4" fill="#ff0" stroke="#000" stroke-linecap="round" stroke-linejoin="round" stroke-width="0.71"/><path d="M227.3,178a5.6,5.6,0,0,0-5.6-5.6h-.1a5.7,5.7,0,0,1,3.6-1.3,5.6,5.6,0,1,1,0,11.2A5.3,5.3,0,0,0,227.3,178Z" fill="#c9c300"/><circle cx="58.4" cy="176.7" r="6.4" fill="#ff0" stroke="#000" stroke-linecap="round" stroke-linejoin="round" stroke-width="0.71"/><path d="M56.2,178a5.6,5.6,0,0,1,5.6-5.6h0a5.4,5.4,0,0,0-3.5-1.3,5.6,5.6,0,0,0-.1,11.2A5.5,5.5,0,0,1,56.2,178Z" fill="#c9c300"/></svg>