<svg id="EAR_ACCESSORIES" data-name="EAR ACCESSORIES" xmlns="http://www.w3.org/2000/svg" viewBox="0 0 283.5 283.5">
    <rect x="44.9" y="191.5" width="27.4" height="9.4" fill="#e0da07" stroke="#000" stroke-linecap="round"
          stroke-linejoin="round" stroke-width="0.71"/>
    <polygon points="45.6 192.2 45.6 194 69.5 194 69.5 200.2 71.7 200.2 71.7 192.2 45.6 192.2" fill="#bfb504"/>
    <rect x="53.9" y="181.1" width="9.4" height="37.92" fill="#ff0" stroke="#000" stroke-linecap="round"
          stroke-linejoin="round" stroke-width="0.71"/>
    <polygon points="55.1 181.7 55.1 183.8 59.9 183.8 59.9 218 62.6 218 62.6 181.7 55.1 181.7" fill="#c9c300"/>
    <path d="M225.8,170.3a6.4,6.4,0,0,0-6.4,6.4,6.4,6.4,0,1,0,6.4-6.4Z" fill="#ff0" stroke="#000" stroke-linecap="round"
          stroke-linejoin="round" stroke-width="0.71"/>
    <path d="M226,171.1a5.7,5.7,0,0,0-3.6,1.3h.1a5.6,5.6,0,0,1,5.6,5.6,5.3,5.3,0,0,1-2.1,4.3,5.6,5.6,0,1,0,0-11.2Z"
          fill="#c9c300"/>
    <path d="M58.6,172.4a4.3,4.3,0,0,0-4.3,4.3,4.3,4.3,0,1,0,8.6,0A4.3,4.3,0,0,0,58.6,172.4Z" fill="#ff0" stroke="#000"
          stroke-linecap="round" stroke-linejoin="round" stroke-width="0.71"/>
    <path d="M58.7,173.1a3.5,3.5,0,0,0-2.3.9h.1a3.7,3.7,0,0,1,3.6,3.7,3.7,3.7,0,0,1-1.3,2.8,3.7,3.7,0,0,0,3.6-3.7A3.7,3.7,0,0,0,58.7,173.1Z"
          fill="#c9c300"/>
</svg>
