<svg id="EAR_ACCESSORIES" data-name="EAR ACCESSORIES" xmlns="http://www.w3.org/2000/svg" viewBox="0 0 283.5 283.5">
  <path d="M48.5,117.7a7,7,0,1,0,6.9,6.9A6.9,6.9,0,0,0,48.5,117.7Z" fill="#8441a8" stroke="#000" stroke-linecap="round" stroke-linejoin="round" stroke-width="0.71"/>
  <path d="M51.6,119.5h.1a6.7,6.7,0,0,0-3.4-1,6.2,6.2,0,0,0-.1,12.3,6.2,6.2,0,0,1,3.4-11.3Z" fill="#5d058c"/>
  <path d="M39.6,143.3a7,7,0,1,0,7,7A6.9,6.9,0,0,0,39.6,143.3Z" fill="#518dd3" stroke="#000" stroke-linecap="round" stroke-linejoin="round" stroke-width="0.71"/>
  <path d="M42.8,145.2h.1a6,6,0,0,0-3.4-1.1,6.2,6.2,0,0,0-6.2,6.2,6.1,6.1,0,0,0,6.1,6.1,6.2,6.2,0,0,1-2.7-5.1A6.1,6.1,0,0,1,42.8,145.2Z" fill="#004ebe"/>
  <circle cx="50.1" cy="168.7" r="6.9" fill="#afd361" stroke="#000" stroke-linecap="round" stroke-linejoin="round" stroke-width="0.71"/>
  <path d="M53.3,163.6h0a6.2,6.2,0,0,0-3.4-1,6.1,6.1,0,0,0-6.1,6.1,6.2,6.2,0,0,0,6.1,6.2,6.1,6.1,0,0,1-2.8-5.2A6.2,6.2,0,0,1,53.3,163.6Z" fill="#477200"/>
  <circle cx="235" cy="124.6" r="6.9" fill="#8441a8" stroke="#000" stroke-linecap="round" stroke-linejoin="round" stroke-width="0.71"/>
  <path d="M235.2,118.5a6.2,6.2,0,0,0-3.4,1h0a6.2,6.2,0,0,1,6.2,6.2,6.1,6.1,0,0,1-2.8,5.1,6.2,6.2,0,0,0,0-12.3Z" fill="#5d058c"/>
  <path d="M243.8,143.3a7,7,0,1,0,7,7A6.9,6.9,0,0,0,243.8,143.3Z" fill="#518dd3" stroke="#000" stroke-linecap="round" stroke-linejoin="round" stroke-width="0.71"/>
  <path d="M244,144.1a5.8,5.8,0,0,0-3.4,1.1h0a6.1,6.1,0,0,1,3.4,11.2,6.2,6.2,0,0,0,0-12.3Z" fill="#004ebe"/>
  <path d="M233.4,161.8a7,7,0,1,0,6.9,6.9A6.9,6.9,0,0,0,233.4,161.8Z" fill="#afd361" stroke="#000" stroke-linecap="round" stroke-linejoin="round" stroke-width="0.71"/>
  <path d="M233.5,162.6a6.7,6.7,0,0,0-3.4,1h.1a6.1,6.1,0,0,1,6.1,6.1,6.3,6.3,0,0,1-2.7,5.2,6.2,6.2,0,0,0,6.1-6.2A6.1,6.1,0,0,0,233.5,162.6Z" fill="#477200"/>
</svg>
