<svg xmlns="http://www.w3.org/2000/svg" viewBox="0 0 283.5 283.5"><path d="M52.2,171.4a23.5,23.5,0,1,0,23.5,23.5A23.5,23.5,0,0,0,52.2,171.4Zm0,39.3a15.8,15.8,0,1,1,0-31.5,15.8,15.8,0,0,1,0,31.5Z" fill="#ff0" stroke="#000" stroke-linecap="round" stroke-linejoin="round" stroke-width="0.71"/><path d="M56.2,216.1c17-.1,23.5-21.9,9.7-31.4,10.5,15.8-8.1,34.4-23.9,23.9A17.2,17.2,0,0,0,56.2,216.1Z" fill="#c9c300"/><path d="M56.1,176.2A22.2,22.2,0,0,1,69.9,181a22.6,22.6,0,0,0-17.8-8.8c-21.6.1-30.6,27.4-13.9,40.4C26.7,198.1,37.3,176.1,56.1,176.2Z" fill="#c9c300"/><path d="M207.8,194.9a23.5,23.5,0,1,0,23.5-23.5A23.5,23.5,0,0,0,207.8,194.9Zm7.7,0a15.8,15.8,0,1,1,15.8,15.8A15.7,15.7,0,0,1,215.5,194.9Z" fill="#ff0" stroke="#000" stroke-linecap="round" stroke-linejoin="round" stroke-width="0.71"/><path d="M227.3,216.1c-17-.1-23.5-21.9-9.7-31.4-10.5,15.8,8.1,34.4,23.9,23.9A17.2,17.2,0,0,1,227.3,216.1Z" fill="#c9c300"/><path d="M227.4,176.2a22.2,22.2,0,0,0-13.8,4.8,22.5,22.5,0,0,1,17.8-8.8c21.5.1,30.6,27.4,13.8,40.4C256.7,198.1,246.1,176.1,227.4,176.2Z" fill="#c9c300"/></svg>