<svg xmlns="http://www.w3.org/2000/svg" viewBox="0 0 283.5 283.5"><path d="M76.3,107.2s8.8,19.5,4.5,51.2S66.9,203.7,82,234.7C82,234.7,20.6,107.2,76.3,107.2Z" fill="#cddb98" stroke="#000" stroke-linecap="round" stroke-linejoin="round" stroke-width="0.71"/><path d="M207.2,107.2s-8.9,19.5-4.5,51.2,13.8,45.3-1.2,76.3C201.5,234.7,262.8,107.2,207.2,107.2Z" fill="#cddb98" stroke="#000" stroke-linecap="round" stroke-linejoin="round" stroke-width="0.71"/><path d="M108.6,112.1s13.4,5.5,19.6,23c0,0,3.5-12.8,0-19,0,0,6.7,4.3,9.7,10.5,0,0,6.7-9.7,0-23.3Z" fill="#cddb98" stroke="#000" stroke-linecap="round" stroke-linejoin="round" stroke-width="0.71"/><path d="M74.9,217.2c-11.3-27.1-30.1-79.8-16.8-100.6,3.7-5.8,9.7-8.7,17.8-8.8a46.2,46.2,0,0,1,1.8,5.1,19.7,19.7,0,0,0-11.5,9.9c-8.4,16.4-.6,48.5,7.5,72.5A61.5,61.5,0,0,0,74.9,217.2Z" fill="#88935a"/><path d="M208.6,217.2a63.9,63.9,0,0,0,1.2-21.9c8.1-24,15.9-56.1,7.4-72.5a19.2,19.2,0,0,0-11.4-9.9c.8-2.7,1.5-4.4,1.7-5.1,8.2.1,14.2,3,17.8,8.8C238.7,137.4,219.8,190.1,208.6,217.2Z" fill="#88935a"/><path d="M137.9,125.4l-1.6-2.4a15.8,15.8,0,0,0-.8-5.2,28.4,28.4,0,0,1,4,3.5A20.4,20.4,0,0,1,137.9,125.4Z" fill="#88935a"/><path d="M128.1,133.1a40.6,40.6,0,0,0-17.9-20.8l27.4-8.3.2.5L113,112.1l1.4.6c.1,0,8.3,3.4,14.7,13.2A62.3,62.3,0,0,1,128.1,133.1Z" fill="#88935a"/><rect x="61.4" y="81.6" width="160.7" height="30.49" rx="14.9" fill="#ad581e" stroke="#000" stroke-linecap="round" stroke-linejoin="round" stroke-width="0.71"/><path d="M141.7,20.6C86.8,20.6,76,54,76,63.9V81.6H207.5V63.9C207.5,54,196.7,20.6,141.7,20.6Z" fill="#ca6d28" stroke="#000" stroke-linecap="round" stroke-linejoin="round" stroke-width="0.71"/><path d="M76.6,81.1V63.9c0-11,11.9-42.7,65.1-42.7h5.8c-39.7,6.2-48.9,33.2-48.9,42.6V81.1Z" fill="#934714"/><path d="M76.3,111.6A14.5,14.5,0,0,1,61.9,97.2v-.6A14.5,14.5,0,0,1,76.3,82.2H207.2a14.3,14.3,0,0,1,10.3,4.4H89.7a15.5,15.5,0,0,0-15.5,15.5v.6a15.7,15.7,0,0,0,2.8,8.9Z" fill="#703913"/></svg>