<svg xmlns="http://www.w3.org/2000/svg" viewBox="0 0 283.5 283.5"><path d="M218.5,63.3c-22.9-53.1-76.8-33.9-76.8-33.9S87.9,10.2,65,63.3c-25.8,33.2-35.4,59.1,0,95.2,0,0,45-2.9,33.2-49.4,4.9-2.6,11.7-5.4,18.4-8.9-2.5,11.8-4,33.7,15.4,44.9,0,0-11.2-27.8-2.3-53,7-5.4,12-12.1,12-20.6,0,8.5,5.1,15.2,12,20.6,9,25.2-2.2,53-2.2,53,19.3-11.2,17.8-33.1,15.4-44.9,6.7,3.5,13.5,6.3,18.4,8.9-11.8,46.5,33.2,49.4,33.2,49.4C253.9,122.4,244.3,96.5,218.5,63.3Z" fill="#9583c8" stroke="#000" stroke-miterlimit="10" stroke-width="0.71"/><path d="M152.6,143.8c2.2-6.2,9.4-30.2,1.7-51.9v-.2h-.1a34,34,0,0,1-6.1-5.8,26.4,26.4,0,0,0,1.7-4.7c1.4,5.7,5.2,11,11.6,16,3.5,10.2,4.3,21.9,2.2,35A31.3,31.3,0,0,1,152.6,143.8Z" fill="#403568"/><path d="M130.9,143.8c-13.6-8.7-15.7-23.2-15-34l7.9-3.9c-1.7,9.2-2.9,25,6.6,36.6C130.6,143,130.7,143.4,130.9,143.8Z" fill="#403568"/><path d="M199.8,152c-10.4-6-19.8-17.9-14.3-41.4l7.1,3.5C188.5,130.4,191,143.2,199.8,152Z" fill="#403568"/><path d="M65.2,157.9c-34.2-35-26.3-60.1.2-94.2h.1c13.2-30.6,36.7-37,54.1-37a74.6,74.6,0,0,1,21.9,3.3h.4a74.8,74.8,0,0,1,22-3.3c10.4,0,19.8,2.2,28,6.7a62.1,62.1,0,0,0-20-3.1,74.5,74.5,0,0,0-22.2,3.3,74.3,74.3,0,0,0-22.1-3.3c-17.8,0-41.7,6.5-55.1,37.5-25,32.2-33.9,57.3-5.4,90Z" fill="#403568"/></svg>