<svg xmlns="http://www.w3.org/2000/svg" viewBox="0 0 283.5 283.5"><path d="M230.4,231.5s-7.6-11.5,3.9-49.4c12.4-41.2-10.5-24.8-5.5-69.4S196.7-4,140,30.7c0,0-48-23.7-68.8,30.8-14.2,12.8-23,33-17,70.4s8.7,68.8-1.9,91.6-25.5,60,0,60H77.7s18.6-16.1-7.6-52c0,0,22.4-15.7,12.6-33.5s-17-35.8,0-69.8c14.9-29.9,29.1-37.9,48.8-39.5-.7,5.9-3.5,20.6-14.6,33,0,0,25.7-14.1,27.9-33.2,0,0,2.8,14.2,0,23.1a41.8,41.8,0,0,0,15.1-24.5c18-1.2,33.9.8,33.9,32.8,0,43.6-11.5,65-11.5,65s25.1-42.4,31.6-69.2c0,0,8.6,28-7,66.4-9.3,23,3.3,49.4,3.3,49.4s-24.1,52-5.5,52h39.4S255.5,258.4,230.4,231.5Z" fill="#ec62d7" stroke="#000" stroke-linecap="round" stroke-linejoin="round" stroke-width="0.71"/><path d="M186,177.2c3.4-9.9,8.3-29,8.3-57.3,0-19-5.4-29.2-17.4-32.4h1.9c13.9,0,26.7,4,26.7,32.5,0,6.8-.3,13.6-.8,20.2C198.4,154.4,190.7,168.8,186,177.2Z" fill="#6b1d63"/><path d="M119.6,119.4c8.1-10.3,11-21.7,12.1-28a53.8,53.8,0,0,1,11.5-2,66.8,66.8,0,0,1-1.6,7.7C136.4,107.7,124.9,116,119.6,119.4Z" fill="#6b1d63"/><path d="M52.3,282.9c-5.4,0-9.1-1.7-11.3-5.1-5.2-8.2-1.4-25.9,11.8-54.1,10.4-22.1,8.3-52.7,2-91.9-5.3-32.6.1-54.8,16.8-69.9h.1c6.2-16.2,19-35.6,44.7-35.6h1.7C102.4,29.7,90.6,41.5,83,61.2,66.1,76.5,60.7,99,66,132c8.7,53.9,5.5,75.4-1.9,91.3-13.3,28.5-17.2,46.5-11.7,55.1a10.7,10.7,0,0,0,5.5,4.5Z" fill="#6b1d63"/><path d="M50.5,216.4a3,3,0,0,0-5,1.2l-2.6,7.9-2.6,7.9a3,3,0,0,0,3.3,3.9l13-2,1.5-4.8,1.6-4.8Z" fill="#575757" stroke="#000" stroke-linecap="round" stroke-linejoin="round" stroke-width="0.71"/><path d="M78.8,225.7a3,3,0,0,1,3.3,3.9l-2.6,7.9-2.6,7.9a3,3,0,0,1-5,1.2l-9.2-9.3,1.5-4.8,1.6-4.8Z" fill="#575757" stroke="#000" stroke-linecap="round" stroke-linejoin="round" stroke-width="0.71"/><circle cx="61.2" cy="231.5" r="8.9" fill="#2f2f2e" stroke="#000" stroke-linecap="round" stroke-linejoin="round" stroke-width="0.71"/><path d="M55.9,231.9a8.9,8.9,0,0,1,11.2-5.7l1.8.9a8.8,8.8,0,0,0-4.9-4,8.9,8.9,0,0,0-7.4,16A8.6,8.6,0,0,1,55.9,231.9Z"/><path d="M152.3,30c-.7-.3-2.8-1.2-5.9-2.2,7.7-3.7,15.3-5.7,22.7-5.7h2A63.7,63.7,0,0,0,152.3,30Z" fill="#6b1d63"/><path d="M204.7,282.9a5.4,5.4,0,0,1-5-2.5c-6.6-10.4,10.8-48.3,11-48.7v-.4c-.1-.3-12.4-26.5-3.3-49a124.9,124.9,0,0,0,9.2-38.5,190.3,190.3,0,0,0,9.7-25.8c.3,1.7.8,4.2,1.2,7.5a53.1,53.1,0,0,0,.5,7.2c.4,11.1-.9,28.6-9.3,49.2s2,46.9,3.2,49.6c-1.6,3.6-17.6,39-10.8,49.5a6.6,6.6,0,0,0,1.8,1.9Z" fill="#6b1d63"/><path d="M202.4,222.4a3.1,3.1,0,0,0-3.8,3.6l1.6,8.1,1.7,8.2a3,3,0,0,0,4.9,1.7l10.2-8.2-1-4.9-1-4.9Z" fill="#575757" stroke="#000" stroke-linecap="round" stroke-linejoin="round" stroke-width="0.71"/><path d="M231.5,216.5a3.1,3.1,0,0,1,4.9,1.7l1.7,8.2,1.6,8.2a3,3,0,0,1-3.8,3.5l-12.6-3.6-1-4.9-1-4.9Z" fill="#575757" stroke="#000" stroke-linecap="round" stroke-linejoin="round" stroke-width="0.71"/><circle cx="219.2" cy="230.3" r="8.9" fill="#2f2f2e" stroke="#000" stroke-linecap="round" stroke-linejoin="round" stroke-width="0.71"/><path d="M215.3,233a8.9,8.9,0,0,1,6.9-10.5h1a8.3,8.3,0,0,0-5.8-.8,8.9,8.9,0,0,0-7,10.4,9,9,0,0,0,9.5,7.1A9,9,0,0,1,215.3,233Z"/></svg>