<svg xmlns="http://www.w3.org/2000/svg" viewBox="0 0 283.5 283.5"><path d="M73.7,84.6a14.3,14.3,0,0,0-10.6,4.8l30.1,30.1h33.1L91.5,84.6Z" fill="#7ec280" stroke="#000" stroke-linecap="round" stroke-linejoin="round" stroke-width="0.71"/><polygon points="91.5 84.6 126.3 119.5 159.5 119.5 124.6 84.6 91.5 84.6" fill="#bb53cd" stroke="#000" stroke-linecap="round" stroke-linejoin="round" stroke-width="0.71"/><path d="M59.6,98.8v6.5a14.2,14.2,0,0,0,14.1,14.2H93.2L63.1,89.4A14.2,14.2,0,0,0,59.6,98.8Z" fill="#edbe5e" stroke="#000" stroke-linecap="round" stroke-linejoin="round" stroke-width="0.71"/><path d="M226.5,105.3V98.8a14.2,14.2,0,0,0-14.2-14.2H191l31,31A13.9,13.9,0,0,0,226.5,105.3Z" fill="#bb53cd" stroke="#000" stroke-linecap="round" stroke-linejoin="round" stroke-width="0.71"/><path d="M222,115.6l-31-31H157.8l34.9,34.9h19.6A13.9,13.9,0,0,0,222,115.6Z" fill="#86d2f6" stroke="#000" stroke-linecap="round" stroke-linejoin="round" stroke-width="0.71"/><polygon points="124.6 84.6 159.5 119.5 192.7 119.5 157.8 84.6 124.6 84.6" fill="#edbe5e" stroke="#000" stroke-linecap="round" stroke-linejoin="round" stroke-width="0.71"/></svg>