<svg xmlns="http://www.w3.org/2000/svg" viewBox="0 0 283.5 283.5"><path d="M233.6,174.9c7.9-21.9,7.9-66.8-8.8-79.2C226.6,8.6,131.6,28,131.6,28S62.2,11.9,62.2,89.9s3.5,159.2-26.4,170.5c0,0,56.3-1.9,55.4-57.3S88.6,89.9,131.6,89.9c87.9,0,55.3,121.4,55.3,121.4,2.6,26.7,37,49.1,37,49.1C245.9,230.7,246.8,189,233.6,174.9Z" fill="#764b42" stroke="#000" stroke-miterlimit="10" stroke-width="0.71"/><path d="M39,259.5c24.4-13.9,24.1-78.7,23.8-147.2V89.9c0-54.6,34.2-62.7,54.5-62.7a74.1,74.1,0,0,1,14.2,1.3h.3a121.6,121.6,0,0,1,21.3-1.8c16.4,0,38.8,3.3,54.1,18.3a100.8,100.8,0,0,0-31.8-4.7A125.1,125.1,0,0,0,154,42.1a70.2,70.2,0,0,0-14.3-1.4C118.9,40.7,84,49,84,104.6c0,7.4.1,14.9.1,22.4.2,43.8.4,85.1-5.7,113.5C65.7,254.9,46.5,258.6,39,259.5Z" fill="#381e1a"/><path d="M223.8,259.6c-4-2.7-33.9-23.8-36.3-48.2.8-3,17.4-68.8-9.3-102.3,28.8,10.5,35.7,41.1,36.4,65.1.8,26.7-5.8,51.4-5.8,51.7h0c.9,10.1,6.5,20.7,16.4,31.5Z" fill="#381e1a"/></svg>