<svg xmlns="http://www.w3.org/2000/svg" viewBox="0 0 283.5 283.5"><g style="isolation:isolate"><path d="M153.1,11.9H130.3L26.6,105.3a27,27,0,0,0,5,3,72.3,72.3,0,0,0,7.2,3l7.2,2.4,7.2,1.9c4.5,1,9.6,2.1,15.5,3.1l7.2,1.1c4.5.6,9.4,1.2,14.7,1.7l7.1.6,15.3,1,7.2.2c5.6.2,11.6.4,18,.4h7.1c90.7-.5,111.6-18.4,111.6-18.4Z" fill="#a2ccf3" stroke="#000" stroke-linecap="round" stroke-linejoin="round" stroke-width="0.71"/><path d="M130.3,11.9,26.6,105.3a27,27,0,0,0,5,3,72.3,72.3,0,0,0,7.2,3l7.2,2.4,7.2,1.9c2.9.7,6.1,1.4,9.7,2l74-105.7Z" fill="#445e77" stroke="#000" stroke-linecap="round" stroke-linejoin="round" stroke-width="0.71"/><path d="M136.9,11.9l-74,105.7h0l5.8,1.1,7.2,1.1c4.5.6,9.4,1.2,14.7,1.7l5.6.5L141.7,11.9Z" fill="#7faeda" stroke="#000" stroke-linecap="round" stroke-linejoin="round" stroke-width="0.71"/><rect x="105.3" y="5" width="72.9" height="6.94" rx="3.5" fill="#a2ccf3" stroke="#000" stroke-linecap="round" stroke-linejoin="round" stroke-width="0.71"/><path d="M153.1,11.9l103.8,93.4a27,27,0,0,1-5,3,72.3,72.3,0,0,1-7.2,3l-7.3,2.4-7.1,1.9c-2.9.7-6.2,1.4-9.7,2l-74-105.7Z" fill="#445e77" stroke="#000" stroke-linecap="round" stroke-linejoin="round" stroke-width="0.71"/><path d="M146.6,11.9l74,105.7h0l-5.9,1.1-7.1,1.1c-4.5.6-9.4,1.2-14.7,1.7l-5.6.5L141.7,11.9Z" fill="#7faeda" stroke="#000" stroke-linecap="round" stroke-linejoin="round" stroke-width="0.71"/><circle cx="103.3" cy="14.2" r="4.2" fill="#243a4c" stroke="#000" stroke-linecap="round" stroke-linejoin="round" stroke-width="0.71"/><circle cx="97.1" cy="20.2" r="4.2" fill="#f9e850" stroke="#000" stroke-linecap="round" stroke-linejoin="round" stroke-width="0.71"/><path d="M38.8,111.3a72.3,72.3,0,0,1-7.2-3v28h7.2Z" fill="#243a4c" stroke="#000" stroke-linecap="round" stroke-linejoin="round" stroke-width="0.71"/><path d="M35.2,144.4a3.6,3.6,0,0,0,3.6-3.6v-4.5H31.6v4.5A3.6,3.6,0,0,0,35.2,144.4Z" fill="#f9e850" stroke="#000" stroke-linecap="round" stroke-linejoin="round" stroke-width="0.71"/><path d="M53.2,115.6,46,113.7v30.7h7.2Z" fill="#243a4c" stroke="#000" stroke-linecap="round" stroke-linejoin="round" stroke-width="0.71"/><path d="M49.6,155.3a3.6,3.6,0,0,0,3.6-3.6v-7.3H46v7.3A3.6,3.6,0,0,0,49.6,155.3Z" fill="#f9e850" stroke="#000" stroke-linecap="round" stroke-linejoin="round" stroke-width="0.71"/><path d="M75.9,119.8l-7.2-1.1v33.7h7.2Z" fill="#445e77" stroke="#000" stroke-linecap="round" stroke-linejoin="round" stroke-width="0.71"/><path d="M72.3,161.2a3.6,3.6,0,0,0,3.6-3.6v-5.2H68.7v5.2A3.6,3.6,0,0,0,72.3,161.2Z" fill="#f9e850" stroke="#000" stroke-linecap="round" stroke-linejoin="round" stroke-width="0.71"/><path d="M97.7,122.1l-7.1-.6v31.1h7.1Z" fill="#445e77" stroke="#000" stroke-linecap="round" stroke-linejoin="round" stroke-width="0.71"/><path d="M94.2,163a3.6,3.6,0,0,0,3.5-3.6v-6.8H90.6v6.8A3.6,3.6,0,0,0,94.2,163Z" fill="#f9e850" stroke="#000" stroke-linecap="round" stroke-linejoin="round" stroke-width="0.71"/><path d="M120.2,123.3l-7.2-.2v36.6h7.2Z" fill="#7faeda" stroke="#000" stroke-linecap="round" stroke-linejoin="round" stroke-width="0.71"/><path d="M116.6,168.5a3.6,3.6,0,0,0,3.6-3.6v-5.2H113v5.2A3.6,3.6,0,0,0,116.6,168.5Z" fill="#f9e850" stroke="#000" stroke-linecap="round" stroke-linejoin="round" stroke-width="0.71"/><path d="M138.2,123.7h7.1v42.9h-7.1Z" fill="#a2ccf3" stroke="#000" stroke-linecap="round" stroke-linejoin="round" stroke-width="0.71"/><path d="M141.7,175.4a3.6,3.6,0,0,1-3.5-3.6v-5.2h7.1v5.2A3.6,3.6,0,0,1,141.7,175.4Z" fill="#f9e850" stroke="#000" stroke-linecap="round" stroke-linejoin="round" stroke-width="0.71"/><path d="M142.4,123.7h-4.2v42.9h4.2Z" fill="#445e77" opacity="0.57" style="mix-blend-mode:multiply"/><path d="M142.4,171.8v-5.2h-4.2v5.2a3.6,3.6,0,0,0,3.5,3.6,3.5,3.5,0,0,0,2.1-.7A3.9,3.9,0,0,1,142.4,171.8Z" fill="#f9e850" style="mix-blend-mode:multiply"/><path d="M145.3,123.7h-7.1v42.9h7.1Z" fill="#a2ccf3" stroke="#000" stroke-linecap="round" stroke-linejoin="round" stroke-width="0.71"/><path d="M141.7,175.4a3.6,3.6,0,0,0,3.6-3.6v-5.2h-7.1v5.2A3.6,3.6,0,0,0,141.7,175.4Z" fill="#f9e850" stroke="#000" stroke-linecap="round" stroke-linejoin="round" stroke-width="0.71"/><path d="M62.6,117l-9.3-2c-2.5-.6-4.9-1.2-7.1-1.9a69.4,69.4,0,0,1-7.3-2.4,59.3,59.3,0,0,1-7-2.9,34.3,34.3,0,0,1-4.5-2.6L130.6,12.5h5.2l-4.2,6L39.5,101.3l.5.4a24.3,24.3,0,0,0,5.2,3.1,62.7,62.7,0,0,0,7.2,3,69.4,69.4,0,0,0,7.3,2.4l6.4,1.7Z" fill="#243747"/><path d="M95.8,121.4l-5.1-.5c-5.2-.5-10.1-1-14.7-1.7l-7.2-1.1-5-.9L137.2,12.5h3.7l-8,19.3-58,82.8h.9l5.9,1.1,7.1,1.1,8.5,1Z" fill="#4c779b"/><path d="M220.9,117l9.3-2c2.5-.6,4.9-1.2,7.1-1.9a67.5,67.5,0,0,0,7.2-2.4,61.3,61.3,0,0,0,7.1-2.9,38.6,38.6,0,0,0,4.4-2.6L152.9,12.5h-5.2l4.2,6,92,82.8-.5.4c0,.1-1.5,1.3-5.1,3.1a71.2,71.2,0,0,1-7.2,3,71.4,71.4,0,0,1-7.4,2.4c-2,.6-4.1,1.2-6.4,1.7Z" fill="#243747"/><path d="M187.6,121.4l5.2-.5c5.1-.5,10.1-1,14.7-1.7l7.1-1.1c1.7-.3,3.4-.5,5-.9L146.3,12.5h-3.7l8,19.3,57.9,82.8h-.8l-5.9,1.1-7.2,1.1-8.4,1Z" fill="#4c779b"/><path d="M108.7,11.3a2.9,2.9,0,0,1,0-5.8h66A2.9,2.9,0,0,1,177,6.7H115.3a4,4,0,0,0-4.1,4c0,.2.1.4.1.6Z" fill="#537996"/><path d="M96.2,23.8a3.7,3.7,0,0,1-2.8-3.6,3.6,3.6,0,0,1,3.7-3.6,4,4,0,0,1,1.5.3,4.7,4.7,0,0,0-3.1,4.5A4.2,4.2,0,0,0,96.2,23.8Z" fill="#938521"/><path d="M102.4,17.7a3.6,3.6,0,0,1-2.8-3.5,3.7,3.7,0,0,1,3.7-3.7,4,4,0,0,1,1.5.3,4.8,4.8,0,0,0-3.1,4.5A5.1,5.1,0,0,0,102.4,17.7Z" fill="#0f1e28"/><circle cx="180.2" cy="14.2" r="4.2" fill="#243a4c" stroke="#000" stroke-linecap="round" stroke-linejoin="round" stroke-width="0.71"/><circle cx="186.4" cy="20.2" r="4.2" fill="#f9e850" stroke="#000" stroke-linecap="round" stroke-linejoin="round" stroke-width="0.71"/><path d="M187.3,23.8a3.7,3.7,0,0,0-.9-7.2,4,4,0,0,0-1.5.3,4.8,4.8,0,0,1,3.1,4.5A5.1,5.1,0,0,1,187.3,23.8Z" fill="#938521"/><path d="M181.1,17.7a3.5,3.5,0,0,0,2.7-3.5,3.6,3.6,0,0,0-3.6-3.7,3.7,3.7,0,0,0-1.5.3,4.7,4.7,0,0,1,3,4.5A5,5,0,0,1,181.1,17.7Z" fill="#0f1e28"/><path d="M35.2,143.8a2.9,2.9,0,0,1-3-3v-3.9h1.7v3.9a4.2,4.2,0,0,0,1.3,3Z" fill="#938521"/><path d="M49.6,154.7a3,3,0,0,1-3-3V145h2v6.7a4,4,0,0,0,1.3,3Z" fill="#938521"/><path d="M72.3,160.6a3,3,0,0,1-3-3v-4.7h2.5v4.7a3.8,3.8,0,0,0,1.2,2.9Z" fill="#938521"/><path d="M94.2,162.4a3,3,0,0,1-3-3v-6.3h2.4v6.3a4.3,4.3,0,0,0,1.2,2.9Z" fill="#938521"/><path d="M116.6,167.9a2.9,2.9,0,0,1-3-3v-4.6h3v4.6a3.9,3.9,0,0,0,1.1,2.8A2.2,2.2,0,0,1,116.6,167.9Z" fill="#938521"/><path d="M32.2,135.7V109.2l1.7.8v25.7Z" fill="#10212d"/><path d="M46.6,143.8V114.4l2,.6v28.8Z" fill="#10212d"/><path d="M69.3,151.8V119.3l2.5.4v32.1Z" fill="#243747"/><path d="M91.2,152V122.1l2.4.2V152Z" fill="#243747"/><path d="M113.6,159.2V123.7h3v35.4Z" fill="#477499"/><path d="M244.7,111.3a72.3,72.3,0,0,0,7.2-3v28h-7.2Z" fill="#243a4c" stroke="#000" stroke-linecap="round" stroke-linejoin="round" stroke-width="0.71"/><path d="M248.3,144.4a3.6,3.6,0,0,1-3.6-3.6v-4.5h7.2v4.5A3.6,3.6,0,0,1,248.3,144.4Z" fill="#f9e850" stroke="#000" stroke-linecap="round" stroke-linejoin="round" stroke-width="0.71"/><path d="M230.3,115.6l7.1-1.9v30.7h-7.1Z" fill="#243a4c" stroke="#000" stroke-linecap="round" stroke-linejoin="round" stroke-width="0.71"/><path d="M233.9,155.3a3.6,3.6,0,0,1-3.6-3.6v-7.3h7.1v7.3A3.6,3.6,0,0,1,233.9,155.3Z" fill="#f9e850" stroke="#000" stroke-linecap="round" stroke-linejoin="round" stroke-width="0.71"/><path d="M207.6,119.8l7.1-1.1v33.7h-7.1Z" fill="#445e77" stroke="#000" stroke-linecap="round" stroke-linejoin="round" stroke-width="0.71"/><path d="M211.1,161.2a3.6,3.6,0,0,1-3.5-3.6v-5.2h7.1v5.2A3.6,3.6,0,0,1,211.1,161.2Z" fill="#f9e850" stroke="#000" stroke-linecap="round" stroke-linejoin="round" stroke-width="0.71"/><path d="M185.7,122.1l7.2-.6v31.1h-7.2Z" fill="#445e77" stroke="#000" stroke-linecap="round" stroke-linejoin="round" stroke-width="0.71"/><path d="M189.3,163a3.6,3.6,0,0,1-3.6-3.6v-6.8h7.2v6.8A3.6,3.6,0,0,1,189.3,163Z" fill="#f9e850" stroke="#000" stroke-linecap="round" stroke-linejoin="round" stroke-width="0.71"/><path d="M163.3,123.3l7.1-.2v36.6h-7.1Z" fill="#7faeda" stroke="#000" stroke-linecap="round" stroke-linejoin="round" stroke-width="0.71"/><path d="M166.9,168.5a3.6,3.6,0,0,1-3.6-3.6v-5.2h7.1v5.2A3.6,3.6,0,0,1,166.9,168.5Z" fill="#f9e850" stroke="#000" stroke-linecap="round" stroke-linejoin="round" stroke-width="0.71"/><path d="M248.3,143.8a3,3,0,0,0,3-3v-3.9h-1.8v3.9a3.8,3.8,0,0,1-1.3,3Z" fill="#938521"/><path d="M233.9,154.7a3,3,0,0,0,3-3V145h-2v6.7a4,4,0,0,1-1.3,3Z" fill="#938521"/><path d="M211.1,160.6a2.9,2.9,0,0,0,3-3v-4.7h-2.4v4.7a3.8,3.8,0,0,1-1.2,2.9Z" fill="#938521"/><path d="M189.3,162.4a3,3,0,0,0,3-3v-6.3h-2.4v6.3a3.9,3.9,0,0,1-1.3,2.9Z" fill="#938521"/><path d="M166.9,167.9a3,3,0,0,0,3-3v-4.6h-3v4.6a3.9,3.9,0,0,1-1.1,2.8A2,2,0,0,0,166.9,167.9Z" fill="#938521"/><path d="M251.3,135.7V109.2l-1.8.8v25.7Z" fill="#10212d"/><path d="M236.9,143.8V114.4l-2,.6v28.8Z" fill="#10212d"/><path d="M214.1,151.8V119.3l-2.4.4v32.1Z" fill="#243747"/><path d="M192.3,152V122.1l-2.4.2V152Z" fill="#243747"/><path d="M169.9,159.2V123.7h-3v35.4Z" fill="#477499"/><path d="M141.6,166V124.3h3.1V166Z" fill="#477499"/><path d="M141.7,174.8l-1.1-.2a4,4,0,0,0,1-2.8v-4.7h3.1v4.7A2.9,2.9,0,0,1,141.7,174.8Z" fill="#938521"/></g></svg>