<svg xmlns="http://www.w3.org/2000/svg" viewBox="0 0 283.5 283.5"><path d="M235.7,269.5s21.9-73.9-.9-123.7c5.8-45.1-3.1-121.3-93.1-121.3S42.8,100.7,48.6,145.8c-22.7,49.8-.9,123.7-.9,123.7-12,2.3-8,14-8,14h61.9S82,265.3,82,222.6V142.1C82,124,91.8,91,116.8,91h49.9c24.9,0,34.7,33,34.7,51.1v80.5c0,42.7-19.6,60.9-19.6,60.9h61.9S247.8,271.8,235.7,269.5Z" fill="#4da584" stroke="#000" stroke-linecap="round" stroke-linejoin="round" stroke-width="0.71"/><path d="M183.2,282.9c3.9-4.3,18.8-23.2,18.8-60.3V142.1c0-18.8-7.9-35.1-15.6-43.1,25.2.5,33.7,34.9,33.7,50.6V230c0,26.3-7.3,43.2-13.5,52.9Z" fill="#225440"/><path d="M40.1,282.9c-.3-1.2-1.2-5.2.7-8.5s3.7-3.7,7-4.3h.7l-.2-.6c-.2-.8-21.5-74.3.8-123.3v-.2h0c-2.3-18.1-4.9-63.4,21.5-93.3,15.9-18.2,39.9-27.4,71-27.4,17.8,0,33.4,3,46.3,9a128,128,0,0,0-27-2.7c-31.5,0-55.7,9.4-72,27.8-26.5,30.2-24.1,75.7-21.7,94-21.4,47.1-3,116.3-1,123.4-4.1.9-6.8,3-7.9,6.3Z" fill="#225440"/><path d="M141.7,16.8H120A11,11,0,0,0,109.3,28V57.5a52.8,52.8,0,0,0,2.2,15.4,31.8,31.8,0,0,0,30.2,22.6h0A31.8,31.8,0,0,0,172,72.9a53.1,53.1,0,0,0,2.1-15.4V28a11,11,0,0,0-10.7-11.2Z" fill="#fce66b" stroke="#000" stroke-linecap="round" stroke-linejoin="round" stroke-width="0.71"/><path d="M72,142.1v80.5c0,42.7,19.6,60.9,19.6,60.9h10S82,265.3,82,222.6V142.1C82,124,91.8,91,116.8,91H106.7C81.8,91,72,124,72,142.1Z" fill="#fce66b" stroke="#000" stroke-linecap="round" stroke-linejoin="round" stroke-width="0.71"/><path d="M211.5,142.1v80.5c0,42.7-19.6,60.9-19.6,60.9H181.8s19.6-18.2,19.6-60.9V142.1c0-18.1-9.8-51.1-34.7-51.1h10C201.7,91,211.5,124,211.5,142.1Z" fill="#fce66b" stroke="#000" stroke-linecap="round" stroke-linejoin="round" stroke-width="0.71"/><path d="M134.8,94.2A31.4,31.4,0,0,1,112,72.8a53.4,53.4,0,0,1-2.1-15.3V28c0-5.9,4.5-10.7,10.1-10.7h43.4a10,10,0,0,1,9.4,6.6H135.9c-6.2,0-11.2,5.3-11.2,11.8V65.2a51.6,51.6,0,0,0,2.2,15.6A32,32,0,0,0,134.8,94.2Z" fill="#d1bc52"/><path d="M146.9,48.9a9.3,9.3,0,0,1-.2,1.4,14.2,14.2,0,0,1-.5,1.6,13,13,0,0,1-.8,1.7,5.8,5.8,0,0,1-1.1,1.5,4.5,4.5,0,0,1-1.3,1.1,2.8,2.8,0,0,1-1.5.4H141l-.6-.2a.9.9,0,0,1-.5-.3.7.7,0,0,1-.2-.6,1.3,1.3,0,0,1,.1-.6l.5-.8.8-.9.8-1.2.6-1.3a4.4,4.4,0,0,0,.2-1,1.5,1.5,0,0,0-.3-1,1.1,1.1,0,0,0-.9-.4,4.1,4.1,0,0,0-2,.6,11.1,11.1,0,0,0-2.4,1.6l-2.5,2.4-2.4,2.9A36.2,36.2,0,0,0,130,59c-.7,1.1-1.3,2.2-1.9,3.3a24.5,24.5,0,0,0-1.2,3.1,9.5,9.5,0,0,0-.4,2.8,3.2,3.2,0,0,0,.8,2.4,3.3,3.3,0,0,0,2.6.9,6.7,6.7,0,0,0,2.6-.7,20.5,20.5,0,0,0,2.9-1.3l2.3-1.5,2.3-1.6,1.9-1.4a5.3,5.3,0,0,1,1.4-.8h.3c.2,0,.3.2.4.5a3.7,3.7,0,0,1,.1,1.1,2.8,2.8,0,0,1-.1.9,2.2,2.2,0,0,1-.6,1.2l-.8.9L141,70.1a19.3,19.3,0,0,1-2.1,1.7,22.6,22.6,0,0,1-2.6,1.6l-3.6,1.5a16.1,16.1,0,0,1-3.9.7,10.4,10.4,0,0,1-3.3-.5,6.7,6.7,0,0,1-2.2-1.3,5.3,5.3,0,0,1-1.3-2,6.9,6.9,0,0,1-.4-2.5,17.2,17.2,0,0,1,.5-3.7,31.2,31.2,0,0,1,1.5-3.9,22.4,22.4,0,0,1,2.2-4,27.6,27.6,0,0,1,2.8-3.9c1-1.2,2.1-2.3,3.2-3.4a27.4,27.4,0,0,1,3.5-2.7,18.5,18.5,0,0,1,3.7-1.9,11.3,11.3,0,0,1,3.6-.6l1.6.2a3.5,3.5,0,0,1,1.4.6,2.7,2.7,0,0,1,.9,1.2A3.9,3.9,0,0,1,146.9,48.9Z" fill="#af9c3e" stroke="#000" stroke-linecap="round" stroke-linejoin="round" stroke-width="0.71"/><path d="M149.8,67.2l-.9,1.7-1.3,2.4L146,74.1l-1.8,3c-.6,1-1.2,2-1.9,3a31.5,31.5,0,0,1-1.9,2.7,12.5,12.5,0,0,0,4.3-1.2,18.7,18.7,0,0,0,3.9-2.2,19.9,19.9,0,0,0,3.4-3.1,20.5,20.5,0,0,0,2.5-3.5,19.5,19.5,0,0,0,1.7-3.6,11.2,11.2,0,0,0,.6-3.5,6.9,6.9,0,0,0-.4-2.5,4.7,4.7,0,0,0-1-2,4.6,4.6,0,0,0-1.8-1.3,6.2,6.2,0,0,0-2.5-.5,12.4,12.4,0,0,0-2.7.3,11.1,11.1,0,0,0-2.6.7,9.4,9.4,0,0,0-2.3,1,8.3,8.3,0,0,0-1.8,1.3c-.6.6-1,1.2-1.5,1.8L139,66.1a7.1,7.1,0,0,1-1.3,1.2,3.1,3.1,0,0,1-1.7.5c-1.2,0-1.8-.6-1.8-1.6a5.1,5.1,0,0,1,.7-2.2,8.7,8.7,0,0,1,1.8-2.2,15.2,15.2,0,0,1,2.7-2.2,28.9,28.9,0,0,1,3.5-1.9,24.5,24.5,0,0,1,4.1-1.2,16.1,16.1,0,0,1,4.4-.5,10.8,10.8,0,0,1,4.6.8,9.3,9.3,0,0,1,3.3,2.1,8.4,8.4,0,0,1,1.9,3.3,12.9,12.9,0,0,1,.7,4,15.3,15.3,0,0,1-.8,4.5,24.2,24.2,0,0,1-2.1,4.7,34.7,34.7,0,0,1-3.5,4.3,21.5,21.5,0,0,1-4.8,3.6,25.5,25.5,0,0,1-13.1,3.4,1.7,1.7,0,0,1-1.3-.5,2.1,2.1,0,0,1-.5-1.3,5,5,0,0,1,.2-1.2,3.1,3.1,0,0,1,.5-1l8.6-17a9.8,9.8,0,0,1,1.2-1.5l1.1-.8a1.8,1.8,0,0,1,.9-.4h.6a1.4,1.4,0,0,1,1.3.5,2.8,2.8,0,0,1,.4,1.3,6.9,6.9,0,0,1-.2,1.3Z" fill="#af9c3e" stroke="#000" stroke-linecap="round" stroke-linejoin="round" stroke-width="0.71"/></svg>