<svg xmlns="http://www.w3.org/2000/svg" viewBox="0 0 283.5 283.5"><path d="M141.7,18C93.4,18,68.8,38,68.8,62.9v49.2H214.6V62.9C214.6,38,190.1,18,141.7,18Z" stroke="#000" stroke-linecap="round" stroke-linejoin="round" stroke-width="0.71"/><path d="M69.4,111.6V62.9c0-12.6,6.3-23.5,18.1-31.3s31.5-13,54.2-13a135.3,135.3,0,0,1,28.8,2.8c-3.1-.2-6.3-.3-9.5-.3-44.6,0-73.5,17.9-73.5,45.5v45Z" fill="#3a3a3a"/><path d="M152.8,18.4V18c0-5.7-5-10.3-11.1-10.3s-11,4.6-11,10.3v.4c3.5-.3,7.2-.4,11-.4S149.2,18.1,152.8,18.4Z" fill="#522422" stroke="#000" stroke-miterlimit="10" stroke-width="0.71"/><path d="M119,56.7a2.7,2.7,0,0,0,1.4.8,5.6,5.6,0,0,0,2,.3,6.4,6.4,0,0,0,2.2-.4l2.1-.8,1.4-.9v.2a1.9,1.9,0,0,0-.2.7,1.8,1.8,0,0,0,.4.9,1.3,1.3,0,0,0,.9.3.8.8,0,0,0,.7-.2l.6-.5a4.3,4.3,0,0,0,.4-.7,1.6,1.6,0,0,0,.4-.7l.4-.7.3-.5.7-1.2.9-1.1,1-.7a1.7,1.7,0,0,1,1-.3h-.1c0,.1-.1.2-.1.3l-.6.9a6.1,6.1,0,0,0-.7,1,5.4,5.4,0,0,0-.5,1.1,2.7,2.7,0,0,0-.2,1.3,2,2,0,0,0,.6,1.5,2.7,2.7,0,0,0,1.6.4,3.4,3.4,0,0,0,1.4-.2,6.1,6.1,0,0,0,1.4-.7,4.1,4.1,0,0,0,1.1-.7c.1.1.1.1.1.2a2.7,2.7,0,0,0,.7.8l.9.5h.8a3.5,3.5,0,0,0,1.4-.3l1.2-.7.9-.9c.1.1.1.2.1.4a1.6,1.6,0,0,0,.4.7.9.9,0,0,0,.6.6c.2.2.5.2.9.2a2.3,2.3,0,0,0,1.1-.2l1.1-.6.9-.6a4.1,4.1,0,0,0,.5.9,3.5,3.5,0,0,0,1.8.5l1.4-.2,1.4-.8h0l.3.6a1.3,1.3,0,0,0,1,.4,1.2,1.2,0,0,0,.9-.3l.6-.8a5.9,5.9,0,0,0,.4-.8c.1-.3.3-.5.4-.8l.8-1.2,1.1-1.3a3.5,3.5,0,0,1,1.1-1,1.9,1.9,0,0,1,1.2-.4.4.4,0,0,0-.1.3,4.3,4.3,0,0,0-.4.7,5.6,5.6,0,0,0-.5.8l-.5.9a4.2,4.2,0,0,0-.4,1,1.5,1.5,0,0,0-.2.9.1.1,0,0,0-.1.1v.2a2.1,2.1,0,0,0,.4,1.2,1.3,1.3,0,0,0,1.2.5h.6l.6-.2,1.5-.5,1.3-.7,1.2-.7,1.2-.9a2.5,2.5,0,0,0,.8-1,1.9,1.9,0,0,0,.3-1,1.4,1.4,0,0,0-.2-.6.9.9,0,0,0-.7-.3h-.3l-.3.2-.8.7-1.1.8-1.2.7-1.2.5.3-.4h0l.4-.6a5.6,5.6,0,0,0,.5-.8l.5-.9.3-1a3.6,3.6,0,0,0,.2-1,1.5,1.5,0,0,0-.6-1.3,2,2,0,0,0-1.3-.4l-1.3.2-1.2.5a2.1,2.1,0,0,0-1,.6,1.3,1.3,0,0,0-.4-.6,1.1,1.1,0,0,0-.7-.3,1.7,1.7,0,0,0-1,.3,2.2,2.2,0,0,0-.7.9,9.3,9.3,0,0,1-.5,1l-.6,1.2v.3a.1.1,0,0,0-.1.1l-.5.5-.5.5-.7.6-.6.4-.7.4h-.7c0-.2.1-.3.1-.5l.3-.7.3-.7.3-.6.2-.4.2-.4c0-.1.1-.2.2-.3s.1-.3.2-.5a.8.8,0,0,0,.1-.4v-.2a1.4,1.4,0,0,0-.5-1.1,1.3,1.3,0,0,0-1-.4l-.7.2a.9.9,0,0,0-.6.6l-.3.5-.2.4-.3.6c-.1.2-.1.4-.2.5l-.4.8a3.6,3.6,0,0,1-.4.9,1.2,1.2,0,0,0-.5.5l-.6.4-.5.4-.5.3h-.2c-.1-.1-.1-.2-.1-.4a1.1,1.1,0,0,1,.1-.5,2.4,2.4,0,0,1,.2-.8c.1-.3.1-.6.2-.9l.3-.8v-.3l.2-.5a1.4,1.4,0,0,0,.2-.6v-.2a.9.9,0,0,0-.4-.8,1.2,1.2,0,0,0-1-.4h-.4l-.5.2h-.1l-.4-.2a.9.9,0,0,0-.7-.3l-1-.2a4.2,4.2,0,0,0-2,.4,3.8,3.8,0,0,0-1.5.9,5.3,5.3,0,0,0-1.2,1.4,6.4,6.4,0,0,0-.8,1.4l-.3,1-.3.2a1.8,1.8,0,0,1-.7.5l-.7.5-.6.3h-.7a6.4,6.4,0,0,1,.2-.7l.5-.7.5-.7a2.2,2.2,0,0,0,.5-.8,4.1,4.1,0,0,0,.5-.9,3.6,3.6,0,0,0,.2-1.1,2.9,2.9,0,0,0-.2-.9l-.6-.5a.9.9,0,0,0-.7-.3h-.8l-1.3.2-.8.4.9-1.6.9-1.8a9.5,9.5,0,0,1,1-1.7l.3-.6a1.7,1.7,0,0,0,.1-.7,1.1,1.1,0,0,0-.3-.8,1.3,1.3,0,0,0-1-.3H136l-.5.2-.4.3c-.2.2-.3.3-.3.4L131,49.9l-.4.7h-.4a2.5,2.5,0,0,0-.8.5l-1.1.7-1.2.9-1.3.8a5.2,5.2,0,0,1-1.5.7l-1.3.4c-.6,0-1-.1-1.2-.4a1.5,1.5,0,0,1-.3-1,3.4,3.4,0,0,1,.2-1.4,12.2,12.2,0,0,1,.7-1.7,15.1,15.1,0,0,1,.9-1.8l1.3-1.8a18.3,18.3,0,0,1,1.3-1.6l1.3-1.2,1.3-.9a1.6,1.6,0,0,1,.9-.3h.2a.4.4,0,0,1,.1.3c0,.1-.1.2-.1.4l-.3.6a2.1,2.1,0,0,0-.4.6l-.5.6c-.1.2-.3.4-.3.5a1.1,1.1,0,0,0-.1.5,1.1,1.1,0,0,0,.2.6.5.5,0,0,0,.5.3h.7a2.2,2.2,0,0,0,1.1-.2,2.7,2.7,0,0,0,.8-.7,8.6,8.6,0,0,0,.7-1l.4-.9a2.2,2.2,0,0,0,.3-1,2.8,2.8,0,0,0,.1-.9,2,2,0,0,0-.2-1.1,1.9,1.9,0,0,0-.7-.8,1.3,1.3,0,0,0-.9-.4l-1-.2a7.8,7.8,0,0,0-2.1.4,8.4,8.4,0,0,0-2.1,1.1,14.6,14.6,0,0,0-2.1,1.6L121.9,45a17.7,17.7,0,0,0-1.6,2.2,17.1,17.1,0,0,0-1.3,2.3,19.5,19.5,0,0,0-.8,2.2,8.9,8.9,0,0,0-.3,2.2,3.7,3.7,0,0,0,.3,1.5A2.2,2.2,0,0,0,119,56.7Zm25-5.2a1.1,1.1,0,0,1,.8-.3h.7c.1.1.2.2.2.3h.1a.8.8,0,0,1-.1.3l-.5.6a1.6,1.6,0,0,1-.6.8l-.6.8-.7.5-.3.2h-.3l-.2-.2a.4.4,0,0,0-.1-.3V54a3,3,0,0,1,.2-1,4.7,4.7,0,0,1,.6-.9A1.6,1.6,0,0,1,144,51.5Z" fill="#b47047"/><path d="M155.7,48.4l.9-.2.6-.5.3-.6a1.5,1.5,0,0,0,.1-.6,1.2,1.2,0,0,0-.4-1,1.6,1.6,0,0,0-1.2-.4l-.9.2a1,1,0,0,0-.6.5l-.4.6a2,2,0,0,0-.1.7,1.8,1.8,0,0,0,.4,1A2.3,2.3,0,0,0,155.7,48.4Z" fill="#b47047"/><path d="M115.2,60.3a8.8,8.8,0,0,0,.4-2.7,6.7,6.7,0,0,0-.4-2.4,4.5,4.5,0,0,0-1.1-1.9,5.3,5.3,0,0,0-2-1.3,7.6,7.6,0,0,0-2.7-.5,10.9,10.9,0,0,0-2.6.3l-2.3.7a13.9,13.9,0,0,0-2.1,1.1l-1.5,1.2a4.5,4.5,0,0,0-1.1,1.4,2.7,2.7,0,0,0-.4,1.4,1.2,1.2,0,0,0,1.4,1.3,2,2,0,0,0,1.1-.3l.9-.8.7-.9.8-1,.9-.6a3.3,3.3,0,0,1,1.2-.5l1.4-.4h1.4a2.2,2.2,0,0,1,1.2.2,1.8,1.8,0,0,1,.9.6,9.3,9.3,0,0,1,.5,1,5.3,5.3,0,0,1,.1,1.3,5.5,5.5,0,0,1-.3,1.7,8.8,8.8,0,0,1-.9,2,10.7,10.7,0,0,1-1.3,1.9l-1.8,1.6a11.3,11.3,0,0,1-2.1,1.2l-1.3.5a1.8,1.8,0,0,1,.5-.7l1-1.7,1-1.7c.3-.5.6-1.1.9-1.5s.5-1,.7-1.4l.5-.9a3,3,0,0,0,.4-.8,2.5,2.5,0,0,0,.1-.8,1.7,1.7,0,0,0-.3-1,1.1,1.1,0,0,0-1.1-.5h-.4a.9.9,0,0,0-.6.3l-.7.5a3.5,3.5,0,0,0-.7.9l-4.8,9.5-.3.6a2.4,2.4,0,0,0-.2.8,1.8,1.8,0,0,0,.4,1,1.4,1.4,0,0,0,1.1.5,12.9,12.9,0,0,0,4-.6,13.5,13.5,0,0,0,3.5-1.4,13.9,13.9,0,0,0,2.7-2.1,9.6,9.6,0,0,0,2-2.5A9.1,9.1,0,0,0,115.2,60.3Z" fill="#b47047"/><path d="M183.9,64.8l-.7-1.1a5.2,5.2,0,0,0-1-1.1l-.8-.6c.1,0,.1-.1.2-.2l.3-.3a1.3,1.3,0,0,0,.1-.6.6.6,0,0,0-.1-.4.8.8,0,0,0-.4-.4l-.5-.2h-1.4l-.7.4-.6.6-.4.5a.6.6,0,0,0-.2.5.8.8,0,0,0,.2.5l.3.4,1.1.7.9.7.6.8a2.9,2.9,0,0,1,.2.9.4.4,0,0,1-.1.3c-.1.1-.1.2-.3.3h-1.7l-.6-.2a.5.5,0,0,1-.4-.2l.3-.2h.2a3.6,3.6,0,0,0,.9-.8,1.5,1.5,0,0,0,.2-.9c0-.2,0-.5-.2-.6a.9.9,0,0,0-.7-.3H178l-1.1.6-1.5.8-1.5.8h0l.7-.7.8-.9.7-.9a2,2,0,0,0,.5-.9v-.6a1.6,1.6,0,0,0-.4-1.2,1.8,1.8,0,0,0-1.1-.3h-.8a1.6,1.6,0,0,0-.9.3l-1,.4h-.3c0-.1-.1-.2-.2-.3a1,1,0,0,0-.5-.4l-.6-.2h-1.4l-.6.3-.4.5a1.4,1.4,0,0,0-.2.7,1.9,1.9,0,0,0,.2.7.3.3,0,0,1,.1.2,10.1,10.1,0,0,0-.7,1.5l-.2.4h-.2l-.8.4a3.1,3.1,0,0,1-1,.5l-1.1.6-1.1.3-1.1.2h-.5a15.6,15.6,0,0,0,2.2-1,8.3,8.3,0,0,0,1.7-1.2,3.5,3.5,0,0,0,1-1.2,2.7,2.7,0,0,0,.3-1.2,2.3,2.3,0,0,0-.6-1.6,2.9,2.9,0,0,0-1.7-.5l-1.9.2-1.5.8a6.9,6.9,0,0,0-1.3,1.1l-1,1.2a7.5,7.5,0,0,0-.6,1.3,3.6,3.6,0,0,0-.2,1H158l-1,.7-.9.2H156a.4.4,0,0,1,.1-.3l.3-.6c.2-.2.3-.4.5-.5l.3-.5a8.3,8.3,0,0,0,.8-1.2,2.8,2.8,0,0,0,.4-1.5,3,3,0,0,0-.2-1,1.7,1.7,0,0,0-.6-.6.9.9,0,0,0-.7-.3H155l-.9.4a1.8,1.8,0,0,0-.7.5h-.1c-.2-.3-.3-.5-.5-.6a.9.9,0,0,0-.7-.3h-.7a2.7,2.7,0,0,0-1.3.2l-1.1.5-.6.5a1,1,0,0,0-.4-.5,1.1,1.1,0,0,0-.8-.3,1.6,1.6,0,0,0-.9.3,2.2,2.2,0,0,0-.7.9,6.9,6.9,0,0,1-.4,1l-.6,1.2h0v.2l-1.3,1.2-.6.5a1,1,0,0,1-.5.4l-.5.3h-.2V66c0-.2.1-.4.1-.6s.1-.5.2-.8l.3-.8.3-.9h0l.3-.6c0-.2.1-.4.1-.6s.1-.1.1-.2a1.2,1.2,0,0,0-.5-.9,1.2,1.2,0,0,0-.9-.3h-1.1l-.4-.3-.7-.3h-1a6.4,6.4,0,0,0-2,.3l-1.5,1a6.9,6.9,0,0,0-1.1,1.3,5.5,5.5,0,0,0-.8,1.5,1.6,1.6,0,0,0-.3.9l-.4.2a3.1,3.1,0,0,1-1,.5l-1.2.6-1.1.3-1,.2h-.5l2.1-1a9.3,9.3,0,0,0,1.8-1.2,5.3,5.3,0,0,0,1-1.2,2.7,2.7,0,0,0,.3-1.2,2.3,2.3,0,0,0-.6-1.6,3,3,0,0,0-1.8-.5l-1.8.2-1.6.8a6.9,6.9,0,0,0-1.3,1.1,4.7,4.7,0,0,0-.9,1.2,3.8,3.8,0,0,0-.6,1.3h-.1l-.8.4-1.5.8h0l.6-.7h.1l.8-.9.7-.9a1.8,1.8,0,0,0,.4-.9.4.4,0,0,0,.1-.3v-.3a1.6,1.6,0,0,0-.4-1.2,2,2,0,0,0-1.1-.3h-.8l-1,.3-.9.4h-.3c0-.1-.1-.2-.2-.3a1,1,0,0,0-.5-.4l-.7-.2h-1.3l-.6.3a1,1,0,0,0-.4.5,1.4,1.4,0,0,0-.2.7,1.9,1.9,0,0,0,.2.7.3.3,0,0,1,.1.2,10.1,10.1,0,0,0-.7,1.5l-.7,1.4-.5,1a3.6,3.6,0,0,1-.4.9c-.1.1-.1.3-.2.5v.4a1.1,1.1,0,0,0,.3.8l.7.2h.6l.7-.4a1.2,1.2,0,0,0,.5-.5,1.8,1.8,0,0,0,.5-.7l.4-.9a5.4,5.4,0,0,1,.5-1.1,4.7,4.7,0,0,1,.5-1,5.9,5.9,0,0,1,.4-.8l.3-.3.7-.4.5-.2-.4.5-.5.7-.6.9-.6.9-.3,1.1v.2a1.9,1.9,0,0,0,.5,1.3,2.5,2.5,0,0,0,1.5.5,1.5,1.5,0,0,0,.9-.2l1.1-.4,1.1-.6,1-.6.6,1a3.1,3.1,0,0,0,1.1.8,2.9,2.9,0,0,0,1.4.3l1.7-.2,1.7-.6,1.5-.7.4-.3v.3a2.4,2.4,0,0,0,.8.9,1.9,1.9,0,0,0,.9.5h.8a3.1,3.1,0,0,0,1.3-.3l1.2-.8a4.1,4.1,0,0,0,1-.9c0,.2,0,.3.1.4a1.1,1.1,0,0,0,.3.8l.6.6.9.2,1.1-.2,1.1-.6a1,1,0,0,0,.5-.4,2,2,0,0,0,.4.8,1.2,1.2,0,0,0,1,.4,1.2,1.2,0,0,0,.9-.4,1.8,1.8,0,0,0,.5-.7,3.6,3.6,0,0,0,.4-.9,3,3,0,0,1,.4-.8l.5-.8a4.7,4.7,0,0,1,.6-.9l.6-.8.7-.7.8-.5h.7l-.2.3-.8,1.3-.9,1.3a6.7,6.7,0,0,0-.6,1.2,3.1,3.1,0,0,0-.3,1.3.7.7,0,0,0,.1.5c.1.1.2.3.4.3l.4.2h.4a1,1,0,0,0,.9-.4l.6-.7.4-.9.3-.8a5.6,5.6,0,0,0,.5-.8l.6-.9.7-.8a2.3,2.3,0,0,1,.7-.7l.7-.5h.7c0,.1-.1.2-.1.3l-.6.9-.7.9a2.7,2.7,0,0,0-.6,1,2.8,2.8,0,0,0-.3,1.3,2,2,0,0,0,.7,1.6,2.9,2.9,0,0,0,1.7.5l1.4-.3,1.4-.7.9-.6c0,.2.1.3.3.5a2.7,2.7,0,0,0,1,.8,3.2,3.2,0,0,0,1.4.3l1.8-.2,1.6-.6L166,68v.3a1.1,1.1,0,0,0,.3.8l.7.2h.6l.7-.4.6-.5a4.3,4.3,0,0,0,.4-.7l.2-.4.2-.5.5-1.1c.2-.3.3-.7.5-1a5.9,5.9,0,0,0,.4-.8l.3-.3.7-.4.5-.2-.4.5-.5.7-.6.9a4.1,4.1,0,0,0-.5.9,4.9,4.9,0,0,0-.4,1.1v.2a1.9,1.9,0,0,0,.5,1.3,2.5,2.5,0,0,0,1.5.5,2,2,0,0,0,1-.2l1-.4,1.1-.6.5-.3a.5.5,0,0,0,.2.4l.9.8,1.2.5h1.2l1.7-.2a3.4,3.4,0,0,0,1.5-.6,2.7,2.7,0,0,0,1.1-1,2.4,2.4,0,0,0,.5-1.4A6.9,6.9,0,0,0,183.9,64.8Zm-20.5-2.5h.8v.2l-.6.5-.4.3-.7.4-.5.3.4-.6.5-.6Zm-25,1.2-.4.7-.6.8-.7.7a3.4,3.4,0,0,1-.6.6h-.7a.3.3,0,0,0-.1-.2.4.4,0,0,1-.1-.3v-.5a1.5,1.5,0,0,1,.2-.9,1.9,1.9,0,0,1,.5-.9,2.7,2.7,0,0,1,.8-.7l.8-.2h.7l.3.2h0Zm-9-1.1c0,.1-.2.3-.6.5s-.2.2-.4.3l-.6.4-.6.3.5-.6.5-.6a1.5,1.5,0,0,1,.6-.4h.8Z" fill="#b47047"/><path d="M141.7,81.6c-62.8,0-72.9,14.1-72.9,21.2v9.3H214.6v-9.3C214.6,95.7,204.6,81.6,141.7,81.6Z" fill="#522422" stroke="#000" stroke-miterlimit="10" stroke-width="0.71"/><path d="M214.6,102.8c0-7.1-10-21.2-72.9-21.2S68.8,95.7,68.8,102.8v9.3h6.3c1-7.3,12.2-19.9,66.6-19.9s65.6,12.6,66.7,19.9h6.2Z" fill="#7d3734"/><path d="M131.3,17.8c.1-5.3,4.7-9.5,10.4-9.5a11,11,0,0,1,4.7,1h-.2a11.7,11.7,0,0,0-11.3,8.3Z" fill="#a54949"/></svg>