<svg xmlns="http://www.w3.org/2000/svg" viewBox="0 0 283.5 283.5"><path d="M80,5.3S55.1,28.5,82.7,47.5l26.2,18a17.5,17.5,0,0,1,4.2,25h0a17.6,17.6,0,0,1-22.8,4.6C49.4,71.2,33.8,20.7,80,5.3Z" fill="#896428" stroke="#000" stroke-linecap="round" stroke-linejoin="round" stroke-width="0.71"/><path d="M203.4,5.3s25,23.2-2.6,42.2l-26.2,18a17.3,17.3,0,0,0-4.2,25h0a17.6,17.6,0,0,0,22.8,4.6C234.1,71.2,249.7,20.7,203.4,5.3Z" fill="#896428" stroke="#000" stroke-linecap="round" stroke-linejoin="round" stroke-width="0.71"/><path d="M99.1,96.9a16.9,16.9,0,0,1-8.5-2.3C66.1,80.3,50.4,56.1,52.5,35.8c1-9.1,5.9-21.1,23.3-28.4A30.5,30.5,0,0,0,64.1,31.5c-.5,18.9,12.8,40.6,33.1,53.9a14.2,14.2,0,0,0,7.9,2.5,13.8,13.8,0,0,0,10.7-5.2,16.2,16.2,0,0,1-3.2,7.5A17,17,0,0,1,99.1,96.9Z" fill="#5b3f16"/><path d="M184.4,96.9a17.2,17.2,0,0,1-13.6-6.7,18.6,18.6,0,0,1-3.2-7.5,14,14,0,0,0,10.8,5.2,14.2,14.2,0,0,0,7.9-2.5c20.3-13.3,33.6-35,33.1-53.9A30.3,30.3,0,0,0,207.6,7.4c17.5,7.3,22.4,19.3,23.3,28.4,2.2,20.3-13.5,44.5-38,58.8A16.9,16.9,0,0,1,184.4,96.9Z" fill="#5b3f16"/></svg>