<svg xmlns="http://www.w3.org/2000/svg" viewBox="0 0 283.5 283.5"><rect x="61.4" y="81.6" width="160.7" height="30.49" rx="14.9" fill="#ad581e" stroke="#000" stroke-linecap="round" stroke-linejoin="round" stroke-width="0.71"/><path d="M141.7,20.6C86.8,20.6,76,54,76,63.9V81.6H207.5V63.9C207.5,54,196.7,20.6,141.7,20.6Z" fill="#ca6d28" stroke="#000" stroke-linecap="round" stroke-linejoin="round" stroke-width="0.71"/><path d="M76.6,81.1V63.9c0-11,11.9-42.7,65.1-42.7h5.8c-39.7,6.2-48.9,33.2-48.9,42.6V81.1Z" fill="#934714"/><path d="M76.3,111.6A14.5,14.5,0,0,1,61.9,97.2v-.6A14.5,14.5,0,0,1,76.3,82.2H207.2a14.3,14.3,0,0,1,10.3,4.4H89.7a15.5,15.5,0,0,0-15.5,15.5v.6a15.7,15.7,0,0,0,2.8,8.9Z" fill="#703913"/></svg>