<svg xmlns="http://www.w3.org/2000/svg" viewBox="0 0 283.5 283.5"><path d="M234.5,85.4c5.6,8.2,26.7,16.4,26.7,16.4s-14.8-9.3-17.3-45.7-51.4-45.6-63.6-32.4c-24.4-11.2-38.6,4-38.6,4s-14.1-15.2-38.5-4C91,10.5,42.2,19.8,39.6,56.1s-17.4,45.7-17.4,45.7S43.4,93.6,49,85.4c-2.7,5.1-11.1,23.5-10,56.8-9,15.2-12.3,39,4.4,55.5,0,0-3.2-26.4,9-29.7,0,0-4.5,17.2,10.3,19.8S64,218.2,64,218.2s28.3-10.6,21.2-42.3S96.8,117,82,105.1c0,0,19.3-23.2,9-42.3,26.3,7.2,50.7,5.3,50.7-4.7,0,10,24.4,11.9,50.8,4.7-10.3,19.1,9,42.3,9,42.3-14.8,11.9,3.8,39-3.2,70.8s21.2,42.3,21.2,42.3-13.5-27.8,1.2-30.4S231,168,231,168c12.2,3.3,9,29.7,9,29.7,16.7-16.5,13.5-40.3,4.5-55.5C245.6,108.9,237.2,90.5,234.5,85.4Z" fill="#81fa5e" stroke="#000" stroke-linecap="round" stroke-linejoin="round" stroke-width="0.71"/><path d="M201.5,105.1s-19.3-23.2-9-42.3c-26.4,7.2-50.8,5.3-50.8-4.7,0,10-24.4,11.9-50.7,4.7,10.3,19.1-9,42.3-9,42.3,4.1,3.3,5.6,7.8,5.8,13.3,3.7-4.8,15.3-21.8,7.3-36.3,24.2,6.4,46.6,4.7,46.6-4.1,0,8.8,22.5,10.5,46.7,4.1-8.1,14.5,3.6,31.5,7.2,36.3C195.8,112.9,197.4,108.4,201.5,105.1Z" fill="#212621" stroke="#000" stroke-linecap="round" stroke-linejoin="round" stroke-width="0.71"/><path d="M151.3,69.1c0,8.3,17.2,11,38.2,7.4a25.9,25.9,0,0,1,3-13.7c-26.4,7.2-50.8,5.3-50.8-4.7,0,10-24.4,11.9-50.7,4.7,10.3,19.1-9,42.3-9,42.3,4.1,3.3,5.6,7.8,5.8,13.3,3.7-4.8,15.3-21.8,7.3-36.3,2.8.7,5.6,1.4,8.4,1.9a24.6,24.6,0,0,0-2.9-10.3C126.9,81,151.3,79,151.3,69.1Z"/><path d="M65.1,217.1c2-4.4,7.6-18.2,3.9-25.5a8.3,8.3,0,0,0-6.2-4.4,10.7,10.7,0,0,1-2.7-.7c1-7.4,3.6-11.9,7.5-13.4-.5,2.4-1.3,8.9,1.9,13.9a12.6,12.6,0,0,0,9,5.6,6.8,6.8,0,0,1,5.5,4.1C79.8,209.2,68.9,215.3,65.1,217.1Z" fill="#2f7715"/><path d="M157.6,31.1a29.4,29.4,0,0,0-11.2-6.3,30.2,30.2,0,0,1,16.4-4.7,39.3,39.3,0,0,1,15,3.2A31.3,31.3,0,0,0,157.6,31.1ZM196,27.3a42.4,42.4,0,0,0-14.6-3.9c3.4-3.1,9.3-4.8,16.4-4.8a53.1,53.1,0,0,1,17.3,3.1h-1.4C206,21.7,199.6,23.7,196,27.3Z" fill="#2f7715"/><path d="M25.3,99.9c4.5-4.6,13-16.7,14.9-43.7S67.9,18.6,85.7,18.6c5.7,0,10.6,1.1,14.1,3.1-18.2.8-43.1,12.9-44.9,38.7-1.3,19-6,30.6-10.3,37.4a67.5,67.5,0,0,1,4.9-12.1l-1-.6C44.4,91.1,31.4,97.2,25.3,99.9Z" fill="#2f7715"/><path d="M42.7,196.2a40.1,40.1,0,0,1-10.6-26.8,53.7,53.7,0,0,1,7.3-27h.1v-.2a147.2,147.2,0,0,1,3.3-37.4c5.6-2.5,14.6-6.9,19.9-11.7-3.5,7.9-9.3,25.4-8.4,53.3a53.8,53.8,0,0,0-7.4,24.9C41.8,178.1,42.3,191.5,42.7,196.2Z" fill="#2f7715"/><path d="M119.2,27.3c-2.4-2.5-6.1-4.2-10.8-5a38.7,38.7,0,0,1,12.2-2.1,31.8,31.8,0,0,1,13.9,3.1A44.5,44.5,0,0,0,119.2,27.3Z" fill="#2f7715"/><path d="M258.2,99.9l-3.5-1.5a51.2,51.2,0,0,0-2.1-5.4l1,.9A36.2,36.2,0,0,0,258.2,99.9Z" fill="#2f7715"/><path d="M240.7,196.2c.1-1.2.2-2.9.3-4.9,4.1-2.1,6.6-6,7-11.4a26.4,26.4,0,0,0-.3-6.8,7.4,7.4,0,0,1,3.1,2.2A38.4,38.4,0,0,1,240.7,196.2Z" fill="#2f7715"/><path d="M218.3,217.1a40.3,40.3,0,0,1-11.7-8.5c-8.1-8.7-10.7-19.6-7.8-32.6,3.3-14.7,1.1-28.2-.8-40.1-2.2-13.5-3.9-24.1,3.8-30.4l.5-.3-.4-.5c-.1-.1-14-17-11.6-33.5a130.6,130.6,0,0,0,17-3.3c-8.3,17.6,6.8,38.1,9.3,41.4-7.7,6.6-6,17.4-3.8,31,1.9,11.8,4,25.2.8,39.7a40.4,40.4,0,0,0-.3,17.6C213.2,204.9,216.8,213.8,218.3,217.1Z" fill="#2f7715"/></svg>