<svg xmlns="http://www.w3.org/2000/svg" viewBox="0 0 283.5 283.5"><path d="M237,261.5s18.7-22,4.9-47.2c18.7-18.8,18.7-57,.8-65.6,12.2-17.5,12.2-55-10.6-63.9,4.9-26.9-13-70.9-90.4-70.9s-95.2,44-90.3,70.9c-22.8,8.9-22.8,46.4-10.6,63.9-17.9,8.6-17.9,46.8.8,65.6-13.9,25.2,4.9,47.2,4.9,47.2-24.5,0-18.8,22-18.8,22h228S261.4,261.5,237,261.5Zm-24.4-27.7c0,38.3-70.9,39.1-70.9,39.1s-70.8-.8-70.8-39.1V132s32.6-15.5,25.2-44.8h91.2C180,116.5,212.6,132,212.6,132Z" fill="#4f37a9" stroke="#000" stroke-linecap="round" stroke-linejoin="round" stroke-width="0.71"/><path d="M28.2,282.9c-.4-1.9-1.6-9.5,2.6-14.9,3.1-3.9,8.3-6,15.7-6h1.2l-.8-.9c-.2-.2-18.3-22-4.8-46.6l.2-.3-.3-.3c-10.6-10.6-16-29.1-13.3-45.1,1.6-9.6,6-16.6,12.3-19.6l.6-.3-.4-.5c-7.7-11.1-10.2-29.5-5.9-43.8,2-6.7,6.5-15.4,16.3-19.3l.4-.2v-.4c-2.6-14.5,1.8-30.3,11.9-42.4s32.7-27.8,77.9-27.8c17.4,0,32.8,2.3,45.7,6.7-6.1-.6-12.5-1-19.2-1-45.7,0-68.1,15.4-78.9,28.2S74.6,76.6,77.2,91.3c-7.9,3.2-13.6,10.1-16.6,19.8-4.3,14.3-1.9,32.8,5.8,44.2-6.3,3.3-10.7,10.5-12.4,20.2-2.8,16.1,2.7,34.8,13.3,45.7-11.9,22.2,1.2,42.1,4.5,46.6-7,.2-17.5,2.6-18.7,15.1Z" fill="#241a63"/><path d="M168.2,279.1c-.5,0-21.5-.3-40.3-6.7a123.4,123.4,0,0,0,13.8,1,153.2,153.2,0,0,0,35.6-5.2c23.4-6.6,35.8-18.5,35.8-34.4V131.7l-.3-.2a56.3,56.3,0,0,1-13.5-9.6c-5.9-5.6-12.9-14.9-12.5-27.3h16c-2.6,11.9,2.6,23.4,15.2,33.2a53.7,53.7,0,0,1,20.5,42.3v70.5C238.5,277.8,169.2,279.1,168.2,279.1Z" fill="#241a63"/><path d="M213.5,224.7s14.1-14.8,3.7-31.8c14.1-12.7,14.1-38.4.6-44.2,9.2-11.8,9.2-37-8-43.1,3.7-18.1-9.8-47.7-68.1-47.7S70,87.5,73.6,105.6c-17.1,6.1-17.1,31.3-7.9,43.1-13.5,5.8-13.5,31.5.6,44.2-10.4,17,3.7,31.8,3.7,31.8H68.8c-9.6.3-9.2,14.8.4,14.8h2.3a26.2,26.2,0,0,1-.6-5.7v-77a49.6,49.6,0,0,1,14.5-35.3c7.6-7.5,14.5-19,10.7-34.3h91.2c-3.8,15.3,3.2,26.8,10.8,34.3a49.6,49.6,0,0,1,14.5,35.3v77a26.2,26.2,0,0,1-.6,5.7h2.2c9.6,0,10-14.5.4-14.8Z" fill="#201659" stroke="#000" stroke-linecap="round" stroke-linejoin="round" stroke-width="0.71"/></svg>