<svg xmlns="http://www.w3.org/2000/svg" viewBox="0 0 283.5 283.5"><path d="M243.7,104.3c7.5-24.5-6.4-32.2-11-33.4,0,0-9.7-76-76.1-45.1,0,0-14.9-3.7-14.9,10.5,0-14.2-14.8-10.5-14.8-10.5C60.5-5.1,50.8,70.9,50.8,70.9c-4.6,1.2-18.6,8.9-11,33.4-16.6,22.2-8.4,56.8,1.3,79.7-7.2,37.7,17.3,59.9,47,47s31.1-68.6-7.7-63.7c21.5,0,27.4,37.8,8.7,43.3S47.4,191.4,62,156.2c7.6-18.3,24-18.6,24-18.6,1.5-17.7-12.7-17.9-12.7-17.9-5.2-21,16.3-30.3,25-14.8,24.5-30.3,43.4-.6,43.4-.6s18.9-29.7,43.5.6c8.7-15.5,30.1-6.2,25,14.8,0,0-14.2.2-12.7,17.9,0,0,16.4.3,24,18.6,14.5,35.2-7.2,60.2-27.1,54.4s-12.8-43.3,8.7-43.3c-38.9-4.9-37.3,50.7-7.7,63.7s54.2-9.3,47-47C252.1,161.1,260.2,126.5,243.7,104.3Z" fill="#2a2a2a" stroke="#000" stroke-miterlimit="10" stroke-width="0.71"/><path d="M103.3,175.4A30.8,30.8,0,0,0,98,175H95.6a19.4,19.4,0,0,0-9.9-7.5C93.1,167.7,99.2,170.4,103.3,175.4Z"/><path d="M195.4,230.4c-7.5-3.4-13.8-10-17.6-18.5a42.5,42.5,0,0,1-3-24.9c2.5-12.1,10.8-19.2,22.8-19.4-4.6,1.5-8.5,4.9-11.3,10-4.7,8.6-4.9,20-.5,27.1A44.6,44.6,0,0,0,195.4,230.4Z"/><path d="M154.6,40.4c-1.8-6-7.3-7.1-10.8-7.1h-1.2c1.1-6.2,6-7.5,9.9-7.5a18.9,18.9,0,0,1,3.9.4h.4c10.5-4.9,20.1-7.3,28.8-7.3a38.1,38.1,0,0,1,25.6,9.3,41.3,41.3,0,0,0-12.8-1.9c-8.7,0-18.5,2.5-29.1,7.3a19.7,19.7,0,0,0-3.9-.4C161.8,33.3,156.3,34.4,154.6,40.4Z"/><path d="M96.1,219.4a22.9,22.9,0,0,1-16.7-7.8,16.9,16.9,0,0,0,3.8.4,21,21,0,0,0,6.1-.9c4.7-1.4,8.2-4.9,10.1-10,2.7-7.4,1.5-17.1-2.7-24.3,5.8,1.2,9.5,5.3,11.6,8.7,2.7,10.5.2,23.4-6.4,33h-.1a22.4,22.4,0,0,1-5.7.8Z"/><path d="M60.1,231.9c-15.4-6.3-22.8-25.2-18.5-47.8v-.2h0c-4.1-9.6-9.2-24.3-10.5-39.9s1.8-29.4,9.2-39.3v-.5c-3-9.9-2.9-18.1.5-24.3a17.8,17.8,0,0,1,10.1-8.4h.4V71c.1-.6,7.1-52.1,46.6-52.1,8.6,0,18.3,2.5,28.8,7.4h.3a21.5,21.5,0,0,1,3.9-.4c4,0,9,1.3,10,7.6l-1.1.2c-10.5-4.8-20.3-7.3-29.1-7.3C72.1,26.4,63.8,74.3,63.1,79a18.8,18.8,0,0,0-10.4,8.9c-3.5,6.3-3.8,14.7-.7,24.8-6.3,8.7-18.4,33.4,1.3,79.9C50.3,208.5,52.7,222.3,60.1,231.9Z"/><path d="M209.8,141.1a26.4,26.4,0,0,0-11.8-4c-.4-5.5.8-9.8,3.4-12.7a13.3,13.3,0,0,1,8.8-4.1h.5v-.5a22.7,22.7,0,0,0-.5-13.5,12.7,12.7,0,0,1,9.5,5.1c3.3,4.1,4.3,9.9,2.8,16.3C220.4,127.9,211,129.5,209.8,141.1Z"/><path d="M213.1,219.4a21.8,21.8,0,0,1-5.7-.8,13.7,13.7,0,0,1-8.2-6.6h1.1c7.8,0,15.4-4.5,20.4-11.9,3.6-5.4,11-20.6,1.3-44.1a38.4,38.4,0,0,0-4.2-7.5c5.4,2.1,11.9,6.7,16,16.5,9.5,22.9,2.3,37.7-1.2,43-4.9,7.3-12,11.4-19.5,11.4Z"/></svg>