<svg xmlns="http://www.w3.org/2000/svg" viewBox="0 0 283.5 283.5"><path d="M240.9,131.9s7.5,22.5-7.5,39.8c12.8,15.7,15,42.7,0,55.5,9.7,12.7,14.3,39-6,56.3h-60s30-6.8,28.5-35.3c0,0-9.8-33.8,15.7-45.8,0,0-14.2-37.5,4.5-54.8S240.9,131.9,240.9,131.9Z" fill="#3a7a34" stroke="#000" stroke-miterlimit="10" stroke-width="0.71"/><path d="M171.1,282.9c8-2.9,26.5-12.1,25.3-34.7h0c-.1-.3-9.3-33.4,15.5-45.1l.4-.2v-.5c-.2-.4-13.9-37.3,4.3-54.1,15.8-14.5,22.3-15.7,24-15.7s.6,2.4,1,4.8a139.9,139.9,0,0,0-12.2,10c-7.8,7.2-11.1,19.1-9.5,34.4a92.7,92.7,0,0,0,4.7,20.5c-24.6,12-16.1,44.5-15.6,46.2,1.4,27.1-26.6,34.2-28,34.6Z" fill="#1c4418"/><path d="M226.8,91.4c7.3-34.6-10.8-54.9-35.7-59.2-22.2-21-49.4-6.2-49.4-6.2s-27.2-14.8-49.3,6.2C67.5,36.5,49.3,56.8,56.7,91.4c-17.6,14.8-20.4,35.7-9.7,52.4-2.2,17.8,18.2,21.1,22.2,40.2,0,0,42.5-25.4,30-71.1,14.2-2.4,20.4-12.3,18.7-20.3,16.5,3.7,23.8-9.9,23.8-18.5,0,8.6,7.4,22.2,23.8,18.5-1.7,8,4.6,17.9,18.8,20.3-12.5,45.7,30,71.1,30,71.1,4-19.1,24.4-22.4,22.1-40.2C247.2,127.1,244.4,106.2,226.8,91.4Z" fill="#5db055" stroke="#000" stroke-miterlimit="10" stroke-width="0.71"/><path d="M69.5,183.1c-2-8.6-7.4-14.1-12.2-18.9s-10.9-11.1-9.7-20.4v-.2h-.1c-10.9-16.9-7.1-37.7,9.6-51.7l.2-.2v-.4c-3.4-15.9-1.4-29.9,5.7-40.4S79.8,34.9,92.5,32.7h.3a38.6,38.6,0,0,1,27.4-11.1,49,49,0,0,1,21.3,5h.5a48.3,48.3,0,0,1,21.2-5,38.4,38.4,0,0,1,21,6h-3.3a50.7,50.7,0,0,0-21.4,5,51.8,51.8,0,0,0-21.5-5,39.7,39.7,0,0,0-28.1,11.3c-13,2.2-23.7,8.8-30.2,18.5s-9.3,24.8-5.9,41c-16.8,14.3-20.7,35.4-9.6,52.7-1.2,9.8,4.3,15.3,10.1,21.1l4,4.2A75.2,75.2,0,0,1,69.5,183.1Z" fill="#265e20"/><path d="M160.2,92.6a20.2,20.2,0,0,1-3.6-.3,24.7,24.7,0,0,0,2.9-6.7,20.1,20.1,0,0,0,3,6.9Z" fill="#5db055"/><path d="M213.9,183.1c-5.3-3.6-40.5-28.5-29.1-70l.2-.6h-.6c-8.6-1.5-17.7-7.1-18.5-16a17.8,17.8,0,0,0,12,4.4,19.3,19.3,0,0,0,4.7-.5,14.4,14.4,0,0,0,2.6,10.5c3.2,4.9,8.9,8.2,16.1,9.6-6.9,26,4,45.5,14.5,57.3A31.3,31.3,0,0,0,213.9,183.1Z" fill="#265e20"/></svg>