<svg xmlns="http://www.w3.org/2000/svg" viewBox="0 0 283.5 283.5"><path d="M94.7,78.9H79.4a8.9,8.9,0,0,0-9,8.9v15.4a8.9,8.9,0,0,0,9,8.9H94.7a8.9,8.9,0,0,0,9-8.9V87.8A8.9,8.9,0,0,0,94.7,78.9Zm4.2,24.3a4.2,4.2,0,0,1-4.2,4.2H79.4a4.2,4.2,0,0,1-4.3-4.2V87.8a4.2,4.2,0,0,1,4.3-4.2H94.7a4.2,4.2,0,0,1,4.2,4.2Z" fill="#414141" stroke="#000" stroke-miterlimit="10" stroke-width="0.71"/><path d="M131.2,78.9H115.8a8.9,8.9,0,0,0-8.9,8.9v15.4a8.9,8.9,0,0,0,8.9,8.9h15.4a8.9,8.9,0,0,0,8.9-8.9V87.8A8.9,8.9,0,0,0,131.2,78.9Zm4.2,24.3a4.2,4.2,0,0,1-4.2,4.2H115.8a4.2,4.2,0,0,1-4.2-4.2V87.8a4.2,4.2,0,0,1,4.2-4.2h15.4a4.2,4.2,0,0,1,4.2,4.2Z" fill="#8b8b8b" stroke="#000" stroke-miterlimit="10" stroke-width="0.71"/><rect x="96" y="90.6" width="21.3" height="10.56" rx="5.3" transform="translate(213.4 191.7) rotate(-180)" fill="#969696" stroke="#000" stroke-miterlimit="10" stroke-width="0.71"/><path d="M167.6,78.9H152.3a8.9,8.9,0,0,0-9,8.9v15.4a8.9,8.9,0,0,0,9,8.9h15.3a8.9,8.9,0,0,0,9-8.9V87.8A8.9,8.9,0,0,0,167.6,78.9Zm4.3,24.3a4.2,4.2,0,0,1-4.3,4.2H152.3a4.2,4.2,0,0,1-4.2-4.2V87.8a4.2,4.2,0,0,1,4.2-4.2h15.3a4.2,4.2,0,0,1,4.3,4.2Z" fill="#8b8b8b" stroke="#000" stroke-miterlimit="10" stroke-width="0.71"/><rect x="132.5" y="90.6" width="21.3" height="10.56" rx="5.3" transform="translate(286.3 191.7) rotate(-180)" fill="#969696" stroke="#000" stroke-miterlimit="10" stroke-width="0.71"/><path d="M204.1,78.9H188.8a8.9,8.9,0,0,0-9,8.9v15.4a8.9,8.9,0,0,0,9,8.9h15.3a8.9,8.9,0,0,0,9-8.9V87.8A8.9,8.9,0,0,0,204.1,78.9Zm4.2,24.3a4.2,4.2,0,0,1-4.2,4.2H188.8a4.2,4.2,0,0,1-4.3-4.2V87.8a4.2,4.2,0,0,1,4.3-4.2h15.3a4.2,4.2,0,0,1,4.2,4.2Z" fill="#414141" stroke="#000" stroke-miterlimit="10" stroke-width="0.71"/><rect x="169" y="90.6" width="21.3" height="10.56" rx="5.3" transform="translate(359.3 191.7) rotate(-180)" fill="#969696" stroke="#000" stroke-miterlimit="10" stroke-width="0.71"/><rect x="200.5" y="93.3" width="21.3" height="10.56" rx="5.3" transform="translate(77.6 -92.4) rotate(30)" fill="#969696" stroke="#000" stroke-miterlimit="10" stroke-width="0.71"/><rect x="61.6" y="93.3" width="21.3" height="10.56" rx="5.3" transform="translate(184.1 147.7) rotate(150)" fill="#969696" stroke="#000" stroke-miterlimit="10" stroke-width="0.71"/><path d="M215.9,105.9h-.8l.6-.9a5.8,5.8,0,0,0-2.2-7.9l-9.2-5.4a4.6,4.6,0,0,1,2.3-.6,3.9,3.9,0,0,1,2.3.7l9.3,5.3a4.7,4.7,0,0,1,1.7,6.5A4.6,4.6,0,0,1,215.9,105.9Z" fill="#545454"/><path d="M101.2,100.5a4.7,4.7,0,0,1,.1-9.4h10.8a4.6,4.6,0,0,1,2.3.6h-8.2a5.8,5.8,0,0,0-5.8,5.9A6,6,0,0,0,101.2,100.5Z" fill="#545454"/><path d="M137.7,100.5a4.6,4.6,0,0,1-4.6-4.7,4.7,4.7,0,0,1,4.7-4.7h10.8a4.3,4.3,0,0,1,2.2.6h-8.1a5.8,5.8,0,0,0-5.9,5.9A5.2,5.2,0,0,0,137.7,100.5Z" fill="#545454"/><path d="M174.1,100.5a4.7,4.7,0,0,1,.1-9.4H185a4.6,4.6,0,0,1,2.3.6h-8.2a5.8,5.8,0,0,0-5.8,5.9A6,6,0,0,0,174.1,100.5Z" fill="#545454"/><path d="M67.6,105.9a4.9,4.9,0,0,1-4.1-2.3,4.8,4.8,0,0,1,1.7-6.5l9.4-5.3a3.9,3.9,0,0,1,2.3-.7,4.6,4.6,0,0,1,2.3.6l-9.3,5.4a5.8,5.8,0,0,0-2.1,7.9,4.7,4.7,0,0,0,.6.9Z" fill="#545454"/></svg>