<svg xmlns="http://www.w3.org/2000/svg" viewBox="0 0 283.5 283.5"><path d="M244.4,256.5c4-35.5-17.5-44.5-22.2-53.5,21.7-6.2,25.1-33.1,11.5-39.8,12.1-49.7-25.3-63.9-25.3-63.9s-19.5-59.8-66.7-59.8S75.1,99.3,75.1,99.3s-37.5,14.2-25.3,63.9c-13.6,6.7-10.2,33.6,11.4,39.8-4.6,9-26.2,18-22.1,53.5,1.4,12.8,1.9,27-9.8,27H91.2s10.7-47.8-4.9-60.2c2-12.7-.5-30.7-16.5-35,0,0,34.5-28.9,20.9-54.9,0,0,34,3.7,30.9-22.3,5.9.4,12.6.7,20.1.7s14.2-.3,20.2-.7c-3.1,26,30.9,22.3,30.9,22.3-13.7,26,20.9,54.9,20.9,54.9-16.1,4.3-18.5,22.3-16.5,35-15.6,12.4-4.9,60.2-4.9,60.2h61.8C242.4,283.5,242.9,269.3,244.4,256.5Z" fill="#d0d0d0" stroke="#000" stroke-miterlimit="10" stroke-width="0.71"/><path d="M192.7,282.9c-1-4.9-9.5-47.8,4.8-59.1l.3-.2v-.3c-2-13.4,1-30.4,16.2-34.4l1-.3-.8-.7c-.4-.3-32.2-27.3-21.8-52.1a43.3,43.3,0,0,0,13.3,1.9h3.2c-11.4,23.6,15.7,49.5,20.7,54-14.9,4.6-17.9,21.6-16,35-12.7,10.6-7.7,44.9-5.6,56.3Z" fill="#898989"/><path d="M34.4,282.9a8.8,8.8,0,0,0,2.4-1.9c4.4-4.9,4-14.7,2.8-24.6-3-26.4,8.5-38.2,16.1-45.9,2.6-2.7,4.9-5,6-7.3l.4-.6-.7-.2A25.8,25.8,0,0,1,42.3,180c-.6-7.4,2.3-13.6,7.7-16.3l.5-.2-.2-.4c-3.4-14-4.8-34.1,8-50.1a47.2,47.2,0,0,1,17-13.2h.3v-.3c.1-.6,19.9-59.5,66-59.5a52.6,52.6,0,0,1,15.8,2.4c-44.6,1-64.4,55.8-65.9,60-3.2,1.4-36.8,16.9-25.5,64.1-5.6,2.9-8.6,9.4-7.9,17.2a26.9,26.9,0,0,0,19.2,23.2,41,41,0,0,1-5.5,6.3c-7.8,7.9-19.5,19.9-16.4,46.9,1,8.5,1.5,17.9-1.9,22.8Z" fill="#898989"/><path d="M186,133c-19.4-.9-23.2-10.8-23.7-17.2q8.4,0,15.9-.6C177.5,123.2,180.1,129.1,186,133Z" fill="#898989"/><path d="M209.5,53.2a8.8,8.8,0,0,1-9.7,4.8,9,9,0,0,1-6.7-6.1L181.9,18.4l-9.2,50.4a9.2,9.2,0,0,1-9.1,7.5h0a9.2,9.2,0,0,1-8.9-7.1l-13-56.5L128.9,68.9a9.5,9.5,0,0,1-7.8,7.3,9.1,9.1,0,0,1-10.3-7.4l-9.3-50.4L90.4,51.9a8.9,8.9,0,0,1-16.5,1.3L65.8,36.6v79.2a3.4,3.4,0,0,0,3.3,3.4H214.4a3.4,3.4,0,0,0,3.3-3.4V36.6Z" fill="#d2763a" stroke="#000" stroke-miterlimit="10" stroke-width="0.71"/><circle cx="84.9" cy="96.2" r="5.5" fill="#ff6a00" stroke="#000" stroke-miterlimit="10" stroke-width="0.71"/><circle cx="95.9" cy="96.2" r="5.5" fill="#ff0" stroke="#000" stroke-miterlimit="10" stroke-width="0.71"/><circle cx="84.9" cy="107.3" r="5.5" fill="#ff0" stroke="#000" stroke-miterlimit="10" stroke-width="0.71"/><circle cx="95.9" cy="107.3" r="5.5" fill="#ff6a00" stroke="#000" stroke-miterlimit="10" stroke-width="0.71"/><circle cx="110.5" cy="96.2" r="5.5" fill="#ff6a00" stroke="#000" stroke-miterlimit="10" stroke-width="0.71"/><circle cx="121.6" cy="96.2" r="5.5" fill="#ff0" stroke="#000" stroke-miterlimit="10" stroke-width="0.71"/><circle cx="110.5" cy="107.3" r="5.5" fill="#ff0" stroke="#000" stroke-miterlimit="10" stroke-width="0.71"/><circle cx="121.6" cy="107.3" r="5.5" fill="#ff6a00" stroke="#000" stroke-miterlimit="10" stroke-width="0.71"/><circle cx="136.2" cy="96.2" r="5.5" fill="#ff6a00" stroke="#000" stroke-miterlimit="10" stroke-width="0.71"/><circle cx="147.3" cy="96.2" r="5.5" fill="#ff0" stroke="#000" stroke-miterlimit="10" stroke-width="0.71"/><circle cx="136.2" cy="107.3" r="5.5" fill="#ff0" stroke="#000" stroke-miterlimit="10" stroke-width="0.71"/><circle cx="147.3" cy="107.3" r="5.5" fill="#ff6a00" stroke="#000" stroke-miterlimit="10" stroke-width="0.71"/><circle cx="161.9" cy="96.2" r="5.5" fill="#ff6a00" stroke="#000" stroke-miterlimit="10" stroke-width="0.71"/><circle cx="172.9" cy="96.2" r="5.5" fill="#ff0" stroke="#000" stroke-miterlimit="10" stroke-width="0.71"/><circle cx="161.9" cy="107.3" r="5.5" fill="#ff0" stroke="#000" stroke-miterlimit="10" stroke-width="0.71"/><circle cx="172.9" cy="107.3" r="5.5" fill="#ff6a00" stroke="#000" stroke-miterlimit="10" stroke-width="0.71"/><circle cx="187.5" cy="96.2" r="5.5" fill="#ff6a00" stroke="#000" stroke-miterlimit="10" stroke-width="0.71"/><circle cx="198.6" cy="96.2" r="5.5" fill="#ff0" stroke="#000" stroke-miterlimit="10" stroke-width="0.71"/><circle cx="187.5" cy="107.3" r="5.5" fill="#ff0" stroke="#000" stroke-miterlimit="10" stroke-width="0.71"/><circle cx="198.6" cy="107.3" r="5.5" fill="#ff6a00" stroke="#000" stroke-miterlimit="10" stroke-width="0.71"/><path d="M133.5,72.4a8.6,8.6,0,0,1-4.7-1.4,10.9,10.9,0,0,0,.5-1.7l12.4-54.1,5.9,25.7-5.7,24.8A8.6,8.6,0,0,1,133.5,72.4Z" fill="#8c441b"/><path d="M95.6,54.3a8.4,8.4,0,0,1-4.9-1.6.6.6,0,0,0,.1-.4l10.6-31.6,4,22.1-1.9,5.8A8.4,8.4,0,0,1,95.6,54.3Z" fill="#8c441b"/><path d="M215.3,54.3a8.4,8.4,0,0,1-4.9-1.6L217.1,39V54.1Z" fill="#8c441b"/><path d="M177.3,72.4a8.9,8.9,0,0,1-4.7-1.4,17.2,17.2,0,0,0,.7-2.1l8.8-48.2,7.7,23.1-4,21.5A8.6,8.6,0,0,1,177.3,72.4Z" fill="#8c441b"/><path d="M69.1,118.6a2.9,2.9,0,0,1-2.8-2.8V39l7.1,14.5a9.7,9.7,0,0,0,5.5,4.8v58.1H217.1a2.9,2.9,0,0,1-2.7,2.2Z" fill="#8c441b"/><circle cx="65.8" cy="36.6" r="7.2" fill="#d2763a" stroke="#000" stroke-miterlimit="10" stroke-width="0.71"/><circle cx="101.7" cy="18.2" r="7.2" fill="#d2763a" stroke="#000" stroke-miterlimit="10" stroke-width="0.71"/><circle cx="217.7" cy="36.6" r="7.2" fill="#d2763a" stroke="#000" stroke-miterlimit="10" stroke-width="0.71"/><circle cx="181.7" cy="18.2" r="7.2" fill="#d2763a" stroke="#000" stroke-miterlimit="10" stroke-width="0.71"/><circle cx="141.7" cy="11" r="7.2" fill="#d2763a" stroke="#000" stroke-miterlimit="10" stroke-width="0.71"/><path d="M63.4,42.8a6.7,6.7,0,0,1,2.4-12.9,6.2,6.2,0,0,1,3.2.9,7.7,7.7,0,0,0-6.9,7.7A7.5,7.5,0,0,0,63.4,42.8Z" fill="#8c441b"/><path d="M99.4,24.4a6.5,6.5,0,0,1-4.3-6.2,6.7,6.7,0,0,1,6.6-6.6,7.3,7.3,0,0,1,3.3.8,7.9,7.9,0,0,0-6.9,7.8A7,7,0,0,0,99.4,24.4Z" fill="#8c441b"/><path d="M139.4,17.2a6.5,6.5,0,0,1-4.3-6.2,6.7,6.7,0,0,1,6.6-6.6,7.3,7.3,0,0,1,3.3.8,7.9,7.9,0,0,0-6.9,7.8A7,7,0,0,0,139.4,17.2Z" fill="#8c441b"/><path d="M179.4,24.4a6.5,6.5,0,0,1-4.3-6.2,6.7,6.7,0,0,1,6.6-6.6,7.3,7.3,0,0,1,3.3.8,7.9,7.9,0,0,0-6.9,7.8A7,7,0,0,0,179.4,24.4Z" fill="#8c441b"/><path d="M215.3,42.8a6.7,6.7,0,0,1,2.4-12.9,6.3,6.3,0,0,1,3.3.9,7.7,7.7,0,0,0-6.9,7.7A8.2,8.2,0,0,0,215.3,42.8Z" fill="#8c441b"/></svg>