<svg xmlns="http://www.w3.org/2000/svg" viewBox="0 0 283.5 283.5"><g style="isolation:isolate"><path d="M183,283.5h75.1s-13.7-8-13.7-41.3,11.1-18.5,11.1-54.5-2.1-41.3-11.1-34.9c0,0,8.5-57.7-8.5-57.7V76.6c0-7.4-10-58.8-94.2-58.8S47.5,69.2,47.5,76.6V95.1c-16.9,0-8.4,57.7-8.4,57.7-9-6.4-11.1-1.1-11.1,34.9s11.1,21.2,11.1,54.5-13.8,41.3-13.8,41.3h75.2c-16.4,0-24.4-37.6-24.4-37.6,14.3-14.8,0-29.6,0-29.6,5.8-45.5,0-82.1,0-82.1,21.7,0,11.1-40.2,30.7-40.2h69.9c19.5,0,9,40.2,30.6,40.2,0,0-5.8,36.6,0,82.1,0,0-14.2,14.8,0,29.6C207.3,245.9,199.4,283.5,183,283.5Z" fill="#191919" stroke="#000" stroke-miterlimit="10" stroke-width="0.71"/><path d="M207.3,134.2c-21.6,0-11.1-40.2-30.6-40.2H106.8c-19.6,0-9,40.2-30.7,40.2,0,0,5.8,36.6,0,82.1a25,25,0,0,1,4.7,7.3c4.8-44-.4-78.8-.4-78.8,20.3,0,10.4-40.2,28.7-40.2h65.3c18.3,0,8.4,40.2,28.7,40.2,0,0-5.2,34.8-.4,78.8a26.1,26.1,0,0,1,4.6-7.3C201.5,170.8,207.3,134.2,207.3,134.2Z" fill="#404040" opacity="0.37" style="mix-blend-mode:multiply"/><path d="M76.1,245.9A113.7,113.7,0,0,0,83,266.6a98.9,98.9,0,0,1-2.6-10.1c9.9-11,5.1-22.1,1.9-27C82.9,234.4,81.7,240.1,76.1,245.9Z" fill="none" stroke="#000" stroke-miterlimit="10" stroke-width="0.87"/><path d="M201.1,229.5c-3.1,4.9-8,16,2,27,0,0-.9,4.3-2.6,10.1a109,109,0,0,0,6.8-20.7C201.8,240.1,200.6,234.4,201.1,229.5Z" fill="none" stroke="#000" stroke-miterlimit="10" stroke-width="0.87"/><path d="M226.9,249.5c-14.3-14.8,0-29.6,0-29.6-5.8-45.5,0-82,0-82-21.7,0-11.1-40.2-30.7-40.2H184.8c8.6,9.9,4.9,36.5,22.5,36.5,0,0-5.8,36.6,0,82.1,0,0-14.2,14.8,0,29.6,0,0-7.9,37.6-24.3,37.6h28.1C221.7,274,226.9,249.5,226.9,249.5Z" fill="#111"/><path d="M47.5,191.3c0-35.9,2.1-41.2,11.1-34.9,0,0-8.4-57.7,8.5-57.7V80.2c0-7.4,10.1-58.7,94.2-58.7a179.6,179.6,0,0,1,20.2,1.1c-10.9-3-24.1-4.8-39.8-4.8-84.1,0-94.2,51.4-94.2,58.8V95.1c-16.9,0-8.4,57.7-8.4,57.7-9-6.4-11.1-1.1-11.1,34.9s11.1,21.2,11.1,54.5-13.8,41.3-13.8,41.3H48.7c4.1-5,9.9-16,9.9-37.7C58.6,212.5,47.5,227.3,47.5,191.3Z" fill="#111"/><path d="M202.2,107.5c5.2-15-2.5-28.3-60.5-28.3S76,92.5,81.2,107.5s-5.1,26.7-5.1,26.7l5.8-1.2c14-6.7,7.4-39,24.9-39h69.9c17.5,0,10.8,32.3,24.9,39l5.7,1.2S197.1,122.6,202.2,107.5Z" fill="#343356" stroke="#000" stroke-miterlimit="10" stroke-width="0.71"/><path d="M54.4,130.4s15.7,53.7-5.7,88.4C48.7,218.8,94.9,186.5,54.4,130.4Z" fill="#343356" stroke="#000" stroke-miterlimit="10" stroke-width="0.71"/><path d="M229.1,130.4s-15.8,53.7,5.6,88.4C234.7,218.8,188.6,186.5,229.1,130.4Z" fill="#343356" stroke="#000" stroke-miterlimit="10" stroke-width="0.71"/><path d="M214.3,216.2s-7.1,19.4,2.6,31.8C216.9,248,196,236.4,214.3,216.2Z" fill="#343356" stroke="#000" stroke-miterlimit="10" stroke-width="0.71"/><path d="M213.4,97.8s-6.3,25.3,7.6,39.6C221,137.4,193.1,125.7,213.4,97.8Z" fill="#343356" stroke="#000" stroke-miterlimit="10" stroke-width="0.71"/><path d="M69.1,216.2s7.2,19.4-2.5,31.8C66.6,248,87.5,236.4,69.1,216.2Z" fill="#343356" stroke="#000" stroke-miterlimit="10" stroke-width="0.71"/><path d="M70.1,97.8s6.3,25.3-7.6,39.6C62.5,137.4,90.4,125.7,70.1,97.8Z" fill="#343356" stroke="#000" stroke-miterlimit="10" stroke-width="0.71"/><path d="M37,279.1H84.6s-7.2-8.8-11.1-30a35.8,35.8,0,0,0,.8,26.4Z" fill="#343356" stroke="#000" stroke-miterlimit="10" stroke-width="0.71"/><path d="M246.4,279.1H198.9s7.2-8.8,11.1-30a35.5,35.5,0,0,1-.9,26.4Z" fill="#343356" stroke="#000" stroke-miterlimit="10" stroke-width="0.71"/></g></svg>