<svg xmlns="http://www.w3.org/2000/svg" viewBox="0 0 283.5 283.5"><rect x="58.3" y="85.1" width="166.9" height="33.83" rx="16.9" fill="#404040" stroke="#000" stroke-miterlimit="10" stroke-width="0.71"/><polygon points="88.3 102 75 119 88.3 119 101.7 119 88.3 102" fill="#f08633" stroke="#000" stroke-linecap="round" stroke-linejoin="round" stroke-width="0.71"/><polygon points="115 102 101.7 119 115 119 128.4 119 115 102" fill="#f08633" stroke="#000" stroke-linecap="round" stroke-linejoin="round" stroke-width="0.71"/><polygon points="141.7 102 128.4 119 141.7 119 155.1 119 141.7 102" fill="#f08633" stroke="#000" stroke-linecap="round" stroke-linejoin="round" stroke-width="0.71"/><polygon points="168.4 102 155.1 119 168.4 119 181.8 119 168.4 102" fill="#f08633" stroke="#000" stroke-linecap="round" stroke-linejoin="round" stroke-width="0.71"/><polygon points="195.1 102 181.8 119 195.1 119 208.5 119 195.1 102" fill="#f08633" stroke="#000" stroke-linecap="round" stroke-linejoin="round" stroke-width="0.71"/><polygon points="195.1 102 208.5 85.1 195.1 85.1 181.8 85.1 195.1 102" fill="#7fdcfb" stroke="#000" stroke-linecap="round" stroke-linejoin="round" stroke-width="0.71"/><polygon points="168.4 102 181.8 85.1 168.4 85.1 155.1 85.1 168.4 102" fill="#7fdcfb" stroke="#000" stroke-linecap="round" stroke-linejoin="round" stroke-width="0.71"/><polygon points="141.7 102 155.1 85.1 141.7 85.1 128.4 85.1 141.7 102" fill="#7fdcfb" stroke="#000" stroke-linecap="round" stroke-linejoin="round" stroke-width="0.71"/><polygon points="115 102 128.4 85.1 115 85.1 101.7 85.1 115 102" fill="#7fdcfb" stroke="#000" stroke-linecap="round" stroke-linejoin="round" stroke-width="0.71"/><polygon points="88.3 102 101.7 85.1 88.3 85.1 75 85.1 88.3 102" fill="#7fdcfb" stroke="#000" stroke-linecap="round" stroke-linejoin="round" stroke-width="0.71"/><polygon points="101.7 91.3 93.2 102 101.7 112.8 110.2 102 101.7 91.3" fill="#fbeacc" stroke="#000" stroke-linecap="round" stroke-linejoin="round" stroke-width="0.71"/><polygon points="75 91.3 66.5 102 75 112.8 83.5 102 75 91.3" fill="#3a6775" stroke="#000" stroke-miterlimit="10" stroke-width="0.71"/><polygon points="208.5 91.3 217 102 208.5 112.8 200 102 208.5 91.3" fill="#3a6775" stroke="#000" stroke-miterlimit="10" stroke-width="0.71"/><polygon points="128.4 91.3 119.9 102 128.4 112.8 136.9 102 128.4 91.3" fill="#fbeacc" stroke="#000" stroke-linecap="round" stroke-linejoin="round" stroke-width="0.71"/><polygon points="155.1 91.3 146.6 102 155.1 112.8 163.6 102 155.1 91.3" fill="#fbeacc" stroke="#000" stroke-linecap="round" stroke-linejoin="round" stroke-width="0.71"/><polygon points="181.8 91.3 173.3 102 181.8 112.8 190.3 102 181.8 91.3" fill="#fbeacc" stroke="#000" stroke-linecap="round" stroke-linejoin="round" stroke-width="0.71"/></svg>