<svg xmlns="http://www.w3.org/2000/svg" viewBox="0 0 283.5 283.5"><path d="M141.7,18C93.4,18,68.8,38,68.8,62.9v49.2H214.6V62.9C214.6,38,190.1,18,141.7,18Z" stroke="#000" stroke-linecap="round" stroke-linejoin="round" stroke-width="0.71"/><path d="M69.4,111.6V62.9c0-12.6,6.3-23.5,18.1-31.3s31.5-13,54.2-13a135.3,135.3,0,0,1,28.8,2.8c-3.1-.2-6.3-.3-9.5-.3-44.6,0-73.5,17.9-73.5,45.5v45Z" fill="#3a3a3a"/><path d="M152.8,18.4V18c0-5.7-5-10.3-11.1-10.3s-11,4.6-11,10.3v.4c3.5-.3,7.2-.4,11-.4S149.2,18.1,152.8,18.4Z" stroke="#000" stroke-miterlimit="10" stroke-width="0.71"/><path d="M141.7,81.6c-62.8,0-72.9,14.1-72.9,21.2v9.3H214.6v-9.3C214.6,95.7,204.6,81.6,141.7,81.6Z" fill="#202020" stroke="#000" stroke-miterlimit="10" stroke-width="0.71"/><path d="M214.6,102.8c0-7.1-10-21.2-72.9-21.2S68.8,95.7,68.8,102.8v9.3h6.3c1-7.3,12.2-19.9,66.6-19.9s65.6,12.6,66.7,19.9h6.2Z" fill="#fff" stroke="#000" stroke-miterlimit="10" stroke-width="0.71" opacity="0.26"/><path d="M146.9,36.7a7.8,7.8,0,0,1-.2,1.4,14.2,14.2,0,0,1-.5,1.6,13,13,0,0,1-.8,1.7,5.8,5.8,0,0,1-1.1,1.5A4.5,4.5,0,0,1,143,44a2.8,2.8,0,0,1-1.5.4H141l-.6-.2a.5.5,0,0,1-.5-.3.7.7,0,0,1-.2-.6,1.3,1.3,0,0,1,.1-.6l.5-.7.8-1,.8-1.2.6-1.2a5.2,5.2,0,0,0,.2-1.1,1.7,1.7,0,0,0-.3-1,1.1,1.1,0,0,0-.9-.4,4.1,4.1,0,0,0-2,.6,11.1,11.1,0,0,0-2.4,1.6l-2.5,2.4-2.4,2.9a36.2,36.2,0,0,0-2.2,3.2c-.7,1.1-1.3,2.2-1.9,3.3a24.5,24.5,0,0,0-1.2,3.1,9.9,9.9,0,0,0-.4,2.8,3.2,3.2,0,0,0,.8,2.4,3.3,3.3,0,0,0,2.6.9,6.7,6.7,0,0,0,2.6-.7,20.5,20.5,0,0,0,2.9-1.3l2.3-1.5,2.3-1.6,1.9-1.4,1.4-.8h.3c.2,0,.3.2.4.5a4.1,4.1,0,0,1,.1,1.2,2.5,2.5,0,0,1-.1.8,1.7,1.7,0,0,1-.6,1.2l-.8.9L141,58a19.2,19.2,0,0,1-2.1,1.6,22.6,22.6,0,0,1-2.6,1.6l-3.6,1.5a16.1,16.1,0,0,1-3.9.7,10.4,10.4,0,0,1-3.3-.5,5.4,5.4,0,0,1-2.2-1.3,4.6,4.6,0,0,1-1.3-2,6.6,6.6,0,0,1-.4-2.5,16.3,16.3,0,0,1,.5-3.6,32.5,32.5,0,0,1,1.5-4,26.5,26.5,0,0,1,2.2-4,34.8,34.8,0,0,1,2.8-3.9c1-1.2,2.1-2.3,3.2-3.4a41.1,41.1,0,0,1,3.5-2.7,14.1,14.1,0,0,1,3.7-1.8,9.2,9.2,0,0,1,3.6-.7l1.6.2a3.5,3.5,0,0,1,1.4.6,2.7,2.7,0,0,1,.9,1.2A4.3,4.3,0,0,1,146.9,36.7Z" fill="#fff"/><path d="M149.8,55a14.7,14.7,0,0,1-.9,1.7l-1.3,2.4L146,61.9l-1.8,3c-.6,1-1.2,2-1.9,3a31.5,31.5,0,0,1-1.9,2.7,15.1,15.1,0,0,0,4.3-1.1,19,19,0,0,0,3.9-2.3,19.9,19.9,0,0,0,3.4-3.1,20.5,20.5,0,0,0,2.5-3.5,19.5,19.5,0,0,0,1.7-3.6,11.1,11.1,0,0,0,.6-3.4,7.1,7.1,0,0,0-.4-2.6,5.4,5.4,0,0,0-1-2,5.9,5.9,0,0,0-1.8-1.3,6.2,6.2,0,0,0-2.5-.5,12.4,12.4,0,0,0-2.7.3,11.1,11.1,0,0,0-2.6.7l-2.3,1a8.3,8.3,0,0,0-1.8,1.3c-.6.6-1,1.2-1.5,1.8L139,53.9a7.1,7.1,0,0,1-1.3,1.2,3.1,3.1,0,0,1-1.7.5c-1.2,0-1.8-.6-1.8-1.6a5.1,5.1,0,0,1,.7-2.2,8.7,8.7,0,0,1,1.8-2.2,15.2,15.2,0,0,1,2.7-2.2,28.9,28.9,0,0,1,3.5-1.9,24.5,24.5,0,0,1,4.1-1.2,21.2,21.2,0,0,1,4.4-.5,12.6,12.6,0,0,1,4.6.8,9.3,9.3,0,0,1,3.3,2.1,8.4,8.4,0,0,1,1.9,3.3,12.9,12.9,0,0,1,.7,4,14.2,14.2,0,0,1-.8,4.5,21.8,21.8,0,0,1-2.1,4.7,34.7,34.7,0,0,1-3.5,4.3,21.5,21.5,0,0,1-4.8,3.6,23,23,0,0,1-6,2.5,27.1,27.1,0,0,1-7.1.9,1.7,1.7,0,0,1-1.3-.5,2.1,2.1,0,0,1-.5-1.3,5,5,0,0,1,.2-1.2,3.1,3.1,0,0,1,.5-1l8.6-17a9.8,9.8,0,0,1,1.2-1.5l1.1-.8a1.8,1.8,0,0,1,.9-.4h.6a1.7,1.7,0,0,1,1.3.5,2.8,2.8,0,0,1,.4,1.3,6.9,6.9,0,0,1-.2,1.3Z" fill="#fff"/><path d="M131.3,17.8c.1-5.3,4.7-9.5,10.4-9.5a11,11,0,0,1,4.7,1h-.2a11.7,11.7,0,0,0-11.3,8.3Z" fill="#aaa"/></svg>