<svg xmlns="http://www.w3.org/2000/svg" viewBox="0 0 283.5 283.5"><path d="M86.1,96.9h0l-4.6-1.2V77.4H51.7C54.9,83.6,63.6,91.7,86.1,96.9Z" fill="#5b2f63" stroke="#000" stroke-miterlimit="10" stroke-width="0.71"/><path d="M241.9,68.4a9.5,9.5,0,0,0-9,6.4c-3.3,9.7-19.2,27.1-91.2,27.1S53.8,84.5,50.5,74.8a9.3,9.3,0,0,0-8.9-6.4,9.6,9.6,0,0,0-9.8,10.3c1.8,22.1,19.5,40.5,39.3,40.5H212.3c19.8,0,37.6-18.4,39.4-40.5A9.7,9.7,0,0,0,241.9,68.4Z" fill="#f095f8" stroke="#000" stroke-miterlimit="10" stroke-width="0.71"/><path d="M166.8,9.4c-26.8,0-13.2,14.8-25.1,14.8s1.8-14.8-25-14.8S81.5,28.9,81.5,45.5V95.7c13.6,3.7,32.8,6.2,60.2,6.2s46.7-2.5,60.2-6.2V45.5C201.9,28.9,193.6,9.4,166.8,9.4Z" fill="#f095f8" stroke="#000" stroke-miterlimit="10" stroke-width="0.71"/><path d="M197.4,96.9h0l4.5-1.2V77.4h29.9C228.5,83.6,219.8,91.7,197.4,96.9Z" fill="#5b2f63" stroke="#000" stroke-miterlimit="10" stroke-width="0.71"/><path d="M141.7,77.4H81.5V95.7h.2l2.1.5,2.3.6c13.2,3,31.2,5,55.6,5s42.5-2,55.7-5l2.3-.6,2.1-.5h.1V77.4Z" fill="#cdfbfe" stroke="#000" stroke-miterlimit="10" stroke-width="0.71"/><path d="M158.9,23.6c-4.3,0-4.8-2-5.6-4.8a16.2,16.2,0,0,0-2.2-4.9c2.6-2.7,7.8-4,15.7-4a51.2,51.2,0,0,1,5.6.3c-5.9,2-6.9,5.6-7.8,8.6S163.3,23.6,158.9,23.6Z" fill="#7e4684"/><path d="M71.1,118.6c-19.6,0-37-17.9-38.8-39.9A8.7,8.7,0,0,1,34.7,72a9.2,9.2,0,0,1,6.9-3,9,9,0,0,1,2.8.4A10.1,10.1,0,0,0,43.1,75c1.9,22.6,19.8,41,40,41h142a33.3,33.3,0,0,1-12.8,2.6Z" fill="#7e4684"/><path d="M218.7,90c9.6-5.1,13.3-10.8,14.8-15a8.8,8.8,0,0,1,8.4-6,10.5,10.5,0,0,1,3,.5l-.6,1.4C242.4,76.6,236.2,84.3,218.7,90Z" fill="#7e4684"/><path d="M82.4,76.8V45.5c0-16.9,8.9-35,34-35h2.8C99.5,17.7,97.3,37.1,97.3,45.5V76.8Z" fill="#7e4684"/><path d="M110.1,99.7a171.6,171.6,0,0,1-27.7-4.6V78.2H97.3V96.9l.9.2A111.7,111.7,0,0,0,110.1,99.7Z" fill="#456a6b"/></svg>