<svg xmlns="http://www.w3.org/2000/svg" viewBox="0 0 283.5 283.5"><path d="M130.3,84.7s55.5-12.7,55.5,35.1v59.7S252.6,137.6,221.7,65C193.6-.8,112.1,26.3,100.1,48.1Z" stroke="#000" stroke-miterlimit="10" stroke-width="0.71"/><path d="M130.3,84.7,100.1,48.1C41.2,51.6,66.4,124,66.4,124c26-37.3,108.8-31.8,108.8-31.8h0C159.1,78.2,130.3,84.7,130.3,84.7Z" fill="#5f717a" stroke="#000" stroke-miterlimit="10" stroke-width="0.71"/><path d="M200.7,166.4c12.7-19.1,22.7-48.3,6.7-85.6s-46.1-41.7-62.9-41.7A94,94,0,0,0,102,49.5l-1.2-1.4c6.6-11.4,32-23.9,58.4-23.9,16.6,0,46.7,5.3,61.9,41C241.8,113.7,219.1,148.2,200.7,166.4Z" fill="#4b4b4b" stroke="#000" stroke-miterlimit="10" stroke-width="0.71"/><path d="M137.8,84.2a72.6,72.6,0,0,1,8-.4c6.8,0,16.2,1,24,5.4A59.7,59.7,0,0,0,157.5,88a80.7,80.7,0,0,0-15.3,1.5Z" fill="#28353a"/><path d="M66.6,122.7c-1.9-6.2-11.2-38.7,2-58.4,6.3-9.4,16.8-14.7,31.3-15.6l4.2,5.2c-10.8,2-19,6.9-24.4,14.5-9.4,13.5-8.4,32.7-5.8,46.5A58.8,58.8,0,0,0,66.6,122.7Z" fill="#28353a"/></svg>