<svg xmlns="http://www.w3.org/2000/svg" viewBox="0 0 283.5 283.5"><g style="isolation:isolate"><path d="M141.7,18C93.4,18,68.8,38,68.8,62.9v49.2H214.6V62.9C214.6,38,190.1,18,141.7,18Z" stroke="#000" stroke-linecap="round" stroke-linejoin="round" stroke-width="0.71"/><path d="M69.4,111.6V62.9c0-12.6,6.3-23.5,18.1-31.3s31.5-13,54.2-13a135.3,135.3,0,0,1,28.8,2.8c-3.1-.2-6.3-.3-9.5-.3-44.6,0-73.5,17.9-73.5,45.5v45Z" fill="#3a3a3a"/><path d="M152.8,18.4V18c0-5.7-5-10.3-11.1-10.3s-11,4.6-11,10.3v.4c3.5-.3,7.2-.4,11-.4S149.2,18.1,152.8,18.4Z" fill="#001cf5" stroke="#000" stroke-miterlimit="10" stroke-width="0.71"/><path d="M141.7,81.6c-62.8,0-72.9,14.1-72.9,21.2v9.3H214.6v-9.3C214.6,95.7,204.6,81.6,141.7,81.6Z" fill="#fef47e" stroke="#000" stroke-linecap="round" stroke-linejoin="round" stroke-width="0.71"/><path d="M214.6,102.8c0-7.1-10-21.2-72.9-21.2S68.8,95.7,68.8,102.8v9.3h6.3c1-7.3,12.2-19.9,66.6-19.9s65.6,12.6,66.7,19.9h6.2Z" fill="#b2a849" style="mix-blend-mode:multiply"/><path d="M141.7,42.4a19,19,0,0,1,18.6,14.8,27.1,27.1,0,0,0,.4-4.1,19,19,0,0,0-38,0,18.4,18.4,0,0,0,.5,4.1A19,19,0,0,1,141.7,42.4Z" fill="#001cf5" stroke="#000" stroke-linecap="round" stroke-linejoin="round" stroke-width="0.71"/><path d="M141.7,50.6a18.9,18.9,0,0,1,17.1,10.8,26,26,0,0,0,1.5-4.2,19,19,0,0,0-37.1,0,15,15,0,0,0,1.5,4.2A18.8,18.8,0,0,1,141.7,50.6Z" fill="#c8769c" stroke="#000" stroke-linecap="round" stroke-linejoin="round" stroke-width="0.71"/><ellipse cx="141.7" cy="61.4" rx="17.1" ry="10.7" fill="#fef47e" stroke="#000" stroke-linecap="round" stroke-linejoin="round" stroke-width="0.71"/><path d="M131.3,17.8c.1-5.3,4.7-9.5,10.4-9.5a11,11,0,0,1,4.7,1h-.2a11.7,11.7,0,0,0-11.3,8.3Z" fill="#93a2f9"/></g></svg>