<svg xmlns="http://www.w3.org/2000/svg" viewBox="0 0 283.5 283.5"><path d="M194,14H89.5a10.2,10.2,0,0,0-10.4,9.9V84.3s4.4,15.8,62.6,15.8,62.7-15.8,62.7-15.8V23.9A10.2,10.2,0,0,0,194,14Z" fill="#262851" stroke="#000" stroke-miterlimit="10" stroke-width="0.71"/><path d="M204.4,84.3s-4.5,15.8-62.7,15.8S79.1,84.3,79.1,84.3s-47.4,3.3-47.4,18.6,78.2,23.3,110,23.3,110.1-7.9,110.1-23.3S204.4,84.3,204.4,84.3Z" fill="#3c4070" stroke="#000" stroke-miterlimit="10" stroke-width="0.71"/><path d="M204.4,84.3V75.4c-7.3,4.7-24.1,10.8-62.7,11.1S86.4,80.1,79.1,75.4v8.9s4.3,15.4,59.9,15.8h5.4C200.1,99.7,204.4,84.3,204.4,84.3Z" fill="#c03b26" stroke="#000" stroke-miterlimit="10" stroke-width="0.71"/><path d="M141.7,125.7c-31.7,0-109.5-8-109.5-22.8,0-7.5,12.7-12,23.3-14.5a181.4,181.4,0,0,1,23.2-3.5l.2.3C61.7,88.9,53,94.3,53,101.2c0,16,76.9,23.3,106.9,23.9C153.2,125.4,147,125.7,141.7,125.7Z" fill="#1a1e3a"/><path d="M180.6,97.4c19.1-4.1,23.3-10.7,24.1-12.5,1.8.1,8.8.8,16.9,2.2C216.7,90.6,205.5,95.8,180.6,97.4Z" fill="#1a1e3a"/><path d="M95.1,81.2a52.4,52.4,0,0,1-15.4-6.1V23.9a5.8,5.8,0,0,1,.2-1.9,8.4,8.4,0,0,1,.5-1.7,9.9,9.9,0,0,1,9.1-5.7h106l.9.2h.3l1.1.4h.2l.9.4.3.2.8.5h.1l.9.8h.1l.7.8.2.2H106.1A10.7,10.7,0,0,0,95.1,29Z" fill="#131533"/><path d="M101.2,95.8c-16-3.7-20.3-9.3-21.2-11-.1-.1-.1-.1-.1-.2V76.5a57,57,0,0,0,15.4,5.9v7.1h0C95.2,89.7,96,92.6,101.2,95.8Z" fill="#68170f"/></svg>