<svg xmlns="http://www.w3.org/2000/svg" viewBox="0 0 283.5 283.5"><path d="M141.7,45.8c-20.6,0-40.1-1-54.7-2.9-21.7-2.7-24.7-6.1-24.7-9.4s3-6.6,24.7-9.4c14.6-1.8,34.1-2.8,54.7-2.8s40.1,1,54.8,2.8c21.7,2.8,24.7,6.2,24.7,9.4s-3,6.7-24.7,9.4C181.8,44.8,162.4,45.8,141.7,45.8Zm-74-12.3c4.9,3.2,32.4,7.4,74,7.4s69.2-4.2,74-7.4c-4.8-3.1-32.3-7.3-74-7.3S72.6,30.4,67.7,33.5Z" fill="#ff0"/><path d="M141.7,21.6c20.7,0,40.1,1,54.7,2.9,21.5,2.7,24.4,6.1,24.4,9s-2.9,6.4-24.4,9.1c-14.6,1.9-34,2.9-54.7,2.9s-40-1-54.6-2.9c-21.5-2.7-24.4-6.1-24.4-9.1s2.9-6.3,24.4-9c14.6-1.9,34-2.9,54.6-2.9m0,19.6c43.4,0,70.9-4.4,74.6-7.7-3.7-3.2-31.2-7.6-74.6-7.6s-70.8,4.4-74.6,7.6c3.8,3.3,31.3,7.7,74.6,7.7m0-20.3c-20.6,0-40.1,1-54.7,2.9-22,2.8-25.1,6.3-25.1,9.7s3.1,7,25.1,9.8c14.6,1.9,34.1,2.9,54.7,2.9s40.2-1,54.8-2.9c22-2.8,25-6.3,25-9.8s-3-6.9-25-9.7c-14.6-1.9-34.1-2.9-54.8-2.9ZM68.4,33.5c6-3,33-6.9,73.3-6.9s67.4,3.9,73.3,6.9c-5.9,3.1-32.9,7-73.3,7s-67.3-3.9-73.3-7Z"/><path d="M141.7,52.3c-20.7,0-40.2-1.7-54.9-4.8-16.3-3.4-24.5-8.1-24.5-14S70.5,23,86.8,19.6c14.7-3.1,34.2-4.9,54.9-4.9s40.3,1.8,55,4.9c16.2,3.4,24.5,8.1,24.5,13.9s-8.3,10.6-24.5,14C182,50.6,162.5,52.3,141.7,52.3Zm0-32.6c-20.4,0-39.5,1.7-53.9,4.7-16.2,3.5-20.5,7.5-20.5,9.1s4.3,5.7,20.5,9.2c14.4,3,33.5,4.7,53.9,4.7s39.6-1.7,53.9-4.7c16.3-3.5,20.6-7.5,20.6-9.2s-4.3-5.6-20.6-9.1C181.3,21.4,162.1,19.7,141.7,19.7Z" fill="#ff0"/><path d="M141.7,15.1c20.7,0,40.2,1.7,54.9,4.8s24.2,8,24.2,13.6-8.1,10.3-24.2,13.7S162.4,52,141.7,52s-40.1-1.7-54.8-4.8-24.2-8-24.2-13.7,8.1-10.2,24.2-13.6,34.1-4.8,54.8-4.8m0,32.6c20.4,0,39.6-1.6,54-4.7,16.5-3.5,20.9-7.6,20.9-9.5s-4.4-5.9-20.9-9.4c-14.4-3.1-33.6-4.7-54-4.7S102.2,21,87.8,24.1c-16.5,3.5-20.9,7.6-20.9,9.4s4.4,6,20.9,9.5c14.4,3.1,33.5,4.7,53.9,4.7m0-33.3c-20.7,0-40.2,1.7-55,4.8-16.6,3.6-24.8,8.3-24.8,14.3s8.2,10.8,24.8,14.4c14.8,3.1,34.3,4.8,55,4.8s40.3-1.7,55-4.8c16.7-3.6,24.8-8.3,24.8-14.4s-8.1-10.7-24.8-14.3c-14.7-3.1-34.2-4.8-55-4.8Zm0,32.6c-20.3,0-39.4-1.6-53.8-4.7-19.7-4.2-20.3-8.7-20.3-8.8s.6-4.5,20.3-8.7c14.4-3.1,33.5-4.7,53.8-4.7s39.5,1.6,53.9,4.7c19.7,4.2,20.2,8.7,20.2,8.7s-.5,4.6-20.2,8.8c-14.4,3.1-33.5,4.7-53.9,4.7Z"/><path d="M114.8,80.6h0a14.1,14.1,0,0,1-17.5,1.7C84.2,73.5,63.9,56.8,77.1,43.7c18.6-18.7,43-22.8,43-22.8S88,45.7,104,54.5l7.6,4.2A13.8,13.8,0,0,1,114.8,80.6Z" fill="#8c9a9e" stroke="#000" stroke-miterlimit="10" stroke-width="0.71"/><path d="M168.7,80.6h0a13.9,13.9,0,0,0,17.4,1.7c13.2-8.8,33.4-25.5,20.3-38.6-18.7-18.7-43-22.8-43-22.8s32.1,24.8,16,33.6c-2.7,1.6-5.3,3-7.6,4.2A13.8,13.8,0,0,0,168.7,80.6Z" fill="#8c9a9e" stroke="#000" stroke-miterlimit="10" stroke-width="0.71"/><circle cx="62.7" cy="16.6" r="4.3" fill="#ff0" stroke="#000" stroke-miterlimit="10" stroke-width="0.71"/><circle cx="58.4" cy="50.5" r="4.3" fill="#ff0" stroke="#000" stroke-miterlimit="10" stroke-width="0.71"/><circle cx="45.5" cy="35.2" r="4.3" fill="#ff0" stroke="#000" stroke-miterlimit="10" stroke-width="0.71"/><circle cx="30.4" cy="35.2" r="4.3" fill="#ff0" stroke="#000" stroke-miterlimit="10" stroke-width="0.71"/><circle cx="42.3" cy="20.9" r="4.3" fill="#ff0" stroke="#000" stroke-miterlimit="10" stroke-width="0.71"/><circle cx="49.8" cy="64.4" r="4.3" fill="#ff0" stroke="#000" stroke-miterlimit="10" stroke-width="0.71"/><circle cx="220.8" cy="16.6" r="4.3" fill="#ff0" stroke="#000" stroke-miterlimit="10" stroke-width="0.71"/><circle cx="225.1" cy="50.5" r="4.3" fill="#ff0" stroke="#000" stroke-miterlimit="10" stroke-width="0.71"/><circle cx="237.9" cy="35.2" r="4.3" fill="#ff0" stroke="#000" stroke-miterlimit="10" stroke-width="0.71"/><circle cx="253.1" cy="35.2" r="4.3" fill="#ff0" stroke="#000" stroke-miterlimit="10" stroke-width="0.71"/><circle cx="241.2" cy="20.9" r="4.3" fill="#ff0" stroke="#000" stroke-miterlimit="10" stroke-width="0.71"/><circle cx="233.7" cy="64.4" r="4.3" fill="#ff0" stroke="#000" stroke-miterlimit="10" stroke-width="0.71"/><path d="M105,84a12.8,12.8,0,0,1-7.3-2.2c-8.6-5.7-23.2-16.9-24.3-27.5a12.3,12.3,0,0,1,4.1-10.2c15-15,33.9-20.6,40.4-22.2-1.4,1.2-3.4,2.9-5.6,5A82.7,82.7,0,0,0,88.6,43.3a13.3,13.3,0,0,0-4.4,11.1c1.1,10.5,14.1,21.2,24.7,28.3l.8.5a15,15,0,0,1-4.7.8Z" fill="#576b71"/><path d="M178.4,84a14.8,14.8,0,0,1-4.6-.8l.7-.5c10.7-7.1,23.7-17.8,24.7-28.3a13.2,13.2,0,0,0-4.3-11.1,84.1,84.1,0,0,0-23.7-16.4c-2.2-2.1-4.2-3.8-5.6-5,6.5,1.6,25.4,7.2,40.4,22.2,3,3,4.4,6.4,4,10.2-1,10.6-15.6,21.8-24.2,27.5A12.9,12.9,0,0,1,178.4,84Z" fill="#576b71"/></svg>