<svg xmlns="http://www.w3.org/2000/svg" viewBox="0 0 283.5 283.5"><g style="isolation:isolate"><path d="M141.7,18C93.4,18,68.8,38,68.8,62.9v49.2H214.6V62.9C214.6,38,190.1,18,141.7,18Z" fill="#1c1769" stroke="#000" stroke-linecap="round" stroke-linejoin="round" stroke-width="0.71"/><path d="M69.4,111.6V62.9c0-12.6,6.3-23.5,18.1-31.3s31.5-13,54.2-13a135.3,135.3,0,0,1,28.8,2.8c-3.1-.2-6.3-.3-9.5-.3-44.6,0-73.5,17.9-73.5,45.5v45Z" fill="#3737a5"/><path d="M152.8,18.4V18c0-5.7-5-10.3-11.1-10.3s-11,4.6-11,10.3v.4c3.5-.3,7.2-.4,11-.4S149.2,18.1,152.8,18.4Z" fill="#3b6bb1" stroke="#000" stroke-linecap="round" stroke-linejoin="round" stroke-width="0.71"/><path d="M141.7,81.6c-62.8,0-72.9,14.1-72.9,21.2v9.3H214.6v-9.3C214.6,95.7,204.6,81.6,141.7,81.6Z" fill="#3b6bb1" stroke="#000" stroke-linecap="round" stroke-linejoin="round" stroke-width="0.71"/><path d="M214.6,102.8c0-7.1-10-21.2-72.9-21.2S68.8,95.7,68.8,102.8v9.3h6.3c1-7.3,12.2-19.9,66.6-19.9s65.6,12.6,66.7,19.9h6.2Z" fill="#3b6bb1" style="mix-blend-mode:multiply"/><path d="M114.6,49.8c4.2,3.4,10.7,10.4,15.5,23.8a3.7,3.7,0,0,0,6.5.7c5.6-8.9,15.6-24.3,22.2-32.1a2.7,2.7,0,0,0-2.1-4.4,124.9,124.9,0,0,0-41.3,7.1A2.8,2.8,0,0,0,114.6,49.8Z" fill="#ffb034" stroke="#000" stroke-miterlimit="10" stroke-width="0.71"/><path d="M172.9,47.5c-4.6.4-12.2,1.1-19.9,2.3-2.1,2.8-4.3,6-6.4,9.1a87.4,87.4,0,0,1,6.6,16.2,3.5,3.5,0,0,0,6.1,1.4c4.9-5.9,12.5-15.8,16.3-25.2A2.7,2.7,0,0,0,172.9,47.5Z" fill="#d97b32" stroke="#000" stroke-miterlimit="10" stroke-width="0.71"/><path d="M131.3,17.8c.1-5.3,4.7-9.5,10.4-9.5a11,11,0,0,1,4.7,1h-.2a11.7,11.7,0,0,0-11.3,8.3Z" fill="#6ca3e5"/><path d="M133.5,75.4a3,3,0,0,1-2.9-2c-4.7-13.4-11.2-20.4-15.7-24a2.1,2.1,0,0,1-.8-2.1,2.2,2.2,0,0,1,1.5-1.8c16.4-6.1,32.8-7.1,41.1-7.2a2.1,2.1,0,0,1,1.6.8,126.3,126.3,0,0,0-35.7,7,3.3,3.3,0,0,0-2.2,2.7,3.3,3.3,0,0,0,1.2,3.2c4.2,3.3,10.1,9.7,14.7,21.7l-.2.3a3,3,0,0,1-2.6,1.4Z" fill="#ba751a"/><path d="M156.6,77.2a3,3,0,0,1-2.9-2.2,90,90,0,0,0-6.4-16.1,6.1,6.1,0,0,1,.7-1,80.4,80.4,0,0,1,4.6,12.4,4.1,4.1,0,0,0,4,3,3.9,3.9,0,0,0,3.1-1.5c4.8-5.7,11.3-14.2,15.3-22.6a2.1,2.1,0,0,1,.1,1.9c-3.7,9-10.9,18.6-16.2,25A3,3,0,0,1,156.6,77.2Z" fill="#7f3f13"/></g></svg>