<svg xmlns="http://www.w3.org/2000/svg" viewBox="0 0 283.5 283.5"><path d="M243.7,23.2c-26.6-20.1-53.2,4.6-58.6,13.9,0,0-8.3-16.9-29.6-11.8,0,0-.9-5.7-13.8-5.7S128,25.3,128,25.3c-21.4-5.1-29.7,11.8-29.7,11.8C93,27.8,66.4,3.1,39.8,23.2s-13.7,62,20.6,66.6c-8.9,15.4,5.4,25.9,5.4,25.9-11.3,5.1-20.8,21,4.1,62.2s-30.1,74.8-30.1,74.8c68-28.4,52.1-75.4,38.5-89s-6-27-6-27c15.8-2.4,22.6-20.3,27.9-40.6,36.2-5.6,41.5-31.6,41.5-31.6s5.3,26,41.6,31.6c5.2,20.3,12,38.2,27.9,40.6,0,0,7.5,13.5-6,27s-29.5,60.6,38.5,89c0,0-55-33.7-30.1-74.8s15.4-57.1,4.1-62.2c0,0,14.2-10.5,5.3-25.9C257.4,85.2,270.2,43.3,243.7,23.2Z" fill="#5a6dc6" stroke="#000" stroke-miterlimit="10"/><path d="M113.6,44.3a50,50,0,0,0-11.4-11.6,24.2,24.2,0,0,1,18-7.8,29.4,29.4,0,0,1,7.6,1h.6v-.6s1.1-5.2,13.2-5.2,13.2,5.2,13.2,5.2V26h.6a30.2,30.2,0,0,1,7.7-1,24,24,0,0,1,17.5,7.3h-2.3a31,31,0,0,0-7.3.9c-.6-1.6-3.3-5.6-14.2-5.6s-13.5,4-14.1,5.6a32.5,32.5,0,0,0-7.4-.9A25.6,25.6,0,0,0,113.6,44.3Z" fill="#202f66"/><path d="M167.9,91.3a50.2,50.2,0,0,1-14.4-9,32.6,32.6,0,0,0,3.5-7.4A40.1,40.1,0,0,0,167.9,91.3Z" fill="#202f66"/><path d="M51.9,87.1A38.1,38.1,0,0,1,26.8,57.9,34.3,34.3,0,0,1,40.1,23.6c6.7-5,13.8-7.5,21.2-7.5,9.5,0,17.8,4.1,23.6,8.2a34.2,34.2,0,0,0-8.3-1q-11.5,0-21.9,7.8A35.2,35.2,0,0,0,40.3,58.3,38.8,38.8,0,0,0,51.9,87.1Z" fill="#202f66"/><path d="M232,246.6c-16.3-8.7-33.8-22.7-37.5-43.6-2.9-16.3,3.7-31.5,11.1-38.9,11.4-11.4,8.1-23,6.6-26.6a22.9,22.9,0,0,0,13.9,8,16.2,16.2,0,0,1,.8,2c-2.3,8.7-7,18.8-13.8,30.1s-8.5,24.2-3.9,36.7C212.1,226.4,219.8,237.2,232,246.6ZM211,136.1c-14.4-2.4-21.1-18.6-25.6-34.4a69.4,69.4,0,0,0,12.7,3.3C201,116.3,204.7,128.1,211,136.1Z" fill="#202f66"/><path d="M45,249.8a102.2,102.2,0,0,0,19.6-18.7c14.1-18,16.1-36.5,5.8-53.5C57.2,155.8,52.3,139,55.9,127.7A18.2,18.2,0,0,1,66,116.2l.9-.4-.8-.5c-.5-.4-11.9-9.1-6.6-22.2a42.5,42.5,0,0,0,15.3,5.5c-7.1,13.2,2.4,22.9,5.2,25.3a19.2,19.2,0,0,0-9.9,11.8c-3.7,11.6,1.3,28.7,14.6,50.8a44.9,44.9,0,0,1,4.9,11.1C88.8,212.6,80.2,233.5,45,249.8Z" fill="#202f66"/><path d="M200.4,44.3a25.2,25.2,0,0,0-12.3-10.4c5.6-6.9,18.7-17.8,34.1-17.8,7.4,0,14.5,2.5,21.1,7.5l.3.3a31.5,31.5,0,0,0-6.1-.6C220.5,23.3,205.4,36.5,200.4,44.3Z" fill="#202f66"/></svg>