<svg xmlns="http://www.w3.org/2000/svg" viewBox="0 0 283.5 283.5"><path d="M209.5,53.2a8.6,8.6,0,0,1-7.9,5,8.8,8.8,0,0,1-8.4-6.1L181.9,18.4l-9.2,50.4a9.2,9.2,0,0,1-9.1,7.5h0a9.2,9.2,0,0,1-8.9-7.1l-13-56.5L128.8,69.2a9.3,9.3,0,0,1-9,7.1,9.2,9.2,0,0,1-9-7.5l-9.3-50.4L90.3,52.1a8.9,8.9,0,0,1-16.4,1.1L65.8,36.6v82.6H217.7V36.6Z" fill="#fadd62" stroke="#000" stroke-linecap="round" stroke-linejoin="round" stroke-width="0.71"/><circle cx="141.7" cy="94" r="13.7" fill="#a977f7" stroke="#000" stroke-linecap="round" stroke-linejoin="round" stroke-width="0.71"/><path d="M133.5,72.4a8.6,8.6,0,0,1-4.7-1.4,10.9,10.9,0,0,0,.5-1.7l12.4-54.1,5.9,25.7-5.7,24.8A8.6,8.6,0,0,1,133.5,72.4Z" fill="#a58e2f"/><path d="M95.6,54.3a8.4,8.4,0,0,1-4.9-1.6.6.6,0,0,0,.1-.4l10.6-31.6,4,22.1-1.9,5.8A8.4,8.4,0,0,1,95.6,54.3Z" fill="#a58e2f"/><path d="M215.3,54.3a8.4,8.4,0,0,1-4.9-1.6L217.1,39V54.1Z" fill="#a58e2f"/><path d="M177.3,72.4a8.9,8.9,0,0,1-4.7-1.4,17.2,17.2,0,0,0,.7-2.1l8.8-48.2,7.7,23.1-4,21.5A8.6,8.6,0,0,1,177.3,72.4Z" fill="#a58e2f"/><path d="M69.1,118.6a2.9,2.9,0,0,1-2.8-2.8V39l7.1,14.5a9.7,9.7,0,0,0,5.5,4.8v58.1H217.1a2.9,2.9,0,0,1-2.7,2.2Z" fill="#a58e2f"/><path d="M138.7,106.8a13.1,13.1,0,0,1,3-25.9,12.6,12.6,0,0,1,6.6,1.8,14.2,14.2,0,0,0-9.6,24.1Z" fill="#4e2d8e"/><circle cx="65.8" cy="36.6" r="7.2" fill="#fadd62" stroke="#000" stroke-linecap="round" stroke-linejoin="round" stroke-width="0.71"/><circle cx="101.7" cy="18.2" r="7.2" fill="#fadd62" stroke="#000" stroke-linecap="round" stroke-linejoin="round" stroke-width="0.71"/><circle cx="217.7" cy="36.6" r="7.2" fill="#fadd62" stroke="#000" stroke-linecap="round" stroke-linejoin="round" stroke-width="0.71"/><circle cx="181.7" cy="18.2" r="7.2" fill="#fadd62" stroke="#000" stroke-linecap="round" stroke-linejoin="round" stroke-width="0.71"/><circle cx="141.7" cy="11" r="7.2" fill="#fadd62" stroke="#000" stroke-linecap="round" stroke-linejoin="round" stroke-width="0.71"/><path d="M63.4,42.8a6.7,6.7,0,0,1,2.4-12.9,6.2,6.2,0,0,1,3.2.9,7.7,7.7,0,0,0-6.9,7.7A7.5,7.5,0,0,0,63.4,42.8Z" fill="#a58e2f"/><path d="M99.4,24.4a6.5,6.5,0,0,1-4.3-6.2,6.7,6.7,0,0,1,6.6-6.6,7.3,7.3,0,0,1,3.3.8,7.9,7.9,0,0,0-6.9,7.8A7,7,0,0,0,99.4,24.4Z" fill="#a58e2f"/><path d="M139.4,17.2a6.5,6.5,0,0,1-4.3-6.2,6.7,6.7,0,0,1,6.6-6.6,7.3,7.3,0,0,1,3.3.8,7.9,7.9,0,0,0-6.9,7.8A7,7,0,0,0,139.4,17.2Z" fill="#a58e2f"/><path d="M179.4,24.4a6.5,6.5,0,0,1-4.3-6.2,6.7,6.7,0,0,1,6.6-6.6,7.3,7.3,0,0,1,3.3.8,7.9,7.9,0,0,0-6.9,7.8A7,7,0,0,0,179.4,24.4Z" fill="#a58e2f"/><path d="M215.3,42.8a6.7,6.7,0,0,1,2.4-12.9,6.3,6.3,0,0,1,3.3.9,7.7,7.7,0,0,0-6.9,7.7A8.2,8.2,0,0,0,215.3,42.8Z" fill="#a58e2f"/></svg>