<svg xmlns="http://www.w3.org/2000/svg" viewBox="0 0 283.5 283.5"><g style="isolation:isolate"><path d="M91.6,234.7c.8.9,1.5,1.9,2.3,2.7l2,2.2.5.5,2,2.1,3.2,2.8h0a38.2,38.2,0,0,0,3.2,2.7l3.4,2.5,2.2,1.4,1.2.8.7.4,4,2.2.6.2,8-3.8-7.7-68.5L75,190.4l-2.2,10.4a115.3,115.3,0,0,0,18.8,33.9Z" stroke="#000" stroke-linecap="round" stroke-linejoin="round" stroke-width="0.71"/><path d="M191.9,234.7l-2.4,2.7c-.6.8-1.3,1.5-1.9,2.2l-.5.5-2.1,2.1-3.1,2.8h0a39.2,39.2,0,0,1-3.3,2.7l-3.3,2.5-2.2,1.4-1.2.8-.8.4-3.9,2.2-.6.2-8-3.8,7.7-68.5,42.1,7.5,2.3,10.4a115.3,115.3,0,0,1-18.8,33.9Z" stroke="#000" stroke-linecap="round" stroke-linejoin="round" stroke-width="0.71"/><polygon points="171.9 165.4 141.7 165.4 111.6 165.4 96.5 173.8 100.4 205.8 109.4 219.8 141.7 240.3 174.1 219.8 183.1 205.8 186.9 173.8 171.9 165.4" fill="#d454e2" stroke="#000" stroke-linecap="round" stroke-linejoin="round" stroke-width="0.71"/><path d="M169.4,227.1c-7.3,2.7-16.6,4.1-27.7,4.1s-20.3-1.4-27.7-4.1a16.3,16.3,0,0,1-7.6,10.4,22.9,22.9,0,0,1-9.9,2.7c12.8,13.2,28.4,20.9,45.2,20.9s32.5-7.7,45.2-20.9a22.9,22.9,0,0,1-9.8-2.7A16.4,16.4,0,0,1,169.4,227.1Z" fill="#d454e2" stroke="#000" stroke-linecap="round" stroke-linejoin="round" stroke-width="0.71"/><path d="M77.7,180.5v15.8h2.9a6,6,0,0,1,4.9,2.5,3.9,3.9,0,0,1,.5,3.4h26.6a10.5,10.5,0,0,0,10.5-10.4V169.7c-17.7.7-30.4,2.2-38,4.8S77.7,179.2,77.7,180.5Z" fill="#8d3491" stroke="#000" stroke-linecap="round" stroke-linejoin="round" stroke-width="0.71"/><ellipse cx="100.4" cy="192" rx="11.2" ry="8.2" fill="#df7de9" stroke="#000" stroke-linecap="round" stroke-linejoin="round" stroke-width="0.71"/><circle cx="100.4" cy="190.4" r="6.6" fill="#1c1c1c" stroke="#000" stroke-linecap="round" stroke-linejoin="round" stroke-width="0.71"/><path d="M205.8,180.5v15.8h-3a5.8,5.8,0,0,0-4.8,2.5,4,4,0,0,0-.6,3.4H170.8a10.5,10.5,0,0,1-10.4-10.4V169.7c17.6.7,30.4,2.2,38,4.8S205.8,179.2,205.8,180.5Z" fill="#8d3491" stroke="#000" stroke-linecap="round" stroke-linejoin="round" stroke-width="0.71"/><ellipse cx="183.1" cy="192" rx="11.2" ry="8.2" fill="#df7de9" stroke="#000" stroke-linecap="round" stroke-linejoin="round" stroke-width="0.71"/><circle cx="183.1" cy="190.4" r="6.6" fill="#1c1c1c" stroke="#000" stroke-linecap="round" stroke-linejoin="round" stroke-width="0.71"/><path d="M141.7,160c-53.6,0-73.5,5.5-73.5,20.5v20.6a4.7,4.7,0,0,0,4.7,4.7h8.4a5,5,0,0,0,4.9-4.3,4.8,4.8,0,0,0-4.7-5.2H77.7V180.5c0-1.3,0-3.6,7.4-6s20.3-4.1,38-4.8h0v28a4.5,4.5,0,0,0,4.5,4.5h0a4.5,4.5,0,0,0,4.5-4.5V179a9.6,9.6,0,0,1,9.5-9.6h.2a9.6,9.6,0,0,1,9.6,9.6v18.7a4.5,4.5,0,0,0,4.5,4.5h0a4.5,4.5,0,0,0,4.5-4.5v-28h0c17.6.7,30.4,2.2,38,4.8s7.4,4.7,7.4,6v15.8h-3.6a4.8,4.8,0,0,0-4.9,4.3,4.7,4.7,0,0,0,4.7,5.2h8.5a4.7,4.7,0,0,0,4.7-4.7V180.5C215.2,165.5,195.3,160,141.7,160Z" fill="#1c1c1c" stroke="#000" stroke-linecap="round" stroke-linejoin="round" stroke-width="0.71"/><path d="M175.7,239.9a18.4,18.4,0,0,1-8-9.2c-7.2,2.2-15.9,3.3-26,3.3s-18.7-1.1-25.9-3.3a18.9,18.9,0,0,1-8,9.2,23.5,23.5,0,0,1-8.7,2.9,68.7,68.7,0,0,0,6.6,5.5l2.1-1a18.9,18.9,0,0,0,8-9.2c7.2,2.2,15.9,3.3,25.9,3.3s18.8-1.1,26-3.3a18.4,18.4,0,0,0,8,9.2,13.6,13.6,0,0,0,2.1,1,82.4,82.4,0,0,0,6.5-5.5A23.6,23.6,0,0,1,175.7,239.9Z" fill="#8d3491" style="mix-blend-mode:multiply"/><path d="M98.4,192a6.7,6.7,0,0,1,6.3-6.6,6.7,6.7,0,0,0-4.3-1.6,6.6,6.6,0,0,0,0,13.2h.3A6.6,6.6,0,0,1,98.4,192Z"/><path d="M181.1,192a6.7,6.7,0,0,1,6.3-6.6,6.3,6.3,0,0,0-4.3-1.6,6.6,6.6,0,0,0,0,13.2h.3A6.6,6.6,0,0,1,181.1,192Z"/><g style="mix-blend-mode:multiply"><path d="M127.2,172.8l-4.1.2v24.7a4.5,4.5,0,0,0,4.3,4.5,6.8,6.8,0,0,1-.2-1.4Z" fill="#1c1c1c"/><path d="M155.5,182.1a9.6,9.6,0,0,0-6.1-8.9,9.7,9.7,0,0,1,2,5.8v18.7a4.5,4.5,0,0,0,4.3,4.5,6.8,6.8,0,0,1-.2-1.4Z" fill="#1c1c1c"/><path d="M72.3,183.6c0-15,19.9-20.5,73.5-20.5,35,0,55.6,2.3,65.7,8.1-7.9-8-29.2-11.2-69.8-11.2-53.6,0-73.5,5.5-73.5,20.5v20.6a4.7,4.7,0,0,0,4.4,4.6,4.1,4.1,0,0,1-.3-1.6Z" fill="#1c1c1c"/><path d="M201.4,203.7a4.8,4.8,0,0,1,4.9-4.3h3.6V183.6c0-1.1,0-2.9-4.5-4.9a3.3,3.3,0,0,1,.4,1.8v15.8h-3.6a4.8,4.8,0,0,0-4.9,4.3,4.7,4.7,0,0,0,4.3,5.2A5,5,0,0,1,201.4,203.7Z" fill="#1c1c1c"/></g><path d="M160,227.9h0a10,10,0,0,0,5.8,8.6c10.8,4.8,35,10.5,54.2-22.4,0,0-28.6,13.5-48.3,5.3A8.5,8.5,0,0,0,160,227.9Z" fill="#fff" stroke="#000" stroke-linecap="round" stroke-linejoin="round" stroke-width="0.71"/><path d="M174.6,225.9a8.1,8.1,0,0,0-11.5,7.9h0c0,.5.1,1,.1,1.4a9.8,9.8,0,0,1-3.5-7.2h0a8.2,8.2,0,0,1,11.4-8c19,8.3,46.8-4.2,46.8-4.2a73.7,73.7,0,0,1-6.8,9.4C201.3,228.1,186.2,231,174.6,225.9Z" fill="#dbdbdb"/><path d="M123.5,227.9h0a10.1,10.1,0,0,1-5.9,8.6c-10.7,4.8-35,10.5-54.2-22.4,0,0,28.6,13.5,48.4,5.3C117.7,217,123.7,221.4,123.5,227.9Z" fill="#fff" stroke="#000" stroke-linecap="round" stroke-linejoin="round" stroke-width="0.71"/><path d="M159.7,222h0a10,10,0,0,0,.4,10.4c6.7,9.7,24.4,27.2,57.9,9.2,0,0-31.4-3.4-44-20.7C170.3,215.7,162.8,216.3,159.7,222Z" fill="#fff" stroke="#000" stroke-linecap="round" stroke-linejoin="round" stroke-width="0.71"/><path d="M173.3,227.5a7.3,7.3,0,0,0-12.5.4h0c-.3.4-.4.8-.6,1.1a8.2,8.2,0,0,1,.8-7h0a7.4,7.4,0,0,1,12.5-.5c10.3,15.3,37.5,19.4,37.5,19.4a71.2,71.2,0,0,1-9.8,3.7C192.4,242.1,179.6,236.9,173.3,227.5Z" fill="#dbdbdb"/><path d="M108.9,225.9c5.7-2.5,11.6,1.7,11.5,7.9h0a5.9,5.9,0,0,1-.2,1.4,9.6,9.6,0,0,0,3.6-7.2h0a8.3,8.3,0,0,0-11.5-8c-18.9,8.3-46.8-4.2-46.8-4.2a85,85,0,0,0,6.8,9.4C82.2,228.1,97.2,231,108.9,225.9Z" fill="#dbdbdb"/><path d="M123.8,222h0a10,10,0,0,1-.5,10.4c-6.6,9.7-24.4,27.2-57.9,9.2,0,0,31.5-3.4,44-20.7A8.4,8.4,0,0,1,123.8,222Z" fill="#fff" stroke="#000" stroke-linecap="round" stroke-linejoin="round" stroke-width="0.71"/><path d="M110.2,227.5a7.3,7.3,0,0,1,12.5.4h0l.6,1.1a8.3,8.3,0,0,0-.9-7h0a7.4,7.4,0,0,0-12.5-.5c-10.2,15.3-37.4,19.4-37.4,19.4a71.2,71.2,0,0,0,9.8,3.7C91.1,242.1,103.9,236.9,110.2,227.5Z" fill="#dbdbdb"/><path d="M196.9,175.8c6.7,2.2,6.7,4.3,6.7,5.4v4.7c0-1.2,0-3.3-6.7-5.5s-18.4-3.7-34.3-4.2v-4.7C178.5,172.1,190,173.5,196.9,175.8Z" fill="#59195e"/><path d="M86.4,175.8c-6.7,2.2-6.7,4.3-6.7,5.4v4.7c0-1.2,0-3.3,6.7-5.5s18.3-3.7,34.2-4.2v-4.7C104.7,172.1,93.2,173.5,86.4,175.8Z" fill="#59195e"/><path d="M141.6,170.2h-.2c-4.6,0-8.4,4.2-8.4,9.4v18.3a4.3,4.3,0,0,1-3.6,4.4,3.9,3.9,0,0,0,3.7,2.8,4.2,4.2,0,0,0,4-4.4V182.3c0-5.2,3.7-9.4,8.4-9.4h.2a7.8,7.8,0,0,1,2.1.4A7.9,7.9,0,0,0,141.6,170.2Z" fill="#922ea0"/><path d="M154.2,202.2v9.7a12.3,12.3,0,0,1-12.1,12.3h-.7a12.3,12.3,0,0,1-12.1-12.3v-9.7" fill="none" stroke="#000" stroke-linecap="round" stroke-linejoin="round" stroke-width="0.94"/></g></svg>