<svg xmlns="http://www.w3.org/2000/svg" viewBox="0 0 283.5 283.5"><g style="isolation:isolate"><path d="M91.6,234.7c26.7,34.7,73.5,34.8,100.3,0h0c11.3-13.8,19.7-32,24.1-52.9l-2.9-1-87,10.9-46.2-7.5-11.5,1.7C72.9,205,81,221.8,91.6,234.7Z" fill="#0a0a0a" stroke="#000" stroke-linecap="round" stroke-linejoin="round" stroke-width="0.71"/><path d="M164.9,183.1s50.2,4.5,53.7-19.8a150,150,0,0,1-3.5,22.6c-11.9,8.9-35.4,9.3-45.5,9H113.8c-10,.3-33.5-.1-45.4-9a163.9,163.9,0,0,1-3.6-22.6c3.6,24.3,56,19.8,56,19.8Z" fill="#1c1c1c" stroke="#000" stroke-linecap="round" stroke-linejoin="round" stroke-width="0.71"/><path d="M148.4,169a12.3,12.3,0,0,0-13.3,0c-8.3,5.1-21.3,15-21.3,26.8,0,17.3,12.1,20.5,27.9,20.5s28-3.2,28-20.5C169.7,184,156.6,174.1,148.4,169Z" fill="#1c1c1c" stroke="#000" stroke-linecap="round" stroke-linejoin="round" stroke-width="0.71"/><path d="M141.7,213c-18.2,0-24.6-4.5-24.6-17.2,0-10.3,12.4-19.5,19.7-24a9.6,9.6,0,0,1,4.9-1.4,9.1,9.1,0,0,1,4.9,1.4c7.4,4.5,19.8,13.7,19.8,24C166.4,208.5,159.9,213,141.7,213Z" fill="#eb3353" stroke="#000" stroke-linecap="round" stroke-linejoin="round" stroke-width="0.71"/><ellipse cx="91.7" cy="233.8" rx="13.9" ry="24" transform="translate(-121.3 100.7) rotate(-36.6)" fill="#1c1c1c" stroke="#000" stroke-linecap="round" stroke-linejoin="round" stroke-width="0.71"/><path d="M100.5,251.5c-5.3,0-12.2-4.6-17.3-11.4-7.2-9.8-7.8-19.9-3.8-22.9a5.7,5.7,0,0,1,3.6-1c5.2,0,12.2,4.5,17.2,11.3a30.9,30.9,0,0,1,6.2,14.5c.5,3.9-.4,7-2.3,8.5A6.1,6.1,0,0,1,100.5,251.5Z" fill="#ba2042" stroke="#000" stroke-linecap="round" stroke-linejoin="round" stroke-width="0.71"/><path d="M87.5,213.6a29.3,29.3,0,0,1,10,6.1,30.2,30.2,0,0,1,19.7-11.3,19.9,19.9,0,0,1-3.3-10.2C98.3,198.8,90.7,208.1,87.5,213.6Z" fill="#1c1c1c" stroke="#000" stroke-linecap="round" stroke-linejoin="round" stroke-width="0.71"/><path d="M120.1,231.5a13.6,13.6,0,0,0-13.6-13.6,13.1,13.1,0,0,0-8,2.7,43.6,43.6,0,0,1,4.4,5c4.8,6.5,7.2,13.5,6.9,19.1A13.5,13.5,0,0,0,120.1,231.5Z" fill="#1c1c1c" stroke="#000" stroke-linecap="round" stroke-linejoin="round" stroke-width="0.71"/><ellipse cx="191.7" cy="233.8" rx="24" ry="13.9" transform="translate(-110.3 248.5) rotate(-53.4)" fill="#1c1c1c" stroke="#000" stroke-linecap="round" stroke-linejoin="round" stroke-width="0.71"/><path d="M183,251.5c5.2,0,12.2-4.6,17.2-11.4,7.3-9.8,7.9-19.9,3.9-22.9a6.1,6.1,0,0,0-3.6-1c-5.3,0-12.2,4.5-17.2,11.3A32.2,32.2,0,0,0,177,242c-.4,3.9.5,7,2.4,8.5A6.1,6.1,0,0,0,183,251.5Z" fill="#ba2042" stroke="#000" stroke-linecap="round" stroke-linejoin="round" stroke-width="0.71"/><path d="M196,213.6a27.5,27.5,0,0,0-10,6.1,30.4,30.4,0,0,0-19.8-11.3,19,19,0,0,0,3.4-10.2C185.1,198.8,192.8,208.1,196,213.6Z" fill="#1c1c1c" stroke="#000" stroke-linecap="round" stroke-linejoin="round" stroke-width="0.71"/><path d="M163.3,231.5A13.6,13.6,0,0,1,185,220.6a43.6,43.6,0,0,0-4.4,5c-4.8,6.5-7.2,13.5-6.9,19.1A13.5,13.5,0,0,1,163.3,231.5Z" fill="#1c1c1c" stroke="#000" stroke-linecap="round" stroke-linejoin="round" stroke-width="0.71"/><path d="M146.9,178.8a8.8,8.8,0,0,1,4.7-1.3l1.9.2a71.2,71.2,0,0,0-7.3-5.1,8.9,8.9,0,0,0-4.7-1.4,8.6,8.6,0,0,0-4.7,1.4c-7.1,4.3-18.9,13.1-18.9,23s3.3,13.7,12.1,15.6c-1.4-2.4-2-5.5-2-9.3C128,192,139.8,183.2,146.9,178.8Z" fill="#72001e"/><path d="M90.1,235c-4.9-6.6-6.6-13.4-5.7-17.7h-.9a5,5,0,0,0-3.3,1c-3.8,2.8-3.2,12.3,3.6,21.4,4.7,6.4,11.2,10.7,16.1,10.7a5.3,5.3,0,0,0,3.4-1,6.7,6.7,0,0,0,2.1-3.8C100.6,245.2,94.5,241,90.1,235Z" fill="#72001e"/><path d="M193.4,235c4.9-6.6,6.5-13.4,5.7-17.7h.9a5.2,5.2,0,0,1,3.3,1c3.8,2.8,3.2,12.3-3.6,21.4-4.7,6.4-11.2,10.7-16.2,10.7a5.2,5.2,0,0,1-3.3-1,5.7,5.7,0,0,1-2.1-3.8C182.9,245.2,188.9,241,193.4,235Z" fill="#72001e"/><path d="M64.8,163.3a163.9,163.9,0,0,0,3.6,22.6,34.8,34.8,0,0,0,5,3,146.6,146.6,0,0,1-2.5-15A17.1,17.1,0,0,1,64.8,163.3Z"/><path d="M115.2,189a32.1,32.1,0,0,1,3.4-5.9s-30.6,2.7-45.7-7.7C80.5,187.2,102.7,189,115.2,189Z"/><path d="M114.8,203.3a20.1,20.1,0,0,1-.9-5.1c-15.6.6-23.2,9.9-26.4,15.4a25.3,25.3,0,0,1,5.5,2.7A29.9,29.9,0,0,1,114.8,203.3Z" fill="#1c1c1c" style="mix-blend-mode:multiply"/><path d="M119.7,235a13.8,13.8,0,0,0-13.2-17.1,13.1,13.1,0,0,0-8,2.7,47.6,47.6,0,0,1,4.1,4.7,13.2,13.2,0,0,1,3.9-.6A13.6,13.6,0,0,1,119.7,235Z"/><path d="M218.6,163.3a150,150,0,0,1-3.5,22.6,34.8,34.8,0,0,1-5,3c1-4.9,1.9-9.9,2.5-15A16.5,16.5,0,0,0,218.6,163.3Z"/><path d="M168.3,189a39.1,39.1,0,0,0-3.4-5.9s30.6,2.7,45.7-7.7C203,187.2,180.8,189,168.3,189Z"/><path d="M168.7,203.3a35.9,35.9,0,0,0,.9-5.1c15.5.6,23.2,9.9,26.4,15.4a23.3,23.3,0,0,0-5.5,2.7A30.1,30.1,0,0,0,168.7,203.3Z" fill="#1c1c1c" style="mix-blend-mode:multiply"/><path d="M163.8,235a13.4,13.4,0,0,1-.5-3.5A13.6,13.6,0,0,1,185,220.6a38,38,0,0,0-4.2,4.7,12.3,12.3,0,0,0-3.9-.6A13.5,13.5,0,0,0,163.8,235Z"/><ellipse cx="141.7" cy="236.7" rx="8.9" ry="14.8" fill="#ba2042" stroke="#000" stroke-linecap="round" stroke-linejoin="round" stroke-width="0.71"/><path d="M140.3,236.7c0-5.6,2-10.4,4.9-12.5a5.6,5.6,0,0,0-3.2-1.1c-4.5,0-8.2,6.1-8.2,13.6s3.7,13.7,8.2,13.7a5.6,5.6,0,0,0,3.2-1.1C142.3,247.2,140.3,242.4,140.3,236.7Z" fill="#72001e"/></g></svg>