<svg xmlns="http://www.w3.org/2000/svg" viewBox="0 0 283.5 283.5"><g style="isolation:isolate"><path d="M64.5,127.7H55.7a16.1,16.1,0,0,0,0,32.2h5C58,148.3,59.9,135.9,64.5,127.7Z" fill="#1c0d0c" stroke="#000" stroke-linecap="round" stroke-linejoin="round" stroke-width="0.8"/><path d="M219,127.7h8.7a16.1,16.1,0,1,1,0,32.2h-5C225.5,148.3,223.6,135.9,219,127.7Z" fill="#1c0d0c" stroke="#000" stroke-linecap="round" stroke-linejoin="round" stroke-width="0.8"/><path d="M102.4,180.4c-11.4,0-20.1-3.4-25.7-9.9s-7.3-13.2-7.3-21.7c0-12.3,5.4-20.1,7.7-20.1h47.7a6.9,6.9,0,0,1,6.9,6.9V167a23.6,23.6,0,0,0-10.7,5.9A26.2,26.2,0,0,1,102.4,180.4Z" fill="#df3d33" stroke="#000" stroke-linecap="round" stroke-linejoin="round" stroke-width="0.8"/><path d="M102.4,170.4c-8.4,0-14.5-2.2-18.1-6.4s-4.9-9.1-4.9-15.2a24.9,24.9,0,0,1,1.9-10.1h33.6a6.8,6.8,0,0,1,6.9,6.8v14.7a28.6,28.6,0,0,0-7.8,5.6A16.2,16.2,0,0,1,102.4,170.4Z" fill="#866261" stroke="#000" stroke-linecap="round" stroke-linejoin="round" stroke-width="0.8"/><path d="M206.4,118.7H77.1c-22.9,0-31.7,71.7,25.3,71.7A36.5,36.5,0,0,0,128,180.1a12.6,12.6,0,0,1,9-3.7h9.5a12.6,12.6,0,0,1,9,3.7,36.3,36.3,0,0,0,25.6,10.3C238.1,190.4,229.3,118.7,206.4,118.7ZM131.7,167a23.6,23.6,0,0,0-10.7,5.9,26.2,26.2,0,0,1-18.6,7.5c-11.4,0-20.1-3.4-25.7-9.9s-7.3-13.2-7.3-21.7c0-12.3,5.4-20.1,7.7-20.1h47.7a6.9,6.9,0,0,1,6.9,6.9Zm75.1,3.5c-5.6,6.5-14.3,9.9-25.7,9.9a26,26,0,0,1-18.6-7.5,23.9,23.9,0,0,0-10.8-5.9V135.6a6.9,6.9,0,0,1,7-6.9h47.7c2.2,0,7.6,7.8,7.6,20.1C214,157.3,211.5,165,206.8,170.5Z" fill="#2b1414" stroke="#000" stroke-linecap="round" stroke-linejoin="round" stroke-width="0.8"/><path d="M181.1,180.4c11.4,0,20.1-3.4,25.7-9.9s7.2-13.2,7.2-21.7c0-12.3-5.4-20.1-7.6-20.1H158.7a6.9,6.9,0,0,0-7,6.9V167a23.9,23.9,0,0,1,10.8,5.9A26,26,0,0,0,181.1,180.4Z" fill="#df3d33" stroke="#000" stroke-linecap="round" stroke-linejoin="round" stroke-width="0.8"/><path d="M181.1,170.4c8.4,0,14.4-2.2,18.1-6.4s4.8-9.1,4.8-15.2a24.9,24.9,0,0,0-1.9-10.1H168.5a6.8,6.8,0,0,0-6.8,6.8v14.7a29.8,29.8,0,0,1,7.7,5.6A16.6,16.6,0,0,0,181.1,170.4Z" fill="#866261" stroke="#000" stroke-linecap="round" stroke-linejoin="round" stroke-width="0.8"/><rect x="131.7" y="157.7" width="20" height="9.01" fill="#1c0d0c" stroke="#000" stroke-linecap="round" stroke-linejoin="round" stroke-width="0.8"/><path d="M94.4,158.9c-3-3.5-4.6-8.5-4.6-14.3a25.9,25.9,0,0,1,.5-5.1H82.2a24.9,24.9,0,0,0-1.8,9.6c0,5.8,1.6,10.9,4.6,14.3s9.2,6.1,17.1,6.1a15.2,15.2,0,0,0,11-4.3l.3-.3h-1.9C103.6,165,97.8,162.9,94.4,158.9Z" fill="#462625"/><path d="M189.1,158.9c2.9-3.5,4.5-8.5,4.5-14.3a26.4,26.4,0,0,0-.4-5.1h8.1a24.9,24.9,0,0,1,1.8,9.6c0,5.8-1.6,10.9-4.6,14.3s-9.2,6.1-17.1,6.1a15.2,15.2,0,0,1-11-4.3l-.3-.3H172C179.9,165,185.6,162.9,189.1,158.9Z" fill="#462625"/><path d="M84.2,168.1c-4.7-5.5-7.2-13.2-7.2-21.7s2.4-14.5,4.7-17.7H77.1c-2.3,0-7.7,7.8-7.7,20.1,0,8.5,2.6,16.2,7.3,21.7s14.3,9.9,25.7,9.9a26.6,26.6,0,0,0,12-2.8,31.4,31.4,0,0,1-4.5.4C98.5,178,89.8,174.6,84.2,168.1Z" fill="#df3d33" style="mix-blend-mode:multiply"/><path d="M199.3,168.1c4.6-5.5,7.2-13.2,7.2-21.7s-2.4-14.5-4.7-17.7h4.6c2.2,0,7.6,7.8,7.6,20.1,0,8.5-2.5,16.2-7.2,21.7s-14.3,9.9-25.7,9.9a26.2,26.2,0,0,1-12-2.8,31.4,31.4,0,0,0,4.5.4C185,178,193.6,174.6,199.3,168.1Z" fill="#df3d33" style="mix-blend-mode:multiply"/><path d="M47,146.1a16.2,16.2,0,0,1,16.1-16.2h.3a22.6,22.6,0,0,1,1.1-2.2H55.7a16.1,16.1,0,0,0-.8,32.2A16,16,0,0,1,47,146.1Z"/><path d="M236.4,146.1a16.2,16.2,0,0,0-16.1-16.2h-.2c-.4-.7-.7-1.5-1.1-2.2h8.7a16.1,16.1,0,0,1,.8,32.2A15.8,15.8,0,0,0,236.4,146.1Z"/><g opacity="0.51"><path d="M69.5,150c0-.4-.1-.8-.1-1.2,0-9.1,3-15.8,5.5-18.6,3.1-5.1,7.3-8.4,12.2-8.4H214.2a11.9,11.9,0,0,0-7.8-3.1H77.1c-21.3,0-30.4,62.2,14.5,70.7C74.9,181.8,68.9,165,69.5,150Z"/><path d="M156.5,179.6h-1.6l.6.5a36.1,36.1,0,0,0,19.5,9.8,37,37,0,0,1-9.5-6.7A13.1,13.1,0,0,0,156.5,179.6Z"/></g><circle cx="52.1" cy="143.8" r="4.5" fill="#bfbfbf" stroke="#000" stroke-miterlimit="10" stroke-width="0.8"/><circle cx="231.4" cy="143.8" r="4.5" fill="#bfbfbf" stroke="#000" stroke-miterlimit="10" stroke-width="0.8"/></g></svg>