<svg xmlns="http://www.w3.org/2000/svg" viewBox="0 0 283.5 283.5"><path d="M65,122.2h41.6a0,0,0,0,1,0,0v11a0,0,0,0,1,0,0H65a5.5,5.5,0,0,1-5.5-5.5v0a5.5,5.5,0,0,1,5.5-5.5Z" fill="#181818" stroke="#000" stroke-linecap="round" stroke-linejoin="round" stroke-width="0.71"/><path d="M72.2,206.2a6.7,6.7,0,0,1-4.9-2.1,7,7,0,0,1-.1-9.9L191.9,67.7A7.1,7.1,0,0,1,202,77.6L77.3,204.1A7.3,7.3,0,0,1,72.2,206.2Z" fill="#181818" stroke="#000" stroke-linecap="round" stroke-linejoin="round" stroke-width="0.71"/><circle cx="115.7" cy="145.1" r="27.5" fill="#181818" stroke="#000" stroke-linecap="round" stroke-linejoin="round" stroke-width="0.71"/><path d="M104.1,145.1a27.5,27.5,0,0,1,19.6-26.4,29.7,29.7,0,0,0-8-1.1,27.6,27.6,0,0,0,0,55.1,29.7,29.7,0,0,0,8-1.2A27.5,27.5,0,0,1,104.1,145.1Z"/></svg>