<svg xmlns="http://www.w3.org/2000/svg" viewBox="0 0 283.5 283.5"><path d="M39.6,138.4v16.5a18.2,18.2,0,0,0,.8,5.2H243.1a18.1,18.1,0,0,0,.7-5.2V138.4a18.3,18.3,0,0,0-.7-5.3H40.4A18.4,18.4,0,0,0,39.6,138.4Z" fill="#615f4b" stroke="#000" stroke-linecap="round" stroke-linejoin="round" stroke-width="0.86"/><path d="M228.4,121H55c-6.8,0-12.7,5.1-14.6,12.1H243.1C241.1,126.1,235.3,121,228.4,121Z" fill="#d5d5d5" stroke="#000" stroke-linecap="round" stroke-linejoin="round" stroke-width="0.86"/><path d="M55,172.2H228.4c6.9,0,12.7-5.1,14.7-12.1H40.4C42.3,167.1,48.2,172.2,55,172.2Z" fill="#d5d5d5" stroke="#000" stroke-linecap="round" stroke-linejoin="round" stroke-width="0.86"/><rect x="47.8" y="133.1" width="12.5" height="26.95" fill="#a5a37f" stroke="#000" stroke-linecap="round" stroke-linejoin="round" stroke-width="0.86"/><rect x="60.4" y="133.1" width="12.5" height="26.95" fill="none" stroke="#000" stroke-linecap="round" stroke-linejoin="round" stroke-width="0.86"/><rect x="72.9" y="133.1" width="12.5" height="26.95" fill="#a5a37f" stroke="#000" stroke-linecap="round" stroke-linejoin="round" stroke-width="0.86"/><rect x="85.4" y="133.1" width="12.5" height="26.95" fill="none" stroke="#000" stroke-linecap="round" stroke-linejoin="round" stroke-width="0.86"/><rect x="97.9" y="133.1" width="12.5" height="26.95" fill="#a5a37f" stroke="#000" stroke-linecap="round" stroke-linejoin="round" stroke-width="0.86"/><rect x="110.4" y="133.1" width="12.5" height="26.95" fill="none" stroke="#000" stroke-linecap="round" stroke-linejoin="round" stroke-width="0.86"/><rect x="123" y="133.1" width="12.5" height="26.95" fill="#a5a37f" stroke="#000" stroke-linecap="round" stroke-linejoin="round" stroke-width="0.86"/><rect x="135.5" y="133.1" width="12.5" height="26.95" fill="none" stroke="#000" stroke-linecap="round" stroke-linejoin="round" stroke-width="0.86"/><rect x="148" y="133.1" width="12.5" height="26.95" fill="#a5a37f" stroke="#000" stroke-linecap="round" stroke-linejoin="round" stroke-width="0.86"/><rect x="160.5" y="133.1" width="12.5" height="26.95" fill="none" stroke="#000" stroke-linecap="round" stroke-linejoin="round" stroke-width="0.86"/><rect x="173" y="133.1" width="12.5" height="26.95" fill="#a5a37f" stroke="#000" stroke-linecap="round" stroke-linejoin="round" stroke-width="0.86"/><rect x="185.5" y="133.1" width="12.5" height="26.95" fill="none" stroke="#000" stroke-linecap="round" stroke-linejoin="round" stroke-width="0.86"/><rect x="198.1" y="133.1" width="12.5" height="26.95" fill="#a5a37f" stroke="#000" stroke-linecap="round" stroke-linejoin="round" stroke-width="0.86"/><rect x="210.6" y="133.1" width="12.5" height="26.95" fill="none" stroke="#000" stroke-linecap="round" stroke-linejoin="round" stroke-width="0.86"/><rect x="223.1" y="133.1" width="12.5" height="26.95" fill="#a5a37f" stroke="#000" stroke-linecap="round" stroke-linejoin="round" stroke-width="0.86"/><path d="M59.5,124.9H198.8a11.7,11.7,0,0,1,2.6.4,11.5,11.5,0,0,0-7.7-3.1H54.5c-5.5,0-10.2,4.1-11.8,9.7h6.1A12.3,12.3,0,0,1,59.5,124.9Z" fill="#8d8d8d"/><path d="M224,168.2H87.4a10.9,10.9,0,0,1-2.6-.3,10.8,10.8,0,0,0,7.5,3H229c5.4,0,10-4,11.5-9.5h-6A11.8,11.8,0,0,1,224,168.2Z" fill="#8d8d8d"/><rect x="49.3" y="134.1" width="3.8" height="25.11" fill="#6b683f"/><rect x="61.8" y="134.1" width="3.8" height="25.11" fill="#3f3d25"/><rect x="74.3" y="134.1" width="3.8" height="25.11" fill="#6b683f"/><rect x="86.8" y="134.1" width="3.8" height="25.11" fill="#3f3d25"/><rect x="99.3" y="134.1" width="3.8" height="25.11" fill="#6b683f"/><rect x="111.9" y="134.1" width="3.8" height="25.11" fill="#3f3d25"/><rect x="124.4" y="134.1" width="3.8" height="25.11" fill="#6b683f"/><rect x="136.9" y="134.1" width="3.8" height="25.11" fill="#3f3d25"/><rect x="149.4" y="134.1" width="3.8" height="25.11" fill="#6b683f"/><rect x="161.9" y="134.1" width="3.8" height="25.11" fill="#3f3d25"/><rect x="174.4" y="134.1" width="3.8" height="25.11" fill="#6b683f"/><rect x="187" y="134.1" width="3.8" height="25.11" fill="#3f3d25"/><rect x="199.5" y="134.1" width="3.8" height="25.11" fill="#6b683f"/><rect x="212" y="134.1" width="3.8" height="25.11" fill="#3f3d25"/><rect x="224.5" y="134.1" width="3.8" height="25.11" fill="#6b683f"/><rect x="237" y="134.1" width="3.8" height="25.11" fill="#3f3d25"/></svg>