<svg xmlns="http://www.w3.org/2000/svg" viewBox="0 0 283.5 283.5"><path d="M82.3,130.4h46.2a4.1,4.1,0,0,1,4.1,4.2v25.3a16,16,0,0,1-4.1,10.7l-.3.3a15.7,15.7,0,0,1-11.7,5.1H94a16.2,16.2,0,0,1-11.1-4.4h0a16.1,16.1,0,0,1-4.7-11.4V134.6A4.1,4.1,0,0,1,82.3,130.4Z" fill="#181818" stroke="#000" stroke-linecap="round" stroke-linejoin="round" stroke-width="0.71"/><path d="M94,167.4a7,7,0,0,1-5-2,7.4,7.4,0,0,1-2.2-5.2V139H124v20.9a7.5,7.5,0,0,1-1.9,4.9l-.3.3a7.4,7.4,0,0,1-5.3,2.3Z" fill="#ba4299" stroke="#000" stroke-miterlimit="10" stroke-width="0.71"/><path d="M155,130.4h46.2a4.1,4.1,0,0,1,4.1,4.2v25.3a16,16,0,0,1-4.1,10.7l-.3.3a15.7,15.7,0,0,1-11.7,5.1H166.7a15.9,15.9,0,0,1-11-4.4h0a15.8,15.8,0,0,1-4.8-11.4V134.6A4.1,4.1,0,0,1,155,130.4Z" fill="#181818" stroke="#000" stroke-linecap="round" stroke-linejoin="round" stroke-width="0.71"/><path d="M166.7,167.4a7,7,0,0,1-5-2,7.4,7.4,0,0,1-2.2-5.2V139h37.2v20.9a7.5,7.5,0,0,1-1.9,4.9l-.3.3a7.4,7.4,0,0,1-5.3,2.3Z" fill="#ba4299" stroke="#000" stroke-miterlimit="10" stroke-width="0.71"/><rect x="132.6" y="139" width="18.2" height="9.62" fill="#181818" stroke="#000" stroke-linecap="round" stroke-linejoin="round" stroke-width="0.71"/><path d="M66.1,139H78.2a0,0,0,0,1,0,0v9.6a0,0,0,0,1,0,0H66.1a4.8,4.8,0,0,1-4.8-4.8v0a4.8,4.8,0,0,1,4.8-4.8Z" fill="#181818" stroke="#000" stroke-linecap="round" stroke-linejoin="round" stroke-width="0.71"/><path d="M210.1,139h12.1a0,0,0,0,1,0,0v9.6a0,0,0,0,1,0,0H210.1a4.8,4.8,0,0,1-4.8-4.8v0A4.8,4.8,0,0,1,210.1,139Z" transform="translate(427.5 287.7) rotate(-180)" fill="#181818" stroke="#000" stroke-linecap="round" stroke-linejoin="round" stroke-width="0.71"/><path d="M98.4,159.4a6.9,6.9,0,0,1-2.1-4.9V139.7H87.7v20.2a7,7,0,0,0,2,4.9,7.1,7.1,0,0,0,4.8,1.9H116a7.1,7.1,0,0,0,6.8-5.3H103.2A6.7,6.7,0,0,1,98.4,159.4Z" fill="#88115c"/><path d="M171.1,159.4a6.9,6.9,0,0,1-2.1-4.9V139.7h-8.6v20.2a7,7,0,0,0,2,4.9,7.1,7.1,0,0,0,4.8,1.9h21.5a7.1,7.1,0,0,0,6.8-5.3H175.9A6.7,6.7,0,0,1,171.1,159.4Z" fill="#88115c"/></svg>