<svg xmlns="http://www.w3.org/2000/svg" viewBox="0 0 283.5 283.5"><path d="M210.9,119.3H72.6a24.7,24.7,0,1,0,0,49.3H210.9a24.7,24.7,0,0,0,0-49.3Z" fill="#181818" stroke="#000" stroke-linecap="round" stroke-linejoin="round" stroke-width="0.77"/><path d="M210.9,160.9H72.6a17,17,0,1,1,0-34H210.9a17,17,0,0,1,0,34Z" fill="#4d7e46" stroke="#000" stroke-miterlimit="10" stroke-width="0.77"/><circle cx="99.3" cy="143.9" r="21.5" fill="#6cd149" stroke="#000" stroke-miterlimit="10" stroke-width="0.77"/><circle cx="184.2" cy="143.9" r="21.5" fill="#6cd149" stroke="#000" stroke-miterlimit="10" stroke-width="0.77"/><path d="M171,126.9H112.4a21.7,21.7,0,0,1,8,13h42.7A21.6,21.6,0,0,1,171,126.9Z" fill="#392456" stroke="#000" stroke-miterlimit="10" stroke-width="0.77"/><path d="M171,160.9H112.4a21.2,21.2,0,0,0,8-13h42.7A21.1,21.1,0,0,0,171,160.9Z" fill="#392456" stroke="#000" stroke-miterlimit="10" stroke-width="0.77"/><circle cx="66.8" cy="136.8" r="4" fill="#392456" stroke="#000" stroke-miterlimit="10" stroke-width="0.77"/><circle cx="66.8" cy="151.1" r="4" fill="#392456" stroke="#000" stroke-miterlimit="10" stroke-width="0.77"/><circle cx="216.7" cy="136.8" r="4" fill="#392456" stroke="#000" stroke-miterlimit="10" stroke-width="0.77"/><circle cx="216.7" cy="151.1" r="4" fill="#392456" stroke="#000" stroke-miterlimit="10" stroke-width="0.77"/><rect x="131.9" y="139.9" width="19.6" height="7.99" fill="#181818" stroke="#000" stroke-linecap="round" stroke-linejoin="round" stroke-width="0.77"/><path d="M174.3,143.9a20.7,20.7,0,0,1,15.5-20,20.2,20.2,0,0,0-5.4-.8,20.8,20.8,0,0,0,0,41.6,20,20,0,0,0,5.4-.7A20.8,20.8,0,0,1,174.3,143.9Z" fill="#268e11"/><path d="M89.4,143.9a20.7,20.7,0,0,1,15.4-20,18.9,18.9,0,0,0-5.3-.8,20.8,20.8,0,0,0,0,41.6,18.8,18.8,0,0,0,5.3-.7A20.8,20.8,0,0,1,89.4,143.9Z" fill="#268e11"/><path d="M122.1,131.3h41.4a22.8,22.8,0,0,1,3.8-3.8H113.7a19.4,19.4,0,0,1,7.3,11.9h7.2A19.6,19.6,0,0,0,122.1,131.3Z" fill="#24153b"/><path d="M161.2,156.5H120.3a22.2,22.2,0,0,1-3.7,3.8h52.9a19.2,19.2,0,0,1-7.2-11.7h-7.1A19.4,19.4,0,0,0,161.2,156.5Z" fill="#24153b"/></svg>