<svg xmlns="http://www.w3.org/2000/svg" viewBox="0 0 283.5 283.5"><path d="M67.9,120.7h58.5a15.7,15.7,0,0,1,11.2,4.7h0a15.8,15.8,0,0,1,4.7,11.2v23a15.8,15.8,0,0,1-4.7,11.2l-.9.9a15.7,15.7,0,0,1-11.2,4.6H97.4a11.2,11.2,0,0,1-11.2-11.1h0a14.8,14.8,0,0,0-14.8-14.8H67.9a7.6,7.6,0,0,1-7.6-7.5V128.3a7.6,7.6,0,0,1,7.6-7.6Z" fill="#62749b" stroke="#000" stroke-miterlimit="10" stroke-width="0.71" opacity="0.5"/><circle cx="108.5" cy="153.2" r="15.5" fill="#f0fd53" stroke="#000" stroke-miterlimit="10" stroke-width="0.71"/><circle cx="108.5" cy="153.2" r="6.7" fill="#62749b" stroke="#000" stroke-miterlimit="10" stroke-width="0.71"/><path d="M86.2,165.2a14.8,14.8,0,0,0-14.8-14.8H67.9a7.6,7.6,0,0,1-7.6-7.5V128.3a17.6,17.6,0,0,0-9.2,15.5v42a8,8,0,0,0,7.3,8.1,7.8,7.8,0,0,0,8.4-7.8v-8.3a7.3,7.3,0,0,1,7.2-7.3H87.6a10.8,10.8,0,0,1-1.4-5.3Z" fill="#c6563d" stroke="#000" stroke-miterlimit="10" stroke-width="0.71"/><path d="M63.2,186.1a7.2,7.2,0,0,1-6.5-7.2c.3-3.2-.8-45.2.8-47.2a16,16,0,0,0-5.5,12v42.2a7,7,0,1,0,13.9-.2A8.4,8.4,0,0,1,63.2,186.1Z" fill="#932f1f"/><path d="M85.3,162.8h-6a6.5,6.5,0,0,0-6.4,7.2c.7-.4,12.7-.1,13.8-.2C85.4,167.8,85.6,165.1,85.3,162.8Z" fill="#932f1f"/><path d="M84.1,156.5a13.7,13.7,0,0,1,3.3,8.8h0a10.3,10.3,0,0,0,8.4,10.2,10,10,0,0,1-1.8-5.9A13.6,13.6,0,0,0,84.1,156.5Z" fill="#43526d"/><path d="M67.8,133.1a7.1,7.1,0,0,1,7.1-7.2h55.4a16.2,16.2,0,0,1,4.4.7l-.6-.7a15,15,0,0,0-10.6-4.4H68.2a7.2,7.2,0,0,0-7.2,7.2v13.8a7.1,7.1,0,0,0,7.2,7.1h.2a6.6,6.6,0,0,1-.6-2.7Z" fill="#43526d"/><path d="M100,155.5a14.6,14.6,0,0,1,14.6-14.6h1.7a14.8,14.8,0,0,0-8-2.4,14.6,14.6,0,0,0-1.7,29.1A14.5,14.5,0,0,1,100,155.5Z" fill="#9b9e23"/><path d="M113,149.3h.1a6.4,6.4,0,0,0-4.7-2.2,6.1,6.1,0,0,0-6.1,6.1,6,6,0,0,0,6.1,6,5.6,5.6,0,0,1-1.4-3.8A6,6,0,0,1,113,149.3Z" fill="#394966"/></svg>