<svg xmlns="http://www.w3.org/2000/svg" viewBox="0 0 283.5 283.5"><path d="M206.4,116.5H158.7a6.4,6.4,0,0,0-6.4,6.4v14.6H132.2V122.2a6.1,6.1,0,0,0-.5-1.8c-.1-.2-.1-.4-.2-.6a6.9,6.9,0,0,0-2.6-2.5l-.6-.3-1.8-.5H78.1a6.6,6.6,0,0,0-5.6,3.3l-.3.6a12.1,12.1,0,0,0-.5,1.8v15.3h-25a5.4,5.4,0,0,0-5.4,5.4v18.5a5.4,5.4,0,1,0,10.8,0v-8.5a5.4,5.4,0,0,1,5.4-5.4H71.7v23.1h0a6.4,6.4,0,0,0,1.7,4.3l.4.5.6.4a6.1,6.1,0,0,0,3.7,1.2h47.7a6.6,6.6,0,0,0,5-2.3l.3-.5a6.4,6.4,0,0,0,1.1-3.6h0V157.5h20.1v13.1a6.4,6.4,0,0,0,6.4,6.4h47.7a6.4,6.4,0,0,0,6.4-6.4V122.9A6.4,6.4,0,0,0,206.4,116.5Z" fill="#f2a7f6" stroke="#000" stroke-linecap="round" stroke-linejoin="round" stroke-width="0.71"/><rect x="81.9" y="126.7" width="40" height="40.05" rx="6.4" fill="#fff" stroke="#000" stroke-linecap="round" stroke-linejoin="round" stroke-width="0.71"/><rect x="102" y="126.7" width="20" height="40.05" rx="6.4" stroke="#000" stroke-linecap="round" stroke-linejoin="round" stroke-width="0.71"/><rect x="162.5" y="126.7" width="40" height="40.05" rx="6.4" fill="#fff" stroke="#000" stroke-linecap="round" stroke-linejoin="round" stroke-width="0.71"/><rect x="182.5" y="126.7" width="20" height="40.05" rx="6.4" stroke="#000" stroke-linecap="round" stroke-linejoin="round" stroke-width="0.71"/></svg>