<svg xmlns="http://www.w3.org/2000/svg" viewBox="0 0 283.5 283.5"><path d="M71,116.8H60.7a10.3,10.3,0,0,0-10.3,10.3h0a10.3,10.3,0,0,0,10.3,10.3h9.6A79.9,79.9,0,0,1,71,116.8Z" fill="#908771" stroke="#000" stroke-linecap="round" stroke-linejoin="round" stroke-width="0.77"/><path d="M212.5,116.8h10.2A10.3,10.3,0,0,1,233,127.1h0a10.3,10.3,0,0,1-10.3,10.3h-9.5A79.9,79.9,0,0,0,212.5,116.8Z" fill="#908771" stroke="#000" stroke-linecap="round" stroke-linejoin="round" stroke-width="0.77"/><path d="M212.5,116.8c-34.5-5.1-50.5,5.7-57.7,19.5H128.6c-7.1-13.8-23.1-24.6-57.6-19.5,0,0-14.3,72.7,61.2,59.8a74,74,0,0,0,1.6-19.8h15.9a74,74,0,0,0,1.6,19.8C226.8,189.5,212.5,116.8,212.5,116.8Z" fill="#fdf3d9" stroke="#000" stroke-linecap="round" stroke-linejoin="round" stroke-width="0.77"/><path d="M82.4,127.9s-9,45.8,38.6,37.7C121,165.6,132.1,120.5,82.4,127.9Z" fill="#ef7f3e" stroke="#000" stroke-linecap="round" stroke-linejoin="round" stroke-width="0.77"/><path d="M201,127.9s9.1,45.8-38.5,37.7C162.5,165.6,151.4,120.5,201,127.9Z" fill="#ef7f3e" stroke="#000" stroke-linecap="round" stroke-linejoin="round" stroke-width="0.77"/><path d="M189.1,128.3a73.3,73.3,0,0,1,10.8.8s8.4,43-36.2,35.3a18.1,18.1,0,0,1-.4-2C190.8,161.9,190,136.1,189.1,128.3Z" fill="#e65a23"/><path d="M94.4,128.3a72.3,72.3,0,0,0-10.8.8s-8.5,43,36.2,35.3a18.1,18.1,0,0,0,.4-2C92.6,161.9,93.5,136.1,94.4,128.3Z" fill="#e65a23"/><path d="M157.4,161.6h-7.1a67.8,67.8,0,0,0,1.5,14.4l6.5.9A69.6,69.6,0,0,1,157.4,161.6Z" fill="#c7b790"/><path d="M138.8,140.7h23.9c6-12.4,19-22.4,46-19.8-.2-1.8-.4-2.8-.4-2.8-31.5-5-46.1,5.5-52.6,19H136.8c.7,1.2,1.4,2.4,2,3.6Z" fill="#c7b790"/><path d="M79.3,121.3c15.4-2.3,26.9-1.3,35.5,1.8-9-5.6-22.6-8.4-42.9-5.4,0,0-8.6,43.9,24.1,55.6C72,158.2,79.3,121.3,79.3,121.3Z" fill="#c7b790"/><path d="M56.8,130.6a9.2,9.2,0,0,1,9.2-9.2h3.4c.3-2.2.5-3.5.5-3.5H60.7a9.2,9.2,0,0,0-2.1,18.2,9.8,9.8,0,0,1-1.8-5.5Z" fill="#6d634e"/><path d="M226.7,130.6a9.2,9.2,0,0,0-9.2-9.2H214a28.8,28.8,0,0,0-.5-3.5h9.2a9.2,9.2,0,0,1,2.1,18.2,9.2,9.2,0,0,0,1.9-5.5Z" fill="#6d634e"/></svg>