<svg xmlns="http://www.w3.org/2000/svg" viewBox="0 0 283.5 283.5"><g style="isolation:isolate"><path d="M213.9,99.9H69.5a29.9,29.9,0,0,0-29.9,29.9v28.3A29.9,29.9,0,0,0,69.5,188H213.9a29.9,29.9,0,0,0,29.9-29.9V129.8A29.9,29.9,0,0,0,213.9,99.9Zm24,58.2a24,24,0,0,1-24,24H69.5a24.1,24.1,0,0,1-24-24V129.8a24,24,0,0,1,24-24H213.9a23.9,23.9,0,0,1,24,24Z" fill="#222033" stroke="#000" stroke-linecap="round" stroke-linejoin="round" stroke-width="0.87"/><rect x="103.6" y="47.7" width="76.3" height="192.4" rx="24" transform="translate(285.7 2.2) rotate(90)" fill="#47466a" stroke="#000" stroke-linecap="round" stroke-linejoin="round" stroke-width="0.87"/><polygon points="141.7 126.7 108.7 143.9 141.7 161.2 174.8 143.9 141.7 126.7" fill="#31304f" stroke="#000" stroke-linecap="round" stroke-linejoin="round" stroke-width="0.87"/><path d="M108.7,105.8h66.1a0,0,0,0,1,0,0v0A10.2,10.2,0,0,1,164.6,116H118.9a10.2,10.2,0,0,1-10.2-10.2v0a0,0,0,0,1,0,0Z" fill="#31304f" stroke="#000" stroke-linecap="round" stroke-linejoin="round" stroke-width="0.87"/><path d="M213.9,172.5H69.5a24.1,24.1,0,0,1-24-24v9.6a24.1,24.1,0,0,0,24,24H213.9a24,24,0,0,0,24-24v-9.6A24,24,0,0,1,213.9,172.5Z" fill="#47466a" stroke="#000" stroke-linecap="round" stroke-linejoin="round" stroke-width="0.87" style="mix-blend-mode:multiply"/><circle cx="84.8" cy="143.9" r="12.2" fill="#222033"/><circle cx="84.8" cy="143.9" r="7.2" fill="#7bcbe1" stroke="#000" stroke-linecap="round" stroke-linejoin="round" stroke-width="0.87"/><polygon points="146.2 132.6 139.8 129.3 111.8 143.9 139.8 158.6 146.2 155.2 124.6 143.9 146.2 132.6" fill="#272742"/><rect x="103.6" y="47.7" width="76.3" height="192.4" rx="24" transform="translate(285.7 2.2) rotate(90)" fill="none" stroke="#000" stroke-linecap="round" stroke-linejoin="round" stroke-width="0.87"/><path d="M213.9,105.8H174.8A10.2,10.2,0,0,1,164.6,116H141.7v10.7h0l33.1,17.2-33.1,17.3h0v11.3h72.2a24,24,0,0,0,24-24V129.8A23.9,23.9,0,0,0,213.9,105.8Z" fill="#0f0e36"/><path d="M213.9,172.5H69.5a24.1,24.1,0,0,1-24-24v9.6a24.1,24.1,0,0,0,24,24H213.9a24,24,0,0,0,24-24v-9.6A24,24,0,0,1,213.9,172.5Z" fill="none" stroke="#000" stroke-linecap="round" stroke-linejoin="round" stroke-width="0.87" style="mix-blend-mode:multiply"/><polygon points="141.7 126.7 108.7 143.9 141.7 161.2 174.8 143.9 141.7 126.7" fill="none" stroke="#000" stroke-linecap="round" stroke-linejoin="round" stroke-width="0.87"/><circle cx="198.6" cy="143.9" r="12.2" fill="#222033"/><circle cx="198.6" cy="143.9" r="7.2" fill="#7bcbe1" stroke="#000" stroke-linecap="round" stroke-linejoin="round" stroke-width="0.87"/></g></svg>