<svg xmlns="http://www.w3.org/2000/svg" viewBox="0 0 283.5 283.5"><circle cx="105.3" cy="145.1" r="30.8" fill="#181818" stroke="#000" stroke-linecap="round" stroke-linejoin="round" stroke-width="0.88"/><circle cx="105.3" cy="145.1" r="25.6" fill="#2f2f2f" stroke="#000" stroke-linecap="round" stroke-linejoin="round" stroke-width="0.88"/><path d="M93.3,141.3a25.6,25.6,0,0,1,12.2-21.8h-.2a25.6,25.6,0,1,0,13.4,47.4A25.6,25.6,0,0,1,93.3,141.3Z"/><circle cx="105.3" cy="145.1" r="10.3" fill="red" stroke="#000" stroke-linecap="round" stroke-linejoin="round" stroke-width="0.88"/><circle cx="178.1" cy="145.1" r="30.8" fill="#181818" stroke="#000" stroke-linecap="round" stroke-linejoin="round" stroke-width="0.88"/><circle cx="178.1" cy="145.1" r="25.6" fill="#2f2f2f" stroke="#000" stroke-linecap="round" stroke-linejoin="round" stroke-width="0.88"/><path d="M190.1,141.3a25.4,25.4,0,0,0-12.2-21.8h.2a25.6,25.6,0,0,1,0,51.2,24.9,24.9,0,0,1-13.3-3.8A25.5,25.5,0,0,0,190.1,141.3Z"/><circle cx="178.1" cy="145.1" r="10.3" fill="red" stroke="#000" stroke-linecap="round" stroke-linejoin="round" stroke-width="0.88"/></svg>