<svg xmlns="http://www.w3.org/2000/svg" viewBox="0 0 283.5 283.5"><path d="M193.3,96.3H90.1c-29.1,0-50.5,23-50.5,48.8s23.6,46.5,51.1,46.5,35.9-19.1,35.9-19.1h30.3s8.4,19.1,35.9,19.1,51-20.7,51-46.5S222.5,96.3,193.3,96.3Z" fill="#222033" stroke="#000" stroke-linecap="round" stroke-linejoin="round" stroke-width="0.94"/><path d="M242.6,134.3H173.9a5,5,0,0,0-5,5v.9a5.1,5.1,0,0,1-5.1,5.1H119.7a5.1,5.1,0,0,1-5.1-5.1v-.9a5,5,0,0,0-5.1-5H40.9a43.5,43.5,0,0,0-1.2,9.6H99.5a5.1,5.1,0,0,1,5.1,5.1,5,5,0,0,0,5,5.1h64.2a5.1,5.1,0,0,0,5.1-5.1,5.1,5.1,0,0,1,5.1-5.1h59.8A50.4,50.4,0,0,0,242.6,134.3Z" stroke="#000" stroke-linecap="round" stroke-linejoin="round" stroke-width="0.94"/><rect x="62" y="158" width="29.2" height="10.38" rx="5.2" transform="translate(114 -13.2) rotate(37.1)" fill="#e03025" stroke="#000" stroke-linecap="round" stroke-linejoin="round" stroke-width="0.94"/><path d="M192.8,184.5c-27.5,0-35.9-19.1-35.9-19.1H126.6s-8.4,19.1-35.9,19.1-48.9-18.9-50.9-43.1c-.1,1.2-.2,2.4-.2,3.7,0,25.8,23.6,46.5,51.1,46.5s35.9-19.1,35.9-19.1h30.3s8.4,19.1,35.9,19.1,51-20.7,51-46.5c0-1.3,0-2.5-.1-3.7C241.7,165.6,219,184.5,192.8,184.5Z" fill="#15131a" stroke="#000" stroke-linecap="round" stroke-linejoin="round" stroke-width="0.94"/><path d="M123.4,109.7a4,4,0,0,1,4.1-4H156a4,4,0,0,1,4,4,4.1,4.1,0,0,0,4.1,4.1h68a50.3,50.3,0,0,0-38.8-17.5H90.1a50.6,50.6,0,0,0-38.8,17.5h68A4.1,4.1,0,0,0,123.4,109.7Z" fill="#15131a" stroke="#000" stroke-linecap="round" stroke-linejoin="round" stroke-width="0.94"/><circle cx="128.8" cy="129.2" r="6.6" fill="#e03025" stroke="#000" stroke-linecap="round" stroke-linejoin="round" stroke-width="0.94"/><rect x="192.2" y="158" width="29.2" height="10.38" rx="5.2" transform="translate(470.3 168.4) rotate(142.9)" fill="#e03025" stroke="#000" stroke-linecap="round" stroke-linejoin="round" stroke-width="0.94"/><circle cx="154.7" cy="129.2" r="6.6" fill="#e03025" stroke="#000" stroke-linecap="round" stroke-linejoin="round" stroke-width="0.94"/></svg>