<svg xmlns="http://www.w3.org/2000/svg" viewBox="0 0 283.5 283.5"><path d="M68.3,139.6H85.4a0,0,0,0,1,0,0V154a0,0,0,0,1,0,0H68.3a7.2,7.2,0,0,1-7.2-7.2v0A7.2,7.2,0,0,1,68.3,139.6Z" fill="#1f1e1d" stroke="#000" stroke-linecap="round" stroke-linejoin="round" stroke-width="0.71"/><path d="M205.3,139.6h17.1a0,0,0,0,1,0,0V154a0,0,0,0,1,0,0H205.3a7.2,7.2,0,0,1-7.2-7.2v0A7.2,7.2,0,0,1,205.3,139.6Z" transform="translate(420.5 293.6) rotate(-180)" fill="#1f1e1d" stroke="#000" stroke-linecap="round" stroke-linejoin="round" stroke-width="0.71"/><path d="M136.2,151.5a28,28,0,0,1-3,8.7h17.1a25.7,25.7,0,0,1-3-8.7Z" fill="#1f1e1d" stroke="#000" stroke-linecap="round" stroke-linejoin="round" stroke-width="0.71"/><path d="M147.3,142.1a27,27,0,0,1,3-8.8H133.2a29.6,29.6,0,0,1,3,8.8Z" fill="#1f1e1d" stroke="#000" stroke-linecap="round" stroke-linejoin="round" stroke-width="0.71"/><path d="M147.3,142.1H136.2a27.8,27.8,0,0,1,0,9.4h11.1a27.8,27.8,0,0,1,0-9.4Z" stroke="#000" stroke-linecap="round" stroke-linejoin="round" stroke-width="0.71"/><ellipse cx="108.6" cy="146.8" rx="28" ry="34.3" fill="#0d0d0d" stroke="#000" stroke-linecap="round" stroke-linejoin="round" stroke-width="0.71"/><ellipse cx="174.8" cy="146.8" rx="28" ry="34.3" fill="#0d0d0d" stroke="#000" stroke-linecap="round" stroke-linejoin="round" stroke-width="0.71"/><circle cx="108.6" cy="146.8" r="28" fill="#181818" stroke="#000" stroke-linecap="round" stroke-linejoin="round" stroke-width="0.71"/><circle cx="108.6" cy="146.8" r="23.3" fill="#2f2f2f" stroke="#000" stroke-linecap="round" stroke-linejoin="round" stroke-width="0.71"/><path d="M97.7,143.4a23.5,23.5,0,0,1,11.1-19.9h-.2a23.3,23.3,0,0,0,0,46.5,22.8,22.8,0,0,0,12.2-3.4A23.3,23.3,0,0,1,97.7,143.4Z"/><circle cx="108.6" cy="146.8" r="9.3" fill="red" stroke="#000" stroke-linecap="round" stroke-linejoin="round" stroke-width="0.71"/><circle cx="174.8" cy="146.8" r="28" fill="#181818" stroke="#000" stroke-linecap="round" stroke-linejoin="round" stroke-width="0.71"/><circle cx="174.8" cy="146.8" r="23.3" fill="#2f2f2f" stroke="#000" stroke-linecap="round" stroke-linejoin="round" stroke-width="0.71"/><path d="M185.7,143.4a23.3,23.3,0,0,0-11.1-19.9h.2a23.3,23.3,0,1,1,0,46.5,22.7,22.7,0,0,1-12.1-3.4A23.2,23.2,0,0,0,185.7,143.4Z"/><circle cx="174.8" cy="146.8" r="9.3" fill="red" stroke="#000" stroke-linecap="round" stroke-linejoin="round" stroke-width="0.71"/></svg>