<svg xmlns="http://www.w3.org/2000/svg" viewBox="0 0 283.5 283.5"><rect x="123" y="133.2" width="37.4" height="12.56" fill="#404040" stroke="#000" stroke-miterlimit="10" stroke-width="1.01"/><rect x="123" y="133.2" width="37.4" height="6.28"/><path d="M76.4,133.2H59.7v-5.1a5.8,5.8,0,0,0-5.8-5.8h0a5.8,5.8,0,0,0-5.8,5.8v42.1a5.7,5.7,0,0,0,5.8,5.7h0a5.7,5.7,0,0,0,5.8-5.7V143.4H76.4Z" fill="#404040" stroke="#000" stroke-miterlimit="10" stroke-width="1.01"/><rect x="63.1" y="133.2" width="13.4" height="2.8"/><path d="M51.5,146.2V130.9a5.8,5.8,0,0,1,5.8-5.8,5.1,5.1,0,0,1,1.7.3,5.7,5.7,0,0,0-5.1-3.1,5.8,5.8,0,0,0-5.8,5.8v42.1a5.8,5.8,0,0,0,4.1,5.5,6,6,0,0,1-.7-2.7Z"/><circle cx="100.6" cy="150.3" r="32.3" fill="#757575" stroke="#000" stroke-linecap="round" stroke-linejoin="round" stroke-width="1.01"/><path d="M100.6,168.6a30.8,30.8,0,0,0,30.1-24.3,28.2,28.2,0,0,1,.8,6.5,30.9,30.9,0,0,1-61.8,0,35,35,0,0,1,.7-6.5A30.9,30.9,0,0,0,100.6,168.6Z" fill="#4a4a4a"/><path d="M207,133.2h16.8v-5.1a5.8,5.8,0,0,1,5.8-5.8h0a5.8,5.8,0,0,1,5.7,5.8v42.1a5.7,5.7,0,0,1-5.7,5.7h0a5.7,5.7,0,0,1-5.8-5.7V143.4H207Z" fill="#404040" stroke="#000" stroke-miterlimit="10" stroke-width="1.01"/><rect x="207" y="133.2" width="13.4" height="2.8"/><path d="M231.9,146.2V130.9a5.8,5.8,0,0,0-5.7-5.8,4.7,4.7,0,0,0-1.7.3,5.7,5.7,0,0,1,5.1-3.1,5.8,5.8,0,0,1,5.7,5.8v42.1a5.7,5.7,0,0,1-4.1,5.5,5,5,0,0,0,.7-2.7Z"/><circle cx="100.6" cy="150.3" r="20.7" fill="#87b1ba" stroke="#000" stroke-linecap="round" stroke-linejoin="round" stroke-width="1.01"/><path d="M100.6,161.2a19.7,19.7,0,0,1-19.3-15.5,21.2,21.2,0,0,0-.5,4.4,19.8,19.8,0,0,0,39.6,0,21.2,21.2,0,0,0-.5-4.4A19.8,19.8,0,0,1,100.6,161.2Z" fill="#3e6974"/><circle cx="182.9" cy="150.3" r="32.3" fill="#757575" stroke="#000" stroke-linecap="round" stroke-linejoin="round" stroke-width="1.01"/><path d="M182.9,168.6A30.8,30.8,0,0,0,213,144.3a28.1,28.1,0,0,1,.7,6.5,30.9,30.9,0,1,1-61.7,0,35,35,0,0,1,.7-6.5A30.9,30.9,0,0,0,182.9,168.6Z" fill="#4a4a4a"/><circle cx="182.9" cy="150.3" r="20.7" fill="#87b1ba" stroke="#000" stroke-linecap="round" stroke-linejoin="round" stroke-width="1.01"/><path d="M182.9,161.2a19.7,19.7,0,0,1-19.3-15.5,16.1,16.1,0,0,0-.5,4.4,19.8,19.8,0,1,0,39.6,0,21.2,21.2,0,0,0-.5-4.4A19.8,19.8,0,0,1,182.9,161.2Z" fill="#3e6974"/></svg>