<svg xmlns="http://www.w3.org/2000/svg" viewBox="0 0 283.5 283.5"><path d="M212.7,97.7H70.8c-13,0-31.2,18.3-31.2,45.1S51,190.1,84.1,190.1c22.8,0,35.3-5.6,40.9-9.2a18,18,0,0,1,9.3-2.7h14.8a18.1,18.1,0,0,1,9.4,2.7c5.6,3.6,18.1,9.2,40.8,9.2,33.1,0,44.5-20.5,44.5-47.3S225.6,97.7,212.7,97.7Zm-13.4,86.5c-21.3,0-32.7-5.2-37.6-8.3a23.7,23.7,0,0,0-12.6-3.7H134.3a23.4,23.4,0,0,0-12.5,3.7c-4.9,3.1-16.3,8.3-37.7,8.3-25.9,0-38.5-13.6-38.5-41.4,0-24.3,16.3-39.1,25.2-39.1H212.7c8.9,0,25.2,14.8,25.2,39.1C237.9,170.6,225.3,184.2,199.3,184.2Z" fill="#14101e" stroke="#000" stroke-linecap="round" stroke-linejoin="round" stroke-width="0.93"/><path d="M199.3,184.2c-21.3,0-32.7-5.2-37.6-8.3a23.7,23.7,0,0,0-12.6-3.7H134.3a23.4,23.4,0,0,0-12.5,3.7c-4.9,3.1-16.3,8.3-37.7,8.3-25.9,0-38.5-13.6-38.5-41.4,0-24.3,16.3-39.1,25.2-39.1H212.7c8.9,0,25.2,14.8,25.2,39.1C237.9,170.6,225.3,184.2,199.3,184.2Z" fill="#444368" stroke="#000" stroke-linecap="round" stroke-linejoin="round" stroke-width="0.93"/><path d="M120.6,120a37.4,37.4,0,0,0,19.2,5.7h3.9a37.7,37.7,0,0,0,19.2-5.7c14.9-9,67-4,67-4h0c-5.4-7.9-12.4-12.3-17.2-12.3H70.8c-4.8,0-11.9,4.4-17.3,12.3h0S105.7,111,120.6,120Z" fill="#1c1b35" stroke="#000" stroke-linecap="round" stroke-linejoin="round" stroke-width="0.93"/><path d="M120.6,120c-11.1-6.7-42.8-5.6-58.3-4.6v64c5.8,3.2,13,4.8,21.8,4.8,21.4,0,32.8-5.2,37.7-8.3a23.5,23.5,0,0,1,12-3.7v-47A39.6,39.6,0,0,1,120.6,120Z" fill="#222033" stroke="#000" stroke-linecap="round" stroke-linejoin="round" stroke-width="0.93"/><path d="M162.9,120c11.1-6.7,42.8-5.6,58.3-4.6v64q-8.7,4.8-21.9,4.8c-21.3,0-32.7-5.2-37.6-8.3a23.8,23.8,0,0,0-12-3.7v-47A40.4,40.4,0,0,0,162.9,120Z" fill="#222033" stroke="#000" stroke-linecap="round" stroke-linejoin="round" stroke-width="0.93"/><path d="M117.8,137.9h-.1a4.7,4.7,0,0,1-4.8-4.8v-.7a4.9,4.9,0,0,0-4.8-4.8h-1.9a4.8,4.8,0,0,0-4.8,4.8v.7a4.8,4.8,0,0,1-4.8,4.8h0a4.7,4.7,0,0,1-4.8-4.8v-.7a4.9,4.9,0,0,0-4.8-4.8H85.1a4.8,4.8,0,0,0-4.8,4.8v.7a4.8,4.8,0,0,1-4.8,4.8h-.1a4.8,4.8,0,0,0-4.8,4.8v1.9a4.8,4.8,0,0,0,4.8,4.8h.1a4.8,4.8,0,0,1,4.8,4.8v9.9a4.8,4.8,0,0,0,4.8,4.8H87a4.9,4.9,0,0,0,4.8-4.8v-9.9a4.7,4.7,0,0,1,4.8-4.8h0a4.8,4.8,0,0,1,4.8,4.8v9.9a4.8,4.8,0,0,0,4.8,4.8h1.9a4.9,4.9,0,0,0,4.8-4.8v-9.9a4.7,4.7,0,0,1,4.8-4.8h.1a4.9,4.9,0,0,0,4.8-4.8v-1.9A4.9,4.9,0,0,0,117.8,137.9Z" fill="#f9f15f" stroke="#000" stroke-linecap="round" stroke-linejoin="round" stroke-width="0.93"/><rect x="189" y="122.7" width="11.5" height="54.38" rx="4.8" transform="translate(163.1 -93.8) rotate(45)" fill="#f9f15f" stroke="#000" stroke-linecap="round" stroke-linejoin="round" stroke-width="0.93"/></svg>