<svg xmlns="http://www.w3.org/2000/svg" viewBox="0 0 283.5 283.5"><path d="M102.2,114.4a29.7,29.7,0,0,0-18.7,10.3c9.9,4.7,31,18.6,24.8,49a29.9,29.9,0,0,0,27.9-29.8c0-.2-.1-.5-.1-.7C114.8,144,105.7,125.5,102.2,114.4Z" fill="#343356" stroke="#000" stroke-linecap="round" stroke-linejoin="round" stroke-width="0.71"/><path d="M83.5,124.7a29.9,29.9,0,0,0,22.8,49.1h2C114.5,143.3,93.4,129.4,83.5,124.7Z" stroke="#000" stroke-linecap="round" stroke-linejoin="round" stroke-width="0.71"/><path d="M136.1,143.2a29.8,29.8,0,0,0-29.8-29.1,27.3,27.3,0,0,0-4.1.3C105.7,125.5,114.8,144,136.1,143.2Z" stroke="#000" stroke-linecap="round" stroke-linejoin="round" stroke-width="0.71"/><circle cx="120.4" cy="157.3" r="8.1" stroke="#000" stroke-linecap="round" stroke-linejoin="round" stroke-width="0.71"/><path d="M181.3,114.4a29.5,29.5,0,0,1,18.6,10.3c-9.8,4.7-31,18.6-24.8,49a29.9,29.9,0,0,1-27.8-29.8v-.7C168.6,144,177.7,125.5,181.3,114.4Z" fill="#343356" stroke="#000" stroke-linecap="round" stroke-linejoin="round" stroke-width="0.71"/><path d="M199.9,124.7a29.8,29.8,0,0,1-22.8,49.1h-2C168.9,143.3,190.1,129.4,199.9,124.7Z" stroke="#000" stroke-linecap="round" stroke-linejoin="round" stroke-width="0.71"/><path d="M147.3,143.2a29.8,29.8,0,0,1,34-28.8C177.7,125.5,168.6,144,147.3,143.2Z" stroke="#000" stroke-linecap="round" stroke-linejoin="round" stroke-width="0.71"/><circle cx="163.1" cy="157.3" r="8.1" stroke="#000" stroke-linecap="round" stroke-linejoin="round" stroke-width="0.71"/></svg>