<svg xmlns="http://www.w3.org/2000/svg" viewBox="0 0 283.5 283.5"><path d="M213.9,99.9H69.5a29.9,29.9,0,0,0-29.9,29.9v28.3A29.9,29.9,0,0,0,69.5,188H213.9a29.9,29.9,0,0,0,29.9-29.9V129.8A29.9,29.9,0,0,0,213.9,99.9Zm24,58.2a24,24,0,0,1-24,24H69.5a24.1,24.1,0,0,1-24-24V129.8a24,24,0,0,1,24-24H213.9a23.9,23.9,0,0,1,24,24Z" fill="#223546" stroke="#000" stroke-linecap="round" stroke-linejoin="round" stroke-width="0.71"/><rect x="103.6" y="47.7" width="76.3" height="192.4" rx="24" transform="translate(285.7 2.2) rotate(90)" fill="#40698e" stroke="#000" stroke-linecap="round" stroke-linejoin="round" stroke-width="0.71"/><ellipse cx="141.7" cy="140.6" rx="80.9" ry="33.4" fill="#31516f"/><ellipse cx="141.7" cy="140.6" rx="61.9" ry="25.6" fill="#2b455e"/><circle cx="141.7" cy="140.2" r="31.4" fill="#192a3a" stroke="#000" stroke-linecap="round" stroke-linejoin="round" stroke-width="0.71"/><circle cx="141.7" cy="140.2" r="27.1" fill="#eb3353" stroke="#000" stroke-linecap="round" stroke-linejoin="round" stroke-width="0.71"/><circle cx="141.7" cy="140.2" r="7.3" fill="#192a3a" stroke="#000" stroke-linecap="round" stroke-linejoin="round" stroke-width="0.71"/><path d="M129,140.2a26.3,26.3,0,0,1,19.6-25.4,29.3,29.3,0,0,0-6.7-.8,26.2,26.2,0,1,0,0,52.4,29.3,29.3,0,0,0,6.7-.8A26.3,26.3,0,0,1,129,140.2Z" fill="#980512"/><path d="M213.9,172.5H69.5a24.1,24.1,0,0,1-24-24v9.6a24.1,24.1,0,0,0,24,24H213.9a24,24,0,0,0,24-24v-9.6A24,24,0,0,1,213.9,172.5Z" fill="#121d3b" stroke="#000" stroke-linecap="round" stroke-linejoin="round" stroke-width="0.71"/></svg>