<svg xmlns="http://www.w3.org/2000/svg" viewBox="0 0 283.5 283.5"><g style="isolation:isolate"><path d="M60,146.9a7.2,7.2,0,0,0-6.6,4.5,9.5,9.5,0,0,0,1.7,2.7,7.2,7.2,0,0,0,5.1,2.1l45.2-.4a27.6,27.6,0,0,1-3.4-9.2Z" fill="#382817" stroke="#000" stroke-miterlimit="10" stroke-width="0.71"/><path d="M60,146.9l42-.3a26.3,26.3,0,0,1-.5-4.9l-41.4.3a7.2,7.2,0,0,0-7.1,7.1,15.7,15.7,0,0,0,.4,2.3h0A7.2,7.2,0,0,1,60,146.9Z" fill="#1e140a" stroke="#000" stroke-miterlimit="10" stroke-width="0.71"/><circle cx="115.7" cy="145.1" r="27.5" fill="#c6a436" stroke="#000" stroke-linecap="round" stroke-linejoin="round" stroke-width="0.71"/><circle cx="115.7" cy="145.1" r="22.9" fill="#fff" stroke="#000" stroke-linecap="round" stroke-linejoin="round" stroke-width="0.71"/><path d="M105.2,141.9a22,22,0,0,1,10.5-18.7h-.2a21.9,21.9,0,0,0,0,43.8,22.6,22.6,0,0,0,11.5-3.2A21.9,21.9,0,0,1,105.2,141.9Z" fill="#a3a3a3"/><circle cx="118.5" cy="145.1" r="9.2" fill="#4b3df1" stroke="#000" stroke-miterlimit="10" stroke-width="0.71"/><circle cx="121.5" cy="140.9" r="4.1" fill="#7acbe1" stroke="#000" stroke-miterlimit="10" stroke-width="0.71"/><path d="M202.8,68.6a3.4,3.4,0,0,1,.6,1.2,7.1,7.1,0,0,0-8.1,1.4l-57.1,57.9a28.6,28.6,0,0,1,4.2,9L202,77.6A7.1,7.1,0,0,0,202.8,68.6Z" fill="#1e140a" stroke="#000" stroke-miterlimit="10" stroke-width="0.71"/><path d="M191.9,67.7l1.3-1.1-1.3,1.1L135,125.4h0Z" fill="#1e140a" stroke="#000" stroke-miterlimit="10" stroke-width="0.71" style="mix-blend-mode:multiply"/><path d="M135,125.4a36.8,36.8,0,0,1,3.2,3.7l57.1-57.9a7.1,7.1,0,0,1,8.1-1.4,7.1,7.1,0,0,0-11.5-2.1Z" fill="#1e140a" stroke="#000" stroke-miterlimit="10" stroke-width="0.71"/><path d="M135,125.4a36.8,36.8,0,0,1,3.2,3.7l57.1-57.9a7.1,7.1,0,0,1,8.1-1.4,7.1,7.1,0,0,0-11.5-2.1Z" fill="#1e140a" stroke="#000" stroke-miterlimit="10" stroke-width="0.71" style="mix-blend-mode:multiply"/></g></svg>