<svg xmlns="http://www.w3.org/2000/svg" viewBox="0 0 283.5 283.5"><path d="M65,122.2h41.6a0,0,0,0,1,0,0v11a0,0,0,0,1,0,0H65a5.5,5.5,0,0,1-5.5-5.5v0A5.5,5.5,0,0,1,65,122.2Z" fill="#181818" stroke="#000" stroke-linecap="round" stroke-linejoin="round" stroke-width="0.71"/><path d="M72.2,206.2a6.7,6.7,0,0,1-4.9-2.1,7,7,0,0,1-.1-9.9L191.9,67.7A7.1,7.1,0,0,1,202,77.6L77.3,204.1A7.3,7.3,0,0,1,72.2,206.2Z" fill="#181818" stroke="#000" stroke-linecap="round" stroke-linejoin="round" stroke-width="0.71"/><circle cx="115.7" cy="145.1" r="27.5" stroke="#000" stroke-linecap="round" stroke-linejoin="round" stroke-width="0.71"/><circle cx="115.7" cy="145.1" r="22.9" fill="#6d9cf8" stroke="#000" stroke-linecap="round" stroke-linejoin="round" stroke-width="0.71"/><path d="M105.2,141.9a21.8,21.8,0,0,1,10.4-18.6h-.1a21.8,21.8,0,1,0,0,43.6,21,21,0,0,0,11.4-3.2A21.8,21.8,0,0,1,105.2,141.9Z" fill="#2f5ff1"/><circle cx="118.5" cy="135.9" r="9.2" fill="#fff" stroke="#000" stroke-linecap="round" stroke-linejoin="round" stroke-width="0.71"/></svg>