<svg xmlns="http://www.w3.org/2000/svg" viewBox="0 0 283.5 283.5"><path d="M151.7,127.2h43.5a0,0,0,0,1,0,0v35.2a4.5,4.5,0,0,1-4.5,4.5h-39a5.3,5.3,0,0,1-5.3-5.3V132.5A5.3,5.3,0,0,1,151.7,127.2Z" fill="#537286" stroke="#000" stroke-linecap="round" stroke-linejoin="round" stroke-width="0.71" opacity="0.5"/><path d="M157.5,127.2h0a9.5,9.5,0,0,1,9.5-9.6h38.1v20.3h-9.9V127.2Z" fill="#585652" stroke="#000" stroke-linecap="round" stroke-linejoin="round" stroke-width="0.71"/><rect x="195.2" y="137.9" width="18.7" height="24.62" fill="#1c2b17" stroke="#000" stroke-linecap="round" stroke-linejoin="round" stroke-width="0.71"/><path d="M213.9,137.9h10.3a0,0,0,0,1,0,0V173a5.2,5.2,0,0,1-5.2,5.2h0a5.2,5.2,0,0,1-5.2-5.2V137.9A0,0,0,0,1,213.9,137.9Z" fill="#404040" stroke="#000" stroke-linecap="round" stroke-linejoin="round" stroke-width="0.71"/><path d="M205.1,117.6h14.3a4.8,4.8,0,0,1,4.8,4.8v0a4.8,4.8,0,0,1-4.8,4.8H205.1a0,0,0,0,1,0,0v-9.5A0,0,0,0,1,205.1,117.6Z" fill="#1c2b17" stroke="#000" stroke-linecap="round" stroke-linejoin="round" stroke-width="0.71"/><path d="M205.1,127.2h13.7a5.4,5.4,0,0,1,5.4,5.4v0a5.4,5.4,0,0,1-5.4,5.4H205.1a0,0,0,0,1,0,0V127.2A0,0,0,0,1,205.1,127.2Z" fill="#5fb7f9" stroke="#000" stroke-linecap="round" stroke-linejoin="round" stroke-width="0.71"/><path d="M153.5,137.1a5.3,5.3,0,0,1,5.3-5.3h36.4v-4.6H151.7a5.3,5.3,0,0,0-5.4,5.3v29a5.4,5.4,0,0,0,5.4,5.4h1.9a2,2,0,0,1-.1-.7Z" fill="#537286" stroke="#000" stroke-linecap="round" stroke-linejoin="round" stroke-width="0.71"/><circle cx="155.8" cy="137.9" r="6.1" fill="#5fb7f9" stroke="#000" stroke-linecap="round" stroke-linejoin="round" stroke-width="0.71"/><circle cx="170.8" cy="137.9" r="6.1" fill="#5fb7f9" stroke="#000" stroke-linecap="round" stroke-linejoin="round" stroke-width="0.71"/><circle cx="185.7" cy="137.9" r="6.1" fill="#5fb7f9" stroke="#000" stroke-linecap="round" stroke-linejoin="round" stroke-width="0.71"/><path d="M189.2,134.2h.4a5.3,5.3,0,0,0-4-1.7,5.4,5.4,0,0,0-5.4,5.4,5.4,5.4,0,0,0,5,5.4,5.5,5.5,0,0,1-1.4-3.7A5.4,5.4,0,0,1,189.2,134.2Z" fill="#1b5477"/><path d="M174.2,134.2h.5a5.3,5.3,0,0,0-4-1.7,5.4,5.4,0,0,0-5.4,5.4,5.4,5.4,0,0,0,4.9,5.4,6,6,0,0,1-1.4-3.7A5.4,5.4,0,0,1,174.2,134.2Z" fill="#1b5477"/><path d="M159.3,134.2h.4a5.3,5.3,0,0,0-4-1.7,5.4,5.4,0,0,0-5.4,5.4,5.4,5.4,0,0,0,5,5.4,5.5,5.5,0,0,1-1.4-3.7A5.4,5.4,0,0,1,159.3,134.2Z" fill="#1b5477"/><rect x="195.8" y="129.6" width="4.4" height="7.63" fill="#2f2d28"/><path d="M170.4,121h33.7v-2.6H166.6a8,8,0,0,0-8.1,8h4.2A8.2,8.2,0,0,1,170.4,121Z" fill="#2f2d28"/><polygon points="213.9 141.7 213.9 137.9 195.2 137.9 195.2 162.5 199.6 162.5 199.6 141.7 213.9 141.7"/><path d="M220.4,129.7h.5a4.4,4.4,0,0,0-3.6-1.8H205.9v8.9H209v-7.1Z" fill="#1d6896"/><path d="M220.4,119.8h.5a4.5,4.5,0,0,0-3.6-1.6H205.9v8H209v-6.5Z" fill="#424e3d"/><path d="M218.1,170.7v-32h-3.5v34.2a4.4,4.4,0,0,0,4.4,4.4h0a4.6,4.6,0,0,0,3.8-2.3h-.4A4.3,4.3,0,0,1,218.1,170.7Z" fill="#141414" opacity="0.49"/></svg>