<svg xmlns="http://www.w3.org/2000/svg" viewBox="0 0 283.5 283.5"><path d="M239.5,103.2s-.3,24.3-22.1,23.7H66c-21.7.6-22.1-23.7-22.1-23.7-11.1,69.9,15.2,70.4,22,69.4H217.6C224.4,173.6,250.6,173.1,239.5,103.2Z" fill="#3c7e92" stroke="#000" stroke-miterlimit="10" stroke-width="0.71"/><path d="M230.4,283.5s-6.5-34.5-38.5-41.8H91.6C59.5,249,53,283.5,53,283.5Z" fill="#fbfebc" stroke="#000" stroke-linecap="round" stroke-linejoin="round" stroke-width="0.71"/><rect x="91.6" y="234.7" width="100.3" height="48.78" fill="#7acbe1" stroke="#000" stroke-linecap="round" stroke-linejoin="round" stroke-width="0.71"/><path d="M190.7,234.7v15.8c-13.8,14.5-30.7,23-49,23s-35.1-8.5-48.9-23V234.7Z" fill="#3aa2c7"/><ellipse cx="141.7" cy="150.3" rx="77.4" ry="110.8" fill="#7acbe1" stroke="#000" stroke-linecap="round" stroke-linejoin="round" stroke-width="0.71"/><path d="M231.8,123.4a23.4,23.4,0,0,0,7.8-15c8.7,62.7-15.5,64.1-21,63.2a9.9,9.9,0,0,1,.2-1.7C225,166.3,233.7,151.9,231.8,123.4Z" fill="#0e3e54"/><path d="M87.6,150.3c0-55,27.7-100.4,63.8-108.1A49,49,0,0,0,140.6,41C99.3,41,65.9,89.9,65.9,150.3s33.4,109.2,74.7,109.2a55.7,55.7,0,0,0,10.8-1.1C115.3,250.7,87.6,205.2,87.6,150.3Z" fill="#3aa2c7"/><circle cx="178.2" cy="73.6" r="5.5" fill="#5bb2d0"/><path d="M187.1,106.7a8.9,8.9,0,1,1,8.9-8.8A8.8,8.8,0,0,1,187.1,106.7Z" fill="#5bb2d0"/><path d="M192.9,133.7A10.8,10.8,0,1,1,203.6,123,10.8,10.8,0,0,1,192.9,133.7Z" fill="#5bb2d0"/><circle cx="195.3" cy="148.7" r="11.3" fill="#5bb2d0"/><path d="M193.9,185.2a10.8,10.8,0,1,1,10.7-10.8A10.8,10.8,0,0,1,193.9,185.2Z" fill="#5bb2d0"/><circle cx="188.4" cy="199.6" r="8.9" fill="#5bb2d0"/><path d="M179.1,229.2a5.6,5.6,0,1,1,5.6-5.6A5.6,5.6,0,0,1,179.1,229.2Z" fill="#5bb2d0"/><path d="M51.7,123.4a23.4,23.4,0,0,1-7.8-15c-8.8,62.7,15.4,64.1,21,63.2-.1-.6-.1-1.1-.2-1.7C58.4,166.3,49.8,151.9,51.7,123.4Z" fill="#0e3e54"/><path d="M218.3,133.3s13.6-1.6,14.7,16.5" fill="none" stroke="#000" stroke-miterlimit="10" stroke-width="0.71"/><path d="M65.2,133.3s-13.7-1.6-14.7,16.5" fill="none" stroke="#000" stroke-miterlimit="10" stroke-width="0.71"/></svg>