<svg xmlns="http://www.w3.org/2000/svg" viewBox="0 0 283.5 283.5"><rect width="283.5" height="283.46" fill="#4824aa"/><rect x="92.4" y="73" width="78" height="210.46" fill="#14113f" stroke="#000" stroke-miterlimit="10" stroke-width="0.71"/><rect x="95.4" y="79.2" width="16" height="9.09" rx="4" fill="#1c1947" stroke="#000" stroke-miterlimit="10" stroke-width="0.71"/><rect x="113.5" y="79.2" width="16" height="9.09" rx="4" fill="#1c1947" stroke="#000" stroke-miterlimit="10" stroke-width="0.71"/><rect x="133.3" y="79.2" width="16" height="9.09" rx="4" fill="#1c1947" stroke="#000" stroke-miterlimit="10" stroke-width="0.71"/><rect x="151.4" y="79.2" width="16" height="9.09" rx="4" fill="#1c1947" stroke="#000" stroke-miterlimit="10" stroke-width="0.71"/><rect x="95.4" y="91.4" width="16" height="9.09" rx="4" fill="#1c1947" stroke="#000" stroke-miterlimit="10" stroke-width="0.71"/><rect x="113.5" y="91.4" width="16" height="9.09" rx="4" fill="#1c1947" stroke="#000" stroke-miterlimit="10" stroke-width="0.71"/><rect x="133.3" y="91.4" width="16" height="9.09" rx="4" fill="#1c1947" stroke="#000" stroke-miterlimit="10" stroke-width="0.71"/><rect x="151.4" y="91.4" width="16" height="9.09" rx="4" fill="#1c1947" stroke="#000" stroke-miterlimit="10" stroke-width="0.71"/><rect x="95.4" y="103.7" width="16" height="9.09" rx="4" fill="#1c1947" stroke="#000" stroke-miterlimit="10" stroke-width="0.71"/><rect x="113.5" y="103.7" width="16" height="9.09" rx="4" fill="#1c1947" stroke="#000" stroke-miterlimit="10" stroke-width="0.71"/><rect x="133.3" y="103.7" width="16" height="9.09" rx="4" fill="#1c1947" stroke="#000" stroke-miterlimit="10" stroke-width="0.71"/><rect x="151.4" y="103.7" width="16" height="9.09" rx="4" fill="#1c1947" stroke="#000" stroke-miterlimit="10" stroke-width="0.71"/><rect x="95.4" y="115.9" width="16" height="9.09" rx="4" fill="#1c1947" stroke="#000" stroke-miterlimit="10" stroke-width="0.71"/><rect x="113.5" y="115.9" width="16" height="9.09" rx="4" fill="#1c1947" stroke="#000" stroke-miterlimit="10" stroke-width="0.71"/><rect x="133.3" y="115.9" width="16" height="9.09" rx="4" fill="#1c1947" stroke="#000" stroke-miterlimit="10" stroke-width="0.71"/><rect x="151.4" y="115.9" width="16" height="9.09" rx="4" fill="#1c1947" stroke="#000" stroke-miterlimit="10" stroke-width="0.71"/><rect x="95.4" y="128.2" width="16" height="9.09" rx="4" fill="#1c1947" stroke="#000" stroke-miterlimit="10" stroke-width="0.71"/><rect x="113.5" y="128.2" width="16" height="9.09" rx="4" fill="#1c1947" stroke="#000" stroke-miterlimit="10" stroke-width="0.71"/><rect x="133.3" y="128.2" width="16" height="9.09" rx="4" fill="#1c1947" stroke="#000" stroke-miterlimit="10" stroke-width="0.71"/><rect x="151.4" y="128.2" width="16" height="9.09" rx="4" fill="#1c1947" stroke="#000" stroke-miterlimit="10" stroke-width="0.71"/><rect x="95.4" y="140.4" width="16" height="9.09" rx="4" fill="#1c1947" stroke="#000" stroke-miterlimit="10" stroke-width="0.71"/><rect x="113.5" y="140.4" width="16" height="9.09" rx="4" fill="#1c1947" stroke="#000" stroke-miterlimit="10" stroke-width="0.71"/><rect x="133.3" y="140.4" width="16" height="9.09" rx="4" fill="#1c1947" stroke="#000" stroke-miterlimit="10" stroke-width="0.71"/><rect x="151.4" y="140.4" width="16" height="9.09" rx="4" fill="#1c1947" stroke="#000" stroke-miterlimit="10" stroke-width="0.71"/><rect x="95.4" y="152.7" width="16" height="9.09" rx="4" fill="#1c1947" stroke="#000" stroke-miterlimit="10" stroke-width="0.71"/><rect x="113.5" y="152.7" width="16" height="9.09" rx="4" fill="#1c1947" stroke="#000" stroke-miterlimit="10" stroke-width="0.71"/><rect x="133.3" y="152.7" width="16" height="9.09" rx="4" fill="#1c1947" stroke="#000" stroke-miterlimit="10" stroke-width="0.71"/><rect x="151.4" y="152.7" width="16" height="9.09" rx="4" fill="#1c1947" stroke="#000" stroke-miterlimit="10" stroke-width="0.71"/><rect x="95.4" y="165" width="16" height="9.09" rx="4" fill="#1c1947" stroke="#000" stroke-miterlimit="10" stroke-width="0.71"/><rect x="113.5" y="165" width="16" height="9.09" rx="4" fill="#1c1947" stroke="#000" stroke-miterlimit="10" stroke-width="0.71"/><rect x="133.3" y="165" width="16" height="9.09" rx="4" fill="#1c1947" stroke="#000" stroke-miterlimit="10" stroke-width="0.71"/><rect x="151.4" y="165" width="16" height="9.09" rx="4" fill="#1c1947" stroke="#000" stroke-miterlimit="10" stroke-width="0.71"/><rect x="95.4" y="177.2" width="16" height="9.09" rx="4" fill="#1c1947" stroke="#000" stroke-miterlimit="10" stroke-width="0.71"/><rect x="113.5" y="177.2" width="16" height="9.09" rx="4" fill="#1c1947" stroke="#000" stroke-miterlimit="10" stroke-width="0.71"/><rect x="133.3" y="177.2" width="16" height="9.09" rx="4" fill="#1c1947" stroke="#000" stroke-miterlimit="10" stroke-width="0.71"/><rect x="151.4" y="177.2" width="16" height="9.09" rx="4" fill="#1c1947" stroke="#000" stroke-miterlimit="10" stroke-width="0.71"/><rect x="95.4" y="189.5" width="16" height="9.09" rx="4" fill="#1c1947" stroke="#000" stroke-miterlimit="10" stroke-width="0.71"/><rect x="113.5" y="189.5" width="16" height="9.09" rx="4" fill="#1c1947" stroke="#000" stroke-miterlimit="10" stroke-width="0.71"/><rect x="133.3" y="189.5" width="16" height="9.09" rx="4" fill="#1c1947" stroke="#000" stroke-miterlimit="10" stroke-width="0.71"/><rect x="151.4" y="189.5" width="16" height="9.09" rx="4" fill="#1c1947" stroke="#000" stroke-miterlimit="10" stroke-width="0.71"/><rect x="95.4" y="201.7" width="16" height="9.09" rx="4" fill="#1c1947" stroke="#000" stroke-miterlimit="10" stroke-width="0.71"/><rect x="113.5" y="201.7" width="16" height="9.09" rx="4" fill="#1c1947" stroke="#000" stroke-miterlimit="10" stroke-width="0.71"/><rect x="133.3" y="201.7" width="16" height="9.09" rx="4" fill="#1c1947" stroke="#000" stroke-miterlimit="10" stroke-width="0.71"/><rect x="151.4" y="201.7" width="16" height="9.09" rx="4" fill="#1c1947" stroke="#000" stroke-miterlimit="10" stroke-width="0.71"/><rect x="95.4" y="214" width="16" height="9.09" rx="4" fill="#1c1947" stroke="#000" stroke-miterlimit="10" stroke-width="0.71"/><rect x="113.5" y="214" width="16" height="9.09" rx="4" fill="#1c1947" stroke="#000" stroke-miterlimit="10" stroke-width="0.71"/><rect x="133.3" y="214" width="16" height="9.09" rx="4" fill="#1c1947" stroke="#000" stroke-miterlimit="10" stroke-width="0.71"/><rect x="151.4" y="214" width="16" height="9.09" rx="4" fill="#1c1947" stroke="#000" stroke-miterlimit="10" stroke-width="0.71"/><rect x="95.4" y="226.2" width="16" height="9.09" rx="4" fill="#1c1947" stroke="#000" stroke-miterlimit="10" stroke-width="0.71"/><rect x="113.5" y="226.2" width="16" height="9.09" rx="4" fill="#1c1947" stroke="#000" stroke-miterlimit="10" stroke-width="0.71"/><rect x="133.3" y="226.2" width="16" height="9.09" rx="4" fill="#1c1947" stroke="#000" stroke-miterlimit="10" stroke-width="0.71"/><rect x="151.4" y="226.2" width="16" height="9.09" rx="4" fill="#1c1947" stroke="#000" stroke-miterlimit="10" stroke-width="0.71"/><rect x="95.4" y="238.5" width="16" height="9.09" rx="4" fill="#1c1947" stroke="#000" stroke-miterlimit="10" stroke-width="0.71"/><rect x="113.5" y="238.5" width="16" height="9.09" rx="4" fill="#1c1947" stroke="#000" stroke-miterlimit="10" stroke-width="0.71"/><rect x="133.3" y="238.5" width="16" height="9.09" rx="4" fill="#1c1947" stroke="#000" stroke-miterlimit="10" stroke-width="0.71"/><rect x="151.4" y="238.5" width="16" height="9.09" rx="4" fill="#1c1947" stroke="#000" stroke-miterlimit="10" stroke-width="0.71"/><rect x="95.4" y="250.7" width="16" height="9.09" rx="4" fill="#1c1947" stroke="#000" stroke-miterlimit="10" stroke-width="0.71"/><rect x="113.5" y="250.7" width="16" height="9.09" rx="4" fill="#1c1947" stroke="#000" stroke-miterlimit="10" stroke-width="0.71"/><rect x="133.3" y="250.7" width="16" height="9.09" rx="4" fill="#1c1947" stroke="#000" stroke-miterlimit="10" stroke-width="0.71"/><rect x="151.4" y="250.7" width="16" height="9.09" rx="4" fill="#1c1947" stroke="#000" stroke-miterlimit="10" stroke-width="0.71"/><rect x="95.4" y="263" width="16" height="9.09" rx="4" fill="#1c1947" stroke="#000" stroke-miterlimit="10" stroke-width="0.71"/><rect x="113.5" y="263" width="16" height="9.09" rx="4" fill="#1c1947" stroke="#000" stroke-miterlimit="10" stroke-width="0.71"/><rect x="133.3" y="263" width="16" height="9.09" rx="4" fill="#1c1947" stroke="#000" stroke-miterlimit="10" stroke-width="0.71"/><rect x="151.4" y="263" width="16" height="9.09" rx="4" fill="#1c1947" stroke="#000" stroke-miterlimit="10" stroke-width="0.71"/><rect x="95.4" y="274.4" width="16" height="9.09" rx="4" fill="#1c1947" stroke="#000" stroke-miterlimit="10" stroke-width="0.71"/><rect x="113.5" y="274.4" width="16" height="9.09" rx="4" fill="#1c1947" stroke="#000" stroke-miterlimit="10" stroke-width="0.71"/><rect x="133.3" y="274.4" width="16" height="9.09" rx="4" fill="#1c1947" stroke="#000" stroke-miterlimit="10" stroke-width="0.71"/><rect x="151.4" y="274.4" width="16" height="9.09" rx="4" fill="#1c1947" stroke="#000" stroke-miterlimit="10" stroke-width="0.71"/><rect x="-0.3" y="44.2" width="103.2" height="239.29" fill="#19154e" stroke="#000" stroke-miterlimit="10" stroke-width="0.71"/><rect x="3.6" y="51.2" width="21.2" height="10.34" rx="4.9" fill="#232059" stroke="#000" stroke-miterlimit="10" stroke-width="0.71"/><rect x="27.5" y="51.2" width="21.2" height="10.34" rx="4.9" fill="#232059" stroke="#000" stroke-miterlimit="10" stroke-width="0.71"/><rect x="53.8" y="51.2" width="21.2" height="10.34" rx="4.9" fill="#232059" stroke="#000" stroke-miterlimit="10" stroke-width="0.71"/><rect x="77.7" y="51.2" width="21.2" height="10.34" rx="4.9" fill="#232059" stroke="#000" stroke-miterlimit="10" stroke-width="0.71"/><rect x="3.6" y="65.1" width="21.2" height="10.34" rx="4.9" fill="#232059" stroke="#000" stroke-miterlimit="10" stroke-width="0.71"/><rect x="27.5" y="65.1" width="21.2" height="10.34" rx="4.9" fill="#232059" stroke="#000" stroke-miterlimit="10" stroke-width="0.71"/><rect x="53.8" y="65.1" width="21.2" height="10.34" rx="4.9" fill="#232059" stroke="#000" stroke-miterlimit="10" stroke-width="0.71"/><rect x="77.7" y="65.1" width="21.2" height="10.34" rx="4.9" fill="#232059" stroke="#000" stroke-miterlimit="10" stroke-width="0.71"/><rect x="3.6" y="79.1" width="21.2" height="10.34" rx="4.9" fill="#232059" stroke="#000" stroke-miterlimit="10" stroke-width="0.71"/><rect x="27.5" y="79.1" width="21.2" height="10.34" rx="4.9" fill="#232059" stroke="#000" stroke-miterlimit="10" stroke-width="0.71"/><rect x="53.8" y="79.1" width="21.2" height="10.34" rx="4.9" fill="#232059" stroke="#000" stroke-miterlimit="10" stroke-width="0.71"/><rect x="77.7" y="79.1" width="21.2" height="10.34" rx="4.9" fill="#232059" stroke="#000" stroke-miterlimit="10" stroke-width="0.71"/><rect x="3.6" y="93" width="21.2" height="10.34" rx="4.9" fill="#232059" stroke="#000" stroke-miterlimit="10" stroke-width="0.71"/><rect x="27.5" y="93" width="21.2" height="10.34" rx="4.9" fill="#232059" stroke="#000" stroke-miterlimit="10" stroke-width="0.71"/><rect x="53.8" y="93" width="21.2" height="10.34" rx="4.9" fill="#232059" stroke="#000" stroke-miterlimit="10" stroke-width="0.71"/><rect x="77.7" y="93" width="21.2" height="10.34" rx="4.9" fill="#232059" stroke="#000" stroke-miterlimit="10" stroke-width="0.71"/><rect x="3.6" y="106.9" width="21.2" height="10.34" rx="4.9" fill="#232059" stroke="#000" stroke-miterlimit="10" stroke-width="0.71"/><rect x="27.5" y="106.9" width="21.2" height="10.34" rx="4.9" fill="#232059" stroke="#000" stroke-miterlimit="10" stroke-width="0.71"/><rect x="53.8" y="106.9" width="21.2" height="10.34" rx="4.9" fill="#232059" stroke="#000" stroke-miterlimit="10" stroke-width="0.71"/><rect x="77.7" y="106.9" width="21.2" height="10.34" rx="4.9" fill="#232059" stroke="#000" stroke-miterlimit="10" stroke-width="0.71"/><rect x="3.6" y="120.9" width="21.2" height="10.34" rx="4.9" fill="#232059" stroke="#000" stroke-miterlimit="10" stroke-width="0.71"/><rect x="27.5" y="120.9" width="21.2" height="10.34" rx="4.9" fill="#232059" stroke="#000" stroke-miterlimit="10" stroke-width="0.71"/><rect x="53.8" y="120.9" width="21.2" height="10.34" rx="4.9" fill="#232059" stroke="#000" stroke-miterlimit="10" stroke-width="0.71"/><rect x="77.7" y="120.9" width="21.2" height="10.34" rx="4.9" fill="#232059" stroke="#000" stroke-miterlimit="10" stroke-width="0.71"/><rect x="3.6" y="134.8" width="21.2" height="10.34" rx="4.9" fill="#232059" stroke="#000" stroke-miterlimit="10" stroke-width="0.71"/><rect x="27.5" y="134.8" width="21.2" height="10.34" rx="4.9" fill="#232059" stroke="#000" stroke-miterlimit="10" stroke-width="0.71"/><rect x="53.8" y="134.8" width="21.2" height="10.34" rx="4.9" fill="#232059" stroke="#000" stroke-miterlimit="10" stroke-width="0.71"/><rect x="77.7" y="134.8" width="21.2" height="10.34" rx="4.9" fill="#232059" stroke="#000" stroke-miterlimit="10" stroke-width="0.71"/><rect x="3.6" y="148.7" width="21.2" height="10.34" rx="4.9" fill="#232059" stroke="#000" stroke-miterlimit="10" stroke-width="0.71"/><rect x="27.5" y="148.7" width="21.2" height="10.34" rx="4.9" fill="#232059" stroke="#000" stroke-miterlimit="10" stroke-width="0.71"/><rect x="53.8" y="148.7" width="21.2" height="10.34" rx="4.9" fill="#232059" stroke="#000" stroke-miterlimit="10" stroke-width="0.71"/><rect x="77.7" y="148.7" width="21.2" height="10.34" rx="4.9" fill="#232059" stroke="#000" stroke-miterlimit="10" stroke-width="0.71"/><rect x="3.6" y="162.7" width="21.2" height="10.34" rx="4.9" fill="#232059" stroke="#000" stroke-miterlimit="10" stroke-width="0.71"/><rect x="27.5" y="162.7" width="21.2" height="10.34" rx="4.9" fill="#232059" stroke="#000" stroke-miterlimit="10" stroke-width="0.71"/><rect x="53.8" y="162.7" width="21.2" height="10.34" rx="4.9" fill="#232059" stroke="#000" stroke-miterlimit="10" stroke-width="0.71"/><rect x="77.7" y="162.7" width="21.2" height="10.34" rx="4.9" fill="#232059" stroke="#000" stroke-miterlimit="10" stroke-width="0.71"/><rect x="3.6" y="176.6" width="21.2" height="10.34" rx="4.9" fill="#232059" stroke="#000" stroke-miterlimit="10" stroke-width="0.71"/><rect x="27.5" y="176.6" width="21.2" height="10.34" rx="4.9" fill="#232059" stroke="#000" stroke-miterlimit="10" stroke-width="0.71"/><rect x="53.8" y="176.6" width="21.2" height="10.34" rx="4.9" fill="#232059" stroke="#000" stroke-miterlimit="10" stroke-width="0.71"/><rect x="77.7" y="176.6" width="21.2" height="10.34" rx="4.9" fill="#232059" stroke="#000" stroke-miterlimit="10" stroke-width="0.71"/><rect x="3.6" y="190.5" width="21.2" height="10.34" rx="4.9" fill="#232059" stroke="#000" stroke-miterlimit="10" stroke-width="0.71"/><rect x="27.5" y="190.5" width="21.2" height="10.34" rx="4.9" fill="#232059" stroke="#000" stroke-miterlimit="10" stroke-width="0.71"/><rect x="53.8" y="190.5" width="21.2" height="10.34" rx="4.9" fill="#232059" stroke="#000" stroke-miterlimit="10" stroke-width="0.71"/><rect x="77.7" y="190.5" width="21.2" height="10.34" rx="4.9" fill="#232059" stroke="#000" stroke-miterlimit="10" stroke-width="0.71"/><rect x="3.6" y="204.4" width="21.2" height="10.34" rx="4.9" fill="#232059" stroke="#000" stroke-miterlimit="10" stroke-width="0.71"/><rect x="27.5" y="204.4" width="21.2" height="10.34" rx="4.9" fill="#232059" stroke="#000" stroke-miterlimit="10" stroke-width="0.71"/><rect x="53.8" y="204.4" width="21.2" height="10.34" rx="4.9" fill="#232059" stroke="#000" stroke-miterlimit="10" stroke-width="0.71"/><rect x="77.7" y="204.4" width="21.2" height="10.34" rx="4.9" fill="#232059" stroke="#000" stroke-miterlimit="10" stroke-width="0.71"/><rect x="3.6" y="218.4" width="21.2" height="10.34" rx="4.9" fill="#232059" stroke="#000" stroke-miterlimit="10" stroke-width="0.71"/><rect x="27.5" y="218.4" width="21.2" height="10.34" rx="4.9" fill="#232059" stroke="#000" stroke-miterlimit="10" stroke-width="0.71"/><rect x="53.8" y="218.4" width="21.2" height="10.34" rx="4.9" fill="#232059" stroke="#000" stroke-miterlimit="10" stroke-width="0.71"/><rect x="77.7" y="218.4" width="21.2" height="10.34" rx="4.9" fill="#232059" stroke="#000" stroke-miterlimit="10" stroke-width="0.71"/><rect x="3.6" y="232.3" width="21.2" height="10.34" rx="4.9" fill="#232059" stroke="#000" stroke-miterlimit="10" stroke-width="0.71"/><rect x="27.5" y="232.3" width="21.2" height="10.34" rx="4.9" fill="#232059" stroke="#000" stroke-miterlimit="10" stroke-width="0.71"/><rect x="53.8" y="232.3" width="21.2" height="10.34" rx="4.9" fill="#232059" stroke="#000" stroke-miterlimit="10" stroke-width="0.71"/><rect x="77.7" y="232.3" width="21.2" height="10.34" rx="4.9" fill="#232059" stroke="#000" stroke-miterlimit="10" stroke-width="0.71"/><rect x="3.6" y="246.2" width="21.2" height="10.34" rx="4.9" fill="#232059" stroke="#000" stroke-miterlimit="10" stroke-width="0.71"/><rect x="27.5" y="246.2" width="21.2" height="10.34" rx="4.9" fill="#232059" stroke="#000" stroke-miterlimit="10" stroke-width="0.71"/><rect x="53.8" y="246.2" width="21.2" height="10.34" rx="4.9" fill="#232059" stroke="#000" stroke-miterlimit="10" stroke-width="0.71"/><rect x="77.7" y="246.2" width="21.2" height="10.34" rx="4.9" fill="#232059" stroke="#000" stroke-miterlimit="10" stroke-width="0.71"/><rect x="3.6" y="260.2" width="21.2" height="10.34" rx="4.9" fill="#232059" stroke="#000" stroke-miterlimit="10" stroke-width="0.71"/><rect x="27.5" y="260.2" width="21.2" height="10.34" rx="4.9" fill="#232059" stroke="#000" stroke-miterlimit="10" stroke-width="0.71"/><rect x="53.8" y="260.2" width="21.2" height="10.34" rx="4.9" fill="#232059" stroke="#000" stroke-miterlimit="10" stroke-width="0.71"/><rect x="77.7" y="260.2" width="21.2" height="10.34" rx="4.9" fill="#232059" stroke="#000" stroke-miterlimit="10" stroke-width="0.71"/><rect x="3.6" y="273" width="21.2" height="10.34" rx="4.9" fill="#232059" stroke="#000" stroke-miterlimit="10" stroke-width="0.71"/><rect x="27.5" y="273" width="21.2" height="10.34" rx="4.9" fill="#232059" stroke="#000" stroke-miterlimit="10" stroke-width="0.71"/><rect x="53.8" y="273" width="21.2" height="10.34" rx="4.9" fill="#232059" stroke="#000" stroke-miterlimit="10" stroke-width="0.71"/><rect x="77.7" y="273" width="21.2" height="10.34" rx="4.9" fill="#232059" stroke="#000" stroke-miterlimit="10" stroke-width="0.71"/><rect x="167.6" y="14.7" width="115.9" height="268.77" fill="#1d185b" stroke="#000" stroke-miterlimit="10" stroke-width="0.71"/><rect x="172" y="22.6" width="23.8" height="11.61" rx="5.5" fill="#282566" stroke="#000" stroke-miterlimit="10" stroke-width="0.71"/><rect x="198.8" y="22.6" width="23.8" height="11.61" rx="5.5" fill="#282566" stroke="#000" stroke-miterlimit="10" stroke-width="0.71"/><rect x="228.4" y="22.6" width="23.8" height="11.61" rx="5.5" fill="#282566" stroke="#000" stroke-miterlimit="10" stroke-width="0.71"/><rect x="255.2" y="22.6" width="23.8" height="11.61" rx="5.5" fill="#282566" stroke="#000" stroke-miterlimit="10" stroke-width="0.71"/><rect x="172" y="38.2" width="23.8" height="11.61" rx="5.5" fill="#282566" stroke="#000" stroke-miterlimit="10" stroke-width="0.71"/><rect x="198.8" y="38.2" width="23.8" height="11.61" rx="5.5" fill="#282566" stroke="#000" stroke-miterlimit="10" stroke-width="0.71"/><rect x="228.4" y="38.2" width="23.8" height="11.61" rx="5.5" fill="#282566" stroke="#000" stroke-miterlimit="10" stroke-width="0.71"/><rect x="255.2" y="38.2" width="23.8" height="11.61" rx="5.5" fill="#282566" stroke="#000" stroke-miterlimit="10" stroke-width="0.71"/><rect x="172" y="53.9" width="23.8" height="11.61" rx="5.5" fill="#282566" stroke="#000" stroke-miterlimit="10" stroke-width="0.71"/><rect x="198.8" y="53.9" width="23.8" height="11.61" rx="5.5" fill="#282566" stroke="#000" stroke-miterlimit="10" stroke-width="0.71"/><rect x="228.4" y="53.9" width="23.8" height="11.61" rx="5.5" fill="#282566" stroke="#000" stroke-miterlimit="10" stroke-width="0.71"/><rect x="255.2" y="53.9" width="23.8" height="11.61" rx="5.5" fill="#282566" stroke="#000" stroke-miterlimit="10" stroke-width="0.71"/><rect x="172" y="69.5" width="23.8" height="11.61" rx="5.5" fill="#282566" stroke="#000" stroke-miterlimit="10" stroke-width="0.71"/><rect x="198.8" y="69.5" width="23.8" height="11.61" rx="5.5" fill="#282566" stroke="#000" stroke-miterlimit="10" stroke-width="0.71"/><rect x="228.4" y="69.5" width="23.8" height="11.61" rx="5.5" fill="#282566" stroke="#000" stroke-miterlimit="10" stroke-width="0.71"/><rect x="255.2" y="69.5" width="23.8" height="11.61" rx="5.5" fill="#282566" stroke="#000" stroke-miterlimit="10" stroke-width="0.71"/><rect x="172" y="85.2" width="23.8" height="11.61" rx="5.5" fill="#282566" stroke="#000" stroke-miterlimit="10" stroke-width="0.71"/><rect x="198.8" y="85.2" width="23.8" height="11.61" rx="5.5" fill="#282566" stroke="#000" stroke-miterlimit="10" stroke-width="0.71"/><rect x="228.4" y="85.2" width="23.8" height="11.61" rx="5.5" fill="#282566" stroke="#000" stroke-miterlimit="10" stroke-width="0.71"/><rect x="255.2" y="85.2" width="23.8" height="11.61" rx="5.5" fill="#282566" stroke="#000" stroke-miterlimit="10" stroke-width="0.71"/><rect x="172" y="100.8" width="23.8" height="11.61" rx="5.5" fill="#282566" stroke="#000" stroke-miterlimit="10" stroke-width="0.71"/><rect x="198.8" y="100.8" width="23.8" height="11.61" rx="5.5" fill="#282566" stroke="#000" stroke-miterlimit="10" stroke-width="0.71"/><rect x="228.4" y="100.8" width="23.8" height="11.61" rx="5.5" fill="#282566" stroke="#000" stroke-miterlimit="10" stroke-width="0.71"/><rect x="255.2" y="100.8" width="23.8" height="11.61" rx="5.5" fill="#282566" stroke="#000" stroke-miterlimit="10" stroke-width="0.71"/><rect x="172" y="116.5" width="23.8" height="11.61" rx="5.5" fill="#282566" stroke="#000" stroke-miterlimit="10" stroke-width="0.71"/><rect x="198.8" y="116.5" width="23.8" height="11.61" rx="5.5" fill="#282566" stroke="#000" stroke-miterlimit="10" stroke-width="0.71"/><rect x="228.4" y="116.5" width="23.8" height="11.61" rx="5.5" fill="#282566" stroke="#000" stroke-miterlimit="10" stroke-width="0.71"/><rect x="255.2" y="116.5" width="23.8" height="11.61" rx="5.5" fill="#282566" stroke="#000" stroke-miterlimit="10" stroke-width="0.71"/><rect x="172" y="132.1" width="23.8" height="11.61" rx="5.5" fill="#282566" stroke="#000" stroke-miterlimit="10" stroke-width="0.71"/><rect x="198.8" y="132.1" width="23.8" height="11.61" rx="5.5" fill="#282566" stroke="#000" stroke-miterlimit="10" stroke-width="0.71"/><rect x="228.4" y="132.1" width="23.8" height="11.61" rx="5.5" fill="#282566" stroke="#000" stroke-miterlimit="10" stroke-width="0.71"/><rect x="255.2" y="132.1" width="23.8" height="11.61" rx="5.5" fill="#282566" stroke="#000" stroke-miterlimit="10" stroke-width="0.71"/><rect x="172" y="147.8" width="23.8" height="11.61" rx="5.5" fill="#282566" stroke="#000" stroke-miterlimit="10" stroke-width="0.71"/><rect x="198.8" y="147.8" width="23.8" height="11.61" rx="5.5" fill="#282566" stroke="#000" stroke-miterlimit="10" stroke-width="0.71"/><rect x="228.4" y="147.8" width="23.8" height="11.61" rx="5.5" fill="#282566" stroke="#000" stroke-miterlimit="10" stroke-width="0.71"/><rect x="255.2" y="147.8" width="23.8" height="11.61" rx="5.5" fill="#282566" stroke="#000" stroke-miterlimit="10" stroke-width="0.71"/><rect x="172" y="163.4" width="23.8" height="11.61" rx="5.5" fill="#282566" stroke="#000" stroke-miterlimit="10" stroke-width="0.71"/><rect x="198.8" y="163.4" width="23.8" height="11.61" rx="5.5" fill="#282566" stroke="#000" stroke-miterlimit="10" stroke-width="0.71"/><rect x="228.4" y="163.4" width="23.8" height="11.61" rx="5.5" fill="#282566" stroke="#000" stroke-miterlimit="10" stroke-width="0.71"/><rect x="255.2" y="163.4" width="23.8" height="11.61" rx="5.5" fill="#282566" stroke="#000" stroke-miterlimit="10" stroke-width="0.71"/><rect x="172" y="179.1" width="23.8" height="11.61" rx="5.5" fill="#282566" stroke="#000" stroke-miterlimit="10" stroke-width="0.71"/><rect x="198.8" y="179.1" width="23.8" height="11.61" rx="5.5" fill="#282566" stroke="#000" stroke-miterlimit="10" stroke-width="0.71"/><rect x="228.4" y="179.1" width="23.8" height="11.61" rx="5.5" fill="#282566" stroke="#000" stroke-miterlimit="10" stroke-width="0.71"/><rect x="255.2" y="179.1" width="23.8" height="11.61" rx="5.5" fill="#282566" stroke="#000" stroke-miterlimit="10" stroke-width="0.71"/><rect x="172" y="194.7" width="23.8" height="11.61" rx="5.5" fill="#282566" stroke="#000" stroke-miterlimit="10" stroke-width="0.71"/><rect x="198.8" y="194.7" width="23.8" height="11.61" rx="5.5" fill="#282566" stroke="#000" stroke-miterlimit="10" stroke-width="0.71"/><rect x="228.4" y="194.7" width="23.8" height="11.61" rx="5.5" fill="#282566" stroke="#000" stroke-miterlimit="10" stroke-width="0.71"/><rect x="255.2" y="194.7" width="23.8" height="11.61" rx="5.5" fill="#282566" stroke="#000" stroke-miterlimit="10" stroke-width="0.71"/><rect x="172" y="210.4" width="23.8" height="11.61" rx="5.5" fill="#282566" stroke="#000" stroke-miterlimit="10" stroke-width="0.71"/><rect x="198.8" y="210.4" width="23.8" height="11.61" rx="5.5" fill="#282566" stroke="#000" stroke-miterlimit="10" stroke-width="0.71"/><rect x="228.4" y="210.4" width="23.8" height="11.61" rx="5.5" fill="#282566" stroke="#000" stroke-miterlimit="10" stroke-width="0.71"/><rect x="255.2" y="210.4" width="23.8" height="11.61" rx="5.5" fill="#282566" stroke="#000" stroke-miterlimit="10" stroke-width="0.71"/><rect x="172" y="226" width="23.8" height="11.61" rx="5.5" fill="#282566" stroke="#000" stroke-miterlimit="10" stroke-width="0.71"/><rect x="198.8" y="226" width="23.8" height="11.61" rx="5.5" fill="#282566" stroke="#000" stroke-miterlimit="10" stroke-width="0.71"/><rect x="228.4" y="226" width="23.8" height="11.61" rx="5.5" fill="#282566" stroke="#000" stroke-miterlimit="10" stroke-width="0.71"/><rect x="255.2" y="226" width="23.8" height="11.61" rx="5.5" fill="#282566" stroke="#000" stroke-miterlimit="10" stroke-width="0.71"/><rect x="172" y="241.7" width="23.8" height="11.61" rx="5.5" fill="#282566" stroke="#000" stroke-miterlimit="10" stroke-width="0.71"/><rect x="198.8" y="241.7" width="23.8" height="11.61" rx="5.5" fill="#282566" stroke="#000" stroke-miterlimit="10" stroke-width="0.71"/><rect x="228.4" y="241.7" width="23.8" height="11.61" rx="5.5" fill="#282566" stroke="#000" stroke-miterlimit="10" stroke-width="0.71"/><rect x="255.2" y="241.7" width="23.8" height="11.61" rx="5.5" fill="#282566" stroke="#000" stroke-miterlimit="10" stroke-width="0.71"/><rect x="172" y="257.3" width="23.8" height="11.61" rx="5.5" fill="#282566" stroke="#000" stroke-miterlimit="10" stroke-width="0.71"/><rect x="198.8" y="257.3" width="23.8" height="11.61" rx="5.5" fill="#282566" stroke="#000" stroke-miterlimit="10" stroke-width="0.71"/><rect x="228.4" y="257.3" width="23.8" height="11.61" rx="5.5" fill="#282566" stroke="#000" stroke-miterlimit="10" stroke-width="0.71"/><rect x="255.2" y="257.3" width="23.8" height="11.61" rx="5.5" fill="#282566" stroke="#000" stroke-miterlimit="10" stroke-width="0.71"/><rect x="172" y="271.7" width="23.8" height="11.61" rx="5.5" fill="#282566" stroke="#000" stroke-miterlimit="10" stroke-width="0.71"/><rect x="198.8" y="271.7" width="23.8" height="11.61" rx="5.5" fill="#282566" stroke="#000" stroke-miterlimit="10" stroke-width="0.71"/><rect x="228.4" y="271.7" width="23.8" height="11.61" rx="5.5" fill="#282566" stroke="#000" stroke-miterlimit="10" stroke-width="0.71"/><rect x="255.2" y="271.7" width="23.8" height="11.61" rx="5.5" fill="#282566" stroke="#000" stroke-miterlimit="10" stroke-width="0.71"/></svg>