<svg xmlns="http://www.w3.org/2000/svg" viewBox="0 0 283.5 283.5"><path d="M59.3,92.5c-7.9,10.1-16.3,35.1,5,72.5,0,0,12.4-14.2,4-26.9,21.9,7.3,28.1-4.4,21.3-19.8,7.4,10.7,27.6,19.8,41.7,4.3,3.3,12.8,15.7,26.4,23,5.9,9.6,7.3,16.9.5,15.2-7.3,7.3,10.5,17.4,23.7,41.6,15.5a37,37,0,0,0,8.5,28.3s24.1-56.5-8.5-84.3c1.7-16-11.2-27.4-31.5-26,3.3-10.9-2.2-31.4-43.8-31.4s-34.4,32.8-34.4,32.8S65.5,47,59.3,92.5Z" fill="#8a231c" stroke="#000" stroke-linecap="round" stroke-linejoin="round" stroke-width="0.71"/><path d="M179.6,54.7c-1.7,11.6-35.2,13.2-48.3,7.3" fill="none" stroke="#000" stroke-linecap="round" stroke-linejoin="round" stroke-width="0.71"/><path d="M197.2,138.7a26.4,26.4,0,0,1-17.7-6.5,7.9,7.9,0,0,0,5.6-2.9,9.4,9.4,0,0,0,2-5.9c4.3,6,9.3,11.8,16.8,14.7a40.6,40.6,0,0,1-6.7.6Z" fill="#5b100e"/><path d="M144.8,138.4c-3.1,0-6.6-2.8-9.4-7.5a25.4,25.4,0,0,0,12.4-7.2,32.9,32.9,0,0,0,4.1,8.9c-2,3.9-4.4,5.8-7.1,5.8Z" fill="#5b100e"/><path d="M113.4,130.3l-3.9-.3a22.3,22.3,0,0,0-1.3-8.5,33.7,33.7,0,0,0,11.6,7.9,22.5,22.5,0,0,1-6.4.9Z" fill="#5b100e"/><path d="M64.4,164c-24.1-42.7-8.1-66.7-4.7-71.1h.1v-.2c4.4-31.9,23.4-36.7,34.4-36.7a35.7,35.7,0,0,1,5.9.5C89.9,59.6,78.8,68.7,75.5,92.3c-3.3,4.2-12.8,19.3-6.3,45.5l-.8-.2-1.5-.6.9,1.4C74.9,149.2,66.6,161.1,64.4,164ZM102,55.9c-.2-1.1-2.3-12.7,4.8-21.6,5.6-6.9,15.3-10.5,29-10.5h4.1q-12.1,2.7-18,10.8c-5.8,8.1-4.9,17.8-4.4,20.7a29.4,29.4,0,0,0-6.5-.6A38,38,0,0,0,102,55.9Z" fill="#5b100e"/></svg>