<svg xmlns="http://www.w3.org/2000/svg" viewBox="0 0 283.5 283.5"><path d="M141.7,23.3c-92.5,0-99.1,62.2-86.5,95.6,0,41.1,10.6,55.5,10.6,55.5s16.7-39.6,11.4-60.9c23.3-2.2,38.6-14.3,36.6-42.4,0,0,4.6,7.7,27.9,7.7s28-7.7,28-7.7c-2,28.1,13.3,40.2,36.6,42.4-5.3,21.3,11.3,60.9,11.3,60.9s10.7-14.4,10.7-55.5C240.9,85.5,234.3,23.3,141.7,23.3Z" fill="#ac7eb6" stroke="#000" stroke-linecap="round" stroke-linejoin="round" stroke-width="0.71"/><path d="M65.7,173.2c-2.2-3.8-9.9-19.5-9.9-54.3h-.1c-6.4-17-8.2-42.6,6-63.3s41.9-31.6,80-31.6c22.8,0,41.7,3.9,56.4,11.4-12.2-3.8-26.4-5.7-42.4-5.7-38.5,0-66.5,11.1-80.9,32.1s-12.7,46.9-6.2,64.3a178.2,178.2,0,0,0,2.6,31.7C68.9,165,66.6,170.9,65.7,173.2Z" fill="#6f4d77"/><path d="M68.1,78.2,3.3,6.7,90.9,47.3A19.6,19.6,0,0,1,96,79.4h0A19.7,19.7,0,0,1,68.1,78.2Z" fill="#d24bea" stroke="#000" stroke-linecap="round" stroke-linejoin="round" stroke-width="0.71"/><path d="M215.3,78.2,280.2,6.7,192.6,47.3a19.5,19.5,0,0,0-5.2,32.1h0A19.7,19.7,0,0,0,215.3,78.2Z" fill="#d24bea" stroke="#000" stroke-linecap="round" stroke-linejoin="round" stroke-width="0.71"/><path d="M193.2,110.3c-12.6-4.2-20.1-12.8-22.4-25.5,7.1-1.5,10.6-3.9,12.2-5.3C182.3,92.9,185.8,103.3,193.2,110.3Z" fill="#6f4d77"/><path d="M217.7,173.2c-2.3-5.9-13.8-35.9-11.6-55.2a58.4,58.4,0,0,0,13.5,2.9c-2,8.8-.8,21.5,3.7,37.7C221.2,166.8,218.8,171.4,217.7,173.2Z" fill="#6f4d77"/><path d="M82.7,84.1a18.9,18.9,0,0,1-14.1-6.3L5.6,8.4l16.8,7.8L68.6,67a19.8,19.8,0,0,0,14.9,6.7h0a20.4,20.4,0,0,0,13.8-5.5,19.2,19.2,0,0,0,4.2-5.6A18.8,18.8,0,0,1,95.7,79,19.2,19.2,0,0,1,82.7,84.1Z" fill="#882c9b"/><path d="M200.8,84.1a19.2,19.2,0,0,1-13-5.1,18.9,18.9,0,0,1-5.9-16.4,19.5,19.5,0,0,0,4.3,5.6A20,20,0,0,0,200,73.7h0A20,20,0,0,0,214.9,67L261,16.2l16.9-7.8-63,69.4A18.9,18.9,0,0,1,200.8,84.1Z" fill="#882c9b"/></svg>