<svg xmlns="http://www.w3.org/2000/svg" viewBox="0 0 283.5 283.5"><path d="M181.6,55.8S184,44,170.3,41.5c0,0,4.8-39.1-28.6-39.1s-28.6,39.1-28.6,39.1C99.5,44,101.8,55.8,101.8,55.8c-39.9,5-33.9,44.7-33.9,44.7s41.7,2.5,47-24.2c0,0,6.6,12.2,26.8,12.2s26.8-12.2,26.8-12.2c5.4,26.7,47.1,24.2,47.1,24.2S221.5,60.8,181.6,55.8Z" fill="#5925b0" stroke="#000" stroke-linecap="round" stroke-linejoin="round" stroke-width="0.71"/><path d="M70.7,100H68.4c-.3-2.9-1.5-18.3,7.4-30,5.7-7.6,14.5-12.2,26.1-13.6h.6v-.6a12.2,12.2,0,0,1,1.7-8.4c1.9-2.7,4.9-4.4,9.1-5.2h.6v-.5c0-.2-2.2-19.2,7.7-30.4C126.2,5.7,133,3,141.7,3s15.9,2.9,20.7,8.5a35,35,0,0,0-10.5-1.6c-9.1,0-16.2,2.9-21.2,8.5s-7.3,14.3-7.9,20.1a46.8,46.8,0,0,0-.1,10.7c-4.3.8-7.5,2.7-9.4,5.5a13.3,13.3,0,0,0-2,8.7C83.6,67.1,78,87.5,77.3,99.8c-2.8.2-5.1.2-6.6.2Z" fill="#2a0c6b"/><path d="M142,87.9a37.3,37.3,0,0,1-17.2-3.8,28.9,28.9,0,0,0,2.6-6.3c1.7,2.3,6.5,7.7,16.3,10.1Z" fill="#2a0c6b"/><path d="M211,100c-8.8-.2-29.7-2.2-38.3-15.5a24.7,24.7,0,0,0,7.7-6.7C184.2,92.6,199.6,98,211,100Z" fill="#2a0c6b"/></svg>