<svg xmlns="http://www.w3.org/2000/svg" viewBox="0 0 283.5 283.5"><g style="isolation:isolate"><path d="M141.7,39.2c-54,0-82.2,34.7-79.9,70s17.8,46,17.8,46S66.4,58.7,141.7,58.7s62.1,96.5,62.1,96.5,15.5-10.7,17.8-46S195.8,39.2,141.7,39.2Z" fill="#fff684" stroke="#000" stroke-linecap="round" stroke-linejoin="round" stroke-width="0.71"/><path d="M78.9,153.8A35.2,35.2,0,0,1,72,145c-3.7-6.4-8.4-17.8-9.6-35.9A60.3,60.3,0,0,1,78.8,63.6c13.9-14.8,35.1-23.2,60.1-23.8-25.2,3.6-40.1,15-48.5,24.4a61.2,61.2,0,0,0-15.5,45,104.1,104.1,0,0,0,3.5,21.3A159.8,159.8,0,0,0,78.9,153.8Z" fill="#bab054"/><path d="M204.5,153.8c.9-8.1,4.1-49.9-16.3-75.3-8.2-10.3-19.3-16.7-33-19.2h.2c22,0,38.6,8.4,49.2,24.9,9.3,14.6,12.2,33.2,12.9,46.2C213.4,144.7,207,151.6,204.5,153.8Z" fill="#bab054"/><circle cx="141.7" cy="36.3" r="11.9" fill="#fff684" stroke="#000" stroke-linecap="round" stroke-linejoin="round" stroke-width="0.71"/><circle cx="79.7" cy="150.3" r="11.9" fill="#fff684" stroke="#000" stroke-linecap="round" stroke-linejoin="round" stroke-width="0.71"/><circle cx="60.5" cy="105.3" r="11.9" fill="#fff684" stroke="#000" stroke-linecap="round" stroke-linejoin="round" stroke-width="0.71"/><circle cx="72.3" cy="65.7" r="11.9" fill="#fff684" stroke="#000" stroke-linecap="round" stroke-linejoin="round" stroke-width="0.71"/><circle cx="103.4" cy="39.2" r="11.9" fill="#fff684" stroke="#000" stroke-linecap="round" stroke-linejoin="round" stroke-width="0.71"/><path d="M138.4,39.2a11.8,11.8,0,0,1,11.2-11.8,11.8,11.8,0,1,0-7.9,20.7h.7A11.8,11.8,0,0,1,138.4,39.2Z" fill="#bab054" style="mix-blend-mode:multiply"/><circle cx="141.7" cy="36.3" r="11.9" fill="#fff684" stroke="#000" stroke-linecap="round" stroke-linejoin="round" stroke-width="0.71"/><circle cx="203.7" cy="150.3" r="11.9" fill="#fff684" stroke="#000" stroke-linecap="round" stroke-linejoin="round" stroke-width="0.71"/><circle cx="223" cy="105.3" r="11.9" fill="#fff684" stroke="#000" stroke-linecap="round" stroke-linejoin="round" stroke-width="0.71"/><circle cx="211.2" cy="65.7" r="11.9" fill="#fff684" stroke="#000" stroke-linecap="round" stroke-linejoin="round" stroke-width="0.71"/><circle cx="180" cy="39.2" r="11.9" fill="#fff684" stroke="#000" stroke-linecap="round" stroke-linejoin="round" stroke-width="0.71"/><path d="M102.7,50.5a11.3,11.3,0,0,1,.7-22.6,11.6,11.6,0,0,1,6.5,2A12.6,12.6,0,0,0,99.5,42.2,12.9,12.9,0,0,0,102.7,50.5Z" fill="#bab054"/><path d="M71.6,76.9a11.3,11.3,0,1,1,7.1-20.5A12.4,12.4,0,0,0,68.4,68.6,12,12,0,0,0,71.6,76.9Z" fill="#bab054"/><path d="M59.7,116.6A11.3,11.3,0,1,1,66.9,96a12.5,12.5,0,0,0-10.4,12.3A12.9,12.9,0,0,0,59.7,116.6Z" fill="#bab054"/><path d="M79,161.5a11.3,11.3,0,0,1,.7-22.5,11,11,0,0,1,6.4,2A12.4,12.4,0,0,0,79,161.5Z" fill="#bab054"/><path d="M142.4,47.5a12.1,12.1,0,0,0,3.3-8.3A12.4,12.4,0,0,0,135.3,27a11.3,11.3,0,1,1,7.1,20.5Z" fill="#bab054"/><path d="M180.7,50.5a12.5,12.5,0,0,0-7.1-20.6,11.3,11.3,0,1,1,7.1,20.6Z" fill="#bab054"/><path d="M211.9,76.9a12.4,12.4,0,0,0-7.2-20.5,11.6,11.6,0,0,1,6.5-2,11.3,11.3,0,0,1,.7,22.5Z" fill="#bab054"/><path d="M223.7,116.6A12.5,12.5,0,0,0,216.6,96a11.3,11.3,0,1,1,7.1,20.6Z" fill="#bab054"/><path d="M204.5,161.5a12.4,12.4,0,0,0-7.2-20.5,11.3,11.3,0,0,1,17.7,9.3A11.1,11.1,0,0,1,204.5,161.5Z" fill="#bab054"/></g></svg>