<svg xmlns="http://www.w3.org/2000/svg" viewBox="0 0 283.5 283.5"><path d="M59,200.1s29.2-3.7,27.1,18.4c8.4-1.8,10.3,5,8.7,8.7,12.9-3.7,21.2,3.8,17,25.3,0,0-18.5,1.2-18.1-15.3-10.8.8-16-2.7-16.5-9.2-10.6-1.1-11.3-13.4-9.5-19C59.5,208.2,59,200.1,59,200.1Z" fill="#3e2f1f" stroke="#000" stroke-miterlimit="10" stroke-width="0.71"/><path d="M224.4,200.1s-29.1-3.7-27,18.4c-8.5-1.8-10.3,5-8.7,8.7-12.9-3.7-21.2,3.8-17.1,25.3,0,0,18.6,1.2,18.2-15.3,10.7.8,16-2.7,16.5-9.2,10.5-1.1,11.3-13.4,9.5-19C223.9,208.2,224.4,200.1,224.4,200.1Z" fill="#3e2f1f" stroke="#000" stroke-miterlimit="10" stroke-width="0.71"/><path d="M176.7,199.9s-20-6.1-26.3,2.3c0,0-1.6,6.8-8.7,6.8s-8.6-6.8-8.6-6.8c-6.4-8.4-26.3-2.3-26.3-2.3s-1.4,6.8,9.2,7.8c0,0,4.4,10,25.7,10s25.8-10,25.8-10C178,206.7,176.7,199.9,176.7,199.9Z" fill="#3e2f1f" stroke="#000" stroke-miterlimit="10" stroke-width="0.71"/><path d="M87.9,227.4c-10.4-1.2-10.8-11.8-8.9-16.5-8-.9-8.3-7.9-8.3-7.9s3.3.1,7.6.5c-7.7-3.3-17.9-2.8-17.9-2.8s.3,6.9,8.4,7.9c-2,4.6-1.6,15.2,8.8,16.4.3,5.2,4.8,8.2,13.9,8.4A7.2,7.2,0,0,1,87.9,227.4Z" fill="#281b10"/><path d="M104.6,239.5a23.8,23.8,0,0,1-9.8-1c.5,12.4,13.1,13.1,16.3,13.1C107.5,249.7,104.4,246.1,104.6,239.5Z" fill="#281b10"/><path d="M195.6,227.4c10.4-1.2,10.8-11.8,8.8-16.5,8.1-.9,8.4-7.9,8.4-7.9s-3.3.1-7.7.5c7.8-3.3,18-2.8,18-2.8s-.3,6.9-8.4,7.9c2,4.6,1.5,15.2-8.9,16.4-.3,5.2-4.7,8.2-13.8,8.4A7.4,7.4,0,0,0,195.6,227.4Z" fill="#281b10"/><path d="M178.9,239.5a23.1,23.1,0,0,0,9.7-1c-.5,12.4-13.1,13.1-16.2,13.1C176,249.7,179.1,246.1,178.9,239.5Z" fill="#281b10"/><path d="M159.5,202.8c1.7-2.3,4.5-3.4,7.5-3.9-5.6-.6-12.5-.4-15.7,3.9a8.9,8.9,0,0,1-3.9,5.2,8.7,8.7,0,0,0,4.2,1C158.1,209,159.5,202.8,159.5,202.8Z" fill="#281b10"/><path d="M123.8,207c-8.6-.9-7.5-6.4-7.5-6.4a48.6,48.6,0,0,1,7.5-1.5c-6.6-1-14.8,1.5-14.8,1.5s-1,5.5,7.5,6.4c0,0,3.6,8.1,20.9,8.1l3.6-.2C126.9,213.9,123.8,207,123.8,207Z" fill="#281b10"/></svg>