<svg xmlns="http://www.w3.org/2000/svg" viewBox="0 0 283.5 283.5"><path d="M141.7,239.4c-18.6,0-22.2,12-11.1,17.1,1,13.9,11.1,19.3,11.1,19.3s10.2-5.4,11.2-19.3C163.9,251.4,160.3,239.4,141.7,239.4Z" fill="#6fe7fc" stroke="#000" stroke-linecap="round" stroke-linejoin="round" stroke-width="0.71"/><path d="M146.5,243.7a28.3,28.3,0,0,1,8.3,1.1c-2.3-2.4-6.9-4.2-13.7-4.2-16.5,0-19.7,10.7-9.8,15.2.8,12.3,9.8,17.1,9.8,17.1l1-.6a22,22,0,0,1-5.5-13.4C126.8,254.4,130,243.7,146.5,243.7Z" fill="#20afcc"/></svg>