<svg xmlns="http://www.w3.org/2000/svg" viewBox="0 0 283.5 283.5"><path d="M219.3,143.5a2.9,2.9,0,0,0-3,3c.3,5.9.4,18.7-4.2,25.1-6.1,8.5-21.5,19-26.2,42.8,0,0-6.4,1.2-11.4-9.6s-17.1-14.2-32.8-14.2S114,193.9,109,204.8s-11.5,9.6-11.5,9.6c-4.6-23.8-20-34.3-26.1-42.8-4.6-6.4-4.5-19.2-4.2-25.1a2.9,2.9,0,0,0-3-3,2.9,2.9,0,0,0-3.1,3c.4,7.1,1.3,25.3,2.4,39.7,1.4,18.4,14.3,33.2,22.9,46s11.1,17.1,21.5,12.7c0,0,2.4-37.8,33.8-37.8s33.8,37.8,33.8,37.8c10.4,4.4,12.9,0,21.5-12.7s21.5-27.6,23-46c1.1-14.4,2-32.6,2.3-39.7A2.9,2.9,0,0,0,219.3,143.5Z" fill="#3e2e1d" stroke="#000" stroke-miterlimit="10" stroke-width="0.71"/><path d="M98.9,233c-7.4-10.9-18.4-23.6-19.7-39.4l-.3-4.5a13.7,13.7,0,0,0-2.8-7.3l-.6-.7c-3.9-5.5-6.4-5.8-6.2-10.8a2.5,2.5,0,0,0-2.6-2.6,2.6,2.6,0,0,0-2.6,2.6c.3,6,3.7,10.9,4.7,23.3C70,209.4,81.1,222.1,88.4,233s9.5,14.7,18.5,10.9v-.5C104.6,241.5,102.3,238,98.9,233Z" fill="#281b10"/><path d="M121.2,204.3c3.7-8,12-11.3,22.8-12a44.3,44.3,0,0,0-5.2-.2c-13.5,0-23.8,2.9-28.1,12.2l-1,1.9a54.4,54.4,0,0,1,1.6,6.4S116.9,213.6,121.2,204.3Z" fill="#281b10"/><path d="M156.6,207.1a32.4,32.4,0,0,0-5.6.5c23.5,4.4,25.4,36.1,25.4,36.1,5.2,2.3,8.2,2.1,11.2-.5C187.2,238.7,183.4,207.1,156.6,207.1Z" fill="#281b10"/></svg>