<svg xmlns="http://www.w3.org/2000/svg" viewBox="0 0 283.5 283.5"><path d="M123.9,211.5h0a8.9,8.9,0,0,1-7.3,8.8c-8.5,1.6-21.9,7.3-25,27.1-4.6,29.7-25,25.1-25,25.1s13.9-5.4,12.7-23.5c-1.7-23.6,4.1-43,34.5-46.4A9,9,0,0,1,123.9,211.5Z" fill="#3b3b3b" stroke="#000" stroke-linecap="round" stroke-linejoin="round" stroke-width="0.71"/><path d="M159.6,211.5h0a8.9,8.9,0,0,0,7.2,8.8c8.6,1.6,22,7.3,25.1,27.1,4.6,29.7,25,25.1,25,25.1s-14-5.4-12.7-23.5c1.7-23.6-4.1-43-34.6-46.4A9,9,0,0,0,159.6,211.5Z" fill="#3b3b3b" stroke="#000" stroke-linecap="round" stroke-linejoin="round" stroke-width="0.71"/><path d="M141.7,237.6h0a7.7,7.7,0,0,0-7.5,9.5l7.5,33.3,7.6-33.3a7.8,7.8,0,0,0-7.6-9.5Z" fill="#3b3b3b" stroke="#000" stroke-linecap="round" stroke-linejoin="round" stroke-width="0.71"/><path d="M87.3,253.2c-1.9-30.7,7.1-43.6,35.4-41.8a8.3,8.3,0,0,0-9.1-7.5C85.8,207,79,227.7,80.5,249.2c1.2,16.5-10,22.3-10,22.3C71.5,273.5,88.1,267.6,87.3,253.2Z"/><path d="M196.2,253.2c1.8-30.7-7.1-43.6-35.4-41.8a8.1,8.1,0,0,1,9.1-7.5c27.8,3.1,34.5,23.8,33,45.3-1.1,16.5,10.1,22.3,10.1,22.3C212,273.5,195.3,267.6,196.2,253.2Z"/><path d="M145.2,241.8h1a6.2,6.2,0,0,0-5.2-2.9h0a6.1,6.1,0,0,0-6,7.5l6.7,30.3,1.8-7.9-4.3-19.5A6.2,6.2,0,0,1,145.2,241.8Z"/></svg>