<svg xmlns="http://www.w3.org/2000/svg" viewBox="0 0 283.5 283.5"><path d="M206.8,119.3a13.6,13.6,0,0,1-13.3-10.9c-1.4-6.8-1.5-15.9,3.8-24.6C182.9,83,174,71.9,174.4,62.7c0,0-3.2,30.3-32.7,30.3s-32.6-30.3-32.6-30.3c.4,9.2-8.5,20.3-22.9,21.1,5.3,8.7,5.1,17.8,3.8,24.6a13.6,13.6,0,0,1-13.4,10.9,13.9,13.9,0,0,1-8.6-3.1,157,157,0,0,0-3.7,34.1c0,61.2,34.7,110.8,77.4,110.8s77.5-49.6,77.5-110.8a156.9,156.9,0,0,0-3.8-34.1A13.5,13.5,0,0,1,206.8,119.3Z" fill="#ccc677" stroke="#000" stroke-linecap="round" stroke-linejoin="round" stroke-width="0.71"/><path d="M60.8,264.6A64.2,64.2,0,0,0,53,283.5h7.8Z" fill="#dad8fc" stroke="#000" stroke-linecap="round" stroke-linejoin="round" stroke-width="0.71"/><path d="M60.8,264.6v18.9h7.7V254.6A49.6,49.6,0,0,0,60.8,264.6Z" fill="#0018d8" stroke="#000" stroke-linecap="round" stroke-linejoin="round" stroke-width="0.71"/><path d="M68.5,254.6v28.9h7.7V248.2A44.4,44.4,0,0,0,68.5,254.6Z" fill="#dad8fc" stroke="#000" stroke-linecap="round" stroke-linejoin="round" stroke-width="0.71"/><path d="M76.2,283.5h7.7V244.2a43,43,0,0,0-7.7,4Z" fill="#0018d8" stroke="#000" stroke-linecap="round" stroke-linejoin="round" stroke-width="0.71"/><path d="M83.9,283.5h7.7V241.7a43.4,43.4,0,0,0-7.7,2.5Z" fill="#dad8fc" stroke="#000" stroke-linecap="round" stroke-linejoin="round" stroke-width="0.71"/><path d="M222.7,264.6a62.2,62.2,0,0,1,7.7,18.9h-7.7Z" fill="#dad8fc" stroke="#000" stroke-linecap="round" stroke-linejoin="round" stroke-width="0.71"/><path d="M222.7,264.6v18.9H215V254.6A53.6,53.6,0,0,1,222.7,264.6Z" fill="#0018d8" stroke="#000" stroke-linecap="round" stroke-linejoin="round" stroke-width="0.71"/><path d="M215,254.6v28.9h-7.7V248.2A44.4,44.4,0,0,1,215,254.6Z" fill="#dad8fc" stroke="#000" stroke-linecap="round" stroke-linejoin="round" stroke-width="0.71"/><path d="M207.3,283.5h-7.7V244.2a43,43,0,0,1,7.7,4Z" fill="#0018d8" stroke="#000" stroke-linecap="round" stroke-linejoin="round" stroke-width="0.71"/><path d="M199.6,283.5h-7.7V241.7a46.3,46.3,0,0,1,7.7,2.5Z" fill="#dad8fc" stroke="#000" stroke-linecap="round" stroke-linejoin="round" stroke-width="0.71"/><rect x="95.8" y="138.2" width="27.4" height="17.38" rx="8.7" fill="#404040" stroke="#000" stroke-linecap="round" stroke-linejoin="round" stroke-width="0.71"/><rect x="153.7" y="128.6" width="53.8" height="40.26" rx="17.4" fill="#222" stroke="#000" stroke-linecap="round" stroke-linejoin="round" stroke-width="0.71"/><circle cx="119.5" cy="60.9" r="5.9" fill="#fff" stroke="#000" stroke-miterlimit="10" stroke-width="0.71"/><circle cx="164" cy="60.9" r="5.9" fill="#fff" stroke="#000" stroke-miterlimit="10" stroke-width="0.71"/><path d="M117.5,62a5.3,5.3,0,0,1,5.1-5.3,5.3,5.3,0,1,0-3.3,9.4h.3A4.9,4.9,0,0,1,117.5,62Z" fill="#b8b8b8"/><path d="M162.1,62a5.2,5.2,0,0,1,5.1-5.3,5.5,5.5,0,0,0-3.3-1.1,5.3,5.3,0,1,0,0,10.5h.2A5.1,5.1,0,0,1,162.1,62Z" fill="#b8b8b8"/><path d="M113,141.6h8.4a8.3,8.3,0,0,0-6.9-3.4h-10a8.7,8.7,0,1,0,0,17.3h1.6a7.8,7.8,0,0,1-1.8-5.2A8.7,8.7,0,0,1,113,141.6Z"/><path d="M160,150.9a17.3,17.3,0,0,1,17.3-17.4h19.1a16.8,16.8,0,0,1,7.4,1.7,17.5,17.5,0,0,0-13.7-6.6h-19a17.3,17.3,0,0,0-17.4,17.3v5.5a17.2,17.2,0,0,0,10,15.7,17.1,17.1,0,0,1-3.7-10.7Z"/><rect x="160.2" y="138.2" width="27.4" height="17.38" rx="8.7" fill="#404040" stroke="#000" stroke-linecap="round" stroke-linejoin="round" stroke-width="0.71"/><path d="M177.4,141.6h8.5a8.7,8.7,0,0,0-7-3.4h-10a8.7,8.7,0,1,0,0,17.3h1.6a8.4,8.4,0,0,1-1.8-5.2A8.7,8.7,0,0,1,177.4,141.6Z"/><path d="M142.9,255.5a47.9,47.9,0,0,0,7.6-1C87.1,236.8,76.7,148,98.9,95.2a110,110,0,0,1,11-19.1c1.3-2.3-.7-5.4-.8-7.9-.3,10.2-10.7,16.2-19.8,17.7,8,13.9,1.9,43.8-19.4,34.4C54.5,178.7,90.4,260.8,142.9,255.5Z" fill="#9e9754"/><path d="M178.1,206.7a3.7,3.7,0,0,0-3.7-3.8H109.1a3.7,3.7,0,0,0-3.7,3.8c.3,10.8,4.2,40.5,36.3,40.5S177.7,217.5,178.1,206.7Z" fill="#222" stroke="#000" stroke-linecap="round" stroke-linejoin="round" stroke-width="0.71"/><path d="M117.3,206.8h60.8a3.7,3.7,0,0,0-3.7-3.8H109.1a3.7,3.7,0,0,0-3.7,3.8c.3,10,3.7,36.4,29.9,40C115.5,235.6,117.3,206.8,117.3,206.8Z"/><path d="M141.7,218.2c-12.2,0-19.9-2.6-24.5-5.4a2.4,2.4,0,0,0-3.5,3c4.2,9.6,12.8,23,28,23s23.8-13.4,28-23a2.4,2.4,0,0,0-3.4-3C161.6,215.6,154,218.2,141.7,218.2Z" fill="#404040" stroke="#000" stroke-linecap="round" stroke-linejoin="round" stroke-width="0.71"/><path d="M117.7,218.7a2.4,2.4,0,0,1,3.5-3c4.6,2.8,12.3,5.4,24.5,5.4s19.2-2.3,23.9-5v-.3a2.4,2.4,0,0,0-3.4-3c-4.7,2.8-12.3,5.4-24.6,5.4s-19.9-2.6-24.5-5.4a2.4,2.4,0,0,0-3.5,3c2.9,6.6,7.8,15,15.6,19.6C123.8,230.6,120.1,224.1,117.7,218.7Z"/></svg>