<svg xmlns="http://www.w3.org/2000/svg" viewBox="0 0 283.5 283.5"><path d="M219.3,143.5a2.9,2.9,0,0,0-3,3c.3,5.9.4,18.7-4.2,25.1-6.1,8.5-21.5,19-26.2,42.8,0,0-6.4,1.2-11.4-9.6s-17.1-14.2-32.8-14.2S114,193.9,109,204.8s-11.5,9.6-11.5,9.6c-4.6-23.8-20-34.3-26.1-42.8-4.6-6.4-4.5-19.2-4.2-25.1a2.9,2.9,0,0,0-3-3,2.9,2.9,0,0,0-3.1,3c.4,7.1,1.3,25.3,2.4,39.7,1.4,18.4,14.3,33.2,22.9,46s11.1,17.1,21.5,12.7c0,0,2.4-37.8,33.8-37.8s33.8,37.8,33.8,37.8c10.4,4.4,12.9,0,21.5-12.7s21.5-27.6,23-46c1.1-14.4,2-32.6,2.3-39.7A2.9,2.9,0,0,0,219.3,143.5Z" fill="#222" stroke="#000" stroke-linecap="round" stroke-linejoin="round" stroke-width="0.79"/><path d="M98.7,232.2c-8.6-12.8-21.5-27.6-23-46-.2-3.3-.5-6.8-.7-10.3a43.2,43.2,0,0,1-3.6-4.3c-4.6-6.4-4.5-19.2-4.2-25.1a2.9,2.9,0,0,0-3-3,2.9,2.9,0,0,0-3.1,3c.4,7.1,1.3,25.3,2.4,39.7,1.4,18.4,14.3,33.2,22.9,46s11.1,17.1,21.5,12.7a2.8,2.8,0,0,1,.1-.6C105.3,242.1,102.6,238,98.7,232.2Z"/><path d="M121.2,204.8c4.4-9.4,14-13.2,26.6-14a60.1,60.1,0,0,0-6.1-.2c-15.6,0-27.7,3.3-32.7,14.2l-1.1,2.2c.7,2.3,1.3,4.8,1.9,7.4C109.8,214.4,116.2,215.6,121.2,204.8Z"/><path d="M198.2,214.4c3.9-20,15.3-30.6,22.5-38.5.8-11.9,1.4-24,1.6-29.4a2.9,2.9,0,0,0-3-3,2.9,2.9,0,0,0-3,3c.3,5.9.4,18.7-4.2,25.1s-18.2,16.7-24.3,35.4C192.6,215.4,198.2,214.4,198.2,214.4Z"/><path d="M154,207.1a31.1,31.1,0,0,0-6.2.6c25.7,4.5,27.7,37.2,27.7,37.2,5.7,2.4,9,2.2,12.2-.6C187.3,239.8,183.2,207.1,154,207.1Z"/></svg>