<svg xmlns="http://www.w3.org/2000/svg" viewBox="0 0 283.5 283.5"><path d="M168.7,206.5s0,8.6-8.1,5.3-18.9-1.7-18.9-1.7-10.8-1.6-18.9,1.7-8.1-5.3-8.1-5.3-5.2,18.5,27,13.7C174,225,168.7,206.5,168.7,206.5Z" fill="#222" stroke="#000" stroke-miterlimit="10" stroke-width="0.71"/><path d="M127.2,214.6c8.1-3.3,18.9-1.8,18.9-1.8s10.8-1.5,18.9,1.8l2.2.7a11,11,0,0,0,1.5-8.8s0,8.6-8.1,5.3-18.9-1.7-18.9-1.7-10.8-1.6-18.9,1.7a9.6,9.6,0,0,1-3,.8C120.7,214.6,122.7,216.4,127.2,214.6Z"/><path d="M114.7,206.5s-2.5,9,7,12.8a10.1,10.1,0,0,1-2.9-6.8C114.7,211.9,114.7,206.5,114.7,206.5Z"/></svg>