<svg xmlns="http://www.w3.org/2000/svg" viewBox="0 0 283.5 283.5"><path d="M173.6,111.9c-13.1,0-23.7,14.6-23.7,32.6s10.6,32.7,23.7,32.7,23.7-14.6,23.7-32.7S186.7,111.9,173.6,111.9Zm8.6,46.3a5.3,5.3,0,1,1,5.2-5.2A5.2,5.2,0,0,1,182.2,158.2Z" fill="#fff" stroke="#000" stroke-linecap="round" stroke-linejoin="round" stroke-width="0.71"/><path d="M109.9,111.9c-13.1,0-23.7,14.6-23.7,32.6s10.6,32.7,23.7,32.7,23.7-14.6,23.7-32.7S123,111.9,109.9,111.9Zm0,11.9a2.8,2.8,0,0,1,0,5.6,2.8,2.8,0,0,1,0-5.6Zm4.7,28a4.8,4.8,0,0,1-9.5,0v-6.6a4.8,4.8,0,0,1,9.5,0Z" fill="#fff" stroke="#000" stroke-linecap="round" stroke-linejoin="round" stroke-width="0.71"/><path d="M117.4,118.9a17.8,17.8,0,0,1,6.1,1.1c-3.8-4.1-8.6-6.6-13.9-6.6-12.4,0-22.5,13.9-22.5,31.1,0,14.3,6.9,26.2,16.4,29.9-5.2-5.7-8.6-14.5-8.6-24.4C94.9,132.8,105,118.9,117.4,118.9Z" fill="#acacac"/><path d="M181.2,118.9a17.8,17.8,0,0,1,6.1,1.1c-3.8-4.1-8.6-6.6-13.9-6.6-12.4,0-22.5,13.9-22.5,31.1,0,14.3,6.9,26.2,16.4,29.9-5.3-5.7-8.6-14.5-8.6-24.4C158.7,132.8,168.7,118.9,181.2,118.9Z" fill="#acacac"/><rect x="105.1" y="130.3" width="9.5" height="9.5" rx="4.8" fill="#eb3223" stroke="#000" stroke-linecap="round" stroke-linejoin="round" stroke-width="0.71"/><path d="M142.6,78.3H125.9a7.3,7.3,0,0,0-7.3,7.4V97c0,9.7,15,18.1,24,18.1s24.1-8.4,24.1-18.1V85.7a7.4,7.4,0,0,0-7.3-7.4Z" fill="#eb3223" stroke="#000" stroke-linecap="round" stroke-linejoin="round" stroke-width="0.71"/><path d="M198.4,193.4a17.9,17.9,0,0,0-20.7-6.1c-5.2,2.1-10,6.1-10,13.4s-5.2,8.1-25.1,8.1-25.1-1.2-25.1-8.1-4.7-11.3-10-13.4a17.8,17.8,0,0,0-22.9,23.1c6.1,15.8,22.4,45.5,58,45.5s51.9-29.7,58.1-45.5A17.9,17.9,0,0,0,198.4,193.4Zm-37.7,39H124.6a5.7,5.7,0,0,1-5.7-5.7,5.6,5.6,0,0,1,5.7-5.7h36.1a5.7,5.7,0,0,1,5.7,5.7A5.8,5.8,0,0,1,160.7,232.4Z" fill="#fff" stroke="#000" stroke-linecap="round" stroke-linejoin="round" stroke-width="0.94"/><path d="M178.3,135V112.5a18.4,18.4,0,0,0-4.7-.6,19.7,19.7,0,0,0-4.8.6V135a4.8,4.8,0,0,0,4.8,4.8h0A4.7,4.7,0,0,0,178.3,135Z" fill="#eb3223" stroke="#000" stroke-linecap="round" stroke-linejoin="round" stroke-width="0.71"/><path d="M168.8,162.3v14.3a19.7,19.7,0,0,0,4.8.6,18.4,18.4,0,0,0,4.7-.6V162.3a4.7,4.7,0,0,0-4.7-4.7h0A4.8,4.8,0,0,0,168.8,162.3Z" fill="#eb3223" stroke="#000" stroke-linecap="round" stroke-linejoin="round" stroke-width="0.71"/><path d="M114.6,118.2v-5.7a18.4,18.4,0,0,0-4.7-.6,19.1,19.1,0,0,0-4.8.6v5.7a4.7,4.7,0,0,0,4.8,4.7h0A4.7,4.7,0,0,0,114.6,118.2Z" fill="#eb3223" stroke="#000" stroke-linecap="round" stroke-linejoin="round" stroke-width="0.71"/><path d="M105.1,162.3v14.3a19.1,19.1,0,0,0,4.8.6,18.4,18.4,0,0,0,4.7-.6V162.3a4.7,4.7,0,0,0-4.7-4.7h0A4.7,4.7,0,0,0,105.1,162.3Z" fill="#eb3223" stroke="#000" stroke-linecap="round" stroke-linejoin="round" stroke-width="0.71"/><path d="M131.6,100.7V89.8a7,7,0,0,1,7-7.1h26.3a7,7,0,0,0-6.2-3.7H126.5a7,7,0,0,0-7,7.1V97c0,9.3,14.2,17.3,22.9,17.4C136.5,111.2,131.6,106.2,131.6,100.7Z" fill="#840b0b"/><path d="M141.7,218c-38.2,0-45.5-17.7-45.5-17.7s10.8,47.6,45.5,47.6,45.6-47.6,45.6-47.6S179.9,218,141.7,218Z" fill="#d3d3d3"/><path d="M141.7,242.3c-16.4,0-26.8-12.9-32.9-24.7,7.5,3.4,18.2,5.9,32.9,5.9,13.1,0,24.1-1.9,33-5.8C168.5,229.4,158.1,242.3,141.7,242.3Z" fill="#404040"/></svg>