<svg xmlns="http://www.w3.org/2000/svg" viewBox="0 0 283.5 283.5"><path d="M168.7,206.5s0,8.6-8.1,5.3-18.9-1.7-18.9-1.7-10.8-1.6-18.9,1.7-8.1-5.3-8.1-5.3-5.2,18.5,27,13.7C174,225,168.7,206.5,168.7,206.5Z" fill="#3e2e1d" stroke="#000" stroke-linecap="round" stroke-linejoin="round" stroke-width="0.71"/><path d="M127.2,215.4c8.1-3.3,18.9-1.8,18.9-1.8s10.8-1.5,18.9,1.8l1.1.3c2.8-4,2.4-6,2.4-6s.2,6.2-7.9,2.9-18.9-1.8-18.9-1.8-10.8-1.5-18.9,1.8a7.2,7.2,0,0,1-3,.7C120.7,215.3,122.7,217.2,127.2,215.4Z" fill="#221300"/><path d="M114.9,209.7a9.8,9.8,0,0,0,5.4,8.3,6.4,6.4,0,0,1-1.8-4.2C116,213.4,114.9,209.7,114.9,209.7Z" fill="#221300"/></svg>