<svg xmlns="http://www.w3.org/2000/svg" viewBox="0 0 283.5 283.5"><path d="M157.4,87.5c17.9-11.6,16-29.1,16-29.1C155.7,82,143.9,79.6,143.9,79.6S132,82,114.4,58.4c0,0-1.9,17.5,16,29.1a11.7,11.7,0,0,1,4.8,13.9c-2.1,5.4-7.6,11.6-20.8,15.7,0,0,22.4,5.9,29.5-10.8,7.1,16.7,29.5,10.8,29.5,10.8-13.3-4.1-18.7-10.3-20.8-15.7A11.7,11.7,0,0,1,157.4,87.5Z" fill="#222" stroke="#000" stroke-miterlimit="10" stroke-width="0.71"/><path d="M143.2,101.4a11.7,11.7,0,0,0-4.8-13.9,34.4,34.4,0,0,1-14.4-18,97.3,97.3,0,0,1-9.6-11.1s-1.9,17.5,16,29.1a11.7,11.7,0,0,1,4.8,13.9c-2.1,5.4-7.6,11.6-20.8,15.7a37,37,0,0,0,12.6.8,31.5,31.5,0,0,1-4.6-.8C135.7,113,141.2,106.8,143.2,101.4Z"/><path d="M151.9,79.6s7.7,1.6,19.9-10.1a29.1,29.1,0,0,0,1.6-11.1c-11.5,15.5-20.6,19.8-25.5,20.9A10.2,10.2,0,0,0,151.9,79.6Z"/><path d="M151.9,106.3a18.5,18.5,0,0,1-4,6c6.1,6,15.4,6.2,20.9,5.6C162.4,117.2,155.4,114.4,151.9,106.3Z"/></svg>