<svg xmlns="http://www.w3.org/2000/svg" viewBox="0 0 283.5 283.5"><path d="M216,147.7c-17.9-3.7-17.2,17.6-15,31.5-4.1,5.5-5.8,15.9-3,25.5-9-5.5-17.9.3-18.9,9.7,0,0-2.9-29.2-37.4-29.2s-37.4,29.2-37.4,29.2c-.9-9.4-9.9-15.2-18.8-9.7,2.7-9.6,1.1-20-3-25.5,2.2-13.9,2.9-35.2-15-31.5-26.2,5.5-6.7,41.8-6.7,41.8C60,202.1,61.8,219,77,223c.4,10.8,5.6,22.7,19.4,19.1.9,10.9,19,20.4,45.3,20.4s44.5-9.5,45.4-20.4c13.8,3.6,18.9-8.3,19.4-19.1,15.2-4,17-20.9,16.1-33.5C222.6,189.5,242.2,153.2,216,147.7Zm-65.8,76.4H133.3a10,10,0,0,1,0-19.9h16.9a10,10,0,0,1,0,19.9Z" fill="#7eea59" stroke="#000" stroke-linecap="round" stroke-linejoin="round" stroke-width="0.71"/><path d="M117.7,213.1s2.4-23.3,28.3-26.2a47.4,47.4,0,0,0-5.5-.4c-18,0-26.5,8.8-30.5,16.2C114.1,204,117.2,208,117.7,213.1Z" fill="#56a33a"/><path d="M108.3,240.1c-13.1,3.4-17.9-7.8-18.4-18.1-14.4-3.7-16.1-19.8-15.3-31.7,0,0-16.9-31.6,3.5-38.7-2.2-1.2-5.1-1.6-8.8-.8-24.8,5.1-6.3,39.5-6.3,39.5-.9,11.9.9,28,15.3,31.7.4,10.3,5.2,21.5,18.3,18.1.8,10.3,18,19.3,42.9,19.3a57.2,57.2,0,0,0,5.9-.2C123.6,258,109,249.6,108.3,240.1Z" fill="#56a33a"/><path d="M210.9,202.8c-2.6-9-1.1-18.7,2.8-23.8-1.6-10.1-2.3-24.4,5.3-28.6l-2.8-.8c-16.7-3.5-16.1,16.4-14,29.4-3.8,5-5.3,14.3-3,23.1C202.5,200.3,206.7,200.2,210.9,202.8Z" fill="#56a33a"/></svg>