<svg xmlns="http://www.w3.org/2000/svg" viewBox="0 0 283.5 283.5"><path d="M206.7,229.9c10.5,0,17.4-3.2,21.8-6.9s2.3-9.7-2.8-10.9c-9.5-2.1-10.8-9.7-10.8-9.7a57,57,0,0,0,1.5-15.1c-.4-8.6-11.6-11.8-16.8-4.9-1.5,2-2.6,3.2-2.6,3.2-6-7.2-13,.3-13,.3a23.6,23.6,0,0,0-4.4-4.5,5.1,5.1,0,0,0-8.1,5.5c2,6.4,6.2,14.4,14.8,16.2,0,0-3.9,14.5,6.9,17.5a4.2,4.2,0,0,1,2.8,5.2c-1.6,5.1-5.7,12.8-16.1,14.4,0,0-12.2-1.7-10.1,9,0,0-5-4.2-12.9,0,0,0-.4-10.7-15.2-10.7s-15.1,10.7-15.1,10.7c-7.9-4.2-13,0-13,0,2.2-10.7-10-9-10-9-10.4-1.6-14.6-9.3-16.1-14.4a4.2,4.2,0,0,1,2.8-5.2c10.8-3,6.8-17.5,6.8-17.5,8.7-1.8,12.9-9.8,14.8-16.2a5.1,5.1,0,0,0-8.1-5.5,20.8,20.8,0,0,0-4.3,4.5s-7.1-7.5-13-.3a32.7,32.7,0,0,1-2.7-3.2,9.3,9.3,0,0,0-16.7,5.2,58.7,58.7,0,0,0,1.4,14.8s-1.2,7.6-10.8,9.7A6.3,6.3,0,0,0,55,223c4.4,3.7,11.3,6.9,21.8,6.9a5.1,5.1,0,0,1,1.7,3.3,6.2,6.2,0,0,0,9.1,5.1l.9-.5s-5.5,15.5,7.9,14.5c0,0,0,9.9,17.5,6.1a14.7,14.7,0,0,1-1.4,6.1,6.2,6.2,0,0,0,6,8.7,57.8,57.8,0,0,0,23.2-5.8,58.2,58.2,0,0,0,23.2,5.8,6.2,6.2,0,0,0,6.1-8.7,14.7,14.7,0,0,1-1.4-6.1c17.5,3.8,17.5-6.1,17.5-6.1,13.4,1,7.9-14.5,7.9-14.5l.9.5c3.9,2.2,8.6-.6,9.1-5.1A5.1,5.1,0,0,1,206.7,229.9Z" fill="#222" stroke="#000" stroke-linecap="round" stroke-linejoin="round" stroke-width="0.71"/><path d="M93.8,185.6c1.6,2,2.7,3.1,2.7,3.1,6-7.2,13,.4,13,.4a20,20,0,0,1,2.6-3,5.2,5.2,0,0,0-8.3-4.7,20.8,20.8,0,0,0-4.3,4.5s-4.3-4.6-9-3.2A10,10,0,0,1,93.8,185.6Z"/><path d="M98.5,241l-.9.5c-3.9,2.2-8.6-.7-9.1-5.2a5.1,5.1,0,0,0-1.7-3.2,43.1,43.1,0,0,1-8.5-.8,6.4,6.4,0,0,1,.2.9,6.2,6.2,0,0,0,9.1,5.1l.9-.5s-5.5,15.5,7.9,14.5c0,0,0,7.5,11.6,7a6.6,6.6,0,0,1-1.6-3.9C93,256.4,98.5,241,98.5,241Z"/><path d="M179.9,252.3c-2.2-10.6,10-8.9,10-8.9a20.1,20.1,0,0,0,6-1.9,19.6,19.6,0,0,0-.9-3.7l.9.5a5.8,5.8,0,0,0,3.8.7,21.7,21.7,0,0,0,6.3-10.1,4,4,0,0,0-2.8-5.1c-10.8-3.1-6.8-17.5-6.8-17.5-8.7-1.9-12.9-9.9-14.8-16.2a5,5,0,0,1,1.5-5.4,20.9,20.9,0,0,0-3.5-3.3,5.1,5.1,0,0,0-8.1,5.5c2,6.4,6.2,14.4,14.8,16.2,0,0-3.9,14.5,6.9,17.5a4.2,4.2,0,0,1,2.8,5.2c-1.6,5.1-5.7,12.8-16.1,14.4,0,0-12.2-1.7-10.1,9a9.9,9.9,0,0,0-4.6-1.8,10.9,10.9,0,0,1,1.7,4.9C174.8,248.2,179.9,252.3,179.9,252.3Z"/><path d="M67.8,215.3c9.5-2.2,10.7-9.7,10.7-9.7a59,59,0,0,1-1.4-14.9,9.1,9.1,0,0,1,6.5-8.5,9.2,9.2,0,0,0-16.5,5.4,58.7,58.7,0,0,0,1.4,14.8s-1.2,7.6-10.8,9.7A6.3,6.3,0,0,0,55,223a29.9,29.9,0,0,0,15,6.4,27.1,27.1,0,0,1-5-3.3A6.2,6.2,0,0,1,67.8,215.3Z"/><path d="M194,189.1s7.1-7.6,13-.4a24.5,24.5,0,0,0,2.7-3.1,8.8,8.8,0,0,1,4.8-3.4,9.4,9.4,0,0,0-14.9.2c-1.5,2-2.6,3.2-2.6,3.2-3.4-4.1-7.1-3.5-9.7-2.1a4.3,4.3,0,0,1,2.3,1A21.7,21.7,0,0,1,194,189.1Z"/><path d="M123.6,252.3s5.1-4.1,13,0c0,0,.4-10.6,15.2-10.6h1c-2.3-1.8-5.7-3.2-11.1-3.2-14.7,0-15.1,10.7-15.1,10.7a13,13,0,0,0-3-1.3A8.1,8.1,0,0,1,123.6,252.3Z"/><path d="M122.5,267.6a14.1,14.1,0,0,0,1.4-6,26,26,0,0,1-10.5.5,11.7,11.7,0,0,1-.9,2.4,6.2,6.2,0,0,0,6,8.7l4.1-.3A6.1,6.1,0,0,1,122.5,267.6Z"/></svg>