<svg xmlns="http://www.w3.org/2000/svg" viewBox="0 0 283.5 283.5"><path d="M180.9,202.3s-.5,10.3-39.2,10.3-39.1-10.3-39.1-10.3S98.1,220,141.7,220,180.9,202.3,180.9,202.3Z" fill="#222" stroke="#000" stroke-linecap="round" stroke-linejoin="round" stroke-width="0.71"/><path d="M176.5,211.3c3.7-3.5,3.9-6.9,3.9-6.9s-1.7,8.8-38.2,8.8a159.3,159.3,0,0,1-19.1-1c5.5,1.2,13.6,2.1,25.7,2.1C162.5,214.3,171.1,212.7,176.5,211.3Z"/><path d="M110,209.3c-6-2.3-6.7-4.4-6.7-4.4s.6,10.1,19.4,12.6C114.3,215.3,111.1,212.1,110,209.3Z"/></svg>