<svg xmlns="http://www.w3.org/2000/svg" viewBox="0 0 283.5 283.5"><path d="M179.8,202.5s-20.2-4.4-27.9,9.3c-1.8,3.3-4.8,3.6-10.2,3.6s-8.3-.3-10.1-3.6c-7.8-13.7-27.9-9.3-27.9-9.3s-1.7,7.8,9.6,9.2c-1.6,4.6,5.3,9.5,28.4,9.5s30.1-4.9,28.5-9.5C181.5,210.3,179.8,202.5,179.8,202.5Z" fill="#222" stroke="#000" stroke-linecap="round" stroke-linejoin="round" stroke-width="0.71"/><path d="M159.9,214.5c4.4-8.2,13.1-9.9,19.3-10a5,5,0,0,0-.1-1.1s-19.2-4.5-26.6,9.2c-1.7,3.3-4.6,3.5-9.7,3.5h-1.1c1.8,1.7,4.5,1.9,8.5,1.9S158.1,217.8,159.9,214.5Z"/><path d="M121.7,213.1c-10.9-1.8-8.9-8.2-8.9-8.2a46.2,46.2,0,0,1,10.7.2c-8.2-3.5-18-2.2-18-2.2s-2,6.4,8.8,8.2c-1.3,2.8,1.8,5.9,12.2,7.9C122,217.2,120.7,215.1,121.7,213.1Z"/></svg>