<svg xmlns="http://www.w3.org/2000/svg" viewBox="0 0 283.5 283.5"><path d="M214.3,111.8a10.9,10.9,0,0,1-9.3,5.1,11.1,11.1,0,0,1-11.1-9.8c-1-7.9-.8-18.7,5.9-25.6-12.3.1-28-9.4-31.1-23.3a5.6,5.6,0,0,0-11.1,1.3v.8a5.6,5.6,0,0,0,1,3.3c4,5.6,16.8,26.8-16.9,26.8s-20.8-21.2-16.9-26.8a5.7,5.7,0,0,0,1.1-3.3v-.8A5.7,5.7,0,0,0,120,54a5.8,5.8,0,0,0-5.3,4.2c-3,13.9-18.7,23.4-31,23.3,6.7,6.9,6.9,17.7,5.9,25.6a11.2,11.2,0,0,1-12.5,9.7,11,11,0,0,1-8-5,156.2,156.2,0,0,0-4.8,38.5c0,61.2,34.7,110.8,77.4,110.8s77.5-49.6,77.5-110.8A151.7,151.7,0,0,0,214.3,111.8ZM113.5,165.2c-7.1,0-12.8-7.9-12.8-17.7s5.7-17.7,12.8-17.7,12.8,7.9,12.8,17.7S120.6,165.2,113.5,165.2Zm56.5,0c-7.1,0-12.8-7.9-12.8-17.7s5.7-17.7,12.8-17.7,12.8,7.9,12.8,17.7S177.1,165.2,170,165.2Z" fill="#fff" stroke="#000" stroke-miterlimit="10" stroke-width="0.71"/><rect x="132.5" y="191.8" width="18.5" height="8.82" rx="4.4" fill="#404040" stroke="#000" stroke-miterlimit="10" stroke-width="0.71"/><path d="M141.7,210.4c-58.1,0-69.4-26.9-69.4-26.9s16.5,72.4,69.4,72.4,69.5-72.4,69.5-72.4S199.9,210.4,141.7,210.4Z" fill="#b23930" stroke="#000" stroke-linecap="round" stroke-linejoin="round" stroke-width="0.71"/><rect x="87.5" y="118.6" width="28.8" height="10.2" rx="5.1" stroke="#000" stroke-miterlimit="10" stroke-width="0.71"/><path d="M98.1,147.5c0-9.1,6.6-16.8,15.8-19.5a25,25,0,0,0-7.2-1c-12.8,0-23.2,9.2-23.2,20.5S93.9,168,106.7,168a29.1,29.1,0,0,0,7.2-1C104.7,164.3,98.1,156.6,98.1,147.5Z" fill="#212121" stroke="#000" stroke-miterlimit="10" stroke-width="0.71"/><path d="M100.7,147.5a18.5,18.5,0,0,1,12.8-17.7,17,17,0,0,0-5.9-1,18.7,18.7,0,0,0,0,37.4,19.7,19.7,0,0,0,5.9-1A18.5,18.5,0,0,1,100.7,147.5Z"/><rect x="167.1" y="118.6" width="28.8" height="10.2" rx="5.1" stroke="#000" stroke-miterlimit="10" stroke-width="0.71"/><path d="M196.5,176.9l-16.4-8.7a5.1,5.1,0,0,1-2.1-6.9h0a5.1,5.1,0,0,1,6.9-2.2l16.4,8.7a5.1,5.1,0,0,1,2.1,6.9h0A5.1,5.1,0,0,1,196.5,176.9Z" stroke="#000" stroke-miterlimit="10" stroke-width="0.71"/><path d="M80,174.7h0a5.1,5.1,0,0,1,2.1-6.9l16.4-8.7a5.1,5.1,0,0,1,6.9,2.2h0a5.1,5.1,0,0,1-2.1,6.9l-16.4,8.7A5.1,5.1,0,0,1,80,174.7Z" stroke="#000" stroke-miterlimit="10" stroke-width="0.71"/><path d="M185.4,147.5c0-9.1-6.7-16.8-15.9-19.5a25.7,25.7,0,0,1,7.3-1c12.8,0,23.1,9.2,23.1,20.5S189.6,168,176.8,168a29.9,29.9,0,0,1-7.3-1C178.7,164.3,185.4,156.6,185.4,147.5Z" fill="#212121" stroke="#000" stroke-miterlimit="10" stroke-width="0.71"/><path d="M182.8,147.5A18.7,18.7,0,0,0,170,129.8a17,17,0,0,1,5.9-1,18.7,18.7,0,1,1-5.9,36.4A18.7,18.7,0,0,0,182.8,147.5Z"/><path d="M141.7,247.4c-24.9,0-40.9-19.7-50.2-37.5,11.6,5.1,27.8,9,50.2,9,19.9,0,36.8-3,50.2-8.9C182.6,227.8,166.6,247.4,141.7,247.4Z" fill="#fff" stroke="#000" stroke-miterlimit="10" stroke-width="0.71"/></svg>