<svg xmlns="http://www.w3.org/2000/svg" viewBox="0 0 283.5 283.5"><path d="M216.6,122.3s-21.6-7.4-20.1-38c-9.1-3-25.3-17.1-31.5-29.5h-6.2V66c15.8,11.2,3.5,26-17.1,26s-32.9-14.8-17.1-26V54.8h-6.1c-6.2,12.4-22.4,26.5-31.6,29.5,1.6,30.6-20,38-20,38h-.1a159.6,159.6,0,0,0-2.5,28.1c0,61.2,34.7,110.8,77.4,110.8s77.5-49.6,77.5-110.8a150.6,150.6,0,0,0-2.6-28.1Z" fill="#fff" stroke="#000" stroke-linecap="round" stroke-linejoin="round" stroke-width="0.71"/><circle cx="104.1" cy="152" r="23.9" stroke="#000" stroke-linecap="round" stroke-linejoin="round" stroke-width="0.71"/><circle cx="107.8" cy="150.3" r="16.4" fill="#404040" stroke="#000" stroke-linecap="round" stroke-linejoin="round" stroke-width="0.71"/><circle cx="179.3" cy="152" r="23.9" stroke="#000" stroke-linecap="round" stroke-linejoin="round" stroke-width="0.71"/><circle cx="175.7" cy="150.3" r="16.4" fill="#404040" stroke="#000" stroke-linecap="round" stroke-linejoin="round" stroke-width="0.71"/><path d="M141.7,202.3c5.6,6.7,23,2.8,18.5-10.1-2.3-6.3-6.9-11.8-10.9-15.8a68.8,68.8,0,0,0-7.6-6.3s-13.9,9.3-18.4,22.1S136.2,209,141.7,202.3Z" stroke="#000" stroke-linecap="round" stroke-linejoin="round" stroke-width="0.71"/><path d="M141.7,195c-4.2,5.2-15.5,4-18.4-2.6-4.4,12.7,12.9,16.6,18.4,9.9,5.6,6.7,22.9,2.8,18.5-9.9C157.3,199,146,200.2,141.7,195Z" fill="#b9b9b9" stroke="#000" stroke-linecap="round" stroke-linejoin="round" stroke-width="0.71"/><line x1="141.7" y1="195" x2="141.7" y2="202.3" fill="none" stroke="#000" stroke-linecap="round" stroke-linejoin="round" stroke-width="0.71"/><path d="M101.5,150.3a16.5,16.5,0,0,1,11.4-15.6,17,17,0,0,0-5.1-.8,16.5,16.5,0,0,0,0,32.9,17,17,0,0,0,5.1-.8A16.6,16.6,0,0,1,101.5,150.3Z" fill="#939393"/><path d="M169.3,150.3a16.5,16.5,0,0,1,11.4-15.6,16.9,16.9,0,0,0-5-.8,16.5,16.5,0,1,0,0,32.9,16.9,16.9,0,0,0,5-.8A16.6,16.6,0,0,1,169.3,150.3Z" fill="#939393"/><path d="M214.9,186.5a29.1,29.1,0,0,1-24.7,15.8h0a1.7,1.7,0,0,0-1.7,1.7v7.8h-9.2v8.8h-8.8v-9.2h-9.6v9.2h-9v-9.2H131.6v9.2h-9v-9.2h-9.7v9.2h-8.8v-8.8H95V204a1.7,1.7,0,0,0-1.7-1.7h0a29,29,0,0,1-24.7-15.8,95.7,95.7,0,0,0,4.8,15.8c4,8.2,12.8,7.9,12.8,7.9v10.4h8.6v8.8h8.6a9.6,9.6,0,0,1,9.5,9.6h9.7v-9.4h8.5V239h21.3v-9.4h8.5V239h9.6a9.6,9.6,0,0,1,9.6-9.6h8.6v-8.8h8.6V210.2s8.7.3,12.8-7.9h0A95.7,95.7,0,0,0,214.9,186.5Z"/><rect x="127.7" y="221.8" width="28" height="6.63" rx="3.3" fill="#b9b9b9" stroke="#000" stroke-linecap="round" stroke-linejoin="round" stroke-width="0.71"/><path d="M135.4,223.7h20a3.2,3.2,0,0,0-3-1.9H131a3.3,3.3,0,0,0,0,6.6h1.4a3.3,3.3,0,0,1-.4-1.4A3.3,3.3,0,0,1,135.4,223.7Z" fill="#404040" stroke="#000" stroke-linecap="round" stroke-linejoin="round" stroke-width="0.71"/></svg>