<svg xmlns="http://www.w3.org/2000/svg" viewBox="0 0 283.5 283.5"><ellipse cx="141.7" cy="150.3" rx="77.4" ry="110.8" fill="#e69a39" stroke="#000" stroke-linecap="round" stroke-linejoin="round" stroke-width="0.71"/><path d="M141.7,184.6c4.8,5.8,19.7,2.4,15.8-8.5-1.9-5.5-5.9-10.2-9.3-13.6a64.6,64.6,0,0,0-6.5-5.4s-11.8,8-15.7,19S137,190.4,141.7,184.6Z" stroke="#000" stroke-linecap="round" stroke-linejoin="round" stroke-width="0.71"/><path d="M141.7,178.4c-3.6,4.4-13.3,3.5-15.8-2.2-3.7,10.8,11.1,14.2,15.8,8.4,4.8,5.8,19.6,2.4,15.8-8.4C155,181.9,145.4,182.8,141.7,178.4Z" fill="#965a1e" stroke="#000" stroke-linecap="round" stroke-linejoin="round" stroke-width="0.71"/><line x1="141.7" y1="178.4" x2="141.7" y2="184.6" fill="none" stroke="#000" stroke-linecap="round" stroke-linejoin="round" stroke-width="0.71"/><path d="M109.7,142.1H92.1a3,3,0,0,0-2.2,5l17.7,18.5a3,3,0,0,0,4.3,0l17.6-18.5a2.9,2.9,0,0,0-2.1-5Z" stroke="#000" stroke-linecap="round" stroke-linejoin="round" stroke-width="0.71"/><path d="M173.7,142.1h17.7a2.9,2.9,0,0,1,2.1,5l-17.6,18.5a3,3,0,0,1-4.3,0L154,147.1a2.9,2.9,0,0,1,2.1-5Z" stroke="#000" stroke-linecap="round" stroke-linejoin="round" stroke-width="0.71"/><path d="M187.4,186.2s-3.1,8.8-11.4,9.1-12.2.1-15.1,5.9a5.4,5.4,0,0,1-5,3.2,5.7,5.7,0,0,1-5.2-3.5,9,9,0,0,0-9-6.1,9.1,9.1,0,0,0-9,6.1,5.5,5.5,0,0,1-5.1,3.5,5.6,5.6,0,0,1-5.1-3.2c-2.8-5.8-7.8-5.7-15-5.9S96,186.2,96,186.2s-5.3,26,19.4,34.8c5.9,2.2,10.2-3.3,7.8-8.1,0,0,7,2.4,9.6-1.4,0,0-1.2,11.2,8.9,11.2s9-11.2,9-11.2c2.6,3.8,9.5,1.4,9.5,1.4-2.4,4.8,1.9,10.3,7.9,8.1C192.7,212.2,187.4,186.2,187.4,186.2Z" stroke="#000" stroke-linecap="round" stroke-linejoin="round" stroke-width="0.71"/><path d="M103.5,144.9h26.8a2.9,2.9,0,0,0-2.9-2.8H92.1a3,3,0,0,0-2.2,5l17.7,18.5a3,3,0,0,0,4.3,0l2.2-2.3-12.8-13.4A3,3,0,0,1,103.5,144.9Z" fill="#965a1e" stroke="#000" stroke-linecap="round" stroke-linejoin="round" stroke-width="0.71"/><path d="M167.5,144.9h26.8a2.8,2.8,0,0,0-2.9-2.8H156.1a2.9,2.9,0,0,0-2.1,5l17.6,18.5a3,3,0,0,0,4.3,0l2.2-2.3-12.7-13.4A2.9,2.9,0,0,1,167.5,144.9Z" fill="#965a1e" stroke="#000" stroke-linecap="round" stroke-linejoin="round" stroke-width="0.71"/><path d="M111.4,198.8c4.3.2,7.9.2,10.6,1.4-2.9-4.8-7.7-4.8-14.5-4.9a11.4,11.4,0,0,1-5.2-1.5A11.5,11.5,0,0,0,111.4,198.8Z" fill="#965a1e" stroke="#000" stroke-linecap="round" stroke-linejoin="round" stroke-width="0.71"/><path d="M136.7,215.1a5.4,5.4,0,0,1-3.3,2,8,8,0,0,0,4.6,5A13.7,13.7,0,0,1,136.7,215.1Z" fill="#965a1e" stroke="#000" stroke-linecap="round" stroke-linejoin="round" stroke-width="0.71"/><path d="M131.5,208a5.7,5.7,0,0,0,5.2-3.5,9.1,9.1,0,0,1,9-6.1,10.5,10.5,0,0,1,4.2.8,8.9,8.9,0,0,0-8.2-4.4,9.1,9.1,0,0,0-9,6.1,5.5,5.5,0,0,1-5.1,3.5h-1.4l.3.5A5.6,5.6,0,0,0,131.5,208Z" fill="#965a1e" stroke="#000" stroke-linecap="round" stroke-linejoin="round" stroke-width="0.71"/><path d="M164.2,216.5a15.7,15.7,0,0,1-4.4.7,5.5,5.5,0,0,0,4.1,4.1A6.2,6.2,0,0,1,164.2,216.5Z" fill="#965a1e" stroke="#000" stroke-linecap="round" stroke-linejoin="round" stroke-width="0.71"/><path d="M159.9,208a5.6,5.6,0,0,0,5-3.2c2.8-5.9,7.8-5.8,15-6a11,11,0,0,0,7.9-3.5,36.2,36.2,0,0,0-.4-9.1s-3.1,8.8-11.4,9.1-12.2.1-15.1,5.9a5.4,5.4,0,0,1-5,3.2h-1.3v.2A5.7,5.7,0,0,0,159.9,208Z" fill="#965a1e" stroke="#000" stroke-linecap="round" stroke-linejoin="round" stroke-width="0.71"/><path d="M99.7,191.8a17.3,17.3,0,0,1-3.7-5.6s-3.9,19.4,10.9,30.4C99,207.8,99.2,196.4,99.7,191.8Z" fill="#965a1e" stroke="#000" stroke-linecap="round" stroke-linejoin="round" stroke-width="0.71"/><path d="M141.7,260.5c-42.3,0-76.8-49.4-76.8-110.2S99.4,40,141.7,40a60.9,60.9,0,0,1,8.5.7C132.8,45.2,117,58,105.4,77.2s-19.2,46.2-19.2,73.1,6.8,52.8,19.2,73.1,27.4,32,44.8,36.4A48.8,48.8,0,0,1,141.7,260.5Z" fill="#b77227"/></svg>