<svg xmlns="http://www.w3.org/2000/svg" viewBox="0 0 283.5 283.5"><g style="isolation:isolate"><ellipse cx="141.7" cy="150.3" rx="77.4" ry="110.8" fill="#c4c4c4" stroke="#000" stroke-linecap="round" stroke-linejoin="round" stroke-width="0.71"/><path d="M141.7,260.5c-42.3,0-76.8-49.4-76.8-110.2S99.4,40,141.7,40a60.9,60.9,0,0,1,8.5.7C132.8,45.2,117,58,105.4,77.2s-19.2,46.2-19.2,73.1,6.8,52.8,19.2,73.1,27.4,32,44.8,36.4A48.8,48.8,0,0,1,141.7,260.5Z" fill="#9e9e9e"/><path d="M141.7,242.1a52,52,0,0,1-22.4-6.6c-9.4-5.4-20.7-16.3-22.5-38.4,7.7,37.1,44.5,38.1,44.9,38.1s37.3-1,45-38c-1.2,13.3-6.4,29.1-22.6,38.3A51.3,51.3,0,0,1,141.7,242.1Z" fill="#9e9e9e"/><ellipse cx="109.5" cy="150.3" rx="25.3" ry="21.8" fill="#787869"/><ellipse cx="173.9" cy="150.3" rx="25.3" ry="21.8" fill="#787869"/><circle cx="106" cy="150.3" r="21.8" fill="#9b9b90" stroke="#000" stroke-miterlimit="10" stroke-width="0.71"/><circle cx="110.4" cy="150.3" r="17.4" fill="#2a2a26" stroke="#000" stroke-miterlimit="10" stroke-width="0.71"/><path d="M103.4,150.3a17.3,17.3,0,0,1,12.2-16.6,17.7,17.7,0,0,0-5.2-.8,17.4,17.4,0,0,0,0,34.8,17.7,17.7,0,0,0,5.2-.8A17.3,17.3,0,0,1,103.4,150.3Z"/><circle cx="177.5" cy="150.3" r="21.8" fill="#9b9b90" stroke="#000" stroke-miterlimit="10" stroke-width="0.71"/><circle cx="173.1" cy="150.3" r="17.4" fill="#2a2a26" stroke="#000" stroke-miterlimit="10" stroke-width="0.71"/><path d="M180,150.3a17.4,17.4,0,0,0-12.1-16.6,17.7,17.7,0,0,1,5.2-.8,17.4,17.4,0,1,1,0,34.8,17.7,17.7,0,0,1-5.2-.8A17.4,17.4,0,0,0,180,150.3Z"/><path d="M186.4,182.6a7.3,7.3,0,0,1-7.2-7.3,3.4,3.4,0,0,0-1.6-2.9,3.5,3.5,0,0,0-5.2,2l-3.6,13.4a4.6,4.6,0,0,1-3.9,3.4,4.3,4.3,0,0,1-4.7-4.3v-6.5a5.3,5.3,0,0,0-4.6-5.2,5.1,5.1,0,0,0-5.5,5v2.6a8.3,8.3,0,0,1-8.4,8.4h0a8.4,8.4,0,0,1-8.4-8.4v-2.4a5.2,5.2,0,0,0-4.5-5.2,5.1,5.1,0,0,0-5.5,5v6.5a4.4,4.4,0,0,1-8.6,1.3l-3.6-13.4a3.5,3.5,0,0,0-3-2.7,3.4,3.4,0,0,0-3.8,3.4,7.3,7.3,0,0,1-7.2,7.3,1.1,1.1,0,0,0-1.2,1.1c.7,50.3,45.8,51,45.8,51s45.2-.7,45.8-51A1.1,1.1,0,0,0,186.4,182.6Z" fill="#ddd" stroke="#000" stroke-miterlimit="10" stroke-width="0.71"/><path d="M91.2,84.5c8,.6,21.7-9.1,27.4-16.9A27.8,27.8,0,0,1,140,56.2h3.5a27.6,27.6,0,0,1,21.3,11.4c5.8,7.8,19.5,17.5,27.5,16.9,5.8,12.8,20.4,21.4,20.4,21.4-12-39.1-39.2-66.4-71-66.4s-59,27.3-70.9,66.4C70.8,105.9,85.3,97.3,91.2,84.5Z" fill="#9b9b90" stroke="#000" stroke-miterlimit="10" stroke-width="0.71"/><path d="M127.9,246.9a3.6,3.6,0,0,0-5.6-3.7c-6.5,4.5-16.3,5.4-16.3,5.4h0a67.5,67.5,0,0,0,16.6,9.1A26.3,26.3,0,0,0,127.9,246.9Z" fill="#9b9b90" stroke="#000" stroke-miterlimit="10" stroke-width="0.71"/><path d="M155.5,246.9a3.6,3.6,0,0,1,5.6-3.7c6.6,4.5,16.4,5.4,16.4,5.4h0a67.5,67.5,0,0,1-16.6,9.1A28,28,0,0,1,155.5,246.9Z" fill="#9b9b90" stroke="#000" stroke-miterlimit="10" stroke-width="0.71"/><path d="M199,174.9a29.6,29.6,0,0,1-3.1-13,21.9,21.9,0,0,1-14.1,9.7,35,35,0,0,0,11.5,7.8C197,181,200.6,178.1,199,174.9Z" fill="#2a2a26" stroke="#000" stroke-miterlimit="10" stroke-width="0.71"/><path d="M84.5,174.9a31,31,0,0,0,3.1-13,21.7,21.7,0,0,0,14,9.7,34.7,34.7,0,0,1-11.4,7.8C86.4,181,82.8,178.1,84.5,174.9Z" fill="#2a2a26" stroke="#000" stroke-miterlimit="10" stroke-width="0.71"/><path d="M98,174.8a34.5,34.5,0,0,0,3.6-3.2,21.7,21.7,0,0,1-14-9.7,31,31,0,0,1-3.1,13c-1.3,2.6.7,4.9,3.5,5a31.5,31.5,0,0,0,2.7-12.2A21.6,21.6,0,0,0,98,174.8Z"/><path d="M119,100.3a33.2,33.2,0,0,0,8.9,10.1,21.9,21.9,0,0,0-16.1,5.8,35.4,35.4,0,0,1,.3-13.9C112.9,98.4,117.4,97.1,119,100.3Z" fill="#2a2a26" stroke="#000" stroke-miterlimit="10" stroke-width="0.71"/><path d="M111.3,111.4a41.2,41.2,0,0,0,.5,4.8,21.9,21.9,0,0,1,16.1-5.8,33.2,33.2,0,0,1-8.9-10.1c-1.3-2.6-4.4-2.2-6,0a30.3,30.3,0,0,0,8.4,9.2A23.3,23.3,0,0,0,111.3,111.4Z" fill="#2a2a26" style="mix-blend-mode:multiply"/><path d="M164.5,100.3a33.2,33.2,0,0,1-8.9,10.1,21.6,21.6,0,0,1,16,5.8,33.7,33.7,0,0,0-.2-13.9C170.5,98.4,166.1,97.1,164.5,100.3Z" fill="#2a2a26" stroke="#000" stroke-miterlimit="10" stroke-width="0.71"/><path d="M172.2,111.4a41.9,41.9,0,0,1-.6,4.8,21.6,21.6,0,0,0-16-5.8,33.2,33.2,0,0,0,8.9-10.1c1.3-2.6,4.4-2.2,6,0a33.1,33.1,0,0,1-8.4,9.2A23.3,23.3,0,0,1,172.2,111.4Z" fill="#2a2a26" style="mix-blend-mode:multiply"/><path d="M185.4,174.8a34.5,34.5,0,0,1-3.6-3.2,21.9,21.9,0,0,0,14.1-9.7,29.6,29.6,0,0,0,3.1,13c1.3,2.6-.7,4.9-3.5,5a31.5,31.5,0,0,1-2.7-12.2A22.8,22.8,0,0,1,185.4,174.8Z"/><path d="M132.3,206.8a4.7,4.7,0,0,0-4.6-4.6h0a4.6,4.6,0,0,0-4.6,4.6v3.5h9.2Z" fill="#2a2a26" stroke="#000" stroke-miterlimit="10" stroke-width="0.71"/><path d="M123.1,234.3a4.6,4.6,0,0,0,4.6,4.6h0a4.7,4.7,0,0,0,4.6-4.6v-3.5h-9.2Z" fill="#9b9b90" stroke="#000" stroke-miterlimit="10" stroke-width="0.71"/><rect x="123.1" y="220.5" width="9.2" height="10.27" fill="#2a2a26" stroke="#000" stroke-miterlimit="10" stroke-width="0.71"/><rect x="123.1" y="210.3" width="9.2" height="10.27" fill="#9b9b90" stroke="#000" stroke-miterlimit="10" stroke-width="0.71"/><path d="M151.2,206.8a4.7,4.7,0,0,1,4.6-4.6h0a4.7,4.7,0,0,1,4.6,4.6v3.5h-9.2Z" fill="#2a2a26" stroke="#000" stroke-miterlimit="10" stroke-width="0.71"/><path d="M160.4,234.3a4.7,4.7,0,0,1-4.6,4.6h0a4.7,4.7,0,0,1-4.6-4.6v-3.5h9.2Z" fill="#9b9b90" stroke="#000" stroke-miterlimit="10" stroke-width="0.71"/><rect x="151.2" y="220.5" width="9.2" height="10.27" fill="#2a2a26" stroke="#000" stroke-miterlimit="10" stroke-width="0.71"/><rect x="151.2" y="210.3" width="9.2" height="10.27" fill="#9b9b90" stroke="#000" stroke-miterlimit="10" stroke-width="0.71"/><g style="mix-blend-mode:multiply"><path d="M127.7,206.8a4.6,4.6,0,0,1,2.3-4,4.6,4.6,0,0,0-2.3-.6,4.6,4.6,0,0,0-4.6,4.6v3.5h4.6Z" fill="#2a2a26"/><path d="M127.7,234.3v-3.5h-4.6v3.5a4.6,4.6,0,0,0,4.6,4.6,4.8,4.8,0,0,0,2.3-.7A4.4,4.4,0,0,1,127.7,234.3Z" fill="#9b9b90"/><rect x="123.1" y="220.5" width="4.6" height="10.27" fill="#2a2a26"/><rect x="123.1" y="210.3" width="4.6" height="10.27" fill="#9b9b90"/></g><g style="mix-blend-mode:multiply"><path d="M155.8,206.8a4.6,4.6,0,0,0-2.3-4,4.4,4.4,0,0,1,2.3-.6,4.7,4.7,0,0,1,4.6,4.6v3.5h-4.6Z" fill="#2a2a26"/><path d="M155.8,234.3v-3.5h4.6v3.5a4.7,4.7,0,0,1-4.6,4.6,4.5,4.5,0,0,1-2.3-.7A4.4,4.4,0,0,0,155.8,234.3Z" fill="#9b9b90"/><rect x="155.8" y="220.5" width="4.6" height="10.27" fill="#2a2a26"/><rect x="155.8" y="210.3" width="4.6" height="10.27" fill="#9b9b90"/></g><g style="mix-blend-mode:multiply"><path d="M124,195.5a4.6,4.6,0,0,0,3.6-4.5v-6.5a5,5,0,0,1,5.5-5h.2a5.3,5.3,0,0,0-4.5-4.4,5.1,5.1,0,0,0-5.5,5v6.5a4.5,4.5,0,0,1-3.5,4.5h-1.1l.3,1.1A4.4,4.4,0,0,0,124,195.5Z" fill="#bfbfbf"/><path d="M101.4,186.8a7.2,7.2,0,0,0,7.2-7.2,3.4,3.4,0,0,1,3-3.4l-.5-1.6a3.5,3.5,0,0,0-3-2.7,3.4,3.4,0,0,0-3.8,3.4,7.3,7.3,0,0,1-7.2,7.3,1.1,1.1,0,0,0-1.2,1.1c.3,19.8,7.4,31.9,16,39.3-6.5-7.6-11.5-18.7-11.7-35A1.2,1.2,0,0,1,101.4,186.8Z" fill="#bfbfbf"/><path d="M146,195.5h0a8.3,8.3,0,0,0,8.4-8.4v-2.6a5,5,0,0,1,5.5-5h.2a5.3,5.3,0,0,0-4.5-4.4,5.1,5.1,0,0,0-5.5,5v2.6a8.3,8.3,0,0,1-8.4,8.4,8,8,0,0,1-3.4-.7A8.4,8.4,0,0,0,146,195.5Z" fill="#bfbfbf"/><path d="M169.2,195.5a4.6,4.6,0,0,0,3.9-3.4l3.6-13.4a3.5,3.5,0,0,1,2.5-2.5v-.9a3.4,3.4,0,0,0-1.6-2.9,3.5,3.5,0,0,0-5.2,2l-3.6,13.4a4.6,4.6,0,0,1-3.9,3.4h-.5A4.4,4.4,0,0,0,169.2,195.5Z" fill="#bfbfbf"/></g><rect x="104.2" y="178.6" width="9.7" height="36.06" rx="4.8" transform="translate(170.9 -19.5) rotate(45)" fill="#eb3223" stroke="#000" stroke-miterlimit="10" stroke-width="0.71"/><rect x="169.6" y="178.6" width="9.7" height="36.06" rx="4.8" transform="translate(436.8 212.2) rotate(135)" fill="#eb3223" stroke="#000" stroke-miterlimit="10" stroke-width="0.71"/><path d="M141.7,107.3a149.3,149.3,0,0,0-35.7,4.1s8.3,16.8,35.7,27c27.4-10.2,35.8-27,35.8-27A149.7,149.7,0,0,0,141.7,107.3Z" fill="#eb3223" stroke="#000" stroke-miterlimit="10" stroke-width="0.71"/><path d="M97.1,209.3l-.4-.4a4.1,4.1,0,0,1,0-6l18.6-18.7a4.2,4.2,0,0,1,3-1.2,4.5,4.5,0,0,1,3.1,1.2,4.8,4.8,0,0,1,1.2,2.6l-1.6-.3a5.3,5.3,0,0,0-3.8,1.6L98.5,206.7A5.1,5.1,0,0,0,97.1,209.3Z" fill="#91150f"/><path d="M186.4,209.3a6,6,0,0,0-1.4-2.6l-18.7-18.6a5.5,5.5,0,0,0-3.8-1.6,4.5,4.5,0,0,0-1.6.3,4.1,4.1,0,0,1,4.2-3.8,4.3,4.3,0,0,1,3.1,1.2l18.6,18.7a4.1,4.1,0,0,1,0,6Z" fill="#91150f"/><path d="M141.7,137.7c-13.9-5.1-22.7-12.1-27.7-17a48,48,0,0,1-7.1-8.9,152.4,152.4,0,0,1,34.8-3.9c3.8,0,7.6.2,11.4.4-19.2.3-33.1,4-33.3,4.1l-.7.2.3.6c.1.1,6.7,13,26.3,22.9Z" fill="#91150f"/><path d="M213.6,111.1c-3.8-2.4-14.6-10-19.5-20.4v-.3h-1.1c-7.9,0-21.3-9.1-27-16.6a28.4,28.4,0,0,0-22.4-11.6h-3.6a28.3,28.3,0,0,0-22.3,11.6c-5.8,7.5-19.1,16.6-27,16.6H89.5l-.2.3c-4.8,10.3-15.7,18-19.4,20.4a51.7,51.7,0,0,1,1.8-5.1c2.7-1.7,14.5-9.7,19.8-20.9h.4c8.2,0,21.3-9.2,27.2-17.1A26.7,26.7,0,0,1,140,56.8h3.5A26.8,26.8,0,0,1,164.4,68c5.8,7.9,19,17.1,27.2,17.1h.3c5.3,11.2,17.1,19.2,19.9,20.9Z" fill="#9e9e9e"/><path d="M211.7,104.6c-3.7-2.4-14.2-10-18.9-20.4l-.2-.3h-1c-7.8,0-20.7-9.1-26.3-16.6a28.7,28.7,0,0,0-14.8-10.5h1.7a26.9,26.9,0,0,1,21,11.2c5.8,7.9,19,17.1,27.1,17.1h.4a44,44,0,0,0,8,11.2C209.8,99.1,210.8,101.9,211.7,104.6Z" fill="#606055"/><path d="M71.8,104.6C83.9,66.5,110,41.5,139.1,40.1,115.3,45,94.5,65.3,82.5,95.7A64.8,64.8,0,0,1,71.8,104.6Z" fill="#606055"/></g></svg>