<svg xmlns="http://www.w3.org/2000/svg" viewBox="0 0 283.5 283.5"><path d="M243.8,145.9c0-15.3-11-27.8-24.7-27.8a16.6,16.6,0,0,0-3.2.3c.5,2.3.9,4.8,1.3,7.2-2.2,4.2-13.3,26.9-8.5,45.8,0,0-17.5,12.1-18.9,30.8l-2.3.7a5.4,5.4,0,0,1-7.1-5.1v-6.5a4.2,4.2,0,0,0-4.3-4.2h0a4.2,4.2,0,0,0-4.2,4.2v10.4a3.5,3.5,0,0,1-3.5,3.5h-2a3.5,3.5,0,0,1-3.5-3.5V191.3a4.2,4.2,0,0,0-4.2-4.2h-.5a4.2,4.2,0,0,0-4.2,4.2v10.4a3.5,3.5,0,0,1-3.5,3.5h0a3.5,3.5,0,0,1-3.5-3.5V191.3a4.2,4.2,0,0,0-4.2-4.2h-2.1a4.2,4.2,0,0,0-4.2,4.2v10.4a3.5,3.5,0,0,1-3.5,3.5,3.5,3.5,0,0,1-3.5-3.5V191.3a4.2,4.2,0,0,0-4.3-4.2h-.4a4.2,4.2,0,0,0-4.2,4.2v10.4a3.5,3.5,0,0,1-3.5,3.5h-2a3.5,3.5,0,0,1-3.5-3.5V191.3a4.3,4.3,0,0,0-8.5,0v6.5a5.4,5.4,0,0,1-7.1,5.1l-2.4-.7c-1.4-18.7-18.9-30.8-18.9-30.8,4.9-18.9-6.3-41.6-8.5-45.8.4-2.4.9-4.9,1.4-7.2a17.3,17.3,0,0,0-3.2-.3c-13.7,0-24.8,12.5-24.8,27.8,0,13.5,8.6,24.8,19.9,27.3.4,20.4,6.1,24.1,12,26.2-4.3,14.3-1,28.4,8,33.3.3,10.9,3,21.9-1.9,28.4,0,0,15.1-.1,17.8-3.1-7.3,9.2,36.7,19.1,46.3,7.1,9.7,12,53.7,2.1,46.3-7.1,2.8,3,17.8,3.1,17.8,3.1-4.9-6.5-2.1-17.5-1.8-28.4,8.9-4.9,12.3-19,8-33.3,5.9-2.1,11.5-5.8,12-26.2C235.3,170.7,243.8,159.4,243.8,145.9Z" fill="#aeaeae" stroke="#000" stroke-linecap="round" stroke-linejoin="round" stroke-width="0.71"/><path d="M187.5,202.9a5.4,5.4,0,0,1-7.1-5.1v-6.5a4.3,4.3,0,0,0-8.5,0v10.4a3.5,3.5,0,0,1-3.5,3.5h-2a3.5,3.5,0,0,1-3.5-3.5V191.3a4.2,4.2,0,0,0-4.2-4.2h-.5a4.2,4.2,0,0,0-4.2,4.2v10.4a3.5,3.5,0,0,1-7,0V191.3a4.2,4.2,0,0,0-4.2-4.2h-2.1a4.2,4.2,0,0,0-4.2,4.2v10.4a3.5,3.5,0,0,1-3.5,3.5,3.5,3.5,0,0,1-3.5-3.5V191.3a4.2,4.2,0,0,0-4.3-4.2h-.4a4.2,4.2,0,0,0-4.2,4.2v10.4a3.5,3.5,0,0,1-3.5,3.5h-2a3.5,3.5,0,0,1-3.5-3.5V191.3a4.3,4.3,0,0,0-8.5,0v6.5a5.4,5.4,0,0,1-7.1,5.1l-2.4-.7s.1,5.1,48.1,5.1,48.1-5.1,48.1-5.1Z" fill="#e1e1e1" stroke="#000" stroke-linecap="round" stroke-linejoin="round" stroke-width="0.71"/><path d="M116.8,233.7h0a4.3,4.3,0,0,1,3.4,1.6c6.4,8.1,4.4,22.3-17.8,16,0,0,16-2.9,10.9-10.9A4.3,4.3,0,0,1,116.8,233.7Z" fill="#c6c6c6"/><path d="M166.6,233.7h0a4.4,4.4,0,0,0-3.4,1.6c-6.4,8.1-4.4,22.3,17.9,16,0,0-16.1-2.9-11-10.9A4.3,4.3,0,0,0,166.6,233.7Z" fill="#c6c6c6"/><path d="M227.6,138.5h0a3.7,3.7,0,0,1,3.9-.4c9.2,4.6,13,21.5-10.4,29.2,0,0,13.9-13.7,5.9-19.1C224.1,146.2,224.4,140.8,227.6,138.5Z" fill="#c6c6c6"/><path d="M55.8,138.5h0a3.5,3.5,0,0,0-3.8-.4c-9.3,4.6-13,21.5,10.4,29.2,0,0-13.9-13.7-5.9-19.1C59.4,146.2,59,140.8,55.8,138.5Z" fill="#c6c6c6"/><path d="M141.7,227.2c-16,0,0,33.9,0,33.9S157.8,227.2,141.7,227.2Z" fill="#c6c6c6"/><path d="M96,218.5a5.4,5.4,0,0,1,7.1,5.1v6.5a4.3,4.3,0,0,0,8.5,0V219.7a3.5,3.5,0,0,1,3.5-3.5h2a3.5,3.5,0,0,1,3.5,3.5v10.4a4.2,4.2,0,0,0,4.2,4.2h.4a4.2,4.2,0,0,0,4.3-4.2V219.7a3.4,3.4,0,0,1,3.5-3.5,3.5,3.5,0,0,1,3.5,3.5v10.4a4.2,4.2,0,0,0,4.2,4.2h2.1a4.2,4.2,0,0,0,4.2-4.2V219.7a3.5,3.5,0,0,1,7,0v10.4a4.2,4.2,0,0,0,4.2,4.2h.5a4.2,4.2,0,0,0,4.2-4.2V219.7a3.5,3.5,0,0,1,3.5-3.5h2a3.5,3.5,0,0,1,3.5,3.5v10.4a4.3,4.3,0,0,0,8.5,0v-6.5a5.4,5.4,0,0,1,7.1-5.1l2.3-16.3s-.1,11.9-48.1,11.9-48.1-11.9-48.1-11.9Z" fill="#e1e1e1" stroke="#000" stroke-linecap="round" stroke-linejoin="round" stroke-width="0.71"/><path d="M195.1,202.6a4.9,4.9,0,0,1-4.4-2.8c2.6-16.8,18.2-27.8,18.3-27.9l.4-.2v-.4c-4.8-18.7,6.2-41.1,8.4-45.4v-.4l-1.2-6.7h2.5a18.7,18.7,0,0,1,5.7.8c.4,2,.8,4,1.1,6-2.4,4.7-13.1,26.9-8.6,45.7-2.3,1.7-17.2,13.5-18.7,30.6l-2,.6a3.9,3.9,0,0,1-1.5.2Z" fill="#777"/><path d="M78.7,260.5c3.1-5,2.5-12.1,1.9-19.7q-.4-4.1-.6-8.1v-.3l-.3-.2c-8.7-4.8-11.9-18.5-7.7-32.6l.2-.6h-.5c-5.7-2-11.2-5.6-11.6-25.7v-.4h-.5c-11.2-2.5-19.4-13.8-19.4-26.8,0-15,10.8-27.2,24.2-27.2h1.9c-10.6,3.6-17.9,14.6-17.9,27.1s8.3,25,19.8,27.8c.5,19.8,6.1,23.9,11.9,26.1-4.2,14.2-.8,28.1,8.1,33.3.1,2.6.3,5.2.5,7.8.6,7.4,1.2,14.3-1.7,19C83.7,260.3,80.4,260.4,78.7,260.5Z" fill="#777"/><path d="M121.1,270c-11.9-.6-23.9-4.7-25.7-8.8a31.6,31.6,0,0,0,8-1.7,3.8,3.8,0,0,0,.2,2.1C105.2,265.3,112.9,268.4,121.1,270Z" fill="#777"/><path d="M158.7,270a33.9,33.9,0,0,1-10.9-1.6,10.2,10.2,0,0,0,3.2-2.5A14.6,14.6,0,0,0,158.7,270Z" fill="#777"/><path d="M153,206.6a2.5,2.5,0,0,1-1.2-1.1,4,4,0,0,0,2.8-3.8V191.3a3.7,3.7,0,0,1,3.6-3.7h.5a3.4,3.4,0,0,1,2.6,1.2,4.8,4.8,0,0,0-4.1,4.8V204a2.9,2.9,0,0,1-1.6,2.6Z" fill="#b4b4b4"/><path d="M168.1,206l-.2-.2h.5a4,4,0,0,0,4-4.1V191.3a3.7,3.7,0,0,1,6.5-2.4,4.7,4.7,0,0,0-3.8,4.7V204a4.2,4.2,0,0,1-.4,1.5Z" fill="#b4b4b4"/><path d="M135.7,206.7a2.4,2.4,0,0,1-1.4-1.2,3.9,3.9,0,0,0,2.7-3.8V191.3a3.8,3.8,0,0,1,3.7-3.7h2.1a3.6,3.6,0,0,1,2.6,1.1h-.9a4.8,4.8,0,0,0-4.8,4.9V204a2.9,2.9,0,0,1-2,2.7Z" fill="#b4b4b4"/><path d="M122.5,206.4l-5.6-.3-.3-.3h.5a4,4,0,0,0,4-4.1V191.3a3.8,3.8,0,0,1,3.7-3.7h.4a3.4,3.4,0,0,1,2.7,1.2,4.8,4.8,0,0,0-4.1,4.8V204A2.9,2.9,0,0,1,122.5,206.4Z" fill="#b4b4b4"/><path d="M102.7,204.7l-4.7-.9a6,6,0,0,0,5.7-6v-6.5a3.7,3.7,0,0,1,3.6-3.7,3.7,3.7,0,0,1,2.8,1.3,4.7,4.7,0,0,0-3.8,4.7V200A4.9,4.9,0,0,1,102.7,204.7Z" fill="#b4b4b4"/><path d="M124.8,233.8a4,4,0,0,1-2.7-1.2,4.8,4.8,0,0,0,4.2-4.8V217.4a3,3,0,0,1,1.5-2.6h2.6a2.5,2.5,0,0,1,1.2,1.1,3.9,3.9,0,0,0-2.7,3.8v10.4a3.7,3.7,0,0,1-3.7,3.7Z" fill="#b4b4b4"/><path d="M107.3,233.8a3.7,3.7,0,0,1-2.7-1.3,4.7,4.7,0,0,0,3.8-4.7V217.4a2.8,2.8,0,0,1,.4-1.5l6.6-.5.2.2h-.5a4.1,4.1,0,0,0-4.1,4.1v10.4A3.7,3.7,0,0,1,107.3,233.8Z" fill="#b4b4b4"/><path d="M140.7,233.8a3.6,3.6,0,0,1-2.6-1.1h.9a4.9,4.9,0,0,0,4.8-4.9V217.4a2.9,2.9,0,0,1,1.9-2.7h2a2.9,2.9,0,0,1,1.5,1.2,3.9,3.9,0,0,0-2.8,3.8v10.4a3.7,3.7,0,0,1-3.6,3.7Z" fill="#b4b4b4"/><path d="M158.2,233.8a3.7,3.7,0,0,1-2.6-1.2,4.8,4.8,0,0,0,4.1-4.8V217.4A2.9,2.9,0,0,1,161,215l5.6.3.3.3h-.5a4.1,4.1,0,0,0-4.1,4.1v10.4a3.7,3.7,0,0,1-3.6,3.7Z" fill="#b4b4b4"/><path d="M176.1,233.8a3.7,3.7,0,0,1-2.7-1.3,4.8,4.8,0,0,0,3.8-4.7v-6.9a4.6,4.6,0,0,1,4.6-4h.8l2.9.6a6,6,0,0,0-5.7,6v6.3a3.9,3.9,0,0,1-3.2,3.9Z" fill="#b4b4b4"/><path d="M189.8,202.2s-.1,5.1-48.1,5.1-48.1-5.1-48.1-5.1-.3,10.7,13.3,12.9c-1.9,8.8,20.5,12.4,26.1,5.6s4.8-5.4,8.7-5.4,3.2-1.4,8.8,5.4,28,3.2,26-5.6c13.7-2.2,13.3-12.9,13.3-12.9Z" fill="#787878" stroke="#000" stroke-linecap="round" stroke-linejoin="round" stroke-width="0.71"/><path d="M153.2,209c-19.4,0-30.9-.9-37.7-1.8,7.2.4,16,.7,26.2.7,34.2,0,44.4-2.6,47.4-4.3a12.1,12.1,0,0,1-1.3,4A340.2,340.2,0,0,1,153.2,209Z" fill="#434343"/><path d="M120.9,223.6c-5.4-.3-10.4-2.1-12.5-4.7a4.2,4.2,0,0,1-.9-3.7v-.6H107c-10.2-1.6-12.3-8-12.7-10.9,1.4.8,4.3,1.7,10.4,2.5.5,3.3,2.8,9.8,13,11.7C117.5,220,118.6,222,120.9,223.6Z" fill="#434343"/><path d="M161.1,223.7c-4.7,0-8.4-1.3-10.2-3.4l-1.6-1.9a2.4,2.4,0,0,1,1.3-.4h5.1c1.2,0,1.8.5,5.8,5.3l.3.3Z" fill="#434343"/></svg>