<svg xmlns="http://www.w3.org/2000/svg" viewBox="0 0 283.5 283.5"><g style="isolation:isolate"><ellipse cx="141.7" cy="150.3" rx="77.4" ry="110.8" fill="#969696" stroke="#000" stroke-linecap="round" stroke-linejoin="round" stroke-width="0.71"/><path d="M141.7,260.5c-42.3,0-76.8-49.4-76.8-110.2S99.4,40,141.7,40a60.9,60.9,0,0,1,8.5.7C132.8,45.2,117,58,105.4,77.2s-19.2,46.2-19.2,73.1,6.8,52.8,19.2,73.1,27.4,32,44.8,36.4A48.8,48.8,0,0,1,141.7,260.5Z" fill="#363636"/><path d="M73.7,150s14.8,16.6,37.1,14.8c0,0,.9-6.8,12.2-5.6s12.2-3.7,12.2-23.4c0,0,5.9,25.2,0,35.5C126.8,185.7,81.9,184.2,73.7,150Z" fill="#606060"/><path d="M209.7,150s-14.8,16.6-37.1,14.8c0,0-.8-6.8-12.2-5.6s-12.2-3.7-12.2-23.4c0,0-5.9,25.2,0,35.5C156.6,185.7,201.5,184.2,209.7,150Z" fill="#adadad"/><path d="M77.9,145.6c.5-12.3,46.1-12.9,54.5,4.7s-19.5,2.4-19.5,17.1C112.9,167.4,77.2,161.6,77.9,145.6Z" fill="#4d4d4d"/><path d="M205.6,145.6c-.5-12.3-46.1-12.9-54.5,4.7s19.4,2.4,19.4,17.1C170.5,167.4,206.2,161.6,205.6,145.6Z" fill="#4d4d4d"/><path d="M86.7,145.6c.4-12.3,31.6-12.9,37.3,4.7s-13.3,2.4-13.3,17.1C110.7,167.4,86.3,161.6,86.7,145.6Z" fill="#fbfbfb" stroke="#000" stroke-linecap="round" stroke-linejoin="round" stroke-width="0.71"/><path d="M99.3,152.5c.2-7.2,11.2-10.4,21.3-8.2-10-11.2-33.6-9.4-33.9,1.3s12.4,17.8,19.4,20.3C102.2,162.6,99.2,158.2,99.3,152.5Z" fill="#242424" style="mix-blend-mode:multiply"/><path d="M86.7,109.4h0a8.4,8.4,0,0,0,8.6,8.4c8.3-.2,21.2,2.9,30.7,20.5,0,0,14.2-33.2-30.1-37.2A8.4,8.4,0,0,0,86.7,109.4Z" fill="#1d1d1d" stroke="#000" stroke-linecap="round" stroke-linejoin="round" stroke-width="0.71"/><path d="M196.7,145.6c-.3-12.3-31.5-12.9-37.3,4.7s13.3,2.4,13.3,17.1C172.7,167.4,197.2,161.6,196.7,145.6Z" fill="#fbfbfb" stroke="#000" stroke-linecap="round" stroke-linejoin="round" stroke-width="0.71"/><path d="M184.1,152.5c-.2-7.2-11.1-10.4-21.2-8.2,9.9-11.2,33.5-9.4,33.8,1.3s-12.3,17.8-19.4,20.3C181.3,162.6,184.3,158.2,184.1,152.5Z" fill="#242424" style="mix-blend-mode:multiply"/><path d="M196.7,109.4h0a8.3,8.3,0,0,1-8.5,8.4c-8.4-.2-21.2,2.9-30.7,20.5,0,0-14.3-33.2,30.1-37.2A8.4,8.4,0,0,1,196.7,109.4Z" fill="#1d1d1d" stroke="#000" stroke-linecap="round" stroke-linejoin="round" stroke-width="0.71"/><path d="M168.8,218.9s1.3-17.5-18-17.5h0a9.1,9.1,0,0,1-9,9h-.1a9,9,0,0,1-9-9h0c-19.3,0-18,17.5-18,17.5a51.6,51.6,0,0,1-38.9-10.5c13.6,31.6,38.1,52.7,65.9,52.7s52.3-21.1,66-52.7A52,52,0,0,1,168.8,218.9Z" fill="#1d1d1d" stroke="#000" stroke-linecap="round" stroke-linejoin="round" stroke-width="0.71"/><path d="M141.7,227.9H125.1c1,10.1,7.9,14.9,12.5,17a10,10,0,0,0,8.3,0c4.6-2.1,11.5-6.9,12.4-17Z" fill="#c4c4c4" stroke="#000" stroke-linecap="round" stroke-linejoin="round" stroke-width="0.71"/><path d="M141.7,39.5c-33.8,0-62.6,31.1-73.1,74.4,0,0,32.2-41.6,50.2-41.6s13.5,12.1,22.9,12.1,5-12.1,23-12.1,50.2,41.6,50.2,41.6C204.4,70.6,175.6,39.5,141.7,39.5Z" fill="#363636" stroke="#000" stroke-linecap="round" stroke-linejoin="round" stroke-width="0.71"/><path d="M151,41.9a50.1,50.1,0,0,1,9.5.9,54.3,54.3,0,0,0-18.8-3.3c-33.8,0-62.6,31.1-73.1,74.4,0,0,7-9,16.3-18.7C98.5,63.3,123,41.9,151,41.9Z"/><path d="M129.7,74.8c5.6,3.5,5.4,9.6,12,9.6a7.3,7.3,0,0,0,3.2-.6C142.2,80.3,140.3,75.2,129.7,74.8Z"/><path d="M174,74.7h-.5c18,9,41.4,39.2,41.4,39.2-1.1-4.4-2.4-8.7-3.8-12.8C200.1,89.2,184.6,74.7,174,74.7Z"/><path d="M149.5,210.4h0a8.9,8.9,0,0,0,8.9-7.9,23.9,23.9,0,0,0-7.6-1.1,8.8,8.8,0,0,1-5.2,8.1,8.6,8.6,0,0,0,3.9.9Z"/><path d="M122.5,218.9s-1-12.5,10.3-16.4a4.1,4.1,0,0,1-.1-1.1c-19.3,0-18,17.5-18,17.5l-3.1.3A50.5,50.5,0,0,0,122.5,218.9Z"/><path d="M86.6,214.9a47.2,47.2,0,0,1-10.8-6.5c13.6,31.6,38.1,52.7,65.9,52.7l3.9-.2C121.3,259.2,99.9,241.5,86.6,214.9Z"/><line x1="132.7" y1="201.4" x2="132.7" y2="187.1" fill="none" stroke="#000" stroke-linecap="round" stroke-linejoin="round" stroke-width="0.71"/><line x1="150.7" y1="201.4" x2="150.7" y2="187.1" fill="none" stroke="#000" stroke-linecap="round" stroke-linejoin="round" stroke-width="0.71"/><path d="M67.4,121.7c.8-3,1.8-5.9,2.8-8.9,5.5-6.8,32.8-40,48.6-40,10.1,0,12.8,3.9,15.3,7.3s3.4,4.9,7.6,4.9,5.9-2.4,7.7-4.9,5.2-7.3,15.3-7.3c15.8,0,43.1,33.2,48.6,40,1,3,1.9,5.9,2.7,8.9-7-8.4-34.2-39.8-50.6-39.8-11,0-14.2,4.3-16.7,7.7s-3.2,4.4-7,4.4-5.2-1.9-7-4.4-5.6-7.7-16.7-7.7c-7.8,0-19,7-33.2,20.9C76.9,110.5,70.4,118.2,67.4,121.7Z" fill="#606060"/><path d="M107.7,218.8a51,51,0,0,1-31.4-10.7,144.3,144.3,0,0,1-11.1-47.4c2.9,9.9,9.9,19.1,21.1,27.5s25.1,14.7,32.6,17.5c-4.6,4.5-4.8,10.8-4.8,12.7A45.8,45.8,0,0,1,107.7,218.8Z" fill="#454545"/><path d="M175.8,218.8a47.3,47.3,0,0,1-6.5-.4c.1-1.9-.2-8.2-4.7-12.7,7.5-2.8,20.9-8.6,32.6-17.5s18.2-17.6,21-27.5a144.2,144.2,0,0,1-11,47.4A51.7,51.7,0,0,1,175.8,218.8Z" fill="#606060"/><path d="M141.7,245.2a10.5,10.5,0,0,1-3.9-.8c-4.9-2.3-10.9-6.9-12-15.9h31.9a18.5,18.5,0,0,1-.4,2.3H134.8v.6a20,20,0,0,0,7,13.8Z" fill="#8f8f8f"/></g></svg>