<svg id="EYES" xmlns="http://www.w3.org/2000/svg" viewBox="0 0 283.5 283.5">
  <g>
    <path d="M95.6,152.6v26.2a2.7,2.7,0,0,0,5.4,0v-2a1.3,1.3,0,1,1,2.6,0v9.9a3.6,3.6,0,1,0,7.1,0V176.4a2.3,2.3,0,0,1,2.3-2.3,2.3,2.3,0,0,1,2.3,2.3v6.9a2.3,2.3,0,1,0,4.6,0v-7.4a2.4,2.4,0,0,1,4.7,0v2a2.6,2.6,0,0,0,2.6,2.6,2.6,2.6,0,0,0,2.6-2.6V152.6Z" fill="#2b2b2b" stroke="#000" stroke-linecap="round" stroke-linejoin="round" stroke-width="0.71"/>
    <path d="M153.7,152.6v25.3a2.6,2.6,0,1,0,5.2,0v-2a2.3,2.3,0,0,1,2.3-2.3,2.3,2.3,0,0,1,2.4,2.3v7.4a2.3,2.3,0,1,0,4.6,0v-6.9a2.3,2.3,0,1,1,4.5,0v10.3a3.6,3.6,0,1,0,7.2,0v-9.9a1.3,1.3,0,0,1,1.3-1.3,1.3,1.3,0,0,1,1.3,1.3v2a2.7,2.7,0,0,0,5.4,0V152.6Z" fill="#2b2b2b" stroke="#000" stroke-linecap="round" stroke-linejoin="round" stroke-width="0.71"/>
    <g>
      <g>
        <path d="M106.3,152.2A17,17,0,0,1,118,136a16,16,0,0,0-5.3-.9,17.1,17.1,0,0,0,0,34.2,16,16,0,0,0,5.3-.9A17.1,17.1,0,0,1,106.3,152.2Z" stroke="#000" stroke-linecap="round" stroke-linejoin="round" stroke-width="0.71"/>
        <ellipse cx="118" cy="152.2" rx="11.7" ry="16.2" fill="red" stroke="#000" stroke-linecap="round" stroke-linejoin="round" stroke-width="0.71"/>
      </g>
      <path d="M121.2,125.8h-17a4.7,4.7,0,1,0,0,9.3h17a4.7,4.7,0,0,0,0-9.3Z" stroke="#000" stroke-linecap="round" stroke-linejoin="round" stroke-width="0.71"/>
      <g>
        <path d="M164.5,152.2A17,17,0,0,1,176.2,136a16.1,16.1,0,0,0-5.4-.9,17.1,17.1,0,0,0,0,34.2,16.1,16.1,0,0,0,5.4-.9A17.1,17.1,0,0,1,164.5,152.2Z" stroke="#000" stroke-linecap="round" stroke-linejoin="round" stroke-width="0.71"/>
        <ellipse cx="176.2" cy="152.2" rx="11.7" ry="16.2" fill="red" stroke="#000" stroke-linecap="round" stroke-linejoin="round" stroke-width="0.71"/>
      </g>
      <path d="M179.3,125.8h-17a4.7,4.7,0,1,0,0,9.3h17a4.7,4.7,0,1,0,0-9.3Z" stroke="#000" stroke-linecap="round" stroke-linejoin="round" stroke-width="0.71"/>
      <circle cx="116.2" cy="152.2" r="4.1" stroke="#000" stroke-linecap="round" stroke-linejoin="round" stroke-width="0.71"/>
      <path d="M174.4,148.1a4.1,4.1,0,0,0-4.1,4.1,4.1,4.1,0,1,0,8.1,0A4,4,0,0,0,174.4,148.1Z" stroke="#000" stroke-linecap="round" stroke-linejoin="round" stroke-width="0.71"/>
    </g>
  </g>
</svg>
