<svg id="EYES" xmlns="http://www.w3.org/2000/svg" viewBox="0 0 283.5 283.5">
  <g>
    <path d="M108.5,167.6c-6.9-2.1-15.6-8.3-19.1-25.8,0,0-16,31.7,14.2,41.7a8.1,8.1,0,0,0,10.2-4.8A8.3,8.3,0,0,0,108.5,167.6Z" fill="#a6a6a6" stroke="#000" stroke-linecap="round" stroke-linejoin="round" stroke-width="0.71"/>
    <g>
      <g>
        <g>
          <path d="M104.9,154.3c0-5.2,6.1-9.5,14.4-10.7a31.9,31.9,0,0,0-4.5-.3c-10.4,0-18.9,4.9-18.9,11s8.5,11,18.9,11a31.9,31.9,0,0,0,4.5-.3C111,163.8,104.9,159.5,104.9,154.3Z" stroke="#000" stroke-linecap="round" stroke-linejoin="round" stroke-width="0.71"/>
          <path d="M119.3,143.6c-8.3,1.2-14.4,5.5-14.4,10.7s6.1,9.5,14.4,10.7c8.3-1.2,14.4-5.5,14.4-10.7S127.6,144.8,119.3,143.6Z" fill="#fff" stroke="#000" stroke-linecap="round" stroke-linejoin="round" stroke-width="0.71"/>
        </g>
        <path d="M128.8,128.4H103.1a5,5,0,0,0,0,9.9h25.7a5,5,0,0,0,0-9.9Z" stroke="#000" stroke-linecap="round" stroke-linejoin="round" stroke-width="0.71"/>
        <g>
          <path d="M158.7,154.3c0-5.2,6.2-9.5,14.4-10.7a31.9,31.9,0,0,0-4.5-.3c-10.4,0-18.9,4.9-18.9,11s8.5,11,18.9,11a31.9,31.9,0,0,0,4.5-.3C164.9,163.8,158.7,159.5,158.7,154.3Z" stroke="#000" stroke-linecap="round" stroke-linejoin="round" stroke-width="0.71"/>
          <path d="M173.1,143.6c-8.2,1.2-14.4,5.5-14.4,10.7s6.2,9.5,14.4,10.7c8.3-1.2,14.5-5.5,14.5-10.7S181.4,144.8,173.1,143.6Z" fill="#fff" stroke="#000" stroke-linecap="round" stroke-linejoin="round" stroke-width="0.71"/>
        </g>
        <path d="M182.6,128.4H156.9a5,5,0,0,0,0,9.9h25.7a5,5,0,1,0,0-9.9Z" stroke="#000" stroke-linecap="round" stroke-linejoin="round" stroke-width="0.71"/>
      </g>
      <path d="M119.3,150.6a3.7,3.7,0,0,0-3.6,3.7,3.6,3.6,0,0,0,3.6,3.6,3.7,3.7,0,0,0,3.7-3.6A3.8,3.8,0,0,0,119.3,150.6Z" stroke="#000" stroke-linecap="round" stroke-linejoin="round" stroke-width="0.71"/>
      <path d="M173.1,150.6a3.7,3.7,0,0,0-3.6,3.7,3.6,3.6,0,0,0,3.6,3.6,3.7,3.7,0,0,0,3.7-3.6A3.8,3.8,0,0,0,173.1,150.6Z" stroke="#000" stroke-linecap="round" stroke-linejoin="round" stroke-width="0.71"/>
    </g>
  </g>
</svg>
