<svg id="EYES" xmlns="http://www.w3.org/2000/svg" viewBox="0 0 283.5 283.5">
  <g>
    <g>
      <path d="M109.4,97.1c14.6,0,12,11.3,28.9,8.6s23-15.4,35.7-4.1" fill="none" stroke="#000" stroke-linecap="round" stroke-linejoin="round" stroke-width="0.71"/>
      <path d="M122,112.1c8.9,0,7.3,6.9,17.6,5.2s14-9.4,21.8-2.5" fill="none" stroke="#000" stroke-linecap="round" stroke-linejoin="round" stroke-width="0.71"/>
    </g>
    <path d="M108.5,167.6c-6.9-2.1-15.6-8.3-19.1-25.8,0,0-16,31.7,14.2,41.7a8.1,8.1,0,0,0,10.2-4.8A8.3,8.3,0,0,0,108.5,167.6Z" fill="#a6a6a6" stroke="#000" stroke-linecap="round" stroke-linejoin="round" stroke-width="0.71"/>
    <g>
      <g>
        <g>
          <path d="M92.4,130.4c16.5-5.2,26.7,3.8,31,9a7.3,7.3,0,0,0,7,2.6h0a7.3,7.3,0,0,0,3.9-12.3C112.2,107.1,92.4,130.4,92.4,130.4Z" stroke="#000" stroke-linecap="round" stroke-linejoin="round" stroke-width="0.71"/>
          <path d="M149.2,129.7a7.3,7.3,0,0,0,3.9,12.3h0a7.1,7.1,0,0,0,6.9-2.6c4.4-5.2,14.6-14.2,31-9C191,130.4,171.2,107.1,149.2,129.7Z" stroke="#000" stroke-linecap="round" stroke-linejoin="round" stroke-width="0.71"/>
        </g>
        <g>
          <g>
            <path d="M118,136a16,16,0,0,0-5.3-.9,17.1,17.1,0,0,0,0,34.2,16,16,0,0,0,5.3-.9,17.1,17.1,0,0,1,0-32.4Z" stroke="#000" stroke-linecap="round" stroke-linejoin="round" stroke-width="0.71"/>
            <path d="M164.5,152.2A17,17,0,0,1,176.2,136a16.1,16.1,0,0,0-5.4-.9,17.1,17.1,0,0,0,0,34.2,16.1,16.1,0,0,0,5.4-.9A17.1,17.1,0,0,1,164.5,152.2Z" stroke="#000" stroke-linecap="round" stroke-linejoin="round" stroke-width="0.71"/>
          </g>
          <g>
            <ellipse cx="118" cy="152.2" rx="11.7" ry="16.2" fill="#fff" stroke="#000" stroke-linecap="round" stroke-linejoin="round" stroke-width="0.71"/>
            <ellipse cx="176.2" cy="152.2" rx="11.7" ry="16.2" fill="#fff" stroke="#000" stroke-linecap="round" stroke-linejoin="round" stroke-width="0.71"/>
          </g>
        </g>
      </g>
      <g>
        <circle cx="118" cy="151.6" r="5.6" stroke="#000" stroke-linecap="round" stroke-linejoin="round" stroke-width="0.71"/>
        <circle cx="176.2" cy="151.6" r="5.6" stroke="#000" stroke-linecap="round" stroke-linejoin="round" stroke-width="0.71"/>
      </g>
    </g>
  </g>
</svg>
