<svg id="EYES" xmlns="http://www.w3.org/2000/svg" viewBox="0 0 283.5 283.5">
  <g>
    <g>
      <path d="M118,136a16,16,0,0,0-5.3-.9,17.1,17.1,0,0,0,0,34.2,16,16,0,0,0,5.3-.9,17.1,17.1,0,0,1,0-32.4Z" stroke="#000" stroke-linecap="round" stroke-linejoin="round" stroke-width="0.71"/>
      <path d="M164.5,152.2A17,17,0,0,1,176.2,136a16.1,16.1,0,0,0-5.4-.9,17.1,17.1,0,0,0,0,34.2,16.1,16.1,0,0,0,5.4-.9A17.1,17.1,0,0,1,164.5,152.2Z" stroke="#000" stroke-linecap="round" stroke-linejoin="round" stroke-width="0.71"/>
    </g>
    <g>
      <ellipse cx="118" cy="152.2" rx="11.7" ry="16.2" fill="#74ebfc" stroke="#000" stroke-linecap="round" stroke-linejoin="round" stroke-width="0.71"/>
      <path d="M176.2,136a17.1,17.1,0,0,0,0,32.4,17.1,17.1,0,0,0,0-32.4Z" fill="#74ebfc" stroke="#000" stroke-linecap="round" stroke-linejoin="round" stroke-width="0.71"/>
    </g>
  </g>
  <path d="M194.3,184.4a9.4,9.4,0,0,0-7.2-3.3,9.3,9.3,0,0,0-6.8,3c-7.8,8.5-20.9,18.6-38.6,18.6s-30.7-10.1-38.5-18.6a9.4,9.4,0,0,0-14,.3,9.1,9.1,0,0,0-2.2,7.4c1.5,9.9,4.9,24.2,13.1,35.8,9.8,13.9,23.8,21,41.6,21s31.9-7.1,41.7-21c8.2-11.6,11.6-25.9,13-35.8A9.1,9.1,0,0,0,194.3,184.4Z" fill="#4c676b" stroke="#000" stroke-linecap="round" stroke-linejoin="round" stroke-width="0.71"/>
  <path d="M184,187.6c-8.3,9-22.6,20.2-42.3,20.2s-34-11.2-42.3-20.2a4.2,4.2,0,0,0-7.3,3.5c2.8,19.7,13.1,52.4,49.6,52.4s46.9-32.7,49.7-52.4A4.3,4.3,0,0,0,184,187.6Z" fill="#74ebfc" stroke="#000" stroke-linecap="round" stroke-linejoin="round" stroke-width="0.71"/>
  <path d="M184.1,187.7c-8.3,9-22.6,20.2-42.3,20.2s-34-11.2-42.3-20.2a4.2,4.2,0,0,0-3.4-1.3c6.1,16.9,18.8,34,45.2,34s39.1-17.1,45.2-34A4.1,4.1,0,0,0,184.1,187.7Z" fill="#fff" stroke="#000" stroke-linecap="round" stroke-linejoin="round" stroke-width="0.71"/>
</svg>
