<svg id="EYES" xmlns="http://www.w3.org/2000/svg" viewBox="0 0 283.5 283.5">
  <g>
    <g>
      <circle cx="111.7" cy="152.2" r="20.9" fill="#728490" stroke="#000" stroke-linecap="round" stroke-linejoin="round" stroke-width="0.71"/>
      <g>
        <path d="M111.7,136.8a15.4,15.4,0,0,0-15.4,15.4,15.1,15.1,0,0,0,.8,4.8,15.4,15.4,0,0,1,29.2,0,15.1,15.1,0,0,0,.8-4.8A15.4,15.4,0,0,0,111.7,136.8Z" stroke="#000" stroke-linecap="round" stroke-linejoin="round" stroke-width="0.71"/>
        <path d="M111.7,146.5A15.4,15.4,0,0,0,97.1,157a15.4,15.4,0,0,0,29.2,0A15.4,15.4,0,0,0,111.7,146.5Z" fill="#fff" stroke="#000" stroke-linecap="round" stroke-linejoin="round" stroke-width="0.71"/>
      </g>
      <path d="M111.7,146.7a5.5,5.5,0,0,0-5.4,5.5,5.4,5.4,0,0,0,5.4,5.4,5.5,5.5,0,0,0,5.5-5.4A5.5,5.5,0,0,0,111.7,146.7Z" fill="#edcd51" stroke="#000" stroke-linecap="round" stroke-linejoin="round" stroke-width="0.71"/>
    </g>
    <g>
      <circle cx="171.8" cy="152.2" r="20.9" fill="#728490" stroke="#000" stroke-linecap="round" stroke-linejoin="round" stroke-width="0.71"/>
      <g>
        <path d="M171.8,136.8a15.4,15.4,0,0,0-15.4,15.4,15.1,15.1,0,0,0,.7,4.8,15.5,15.5,0,0,1,29.3,0,15.1,15.1,0,0,0,.7-4.8A15.3,15.3,0,0,0,171.8,136.8Z" stroke="#000" stroke-linecap="round" stroke-linejoin="round" stroke-width="0.71"/>
        <ellipse cx="171.8" cy="157" rx="14.6" ry="10.6" fill="#fff" stroke="#000" stroke-linecap="round" stroke-linejoin="round" stroke-width="0.71"/>
      </g>
      <path d="M171.8,146.7a5.5,5.5,0,0,0-5.5,5.5,5.5,5.5,0,0,0,10.9,0A5.5,5.5,0,0,0,171.8,146.7Z" fill="#edcd51" stroke="#000" stroke-linecap="round" stroke-linejoin="round" stroke-width="0.71"/>
    </g>
  </g>
</svg>
