<svg id="EYES" xmlns="http://www.w3.org/2000/svg" viewBox="0 0 283.5 283.5">
  <g>
    <path d="M96.8,154.3v24.6a2.8,2.8,0,0,0,2.8,2.7,2.7,2.7,0,0,0,2.7-2.7v-2a1.3,1.3,0,1,1,2.6,0v9.9a3.6,3.6,0,1,0,7.1,0V176.5a2.3,2.3,0,1,1,4.5,0v6.9a2.4,2.4,0,0,0,4.7,0V176a2.3,2.3,0,1,1,4.6,0v2a2.6,2.6,0,0,0,2.6,2.5A2.5,2.5,0,0,0,131,178V154.3Z" fill="#2b2b2b" stroke="#000" stroke-linecap="round" stroke-linejoin="round" stroke-width="0.71"/>
    <path d="M152.4,154.3V178a2.6,2.6,0,0,0,2.6,2.5,2.5,2.5,0,0,0,2.6-2.5v-2a2.4,2.4,0,0,1,4.7,0v7.4a2.3,2.3,0,1,0,4.6,0v-6.9a2.3,2.3,0,0,1,2.3-2.3,2.3,2.3,0,0,1,2.3,2.3v10.3a3.6,3.6,0,1,0,7.1,0v-9.9a1.3,1.3,0,1,1,2.6,0v2a2.7,2.7,0,1,0,5.4,0V154.3Z" fill="#2b2b2b" stroke="#000" stroke-linecap="round" stroke-linejoin="round" stroke-width="0.71"/>
    <g>
      <g>
        <g>
          <path d="M104.9,154.3c0-5.2,6.1-9.5,14.4-10.7a31.9,31.9,0,0,0-4.5-.3c-10.4,0-18.9,4.9-18.9,11s8.5,11,18.9,11a31.9,31.9,0,0,0,4.5-.3C111,163.8,104.9,159.5,104.9,154.3Z" stroke="#000" stroke-linecap="round" stroke-linejoin="round" stroke-width="0.71"/>
          <path d="M119.3,143.6c-8.3,1.2-14.4,5.5-14.4,10.7s6.1,9.5,14.4,10.7c8.3-1.2,14.4-5.5,14.4-10.7S127.6,144.8,119.3,143.6Z" fill="#fff" stroke="#000" stroke-linecap="round" stroke-linejoin="round" stroke-width="0.71"/>
        </g>
        <path d="M128.8,128.4H103.1a5,5,0,0,0,0,9.9h25.7a5,5,0,0,0,0-9.9Z" stroke="#000" stroke-linecap="round" stroke-linejoin="round" stroke-width="0.71"/>
        <g>
          <path d="M158.7,154.3c0-5.2,6.2-9.5,14.4-10.7a31.9,31.9,0,0,0-4.5-.3c-10.4,0-18.9,4.9-18.9,11s8.5,11,18.9,11a31.9,31.9,0,0,0,4.5-.3C164.9,163.8,158.7,159.5,158.7,154.3Z" stroke="#000" stroke-linecap="round" stroke-linejoin="round" stroke-width="0.71"/>
          <path d="M173.1,143.6c-8.2,1.2-14.4,5.5-14.4,10.7s6.2,9.5,14.4,10.7c8.3-1.2,14.5-5.5,14.5-10.7S181.4,144.8,173.1,143.6Z" fill="#fff" stroke="#000" stroke-linecap="round" stroke-linejoin="round" stroke-width="0.71"/>
        </g>
        <path d="M182.6,128.4H156.9a5,5,0,0,0,0,9.9h25.7a5,5,0,1,0,0-9.9Z" stroke="#000" stroke-linecap="round" stroke-linejoin="round" stroke-width="0.71"/>
      </g>
      <path d="M119.3,150.6a3.7,3.7,0,0,0-3.6,3.7,3.6,3.6,0,0,0,3.6,3.6,3.7,3.7,0,0,0,3.7-3.6A3.8,3.8,0,0,0,119.3,150.6Z" stroke="#000" stroke-linecap="round" stroke-linejoin="round" stroke-width="0.71"/>
      <path d="M173.1,150.6a3.7,3.7,0,0,0-3.6,3.7,3.6,3.6,0,0,0,3.6,3.6,3.7,3.7,0,0,0,3.7-3.6A3.8,3.8,0,0,0,173.1,150.6Z" stroke="#000" stroke-linecap="round" stroke-linejoin="round" stroke-width="0.71"/>
    </g>
  </g>
</svg>
