<svg xmlns="http://www.w3.org/2000/svg" viewBox="0 0 283.5 283.5"><circle cx="111.7" cy="152.2" r="20.9" fill="#728490" stroke="#000" stroke-linecap="round" stroke-linejoin="round" stroke-width="0.71"/><path d="M111.7,146.5A15.4,15.4,0,0,1,126.3,157a15.1,15.1,0,0,0,.8-4.8,15.4,15.4,0,1,0-30.8,0,15.1,15.1,0,0,0,.8,4.8A15.4,15.4,0,0,1,111.7,146.5Z" stroke="#000" stroke-linecap="round" stroke-linejoin="round" stroke-width="0.71"/><ellipse cx="111.7" cy="157" rx="14.6" ry="10.6" fill="#fff" stroke="#000" stroke-linecap="round" stroke-linejoin="round" stroke-width="0.71"/><circle cx="111.7" cy="152.2" r="5.5" fill="#edcd51" stroke="#000" stroke-linecap="round" stroke-linejoin="round" stroke-width="0.71"/><circle cx="171.8" cy="152.2" r="20.9" fill="#728490" stroke="#000" stroke-linecap="round" stroke-linejoin="round" stroke-width="0.71"/><path d="M171.8,146.5A15.4,15.4,0,0,1,186.4,157a15.1,15.1,0,0,0,.7-4.8,15.4,15.4,0,1,0-30.7,0,15.1,15.1,0,0,0,.7,4.8A15.5,15.5,0,0,1,171.8,146.5Z" stroke="#000" stroke-linecap="round" stroke-linejoin="round" stroke-width="0.71"/><ellipse cx="171.8" cy="157" rx="14.6" ry="10.6" fill="#fff" stroke="#000" stroke-linecap="round" stroke-linejoin="round" stroke-width="0.71"/><circle cx="171.8" cy="152.2" r="5.5" fill="#edcd51" stroke="#000" stroke-linecap="round" stroke-linejoin="round" stroke-width="0.71"/></svg>