<svg id="EYES" xmlns="http://www.w3.org/2000/svg" viewBox="0 0 283.5 283.5">
  <g>
    <path d="M96.8,155.7v22.7a2.6,2.6,0,0,0,5.1,0v-1.8a1.2,1.2,0,0,1,1.2-1.2,1.1,1.1,0,0,1,1.1,1.2v9.1a3.3,3.3,0,0,0,6.6,0v-9.6a2.1,2.1,0,0,1,2.1-2,2,2,0,0,1,2.1,2v6.4a2.2,2.2,0,1,0,4.3,0v-6.8a2.1,2.1,0,0,1,2.1-2.1,2.1,2.1,0,0,1,2.2,2.1v1.8a2.4,2.4,0,0,0,2.4,2.4h0a2.4,2.4,0,0,0,2.4-2.4V155.7Z" fill="#2b2b2b" stroke="#000" stroke-linecap="round" stroke-linejoin="round" stroke-width="0.71"/>
    <path d="M155.1,155.7v21.8a2.4,2.4,0,0,0,2.4,2.4h0a2.4,2.4,0,0,0,2.4-2.4v-1.8a2.1,2.1,0,0,1,2.1-2.1,2.1,2.1,0,0,1,2.2,2.1v6.8a2.1,2.1,0,0,0,2.1,2.2,2.2,2.2,0,0,0,2.2-2.2v-6.4a2,2,0,0,1,2.1-2,2,2,0,0,1,2,2v9.6a3.3,3.3,0,0,0,6.6,0v-9.1a1.2,1.2,0,0,1,2.4,0v1.8a2.5,2.5,0,0,0,5,0V155.7Z" fill="#2b2b2b" stroke="#000" stroke-linecap="round" stroke-linejoin="round" stroke-width="0.71"/>
    <g>
      <g>
        <g>
          <path d="M106.3,152.2A17,17,0,0,1,118,136a16,16,0,0,0-5.3-.9,17.1,17.1,0,0,0,0,34.2,16,16,0,0,0,5.3-.9A17.1,17.1,0,0,1,106.3,152.2Z" stroke="#000" stroke-linecap="round" stroke-linejoin="round" stroke-width="0.71"/>
          <ellipse cx="118" cy="152.2" rx="11.7" ry="16.2" fill="#fff" stroke="#000" stroke-linecap="round" stroke-linejoin="round" stroke-width="0.71"/>
        </g>
        <path d="M121.2,117.3h-17a4.6,4.6,0,0,0-4.7,4.6,4.7,4.7,0,0,0,4.7,4.7h17a4.7,4.7,0,0,0,4.6-4.7A4.6,4.6,0,0,0,121.2,117.3Z" stroke="#000" stroke-linecap="round" stroke-linejoin="round" stroke-width="0.71"/>
        <g>
          <path d="M164.5,152.2A17,17,0,0,1,176.2,136a16.1,16.1,0,0,0-5.4-.9,17.1,17.1,0,0,0,0,34.2,16.1,16.1,0,0,0,5.4-.9A17.1,17.1,0,0,1,164.5,152.2Z" stroke="#000" stroke-linecap="round" stroke-linejoin="round" stroke-width="0.71"/>
          <ellipse cx="176.2" cy="152.2" rx="11.7" ry="16.2" fill="#fff" stroke="#000" stroke-linecap="round" stroke-linejoin="round" stroke-width="0.71"/>
        </g>
        <path d="M179.3,117.3h-17a4.6,4.6,0,0,0-4.7,4.6,4.7,4.7,0,0,0,4.7,4.7h17a4.7,4.7,0,0,0,4.7-4.7A4.6,4.6,0,0,0,179.3,117.3Z" stroke="#000" stroke-linecap="round" stroke-linejoin="round" stroke-width="0.71"/>
      </g>
      <path d="M118,145.9a6.3,6.3,0,1,0,6.3,6.3A6.3,6.3,0,0,0,118,145.9Z" fill="#75e4fc" stroke="#000" stroke-linecap="round" stroke-linejoin="round" stroke-width="0.71"/>
      <path d="M176.2,145.9a6.3,6.3,0,1,0,6.2,6.3A6.3,6.3,0,0,0,176.2,145.9Z" fill="#75e4fc" stroke="#000" stroke-linecap="round" stroke-linejoin="round" stroke-width="0.71"/>
    </g>
  </g>
</svg>
