<svg id="EYES" xmlns="http://www.w3.org/2000/svg" viewBox="0 0 283.5 283.5">
  <g>
    <g>
      <path d="M112.7,135.1a17,17,0,0,0-17.1,17.1,19.1,19.1,0,0,0,.8,5.4,17.1,17.1,0,0,1,32.5,0,19.1,19.1,0,0,0,.9-5.4A17.1,17.1,0,0,0,112.7,135.1Z" stroke="#000" stroke-linecap="round" stroke-linejoin="round" stroke-width="0.71"/>
      <ellipse cx="112.7" cy="157.6" rx="16.2" ry="11.7" fill="#fff" stroke="#000" stroke-linecap="round" stroke-linejoin="round" stroke-width="0.71"/>
    </g>
    <path d="M96.6,116.8A7.4,7.4,0,0,0,92.4,129a7.6,7.6,0,0,0,7.2,2.1c6.6-1.6,20.1-2.7,30.2,11.3C129.8,142.4,127.8,111.9,96.6,116.8Z" stroke="#000" stroke-linecap="round" stroke-linejoin="round" stroke-width="0.71"/>
    <path d="M112.7,152.8a4.8,4.8,0,1,0,4.7,4.8A4.7,4.7,0,0,0,112.7,152.8Z" stroke="#000" stroke-linecap="round" stroke-linejoin="round" stroke-width="0.71"/>
    <g>
      <path d="M170.8,135.1a17.1,17.1,0,0,0-17.1,17.1,16.1,16.1,0,0,0,.9,5.4,17,17,0,0,1,32.4,0,16.1,16.1,0,0,0,.9-5.4A17.1,17.1,0,0,0,170.8,135.1Z" stroke="#000" stroke-linecap="round" stroke-linejoin="round" stroke-width="0.71"/>
      <ellipse cx="170.8" cy="157.6" rx="16.2" ry="11.7" fill="#fff" stroke="#000" stroke-linecap="round" stroke-linejoin="round" stroke-width="0.71"/>
    </g>
    <path d="M186.8,116.8c-31.2-4.9-33.1,25.6-33.1,25.6,10.1-14,23.6-12.9,30.2-11.3A7.5,7.5,0,0,0,191,129,7.3,7.3,0,0,0,186.8,116.8Z" stroke="#000" stroke-linecap="round" stroke-linejoin="round" stroke-width="0.71"/>
    <path d="M170.8,152.8a4.8,4.8,0,1,0,4.7,4.8A4.7,4.7,0,0,0,170.8,152.8Z" stroke="#000" stroke-linecap="round" stroke-linejoin="round" stroke-width="0.71"/>
  </g>
</svg>
