<svg id="EYES" xmlns="http://www.w3.org/2000/svg" viewBox="0 0 283.5 283.5">
  <g>
    <path d="M201.5,104.2a5.8,5.8,0,0,0-8.2,1.1l-50.6,68.8a5.9,5.9,0,1,0,9.3,7.1l50.6-68.8A6,6,0,0,0,201.5,104.2Z" fill="#cb5f66" stroke="#000" stroke-linecap="round" stroke-linejoin="round" stroke-width="0.71"/>
    <path d="M108.5,167.6c-6.9-2.1-15.6-8.3-19.1-25.8,0,0-16,31.7,14.2,41.7a8.1,8.1,0,0,0,10.2-4.8A8.3,8.3,0,0,0,108.5,167.6Z" fill="#a6a6a6" stroke="#000" stroke-linecap="round" stroke-linejoin="round" stroke-width="0.71"/>
    <ellipse cx="106.8" cy="151.7" rx="22.5" ry="18.5" fill="#cb5f66" stroke="#000" stroke-linecap="round" stroke-linejoin="round" stroke-width="0.71"/>
    <g>
      <g>
        <g>
          <g>
            <path d="M106.3,152.2A17,17,0,0,1,118,136a16,16,0,0,0-5.3-.9,17.1,17.1,0,0,0,0,34.2,16,16,0,0,0,5.3-.9A17.1,17.1,0,0,1,106.3,152.2Z" stroke="#000" stroke-linecap="round" stroke-linejoin="round" stroke-width="0.71"/>
            <ellipse cx="118" cy="152.2" rx="11.7" ry="16.2" fill="#fff" stroke="#000" stroke-linecap="round" stroke-linejoin="round" stroke-width="0.71"/>
          </g>
          <g>
            <path d="M164.5,152.2A17,17,0,0,1,176.2,136a16.1,16.1,0,0,0-5.4-.9,17.1,17.1,0,0,0,0,34.2,16.1,16.1,0,0,0,5.4-.9A17.1,17.1,0,0,1,164.5,152.2Z" stroke="#000" stroke-linecap="round" stroke-linejoin="round" stroke-width="0.71"/>
            <path d="M176.2,136a17.1,17.1,0,0,0,0,32.4,17.1,17.1,0,0,0,0-32.4Z" fill="#fff" stroke="#000" stroke-linecap="round" stroke-linejoin="round" stroke-width="0.71"/>
          </g>
        </g>
        <path d="M122.3,141.7a3.8,3.8,0,0,0-3.7,3.7,3.7,3.7,0,0,0,3.7,3.6,3.6,3.6,0,0,0,3.6-3.6A3.7,3.7,0,0,0,122.3,141.7Z" stroke="#000" stroke-linecap="round" stroke-linejoin="round" stroke-width="0.71"/>
        <path d="M180.4,141.7a3.7,3.7,0,0,0-3.6,3.7,3.6,3.6,0,0,0,3.6,3.6,3.7,3.7,0,0,0,3.7-3.6A3.8,3.8,0,0,0,180.4,141.7Z" stroke="#000" stroke-linecap="round" stroke-linejoin="round" stroke-width="0.71"/>
      </g>
      <path d="M107.8,114.7a9.7,9.7,0,0,0-17.1,1.4h0a9.8,9.8,0,0,0,7.4,13.6l31.5,4.8C119.6,129.9,112.6,122.1,107.8,114.7Z" stroke="#000" stroke-linecap="round" stroke-linejoin="round" stroke-width="0.71"/>
      <path d="M192.8,116.1h0a9.7,9.7,0,0,0-17.1-1.4c-4.8,7.4-11.9,15.2-21.8,19.8l31.4-4.8A9.8,9.8,0,0,0,192.8,116.1Z" stroke="#000" stroke-linecap="round" stroke-linejoin="round" stroke-width="0.71"/>
    </g>
  </g>
</svg>
