<svg id="EYES" xmlns="http://www.w3.org/2000/svg" viewBox="0 0 283.5 283.5">
  <g>
    <path d="M95.6,162.5v24.6a2.7,2.7,0,0,0,5.4,0v-2a1.3,1.3,0,0,1,2.6,0V195a3.6,3.6,0,1,0,7.1,0V184.7a2.3,2.3,0,0,1,2.3-2.3,2.3,2.3,0,0,1,2.3,2.3v6.9a2.3,2.3,0,0,0,4.6,0v-7.4a2.4,2.4,0,0,1,4.7,0v2a2.6,2.6,0,0,0,2.6,2.6,2.6,2.6,0,0,0,2.6-2.6V162.5Z" fill="#2b2b2b" stroke="#000" stroke-linecap="round" stroke-linejoin="round" stroke-width="0.71"/>
    <path d="M153.7,162.5v23.7a2.6,2.6,0,1,0,5.2,0v-2a2.3,2.3,0,0,1,2.3-2.3,2.3,2.3,0,0,1,2.4,2.3v7.4a2.3,2.3,0,1,0,4.6,0v-6.9a2.3,2.3,0,1,1,4.5,0V195a3.6,3.6,0,1,0,7.2,0v-9.9a1.3,1.3,0,0,1,1.3-1.3,1.3,1.3,0,0,1,1.3,1.3v2a2.7,2.7,0,0,0,2.7,2.7h0a2.7,2.7,0,0,0,2.7-2.7V162.5Z" fill="#2b2b2b" stroke="#000" stroke-linecap="round" stroke-linejoin="round" stroke-width="0.71"/>
    <path d="M199.6,129.9c-13.9-.9-32.3-.2-45.8,7.8a20,20,0,0,1-10.4,2.8h-3.3a20.4,20.4,0,0,1-10.5-2.8c-13.4-8-31.9-8.7-45.7-7.8a21,21,0,0,0-19.6,21,21.3,21.3,0,0,0,12.4,19.3c23.1,10.4,43.8.7,52.6-4.6a20.7,20.7,0,0,1,10.8-3h3.2a21.1,21.1,0,0,1,10.9,3c8.7,5.3,29.5,15,52.6,4.6a21.1,21.1,0,0,0-7.2-40.3Zm6.2,38.2a49.5,49.5,0,0,1-20.3,4.4c-13.6,0-24.7-5.5-30.2-8.8a22.6,22.6,0,0,0-12-3.3h-3.2a23.1,23.1,0,0,0-12,3.3c-5.4,3.3-16.6,8.8-30.1,8.8a50.3,50.3,0,0,1-20.4-4.4,18.9,18.9,0,0,1,6.4-36l8.9-.3c14.9,0,26.8,2.7,35.6,7.8a21.9,21.9,0,0,0,11.6,3.1h3.3a22.2,22.2,0,0,0,11.6-3.1c8.7-5.1,20.7-7.8,35.6-7.8l8.8.3a18.9,18.9,0,0,1,6.4,36Z" stroke="#000" stroke-linecap="round" stroke-linejoin="round" stroke-width="0.71"/>
    <path d="M199.4,132.1l-8.8-.3c-14.9,0-26.9,2.7-35.6,7.8a22.2,22.2,0,0,1-11.6,3.1h-3.3a21.9,21.9,0,0,1-11.6-3.1c-8.8-5.1-20.7-7.8-35.6-7.8l-8.9.3a18.9,18.9,0,0,0-6.4,36A50.3,50.3,0,0,0,98,172.5c13.5,0,24.7-5.5,30.1-8.8a23.1,23.1,0,0,1,12-3.3h3.2a22.6,22.6,0,0,1,12,3.3c5.5,3.3,16.6,8.8,30.2,8.8a49.5,49.5,0,0,0,20.3-4.4,18.9,18.9,0,0,0-6.4-36Z" fill="#1f1f1f" stroke="#000" stroke-linecap="round" stroke-linejoin="round" stroke-width="0.71"/>
    <g>
      <g>
        <g>
          <path d="M106.3,152.2A17,17,0,0,1,118,136a16,16,0,0,0-5.3-.9,17.1,17.1,0,0,0,0,34.2,16,16,0,0,0,5.3-.9A17.1,17.1,0,0,1,106.3,152.2Z" stroke="#000" stroke-linecap="round" stroke-linejoin="round" stroke-width="0.71"/>
          <ellipse cx="118" cy="152.2" rx="11.7" ry="16.2" fill="#fff" stroke="#000" stroke-linecap="round" stroke-linejoin="round" stroke-width="0.71"/>
        </g>
        <path d="M121.2,125.8h-17a4.7,4.7,0,1,0,0,9.3h17a4.7,4.7,0,0,0,0-9.3Z" stroke="#000" stroke-linecap="round" stroke-linejoin="round" stroke-width="0.71"/>
        <g>
          <path d="M164.5,152.2A17,17,0,0,1,176.2,136a16.1,16.1,0,0,0-5.4-.9,17.1,17.1,0,0,0,0,34.2,16.1,16.1,0,0,0,5.4-.9A17.1,17.1,0,0,1,164.5,152.2Z" stroke="#000" stroke-linecap="round" stroke-linejoin="round" stroke-width="0.71"/>
          <ellipse cx="176.2" cy="152.2" rx="11.7" ry="16.2" fill="#fff" stroke="#000" stroke-linecap="round" stroke-linejoin="round" stroke-width="0.71"/>
        </g>
        <path d="M179.3,125.8h-17a4.7,4.7,0,1,0,0,9.3h17a4.7,4.7,0,1,0,0-9.3Z" stroke="#000" stroke-linecap="round" stroke-linejoin="round" stroke-width="0.71"/>
      </g>
      <path d="M118,148.5a3.7,3.7,0,0,0-3.6,3.7,3.7,3.7,0,0,0,7.3,0A3.7,3.7,0,0,0,118,148.5Z" stroke="#000" stroke-linecap="round" stroke-linejoin="round" stroke-width="0.71"/>
      <path d="M176.2,148.5a3.8,3.8,0,0,0-3.7,3.7,3.7,3.7,0,0,0,3.7,3.6,3.6,3.6,0,0,0,3.6-3.6A3.7,3.7,0,0,0,176.2,148.5Z" stroke="#000" stroke-linecap="round" stroke-linejoin="round" stroke-width="0.71"/>
    </g>
  </g>
</svg>
