<svg id="EYES" xmlns="http://www.w3.org/2000/svg" viewBox="0 0 283.5 283.5">
  <g>
    <path d="M108.5,167.6c-6.9-2.1-15.6-8.3-19.1-25.8,0,0-16,31.7,14.2,41.7a8.1,8.1,0,0,0,10.2-4.8h0A8.3,8.3,0,0,0,108.5,167.6Z" fill="#a6a6a6" stroke="#000" stroke-linecap="round" stroke-linejoin="round" stroke-width="0.71"/>
    <g>
      <g>
        <g>
          <path d="M128.9,146.8a17.1,17.1,0,0,1-32.5,0,19.1,19.1,0,0,0-.8,5.4,17.1,17.1,0,1,0,34.2,0A19.1,19.1,0,0,0,128.9,146.8Z" stroke="#000" stroke-linecap="round" stroke-linejoin="round" stroke-width="0.71"/>
          <ellipse cx="112.7" cy="146.8" rx="16.2" ry="11.7" fill="#fff" stroke="#000" stroke-linecap="round" stroke-linejoin="round" stroke-width="0.71"/>
        </g>
        <path d="M121.2,125.8h-17a4.7,4.7,0,1,0,0,9.3h17a4.7,4.7,0,0,0,0-9.3Z" stroke="#000" stroke-linecap="round" stroke-linejoin="round" stroke-width="0.71"/>
        <g>
          <path d="M187,146.8a17.1,17.1,0,0,1-32.4,0,16.1,16.1,0,0,0-.9,5.4,17.1,17.1,0,1,0,34.2,0A16.1,16.1,0,0,0,187,146.8Z" stroke="#000" stroke-linecap="round" stroke-linejoin="round" stroke-width="0.71"/>
          <ellipse cx="170.8" cy="146.8" rx="16.2" ry="11.7" fill="#fff" stroke="#000" stroke-linecap="round" stroke-linejoin="round" stroke-width="0.71"/>
        </g>
        <path d="M179.3,125.8h-17a4.7,4.7,0,1,0,0,9.3h17a4.7,4.7,0,1,0,0-9.3Z" stroke="#000" stroke-linecap="round" stroke-linejoin="round" stroke-width="0.71"/>
      </g>
      <circle cx="112.7" cy="146.8" r="3.7" stroke="#000" stroke-linecap="round" stroke-linejoin="round" stroke-width="0.71"/>
      <path d="M170.8,143.2a3.7,3.7,0,0,0-3.7,3.6,3.7,3.7,0,1,0,7.4,0A3.7,3.7,0,0,0,170.8,143.2Z" stroke="#000" stroke-linecap="round" stroke-linejoin="round" stroke-width="0.71"/>
    </g>
  </g>
</svg>
