<svg id="EYES" xmlns="http://www.w3.org/2000/svg" viewBox="0 0 283.5 283.5">
  <g>
    <g>
      <g>
        <ellipse cx="111.1" cy="152.2" rx="24.6" ry="18.1" fill="#728490" stroke="#000" stroke-linecap="round" stroke-linejoin="round" stroke-width="0.71"/>
        <g>
          <path d="M105.3,152.2a15.4,15.4,0,0,1,10.6-14.6,15.1,15.1,0,0,0-4.8-.8,15.4,15.4,0,0,0,0,30.8,15.1,15.1,0,0,0,4.8-.8A15.4,15.4,0,0,1,105.3,152.2Z" stroke="#000" stroke-linecap="round" stroke-linejoin="round" stroke-width="0.71"/>
          <path d="M115.9,137.6a15.4,15.4,0,0,0,0,29.2,15.4,15.4,0,0,0,0-29.2Z" fill="#fff" stroke="#000" stroke-linecap="round" stroke-linejoin="round" stroke-width="0.71"/>
        </g>
      </g>
      <path d="M135.1,148.5H87a13.9,13.9,0,0,0,0,7.4h48.1a13.9,13.9,0,0,0,0-7.4Z" fill="#ff0" stroke="#000" stroke-linecap="round" stroke-linejoin="round" stroke-width="0.71"/>
    </g>
    <g>
      <g>
        <ellipse cx="172.4" cy="152.2" rx="24.6" ry="18.1" fill="#728490" stroke="#000" stroke-linecap="round" stroke-linejoin="round" stroke-width="0.71"/>
        <g>
          <path d="M166.7,152.2a15.4,15.4,0,0,1,10.5-14.6,15.1,15.1,0,0,0-4.8-.8,15.4,15.4,0,0,0,0,30.8,15.1,15.1,0,0,0,4.8-.8A15.4,15.4,0,0,1,166.7,152.2Z" stroke="#000" stroke-linecap="round" stroke-linejoin="round" stroke-width="0.71"/>
          <path d="M177.2,137.6a15.4,15.4,0,0,0,0,29.2,15.4,15.4,0,0,0,0-29.2Z" fill="#fff" stroke="#000" stroke-linecap="round" stroke-linejoin="round" stroke-width="0.71"/>
        </g>
      </g>
      <path d="M196.5,148.5H148.3a13.9,13.9,0,0,0,0,7.4h48.2a13.9,13.9,0,0,0,0-7.4Z" fill="#ff0" stroke="#000" stroke-linecap="round" stroke-linejoin="round" stroke-width="0.71"/>
    </g>
  </g>
</svg>
