<svg xmlns="http://www.w3.org/2000/svg" viewBox="0 0 283.5 283.5"><path d="M141.7,215.6c-33.6,0-41.9-11.4-41.9-11.4s12.2,36.6,41.9,36.6,42-36.6,42-36.6S175.4,215.6,141.7,215.6Z" stroke="#000" stroke-linecap="round" stroke-linejoin="round" stroke-width="0.71"/><path d="M141.7,215.6c-33.6,0-41.9-11.4-41.9-11.4a71.2,71.2,0,0,0,5,10.9c5.6,3.3,16.7,7.4,36.9,7.4s31.3-4.1,36.9-7.4a66.9,66.9,0,0,0,5.1-10.9S175.4,215.6,141.7,215.6Z" fill="#fff" stroke="#000" stroke-linecap="round" stroke-linejoin="round" stroke-width="0.71"/><path d="M110.6,223.8c6.7,8.7,16.9,17,31.1,17s24.4-8.3,31.2-17a66.1,66.1,0,0,1-62.3,0Z" fill="#fff" stroke="#000" stroke-linecap="round" stroke-linejoin="round" stroke-width="0.71"/><line x1="108" y1="209.8" x2="108" y2="218.1" fill="none" stroke="#000" stroke-linecap="round" stroke-linejoin="round" stroke-width="0.71"/><line x1="114.2" y1="212.2" x2="114.2" y2="221" fill="none" stroke="#000" stroke-linecap="round" stroke-linejoin="round" stroke-width="0.71"/><line x1="120.6" y1="213.7" x2="120.6" y2="222.5" fill="none" stroke="#000" stroke-linecap="round" stroke-linejoin="round" stroke-width="0.71"/><line x1="141.7" y1="215.6" x2="141.7" y2="224.2" fill="none" stroke="#000" stroke-linecap="round" stroke-linejoin="round" stroke-width="0.71"/><line x1="126.6" y1="214.7" x2="126.6" y2="222.5" fill="none" stroke="#000" stroke-linecap="round" stroke-linejoin="round" stroke-width="0.71"/><line x1="133.6" y1="215.4" x2="133.6" y2="223.8" fill="none" stroke="#000" stroke-linecap="round" stroke-linejoin="round" stroke-width="0.71"/><line x1="117.5" y1="231.2" x2="117.5" y2="225.7" fill="none" stroke="#000" stroke-linecap="round" stroke-linejoin="round" stroke-width="0.71"/><line x1="121.4" y1="234.2" x2="121.4" y2="226.4" fill="none" stroke="#000" stroke-linecap="round" stroke-linejoin="round" stroke-width="0.71"/><line x1="126.6" y1="237.3" x2="126.6" y2="227.7" fill="none" stroke="#000" stroke-linecap="round" stroke-linejoin="round" stroke-width="0.71"/><line x1="132.8" y1="239.6" x2="132.8" y2="228.5" fill="none" stroke="#000" stroke-linecap="round" stroke-linejoin="round" stroke-width="0.71"/><line x1="175.5" y1="209.8" x2="175.5" y2="218.1" fill="none" stroke="#000" stroke-linecap="round" stroke-linejoin="round" stroke-width="0.71"/><line x1="169.2" y1="212.2" x2="169.2" y2="221" fill="none" stroke="#000" stroke-linecap="round" stroke-linejoin="round" stroke-width="0.71"/><line x1="162.9" y1="213.7" x2="162.9" y2="222.5" fill="none" stroke="#000" stroke-linecap="round" stroke-linejoin="round" stroke-width="0.71"/><line x1="156.8" y1="214.7" x2="156.8" y2="222.5" fill="none" stroke="#000" stroke-linecap="round" stroke-linejoin="round" stroke-width="0.71"/><line x1="149.9" y1="215.4" x2="149.9" y2="223.8" fill="none" stroke="#000" stroke-linecap="round" stroke-linejoin="round" stroke-width="0.71"/><line x1="165.9" y1="231.2" x2="165.9" y2="225.7" fill="none" stroke="#000" stroke-linecap="round" stroke-linejoin="round" stroke-width="0.71"/><line x1="162.1" y1="234.2" x2="162.1" y2="226.4" fill="none" stroke="#000" stroke-linecap="round" stroke-linejoin="round" stroke-width="0.71"/><line x1="156.8" y1="237.3" x2="156.8" y2="227.7" fill="none" stroke="#000" stroke-linecap="round" stroke-linejoin="round" stroke-width="0.71"/><line x1="150.7" y1="239.6" x2="150.7" y2="228.5" fill="none" stroke="#000" stroke-linecap="round" stroke-linejoin="round" stroke-width="0.71"/><line x1="141.7" y1="240.8" x2="141.7" y2="230.3" fill="none" stroke="#000" stroke-linecap="round" stroke-linejoin="round" stroke-width="0.71"/></svg>