<svg xmlns="http://www.w3.org/2000/svg" viewBox="0 0 283.5 283.5"><path d="M141.7,210.8c-33.6,0-41.9-11.4-41.9-11.4S112,236,141.7,236s42-36.6,42-36.6S175.4,210.8,141.7,210.8Z" fill="#6087d8" stroke="#000" stroke-miterlimit="10" stroke-width="0.71"/><path d="M177.4,211.3a63.1,63.1,0,0,0,4.4-9.6s-7.3,10.1-37,10.1a91.7,91.7,0,0,1-11.1-.6,88.6,88.6,0,0,0,22.1,2.4A86.6,86.6,0,0,0,177.4,211.3Z" fill="#2447b7"/><path d="M114.9,208.8c-10-3-13-7.1-13-7.1s10.6,32,36.7,32h.4C126.1,228.9,118.4,216,114.9,208.8Z" fill="#2447b7"/><path d="M141.7,218.7c-17.9,0-22.3-4.9-22.3-4.9s6.5,15.7,22.3,15.7,22.4-15.7,22.4-15.7S159.7,218.7,141.7,218.7Z" fill="#171717" stroke="#000" stroke-linecap="round" stroke-linejoin="round" stroke-width="0.71"/></svg>