<svg xmlns="http://www.w3.org/2000/svg" viewBox="0 0 283.5 283.5"><path d="M194,14H89.5a10.2,10.2,0,0,0-10.4,9.9V84.3s4.4,15.8,62.6,15.8,62.7-15.8,62.7-15.8V23.9A10.2,10.2,0,0,0,194,14Z" fill="#262851" stroke="#000" stroke-miterlimit="10" stroke-width="0.71"/><path d="M204.4,84.3V75.4c-7.3,4.7-24.1,10.8-62.7,11.1S86.4,80.1,79.1,75.4v8.9s4.3,15.4,59.9,15.8h5.4C200.1,99.7,204.4,84.3,204.4,84.3Z" fill="#6d9cf8" stroke="#000" stroke-linecap="round" stroke-linejoin="round" stroke-width="0.71"/><path d="M95.1,81.2a52.4,52.4,0,0,1-15.4-6.1V23.9a5.8,5.8,0,0,1,.2-1.9,9.7,9.7,0,0,1,9.6-7.4H195.4l1,.2h.3l1.1.4h.2l.9.4.3.2.8.5h.1l.9.8h.1l.7.8.2.2H106.1A10.7,10.7,0,0,0,95.1,29Z" fill="#11132b"/><path d="M101.2,95.8c-16-3.7-20.3-9.3-21.2-11V76.5a57,57,0,0,0,15.4,5.9v7.1h0C95.2,89.7,96,92.6,101.2,95.8Z" fill="#20447f"/><path d="M204.4,84.3s-4.5,15.8-62.7,15.8S79.1,84.3,79.1,84.3s-47.4,3.3-47.4,18.6,78.2,23.3,110,23.3,110.1-7.9,110.1-23.3S204.4,84.3,204.4,84.3Z" fill="#3c4070" stroke="#000" stroke-miterlimit="10" stroke-width="0.71"/><path d="M141.7,8.6s-44.3,69.2,0,69.2S141.7,8.6,141.7,8.6Z" fill="#445845" stroke="#000" stroke-linecap="round" stroke-linejoin="round" stroke-width="0.71"/><ellipse cx="195.8" cy="55" rx="5.8" ry="15.8" fill="#78a83f" stroke="#000" stroke-linecap="round" stroke-linejoin="round" stroke-width="0.71"/><ellipse cx="195.8" cy="55" rx="4.3" ry="11.8" fill="#6d9cf8" stroke="#000" stroke-linecap="round" stroke-linejoin="round" stroke-width="0.71"/><ellipse cx="87.6" cy="55" rx="5.8" ry="15.8" fill="#78a83f" stroke="#000" stroke-linecap="round" stroke-linejoin="round" stroke-width="0.71"/><ellipse cx="87.6" cy="55" rx="4.3" ry="11.8" fill="#6d9cf8" stroke="#000" stroke-linecap="round" stroke-linejoin="round" stroke-width="0.71"/><circle cx="86.3" cy="84.8" r="2.9" fill="#78a83f" stroke="#000" stroke-linecap="round" stroke-linejoin="round" stroke-width="0.71"/><circle cx="98.7" cy="88.6" r="3.8" fill="#78a83f" stroke="#000" stroke-linecap="round" stroke-linejoin="round" stroke-width="0.71"/><circle cx="112.1" cy="91.8" r="3.8" fill="#78a83f" stroke="#000" stroke-linecap="round" stroke-linejoin="round" stroke-width="0.71"/><circle cx="126.1" cy="93.2" r="3.8" fill="#78a83f" stroke="#000" stroke-linecap="round" stroke-linejoin="round" stroke-width="0.71"/><circle cx="197.2" cy="84.8" r="2.9" fill="#78a83f" stroke="#000" stroke-linecap="round" stroke-linejoin="round" stroke-width="0.71"/><circle cx="184.8" cy="88.6" r="3.8" fill="#78a83f" stroke="#000" stroke-linecap="round" stroke-linejoin="round" stroke-width="0.71"/><circle cx="171.4" cy="91.8" r="3.8" fill="#78a83f" stroke="#000" stroke-linecap="round" stroke-linejoin="round" stroke-width="0.71"/><circle cx="157.4" cy="93.2" r="3.8" fill="#78a83f" stroke="#000" stroke-linecap="round" stroke-linejoin="round" stroke-width="0.71"/><circle cx="141.7" cy="93.3" r="4.9" fill="#78a83f" stroke="#000" stroke-linecap="round" stroke-linejoin="round" stroke-width="0.71"/><path d="M141.7,125.7c-31.7,0-109.5-8-109.5-22.8,0-7.5,12.7-12,23.3-14.5a181.4,181.4,0,0,1,23.2-3.5l.2.3C61.7,88.9,53,94.3,53,101.2c0,16,76.9,23.3,106.9,23.9C153.2,125.4,147,125.7,141.7,125.7Z" fill="#212644"/><path d="M180.6,97.4c19.1-4.1,23.3-10.7,24.1-12.5,1.8.1,8.8.8,16.9,2.2C216.7,90.6,205.5,95.8,180.6,97.4Z" fill="#212644"/><path d="M87.2,66.1c-1.6-.6-3.3-5-3.3-11.1s2-11.3,3.7-11.3,1.2.5,1.7,1.4c-2.1,1.3-3.6,6.1-3.6,12A26,26,0,0,0,87.2,66.1Z" fill="#2c518c"/><path d="M196.3,66.1a26,26,0,0,0,1.5-9c0-5.9-1.5-10.7-3.6-12,.5-.9,1.1-1.4,1.6-1.4s3.8,4.7,3.8,11.3S197.9,65.5,196.3,66.1Z" fill="#2c518c"/><path d="M141.7,77.2c-8.4,0-14.2-2.6-17-7.7-9-16.4,13.4-54,17-59.9.7,1.1,1.9,3.1,3.4,5.8-7.7,14.3-19.4,39.8-11.7,52.7,3,5.1,8.7,7.8,17.1,7.9A28.8,28.8,0,0,1,141.7,77.2Z" fill="#202d20"/><circle cx="141.7" cy="55" r="15.8" fill="#78a83f" stroke="#000" stroke-linecap="round" stroke-linejoin="round" stroke-width="0.71"/><circle cx="141.7" cy="55" r="11.8" fill="#6d9cf8" stroke="#000" stroke-linecap="round" stroke-linejoin="round" stroke-width="0.71"/><path d="M138.7,65.8a11.3,11.3,0,0,1,3-22.1,13.5,13.5,0,0,1,2.9.4,12.3,12.3,0,0,0-5.9,21.7Z" fill="#2c518c"/></svg>