<svg xmlns="http://www.w3.org/2000/svg" viewBox="0 0 283.5 283.5"><path d="M141.7,35.9C59.6,12.4,30,138.3,79.3,177.5c3.3-70.9,62.4-95.9,62.4-95.9s59.1,25,62.5,95.9C253.5,138.3,223.9,12.4,141.7,35.9Z" fill="#5db055" stroke="#000" stroke-miterlimit="10" stroke-width="0.71"/><path d="M204.7,176.4c-2.6-45.9-28.4-72.5-46.4-85.6,12.4,6.8,46.6,29.5,55.5,75.8A53.2,53.2,0,0,1,204.7,176.4Z" fill="#25601f"/><path d="M78.8,176.4c-11.2-9.3-18.6-23.5-21.6-41.2a108.8,108.8,0,0,1,4.7-52.3C72.7,52,95.2,33.6,122.1,33.6a72,72,0,0,1,19.5,2.9h.3a71.5,71.5,0,0,1,19.5-2.9,54.8,54.8,0,0,1,28.1,7.5,56,56,0,0,0-15.9-2.2A72.2,72.2,0,0,0,154,41.8a72.3,72.3,0,0,0-19.7-2.9c-22.9,0-42.4,12.7-54.9,35.8-16.5,30.5-16.6,70.9-.2,96.3C79,172.8,78.9,174.6,78.8,176.4Z" fill="#25601f"/></svg>