<svg xmlns="http://www.w3.org/2000/svg" viewBox="0 0 283.5 283.5"><path d="M153.1,11.9H130.3L26.6,105.3a27,27,0,0,0,5,3,72.3,72.3,0,0,0,7.2,3l7.2,2.4,7.2,1.9c4.5,1,9.6,2.1,15.5,3.1l7.2,1.1c4.5.6,9.4,1.2,14.7,1.7l7.1.6,15.3,1,7.2.2c5.6.2,11.6.4,18,.4h7.1c90.7-.5,111.6-18.4,111.6-18.4Z" fill="#e2c9a6" stroke="#000" stroke-miterlimit="10" stroke-width="0.71"/><path d="M130.3,11.9,26.6,105.3a27,27,0,0,0,5,3,72.3,72.3,0,0,0,7.2,3l7.2,2.4,7.2,1.9c2.9.7,6.1,1.4,9.7,2l74-105.7Z" fill="#98835e" stroke="#000" stroke-miterlimit="10" stroke-width="0.71"/><path d="M136.9,11.9l-74,105.7h0l5.8,1.1,7.2,1.1c4.5.6,9.4,1.2,14.7,1.7l5.6.5L141.7,11.9Z" fill="#baa37d" stroke="#000" stroke-miterlimit="10" stroke-width="0.71"/><path d="M153.1,11.9l103.8,93.4a27,27,0,0,1-5,3,72.3,72.3,0,0,1-7.2,3l-7.3,2.4-7.1,1.9c-2.9.7-6.2,1.4-9.7,2l-74-105.7Z" fill="#98835e" stroke="#000" stroke-miterlimit="10" stroke-width="0.71"/><path d="M146.6,11.9l74,105.7h0l-5.9,1.1-7.1,1.1c-4.5.6-9.4,1.2-14.7,1.7l-5.6.5L141.7,11.9Z" fill="#baa37d" stroke="#000" stroke-miterlimit="10" stroke-width="0.71"/><path d="M62.6,117l-9.3-2c-2.5-.6-4.9-1.2-7.1-1.9a69.4,69.4,0,0,1-7.3-2.4,59.3,59.3,0,0,1-7-2.9,34.3,34.3,0,0,1-4.5-2.6L130.6,12.5h5.2l-4.2,6L39.5,101.3l.5.4a24.3,24.3,0,0,0,5.2,3.1,62.7,62.7,0,0,0,7.2,3,69.4,69.4,0,0,0,7.3,2.4l6.4,1.7Z" fill="#5b4a2f"/><path d="M95.8,121.4l-5.1-.5c-5.2-.5-10.1-1-14.7-1.7l-7.2-1.1-5-.9L137.2,12.5h3.7l-8,19.3-58,82.8h.9l5.9,1.1,7.1,1.1,8.5,1Z" fill="#877151"/><path d="M217.3,111.9c2.3-.5,4.4-1.1,6.4-1.7a71.4,71.4,0,0,0,7.4-2.4,71.2,71.2,0,0,0,7.2-3c3.6-1.8,5.1-3,5.1-3.1l.5-.4-92-82.8-4.2-6h5.2L256,105.2a38.6,38.6,0,0,1-4.4,2.6,61.3,61.3,0,0,1-7.1,2.9,67.5,67.5,0,0,1-7.2,2.4l-7.1,1.9-9.3,2Z" fill="#5b4a2f"/><path d="M186.2,117.9l8.4-1,7.2-1.1,5.9-1.1h.8L150.6,31.8l-8-19.3h3.7l73.3,104.7-5,.9-7.1,1.1c-4.6.7-9.6,1.2-14.7,1.7l-5.2.5Z" fill="#877151"/></svg>