<svg xmlns="http://www.w3.org/2000/svg" viewBox="0 0 283.5 283.5"><path d="M171,47.6c29.2,0,28.5-32.7,0-32.7H112.5c-28.5,0-29.2,32.7,0,32.7,0,0-37.3,10.2-37.3,43,0,0,8.9-5,66.5-5s66.6,5,66.6,5C208.3,57.8,171,47.6,171,47.6Z" stroke="#000" stroke-linecap="round" stroke-linejoin="round" stroke-width="0.71"/><path d="M75.8,88.8c1.4-30.6,36.5-40.6,36.8-40.7V47C98,47,91.4,38.9,91.4,31.4a14.3,14.3,0,0,1,5.3-10.9c3.8-3.3,9.3-5,15.8-5h19.3a21.1,21.1,0,0,0-8,4.2,15.4,15.4,0,0,0-5.6,11.7c0,7.5,6,15.5,19.1,16.6-7,2.6-24.4,10.5-31.6,26.9C85.9,78.9,78.3,85.7,75.8,88.8Z" fill="#3c3c3b" stroke="#000" stroke-linecap="round" stroke-linejoin="round" stroke-width="0.71"/><rect x="103.1" y="42.6" width="77.3" height="9.22" rx="4.6" fill="#a7f1f8" stroke="#000" stroke-linecap="round" stroke-linejoin="round" stroke-width="0.71"/><rect x="59.3" y="82.4" width="164.9" height="34.45" rx="8.8" fill="#a7f1f8" stroke="#000" stroke-linecap="round" stroke-linejoin="round" stroke-width="0.71"/><path d="M141.7,95.7c-20,0-36.5,9.2-38.6,21.1h77.3C178.3,104.9,161.8,95.7,141.7,95.7Z" fill="#f9e850" stroke="#000" stroke-linecap="round" stroke-linejoin="round" stroke-width="0.71"/><line x1="103.1" y1="116.8" x2="76" y2="110.8" fill="none" stroke="#000" stroke-linecap="round" stroke-linejoin="round" stroke-width="0.71"/><line x1="180.4" y1="116.8" x2="207.4" y2="110.8" fill="none" stroke="#000" stroke-linecap="round" stroke-linejoin="round" stroke-width="0.71"/><path d="M68.1,116.3a8.3,8.3,0,0,1-8.2-8.3V91.2a8.3,8.3,0,0,1,8.2-8.3H215.3a8.3,8.3,0,0,1,7.8,5.6H81.2a9.5,9.5,0,0,0-9.5,9.4v16.7a9.9,9.9,0,0,0,.2,1.7Z" fill="#448484"/><path d="M103.8,116.3c2.3-10.5,16.1-18.6,33.2-19.9-10.5,3.9-17.7,10.6-19,18.2v.7h61.5l.3,1Z" fill="#998825"/><line x1="141.7" y1="95.7" x2="141.7" y2="85.6" fill="none" stroke="#000" stroke-linecap="round" stroke-linejoin="round" stroke-width="0.71"/><line x1="122" y1="98.9" x2="116.5" y2="88.2" fill="none" stroke="#000" stroke-linecap="round" stroke-linejoin="round" stroke-width="0.71"/><line x1="107.5" y1="108.1" x2="82.2" y2="89.3" fill="none" stroke="#000" stroke-linecap="round" stroke-linejoin="round" stroke-width="0.71"/><line x1="161.5" y1="98.9" x2="166.9" y2="88.2" fill="none" stroke="#000" stroke-linecap="round" stroke-linejoin="round" stroke-width="0.71"/><line x1="175.9" y1="108.1" x2="201.3" y2="89.3" fill="none" stroke="#000" stroke-linecap="round" stroke-linejoin="round" stroke-width="0.71"/></svg>