<svg xmlns="http://www.w3.org/2000/svg" viewBox="0 0 283.5 283.5"><path d="M150.7,25.2V25a9.1,9.1,0,0,0-18.1,0v.2c2.9-.2,5.9-.2,9-.2S147.8,25,150.7,25.2Z" stroke="#000" stroke-linecap="round" stroke-linejoin="round" stroke-width="0.71"/><path d="M141.7,25C89.1,25,69.1,49.6,69.1,70.8v41.3H214.4V70.8C214.4,49.6,194.3,25,141.7,25Zm13.5,71.2H128.3a5,5,0,0,1-5.1-5.1,5.1,5.1,0,0,1,5.1-5.1h26.9a5.1,5.1,0,0,1,5.1,5.1A5.1,5.1,0,0,1,155.2,96.2Z" fill="#4f4f7f" stroke="#000" stroke-linecap="round" stroke-linejoin="round"/><path d="M141.7,25C89.1,25,69.1,49.6,69.1,70.8v41.3h32.7C102.8,97.4,108.5,48.4,141.7,25Z" fill="#343356" stroke="#000" stroke-linecap="round" stroke-linejoin="round"/><path d="M141.7,25c52.6,0,72.7,24.6,72.7,45.8v41.3H181.6C180.7,97.4,175,48.4,141.7,25Z" fill="#343356" stroke="#000" stroke-linecap="round" stroke-linejoin="round"/><path d="M154.7,72.9a1.3,1.3,0,0,1-1-.4,1.7,1.7,0,0,1-.3-1h0a1.9,1.9,0,0,1,.2-.7,1.4,1.4,0,0,1,.2-.6l.4-.6v-.2l-.4.4-.6.7-.5.8c-.1.1-.1.3-.2.4l-.3.6a1,1,0,0,1-.4.5,1.1,1.1,0,0,1-.8.3l-.9-.3h0l-.6.2a1.8,1.8,0,0,1-1,.2,1.7,1.7,0,0,1-1.3-.4l-.3-.3-.2.2-.7.3a1.3,1.3,0,0,1-.8.2,1.1,1.1,0,0,1-.8-.2l-.5-.4V72l-.2.2-.8.5a1.6,1.6,0,0,1-1,.2h-.6c-.2,0-.4-.2-.6-.3s-.3-.3-.4-.4l-.4.2-.9.5h-1a2.1,2.1,0,0,1-1.2-.3,1.4,1.4,0,0,1-.6-1.2,2,2,0,0,1,.2-.9,3,3,0,0,1,.4-.8c0-.1.1-.1.1-.2l-.4.5-.5.7V71l-.2.4-.3.5-.3.4c-.1.2-.3.3-.4.4a.8.8,0,0,1-.7.2,1.5,1.5,0,0,1-.8-.3l-.3-.6h-.2a4.6,4.6,0,0,1-1.4.5,4,4,0,0,1-1.5.3l-1.3-.2a2.1,2.1,0,0,1-1-.6,3.5,3.5,0,0,1-.6-.9,3.4,3.4,0,0,1-.1-1,3.9,3.9,0,0,1,.2-1.5,12.1,12.1,0,0,1,.5-1.4,10.9,10.9,0,0,1,.8-1.5,11.3,11.3,0,0,1,1-1.3,4.9,4.9,0,0,1,1.2-1.3l1.2-1a8.4,8.4,0,0,1,1.4-.6l1.4-.3h.8l.6.3a1.3,1.3,0,0,1,.5.6,1.5,1.5,0,0,1,.2.9v.6a1.4,1.4,0,0,0-.2.6,2.5,2.5,0,0,1-.4.7,2.1,2.1,0,0,1-.4.6l-.6.5a1.1,1.1,0,0,1-.8.2h-.6l-.4-.2a.9.9,0,0,1-.3-.7c0-.1.1-.2.1-.4l.3-.4.3-.3a.8.8,0,0,1,.2-.4c0-.1.1-.1.1-.2h-.1l-.7.5-.8.8-.8.9a4.1,4.1,0,0,0-.7,1.1,2.7,2.7,0,0,0-.6,1l-.4,1a2.2,2.2,0,0,0-.1.8c0,.2,0,.3.1.4h.4l.7-.2.9-.4.7-.5,1.5-1,.5-.3h.2l2.4-4.8.3-.4.3-.2.4-.2h.4a1.2,1.2,0,0,1,.9.3,1.1,1.1,0,0,1,.3.8,4.3,4.3,0,0,1-.1.5l-.3.4a5.4,5.4,0,0,1-.5,1.1l-.7,1.2h1.1l.6.2.4.5a1.9,1.9,0,0,1,.2.7c0,.3-.1.6-.1.8l-.3.6-.4.6-.3.4h-.1l.4-.3.4-.3h.1c.1-.1.1-.3.2-.5a4.1,4.1,0,0,1,.5-.9,2.4,2.4,0,0,1,.8-.9l1-.7,1.4-.2h.7l.5.2h.7a1.1,1.1,0,0,1,.8.3.9.9,0,0,1,.4.8v.6l-.4,1a.8.8,0,0,1-.2.5v.4c0-.1.1-.1.1-.2a.5.5,0,0,1,.4-.2l.2-.3.3-.5.2-.5a.4.4,0,0,0,.1-.3l.5-.9.5-.5.6-.2a1.6,1.6,0,0,1,.9.3,1.8,1.8,0,0,1,.4,1v.2l-.2.3c0,.1-.1.2-.1.3l-.3.7-.2.4a.8.8,0,0,0-.2.4h.1l.3-.2.4-.3.3-.4.3-.2h.1l.4-.8a1.6,1.6,0,0,1,.3-.6,1.3,1.3,0,0,1,.5-.7,1.3,1.3,0,0,1,.8-.3.9.9,0,0,1,.7.3h.1l.4-.2.8-.3h.8a1.5,1.5,0,0,1,1,.3c.3.1.5.5.5,1.1a2,2,0,0,1-.1.7,1.4,1.4,0,0,1-.2.6l-.3.6c0,.1-.1.1-.1.2l.3-.2.7-.5.5-.4.3-.2h.3a.9.9,0,0,1,.7.3,1.4,1.4,0,0,1,.2.6,3.1,3.1,0,0,1-.2.8l-.7.7-.7.5-.7.5-.9.4-1,.4h-.8Zm-11.1-4h-.3l-.4.3-.3.4a.9.9,0,0,0-.1.5v.2l.4-.3.3-.4a1,1,0,0,0,.4-.5l.2-.3h-.2Z" fill="#fff"/><path d="M134.5,61.7h.7l.5.3a1,1,0,0,1,.4.5,1.4,1.4,0,0,1,.2.7,1.1,1.1,0,0,1-.1.5,1.4,1.4,0,0,1-.2.6l-.3.6-.4.6-.5.4-.6.2h-.5l-.3-.2c-.1-.1-.1-.2-.1-.4a.4.4,0,0,1,.1-.3l.2-.3.2-.3.3-.4c.1-.1.1-.3.2-.4v-.3h-.7l-.8.5-.8.8-.8,1a4.1,4.1,0,0,0-.7,1.1,4.1,4.1,0,0,0-.7,1.1l-.4,1a2.8,2.8,0,0,0-.1.9,1.1,1.1,0,0,0,.2.6c.1.2.4.2.7.2l.8-.2,1-.4.7-.5.8-.5.7-.5c.2-.2.3-.3.5-.3s.1-.1.2-.1h0l.2-.4,2.4-4.6c0-.1.1-.1.1-.2l.3-.2h.6a.8.8,0,0,1,.6.2c.2.1.2.3.2.5a.6.6,0,0,1-.1.4.8.8,0,0,1-.2.4,4.7,4.7,0,0,0-.5,1l-.6,1.1a3.1,3.1,0,0,0-.5,1l.5-.3h1.7l.3.4a.9.9,0,0,1,.1.5,1.5,1.5,0,0,1-.1.7,1.4,1.4,0,0,1-.2.6l-.4.4-.3.5-.3.4v.4h.4l.4-.2.4-.3.4-.3c.1-.1.2-.1.2-.2a1.7,1.7,0,0,0,.2-.5l.5-.9.7-.9a3.1,3.1,0,0,1,1-.5,2.1,2.1,0,0,1,1.2-.3h.6l.4.2.3.2a.1.1,0,0,1,.1-.1h.5a.7.7,0,0,1,.6.2.9.9,0,0,1,.3.5v.2a.5.5,0,0,1-.1.3v.5a.8.8,0,0,0-.2.5l-.2.5c0,.2-.1.3-.1.5v.6h.4l.3-.3.4-.3.3-.3.3-.5.2-.5c0-.1.1-.2.1-.3l.2-.4v-.2l.2-.3a.8.8,0,0,1,.4-.4h.4l.6.2a.9.9,0,0,1,.3.7h0c0,.1,0,.2-.1.2v.3a.4.4,0,0,0-.1.3V69l-.2.2a10489953031503.1,10489953031503.1,0,0,1-.4.8c0,.2-.1.3-.1.5v.3h.5l.4-.2.4-.2.3-.4.4-.3.3-.3h.1l.4-.8.3-.6a1,1,0,0,1,.4-.5.7.7,0,0,1,.6-.2.6.6,0,0,1,.5.2l.2.3.6-.4.8-.3h.7a1,1,0,0,1,.8.3c.3.1.4.4.4.8a1.3,1.3,0,0,1-.1.6c-.1.2-.1.4-.2.6l-.3.5-.3.5-.2.4h-.1c0,.1-.1.1-.1.2l.7-.3.7-.4.7-.5.5-.4h.4l.4.2c.1.1.1.2.1.4a1.4,1.4,0,0,1-.2.6,1.3,1.3,0,0,1-.5.6l-.7.5-.7.5-.8.4-1,.3h-.7a.9.9,0,0,1-.7-.3,1.1,1.1,0,0,1-.2-.8h0a1.3,1.3,0,0,1,.1-.6l.3-.5.3-.6.3-.5c.1-.2.1-.3.2-.4a.3.3,0,0,1,.1-.2l-.7.2-.7.6-.7.8a5.6,5.6,0,0,1-.5.8c-.1.2-.2.3-.2.5l-.3.5-.3.4a.7.7,0,0,1-1.2,0l-.2-.3h0l-.8.4-.9.2a1.4,1.4,0,0,1-1.1-.4.5.5,0,0,1-.3-.5l-.6.4-.6.3-.7.2-.6-.2-.4-.3-.2-.5v-.2l-.6.5-.8.5-.8.2h-.5l-.5-.3a1.2,1.2,0,0,1-.5-.5h0l-.7.4-.9.4-.8.2a1.7,1.7,0,0,1-1-.3,1,1,0,0,1-.4-.9,1.9,1.9,0,0,1,.1-.8,2.5,2.5,0,0,1,.4-.7l.4-.6.3-.5a.3.3,0,0,0,.1-.2h0l-.6.2-.6.4-.5.7-.5.7c0,.1-.1.2-.1.4l-.3.4a.8.8,0,0,1-.2.4l-.3.4-.3.3-.5.2a.9.9,0,0,1-.5-.3c-.2-.1-.2-.3-.2-.5v-.4h.1l-.9.5-1.3.5-1.4.3-1.2-.2-.8-.5a1.4,1.4,0,0,1-.5-.8,2.9,2.9,0,0,1-.2-.9,6.8,6.8,0,0,1,.2-1.4,12.1,12.1,0,0,1,.5-1.4l.8-1.4a11.3,11.3,0,0,1,1-1.3l1.1-1.2,1.2-1,1.3-.6a3.2,3.2,0,0,1,1.3-.2m8,9.1h.2l.4-.3.4-.5a1,1,0,0,0,.4-.5l.2-.4h.1l-.2-.2h-.4l-.5.2-.5.4-.3.5a1.3,1.3,0,0,0-.1.6v.5h.3m-8-9.9a4,4,0,0,0-1.5.3l-1.5.7L130.2,63,129,64.2a13,13,0,0,0-1,1.5l-.8,1.4a16.6,16.6,0,0,0-.6,1.6,7.7,7.7,0,0,0-.2,1.5,3.6,3.6,0,0,0,.2,1.1,2.6,2.6,0,0,0,.7,1.1,2.4,2.4,0,0,0,1.1.6,3.2,3.2,0,0,0,1.4.3l1.7-.3,1.2-.5.3.3a1.2,1.2,0,0,0,1,.5,1.6,1.6,0,0,0,.9-.3l.5-.4.3-.5.2-.4a1.8,1.8,0,0,0,.7,1.2,2.6,2.6,0,0,0,1.4.4l1.1-.2,1-.5h.1l.2.3.8.4h.7A2,2,0,0,0,143,73l.8-.4.5.4a1.7,1.7,0,0,0,1,.3l.9-.2.8-.4h0a2.1,2.1,0,0,0,1.6.6l1.1-.2.4-.2a1.5,1.5,0,0,0,1,.4,2.1,2.1,0,0,0,1.1-.4,4.3,4.3,0,0,0,.4-.7l.3-.5a.4.4,0,0,0,.1-.3h0a2.1,2.1,0,0,0,.4,1.2,1.6,1.6,0,0,0,1.3.6h.9l1.1-.4a2,2,0,0,0,.8-.4l.8-.5.7-.5a3.2,3.2,0,0,0,.8-.9,2.9,2.9,0,0,0,.2-.9,1.9,1.9,0,0,0-.2-.8,1.4,1.4,0,0,0-1-.5h-.5l-.4.2-.3.3c0-.1.1-.1.1-.2a2.5,2.5,0,0,0,.1-.8,1.6,1.6,0,0,0-.7-1.4,1.6,1.6,0,0,0-1.2-.4l-.9.2a3.2,3.2,0,0,0-.9.3H154a1.6,1.6,0,0,0-.9-.3,1.9,1.9,0,0,0-1,.3,2.7,2.7,0,0,0-.7.8,1.4,1.4,0,0,1-.2.6,2,2,0,0,0-.4.8h-.1l-.2.3h0v-.2c0-.1.1-.2.2-.3s.1-.3.1-.5h0a1.3,1.3,0,0,0-.5-1.2,1.5,1.5,0,0,0-1.1-.4,1.2,1.2,0,0,0-.8.2,1.7,1.7,0,0,0-.6.6h0l-.2.3v.2l-.2.3a.4.4,0,0,0,.1-.3,1.2,1.2,0,0,0-.5-1,1.5,1.5,0,0,0-1.1-.4h-.6l-.5-.3H144a3.3,3.3,0,0,0-1.5.3,4.1,4.1,0,0,0-1.1.7,2.3,2.3,0,0,0-.7.7,1.4,1.4,0,0,0-.2-.7,1.3,1.3,0,0,0-.6-.7l-.6-.2h-.6a4.3,4.3,0,0,0,.4-.7l.6-1,.2-.4a1.7,1.7,0,0,0,.1-.7,1.2,1.2,0,0,0-.4-1,1.2,1.2,0,0,0-1.1-.4H138l-.5.2-.3.3-.3.2c0-.1-.1-.3-.1-.4l-.6-.8-.9-.4Zm-4.5,9h0a2,2,0,0,1,.1-.7,3.6,3.6,0,0,1,.4-.9,3,3,0,0,1,.6-1.1l.7-1,.7-.9a.1.1,0,0,0,.1-.1v.3a1.2,1.2,0,0,0,.3.9l.6.4h1.4l-.4.7h-.2l-.5.4-.7.5-.8.5-.7.5-.8.4H130Z"/><path d="M150.3,67.1l-1-.2a1.3,1.3,0,0,1-.4-.9.7.7,0,0,1,.1-.5.5.5,0,0,1,.3-.5,1,1,0,0,1,.5-.4l.7-.2a1.7,1.7,0,0,1,1,.3,1.6,1.6,0,0,1,.3.9,1.1,1.1,0,0,1-.1.5c0,.2-.1.3-.2.5l-.5.4Z" fill="#fff"/><path d="M150.5,64.8c.3,0,.6,0,.7.2a.9.9,0,0,1,.3.6c0,.1-.1.2-.1.4l-.2.3c-.1.2-.2.3-.4.3l-.5.2-.8-.2-.3-.6c0-.1.1-.3.1-.4s.1-.3.2-.4l.4-.3h.6m0-.7a1.3,1.3,0,0,0-.9.2l-.6.4a1.6,1.6,0,0,0-.4.7c0,.2-.1.4-.1.6h0a1.7,1.7,0,0,0,.6,1,1.6,1.6,0,0,0,1.2.4l.9-.2.6-.5.3-.6c0-.2.1-.4.1-.6a1.5,1.5,0,0,0-1.7-1.5Z"/><path d="M117.2,80.1a1.3,1.3,0,0,1-.9-.4,1.2,1.2,0,0,1-.4-.9c0-.2.1-.4.1-.6l.3-.5,2.9-5.7.5-.7c.1-.1.2-.1.2-.2l-.4.2-.5.4a1,1,0,0,0-.4.5l-.5.6-.6.5a1.2,1.2,0,0,1-.9.3,1.2,1.2,0,0,1-1.2-1.2,2.2,2.2,0,0,1,.3-1l.7-.9a3.9,3.9,0,0,1,1-.8l1.3-.7,1.5-.5,1.7-.2a4.8,4.8,0,0,1,1.8.3l1.3.9a3.9,3.9,0,0,1,.8,1.4,4,4,0,0,1,.3,1.5,5.7,5.7,0,0,1-.3,1.8,13,13,0,0,1-.8,1.7,18.3,18.3,0,0,1-1.3,1.6,8.3,8.3,0,0,1-1.8,1.3,7.3,7.3,0,0,1-2.2.9A10.1,10.1,0,0,1,117.2,80.1Zm4.2-9.4a1.5,1.5,0,0,1,.6.4,1.9,1.9,0,0,1,.2.8,1.3,1.3,0,0,1-.1.6,1.4,1.4,0,0,1-.2.6l-.8,1.4-.5.9-.7,1.1-.3.5a2.7,2.7,0,0,0,1-.6l1-.9a7.6,7.6,0,0,0,.8-1.1l.5-1.1a4.4,4.4,0,0,0,.2-1,1.5,1.5,0,0,0-.1-.7.8.8,0,0,0-.2-.5l-.4-.3h-1Z" fill="#fff"/><path d="M121.9,68.7a4.7,4.7,0,0,1,1.7.3,4.2,4.2,0,0,1,1.2.8,3.5,3.5,0,0,1,.7,1.2,5.9,5.9,0,0,1,.2,1.4,5.1,5.1,0,0,1-.3,1.7,5.6,5.6,0,0,1-.7,1.6,9.3,9.3,0,0,1-1.3,1.5,7,7,0,0,1-1.6,1.3,8.5,8.5,0,0,1-2.2.9,9.3,9.3,0,0,1-2.4.3.9.9,0,0,1-.7-.3.8.8,0,0,1-.2-.6.9.9,0,0,1,.1-.5l.2-.4,2.9-5.8.4-.5.5-.4h.6a.9.9,0,0,1,.7.3,1.4,1.4,0,0,1,.2.6,4.3,4.3,0,0,1-.1.5,1.7,1.7,0,0,0-.2.5l-.4.6-.4.8a3.1,3.1,0,0,0-.5,1,6.1,6.1,0,0,1-.7,1l-.6,1-.3.4.8-.2a5.7,5.7,0,0,0,1.3-.8l1.1-1a4.4,4.4,0,0,0,.8-1.1,6.7,6.7,0,0,0,.6-1.2,5.2,5.2,0,0,0,.2-1.1,1.9,1.9,0,0,0-.2-.8.9.9,0,0,0-.3-.6,1,1,0,0,0-.5-.4h-1.6l-.9.2-.7.3-.5.4-.5.6-.5.6a1,1,0,0,1-.5.4.8.8,0,0,1-.7.2.7.7,0,0,1-.8-.8,1.3,1.3,0,0,1,.2-.8l.7-.9.9-.7,1.3-.7,1.4-.4a4.1,4.1,0,0,1,1.6-.2m0-.7a4.7,4.7,0,0,0-1.7.2l-1.6.4-1.4.8a3.9,3.9,0,0,0-1,.8,3.5,3.5,0,0,0-.8,1,2.8,2.8,0,0,0-.4,1.2,1.5,1.5,0,0,0,1.6,1.5,2,2,0,0,0,1.1-.3l.4-.3L116,77.6l-.3.5a1.7,1.7,0,0,0-.1.7,1.5,1.5,0,0,0,.4,1.1,1.7,1.7,0,0,0,1.2.5,10.9,10.9,0,0,0,2.6-.3l2.3-1a6.2,6.2,0,0,0,1.8-1.4,7,7,0,0,0,1.4-1.6,14.2,14.2,0,0,0,.8-1.8,6.8,6.8,0,0,0,.3-1.9,7.8,7.8,0,0,0-.2-1.6,3.8,3.8,0,0,0-.9-1.5,4,4,0,0,0-1.5-1,5.4,5.4,0,0,0-1.9-.3Zm-1.2,7.9.2-.3.5-1,.5-.8.3-.5a55411196102761.9,55411196102761.9,0,0,0,.4-1.4c0-.2-.1-.4-.1-.6h0c.1.1.1.3.2.4v.6a3.4,3.4,0,0,1-.1.9,4.7,4.7,0,0,1-.5,1,7.6,7.6,0,0,1-.8,1.1l-.6.6Z"/><path d="M146.1,80h-.3a.5.5,0,0,1-.4-.2l-.3-.3a.6.6,0,0,1-.1-.4,1.6,1.6,0,0,1,.2-1l.4-.8.4-.7h0a1,1,0,0,0-.4.5l-.4.5-.3.5c0,.1-.1.3-.1.4l-.3.6a1,1,0,0,1-.4.5,1.2,1.2,0,0,1-.8.4,1.3,1.3,0,0,1-.9-.4v-.2l-.7.4-.8.2-.7-.2c-.2-.2-.4-.3-.5-.5l-.2-.2h-.2l-.8.5a1.6,1.6,0,0,1-.9.3h-.6l-.7-.4-.5-.5-.9.5-1,.3-1.2.2a1.7,1.7,0,0,1-1-.3,1.6,1.6,0,0,1-.8-.6l-.2-.3-.3.2-.7.4-.7.3h-.7a1.6,1.6,0,0,1-1.1-.4l-.4-.6-.3.4-.4.4-.5.3H125a1.1,1.1,0,0,1-.7-.3.9.9,0,0,1-.3-.7v-.3c0-.2.1-.3.1-.5l.3-.5.7-1.4.3-.8c0-.2-.1-.4-.1-.6a1.4,1.4,0,0,1,.2-.6l.4-.4.4-.2h1.5l.4.3h0l.5-.2.6-.2h.6a1.2,1.2,0,0,1,.9.3,1.8,1.8,0,0,1,.4,1h0c0-.1.1-.1.1-.2a3.1,3.1,0,0,1,.9-.7l1-.5,1.3-.2a1.7,1.7,0,0,1,1.3.5,1.6,1.6,0,0,1,.4,1.2h.1l.7-.9a2.4,2.4,0,0,1,1.1-.6,2.8,2.8,0,0,1,1.3-.3h.7l.6.2h.6a1.3,1.3,0,0,1,.9.4,1,1,0,0,1,.4.7.4.4,0,0,1-.1.3.8.8,0,0,1-.1.4l-.3.9-.2.5c0,.2-.1.3-.1.4h.2l.3-.3.7-.7.4-.9.3-.6a1.8,1.8,0,0,1,.5-.7,1.3,1.3,0,0,1,.8-.3,1.5,1.5,0,0,1,.7.3h.2l.7-.3,1-.2h.5l.5.2c.1.1.2.1.2.2h.2l.7-.3h1.3l.6.2a1.3,1.3,0,0,1,.4.6.8.8,0,0,1,.2.7v.2l.4-.4a2.7,2.7,0,0,1,.8-.7l1.1-.5,1.2-.2a1.4,1.4,0,0,1,1.3.5,1.7,1.7,0,0,1,.5,1.2,2.9,2.9,0,0,1-.2.9l-.5.6.4-.2.5-.9a1,1,0,0,1,0-1.2.8.8,0,0,1,.4-.4l.4-.2h1.5l.4.3h0l.5-.2.6-.2h.6a1.2,1.2,0,0,1,.9.3,1.5,1.5,0,0,1,.4.9v-.3l.3-.3.4-.4.5-.3h1.1l.4.2q.3.1.3.3a.8.8,0,0,1,.2.5,1.1,1.1,0,0,1-.1.5h.1l.7.7a3.6,3.6,0,0,1,.4.9,1.9,1.9,0,0,1,.2.8,1.5,1.5,0,0,1-.4,1.1,1.9,1.9,0,0,1-.8.7l-1,.4-1.1.2h-.9l-.8-.4-.6-.5h0l-.7.4-.7.3h-.7a1.5,1.5,0,0,1-1.5-1l-.3.4a.8.8,0,0,1-.4.4l-.5.3h-.5a.7.7,0,0,1-.6-.3l-.3-.3h-.2l-1.1.3-1.1.2a2,2,0,0,1-1.1-.3,1.9,1.9,0,0,1-.7-.6l-.2.2-1,.5-1,.2a2.1,2.1,0,0,1-1.2-.4,1.5,1.5,0,0,1-.6-1.3,2.9,2.9,0,0,1,.2-.9c.1-.1.1-.3.2-.4h0a1,1,0,0,0-.4.5l-.3.5c-.1.1-.1.3-.2.4l-.3.6-.3.5A1.5,1.5,0,0,1,146.1,80Zm18.6-2.4h.7c.1-.2,0-.3,0-.5l-.2-.2-.2.3Zm-25.5-1.7h-.4l-.4.3-.3.5v.6l.3-.2.4-.5.3-.4.2-.3h-.1Zm12.1,1.3.2-.2h0Zm-15.7-.6h0Zm27.8-1.2a1.3,1.3,0,0,1-.3.7h0l.7-.4-.2-.2c-.1-.1-.1-.2-.1-.4S163.4,75.3,163.4,75.4Z" fill="#fff"/><path d="M155.8,73.7a1.8,1.8,0,0,1,1.1.4,1.5,1.5,0,0,1,.3,1,1.7,1.7,0,0,1-.1.7l-.6.8-1.1.7-1.3.6h.9l.7-.2.7-.3.6-.3.5-.3a.1.1,0,0,0,.1-.1v-.2a4.1,4.1,0,0,1,.5-.9c-.1-.1-.1-.1-.1-.2s-.1-.2-.1-.4a.6.6,0,0,1,.1-.4c.1-.1.1-.2.3-.3h1.1l.4.2c.2,0,.3.1.3.2s.1.1.2.2h.1l.6-.3h1.1l.7.2a1.4,1.4,0,0,1,.2.7v.4a.9.9,0,0,1-.3.6l-.4.5-.5.6-.5.4h.1l.9-.5.9-.5.7-.4h.4l.4.2c.1.1.1.2.1.4a.6.6,0,0,1-.2.5,1.2,1.2,0,0,1-.5.5h-.1l.4.2h1.1l.2-.2v-.2a.7.7,0,0,0-.1-.5,1,1,0,0,0-.4-.5l-.5-.5-.7-.4-.2-.2c-.1-.1-.1-.2-.1-.4v-.2l.3-.4.3-.3.5-.2h.8l.3.2a.2.2,0,0,1,.2.2.4.4,0,0,1,.1.3v.3c-.1.1-.1.2-.2.2h-.1a1,1,0,0,0,.5.4l.6.7a4.3,4.3,0,0,1,.4.7,1.7,1.7,0,0,1,.1.7,1.6,1.6,0,0,1-.3.9c-.1.2-.4.4-.6.6l-1,.4H164a1.1,1.1,0,0,1-.7-.3,1.2,1.2,0,0,1-.5-.5c-.1,0-.1-.1-.2-.2l-.3.2-.7.4-.6.2h-.6a1.2,1.2,0,0,1-.9-.3,1.1,1.1,0,0,1-.3-.8h0a1.9,1.9,0,0,1,.2-.7l.3-.6a1,1,0,0,0,.4-.5l.3-.4.3-.3h-.4l-.3.2-.2.2-.3.5-.3.7-.3.6v.3l-.2.3a.8.8,0,0,1-.2.4l-.4.3a.5.5,0,0,1-.4.2h-.8c-.1-.2-.2-.3-.2-.5v-.2l-.6.3-1.1.4h-1l-.9-.2a1.5,1.5,0,0,1-.6-.5c-.1-.1-.2-.2-.2-.3l-.5.4-.9.4-.9.2a1.7,1.7,0,0,1-1-.3,1.1,1.1,0,0,1-.4-1,2.2,2.2,0,0,1,.1-.8l.4-.6.4-.6a1,1,0,0,0,.4-.5.3.3,0,0,0,.1-.2h-.4l-.5.3-.4.4-.4.6-.4.5-.3.5a.8.8,0,0,0-.2.5l-.3.5-.3.5-.6.2h-.2l-.3-.2-.2-.2a.4.4,0,0,1-.1-.3,3.1,3.1,0,0,1,.2-.8,2.5,2.5,0,0,1,.4-.7,5.6,5.6,0,0,1,.5-.8,3.5,3.5,0,0,0,.5-.8c.1,0,.1-.1.1-.2h-.4l-.5.3-.4.4-.4.6-.4.5-.3.5-.2.5c-.1.2-.1.4-.2.5l-.3.5-.6.2-.6-.2c-.1-.2-.2-.3-.2-.5l-.3.2-.7.4h-1.3l-.3-.4a.8.8,0,0,1-.2-.5c-.1,0-.1-.1-.1-.2l-.6.6-.7.4-.8.2H137a.9.9,0,0,1-.6-.3,1,1,0,0,1-.4-.5c-.1,0-.1-.1-.1-.2l-.3.2-.9.4-1,.4h-1.1l-.9-.2-.6-.5-.4-.6-.6.4-.7.4-.6.2h-.6a1.2,1.2,0,0,1-.9-.3,1.1,1.1,0,0,1-.3-.8h0a1.9,1.9,0,0,1,.2-.7l.3-.6.4-.5.3-.4.2-.3h-.3l-.4.2-.2.2c0,.2-.1.3-.2.5l-.3.7-.3.6-.3.6a.8.8,0,0,1-.2.4l-.4.3-.4.2h-.8c-.1-.2-.2-.3-.2-.5v-.3c0-.1.1-.2.2-.3a1.7,1.7,0,0,1,.2-.5l.3-.7a5.9,5.9,0,0,0,.4-.8,4.1,4.1,0,0,1,.5-.9c-.1-.1-.1-.1-.1-.2s-.1-.2-.1-.4a.6.6,0,0,1,.1-.4q0-.1.3-.3h1.1l.4.2.3.2.2.2h.1l.6-.3H130l.7.2a1.4,1.4,0,0,1,.2.7v.4c-.1.2-.1.4-.3.6l-.4.5-.5.6h-.1l-.4.4h.1l.9-.5.5-.3h0l.4-.8a2.1,2.1,0,0,1,.6-.8l.8-.6.9-.5,1.2-.2a1.5,1.5,0,0,1,1,.4,1.2,1.2,0,0,1,.4,1,1.9,1.9,0,0,1-.2.7,2.1,2.1,0,0,1-.6.8l-1.1.7-1.3.6h.9l.7-.2.7-.3.7-.3h.2a1.4,1.4,0,0,1,.2-.6,4.1,4.1,0,0,1,.5-.9,2.7,2.7,0,0,1,.7-.8,1.8,1.8,0,0,1,.9-.6,2.5,2.5,0,0,1,1.2-.2h.6l.5.2.2.2h.6l.6.2a.5.5,0,0,1,.3.5v.2c0,.1-.1.2-.1.3l-.2.4h0l-.2.5a4.3,4.3,0,0,1-.1.5c-.1.2-.1.4-.2.5v.6h.5l.3-.3.3-.2.8-.8h.1l.4-.7c.1-.3.1-.5.2-.6a1.5,1.5,0,0,1,.4-.6l.6-.2.5.2.2.3.4-.3.7-.3h1.2l.4.2.3.4h.1l.4-.3.6-.3H151l.5.2.3.4a1.4,1.4,0,0,1,.2.6,1.6,1.6,0,0,1-.3.9,3.5,3.5,0,0,1-.5.8l-.2.2-.2.4-.3.3v.2h.6l.6-.4h.1c.1-.2.1-.4.2-.6s.2-.5.3-.8l.6-.8.8-.6,1-.5,1.1-.2m-1.7,2.6.3-.2.4-.2.3-.2.3-.3H155l-.3.3c-.1.1-.3.2-.3.3l-.3.4m-21.3,0a.5.5,0,0,0,.4-.2l.4-.2.2-.2.4-.3a.1.1,0,0,1,.1-.1h-.5l-.4.3-.3.3-.3.4m5.2,1.5h.3l.3-.3.5-.4.3-.5.3-.4v-.2a.1.1,0,0,0-.1-.1h-1.1l-.4.4a1,1,0,0,0-.4.5,1.3,1.3,0,0,0-.1.6v.5h.2M155.8,73a3.5,3.5,0,0,0-1.4.3l-1.1.5-.7.6a.4.4,0,0,1-.1-.3l-.6-.7-.7-.3h-.7l-.8.2a.9.9,0,0,0-.7.3h-.1c-.1-.2-.4-.3-.6-.4h-.6l-1.1.2-.7.4a1.1,1.1,0,0,0-.8-.3,1.9,1.9,0,0,0-1,.3,1.5,1.5,0,0,0-.6.9l-.3.6-.3.7h-.1l-.2.2v-.2h0v-.3l.2-.4v-.4a1.4,1.4,0,0,0-.5-1,1.4,1.4,0,0,0-1.1-.4h-.5l-.6-.2-.8-.2a4,4,0,0,0-1.5.3l-1.1.7-.3.4a2.2,2.2,0,0,0-.5-.8,2,2,0,0,0-1.5-.6,3.2,3.2,0,0,0-1.4.3l-1.1.5-.6.4a1,1,0,0,0-.4-.5,1.5,1.5,0,0,0-1.1-.4h-.7l-.6.2h-.4l-.3-.2-.6-.2h-1.1l-.5.2-.5.5a1.2,1.2,0,0,0-.2.8,1.3,1.3,0,0,0,.1.6.9.9,0,0,0-.3.6l-.4.8-.3.7-.3.5c-.1.1-.1.3-.2.5V79a1.3,1.3,0,0,0,.4,1,1.4,1.4,0,0,0,.9.3h.7l.5-.3.5-.4h.1a1.7,1.7,0,0,0,1.4.5h.8l.7-.3.8-.4h.1l.8.7,1.2.2h1.3l1.1-.4.6-.3.4.3a2,2,0,0,0,.8.4h.7l1.1-.2.7-.5.6.5.9.2,1-.2.4-.2a1.7,1.7,0,0,0,2.2,0l.3-.5v.2c.1.2.3.3.4.4l.5.2h.4a1.5,1.5,0,0,0,1.1-.4l.5-.6c0-.2.1-.3.1-.4a2,2,0,0,0,.7,1,2.1,2.1,0,0,0,1.4.4l1.2-.2.9-.5.7.5,1.2.2h1.2l1.1-.4c0,.1.1.1.1.2a1.6,1.6,0,0,0,.9.3h.7l.5-.3.5-.4h.1a1.9,1.9,0,0,0,1.4.5h.8l.7-.3.5-.3.6.4a1.9,1.9,0,0,0,.9.4H166l1.1-.5a2.4,2.4,0,0,0,.9-.8,2,2,0,0,0,.4-1.3,2,2,0,0,0-.2-1,2,2,0,0,0-.5-.9l-.6-.7c0-.2.1-.3.1-.5a.9.9,0,0,0-.3-.7l-.3-.4-.5-.3h-1.4l-.6.4-.4.3h-.1l-.3-.3a1.5,1.5,0,0,0-1.1-.4h-.7l-.6.2h-.3l-.4-.2-.5-.2h-1.1l-.6.2-.4.3-.2-.3a2.1,2.1,0,0,0-1.6-.6Z"/><path d="M133.3,24.6a8.4,8.4,0,0,1,8.4-8,9.8,9.8,0,0,1,3.4.7h-.2a9.7,9.7,0,0,0-9.4,7.2Z" fill="#606060"/><path d="M69.7,111.6V70.8c0-11.6,5.8-22.4,16.3-30.4,12.3-9.4,30.6-14.5,53.1-14.9-25.5,3.4-54.7,17.2-54.7,45.3v40.8Z" fill="#111039"/><path d="M199,111.6V70.8c0-17.7-14.3-40-54.6-45.3,22.5.4,40.7,5.5,53,14.9,10.6,8,16.4,18.8,16.4,30.4v40.8Z" fill="#111039"/></svg>