<svg xmlns="http://www.w3.org/2000/svg" viewBox="0 0 283.5 283.5"><path d="M40.6,198.8s54.7-8.2,40.3-87.4c0,0,23.5,2.3,38-26.2,0,0,18.1,3.1,22.2-8.2,0,0,18.1,35.3,57,34.4,0,0-7.7,38,9.9,52.5,0,0-8.6,43,32.6,48.5,0,0-15.8-12.7-9.5-31.3,0,0,30.4-18.5,6.4-69.7,0,0,8.1-5.9,14.9,4.5,0,0,0-17.2-23.5-38.9,0,0,14.5-4.1,23.5,11.3,0,0-9.5-91-108.6-50.2,0,0-87.8-53-112.7,45.7,0,0,9.9-8.2,18.5-1.4,0,0,2.7,23.1-18.5,31.3,0,0,9.9,4.5,17.2,0C48.3,113.7,57.8,140.4,40.6,198.8Z" fill="#66362a" stroke="#000" stroke-linecap="round" stroke-linejoin="round" stroke-width="0.71"/><path d="M238.9,211.5c-10.7-1.7-18.8-6.4-24-13.7-10.1-14-6.3-33.6-6.3-33.8v-.3l-.3-.2c-4.6-3.8-14.8-16-10.4-47.7a58.6,58.6,0,0,0,26.7,6.3h.7a113.6,113.6,0,0,0-1.5,20.2c.4,14.8,4.4,25.8,11.6,31.9a22.6,22.6,0,0,0-.4,2.8,19.1,19.1,0,0,1-4.3,3.6h-.1v.2C225.4,196.3,235.1,207.8,238.9,211.5Z" fill="#2d120d"/><path d="M189.1,110.4a60.5,60.5,0,0,1-31.8-14.5c5.9-.9,9.9-3.5,11.9-7.5A75.1,75.1,0,0,0,189.1,110.4Z" fill="#2d120d"/><path d="M171.8,47.5a118.2,118.2,0,0,0-24.4-10.2c15.5-6.1,29.7-9.1,42.3-9.1s23.5,3,32.8,9h-4.8C204.2,37.1,188.8,40.6,171.8,47.5Z" fill="#2d120d"/><path d="M41.4,198c8.6-29.7,10.2-51,10-63.7s-2.5-20.5-2.6-20.8l-.2-.7-.6.4a13.8,13.8,0,0,1-7.4,1.9,27.5,27.5,0,0,1-8-1.4c20-8.7,17.6-31.1,17.6-31.3v-.3H50a12.6,12.6,0,0,0-8-2.8,19.6,19.6,0,0,0-10,3.2C42.1,44,63,24.5,94.1,24.5c16.9,0,32.9,6.1,41.7,10.1a81.9,81.9,0,0,0-13.7-1.2c-14.1,0-26.4,4.1-36.5,12.2C73.2,55.7,64.1,71.8,58.5,93.7l-.4,1.7,1.3-1.1c.1,0,4.9-3.9,10.6-3.9a11.5,11.5,0,0,1,7.1,2.4c.2,2.4,1.3,23-18.2,30.4l-1.3.5,1.3.6a25.8,25.8,0,0,0,9.7,2,15.8,15.8,0,0,0,7.4-1.7c.8,3.1,4.2,17.2.9,43.1A51.8,51.8,0,0,1,41.4,198Z" fill="#2d120d"/></svg>