<svg id="EAR_ACCESSORIES" data-name="EAR ACCESSORIES" xmlns="http://www.w3.org/2000/svg" viewBox="0 0 283.5 283.5">
  <path d="M223.1,189.6h-6.7a4,4,0,0,0-3.9,4v6.7a3.9,3.9,0,0,0,3.9,3.9h6.7a3.9,3.9,0,0,0,4-3.9v-6.7A4,4,0,0,0,223.1,189.6Zm1.9,10.7a1.8,1.8,0,0,1-1.9,1.8h-6.7a1.8,1.8,0,0,1-1.8-1.8v-6.7a1.8,1.8,0,0,1,1.8-1.9h6.7a1.8,1.8,0,0,1,1.9,1.9Z" fill="#8b8b8b" stroke="#000" stroke-linecap="round" stroke-linejoin="round" stroke-width="0.71"/>
  <g>
    <path d="M223.1,205.6h-6.7a4,4,0,0,0-3.9,3.9v6.8a4,4,0,0,0,3.9,3.9h6.7a4,4,0,0,0,4-3.9v-6.8A4,4,0,0,0,223.1,205.6Zm1.9,10.7a1.8,1.8,0,0,1-1.9,1.8h-6.7a1.8,1.8,0,0,1-1.8-1.8v-6.8a1.8,1.8,0,0,1,1.8-1.8h6.7a1.8,1.8,0,0,1,1.9,1.8Z" fill="#414141" stroke="#000" stroke-linecap="round" stroke-linejoin="round" stroke-width="0.71"/>
    <path d="M223.1,173.7h-6.7a3.9,3.9,0,0,0-3.9,3.9v6.7a3.9,3.9,0,0,0,3.9,3.9h6.7a3.9,3.9,0,0,0,4-3.9v-6.7A3.9,3.9,0,0,0,223.1,173.7Zm1.9,10.6a1.9,1.9,0,0,1-1.9,1.9h-6.7a1.9,1.9,0,0,1-1.8-1.9v-6.7a1.9,1.9,0,0,1,1.8-1.9h6.7a1.9,1.9,0,0,1,1.9,1.9Z" fill="#414141" stroke="#000" stroke-linecap="round" stroke-linejoin="round" stroke-width="0.71"/>
  </g>
  <g>
    <path d="M219.9,215.6a2.3,2.3,0,0,0-2.3,2.3v4.7a2.3,2.3,0,0,0,2.3,2.3,2.3,2.3,0,0,0,2.3-2.3v-4.7A2.3,2.3,0,0,0,219.9,215.6Z" fill="#969696" stroke="#000" stroke-linecap="round" stroke-linejoin="round" stroke-width="0.71"/>
    <path d="M219.9,199.6a2.3,2.3,0,0,0-2.3,2.3v4.7a2.4,2.4,0,0,0,2.3,2.4,2.3,2.3,0,0,0,2.3-2.4v-4.7A2.3,2.3,0,0,0,219.9,199.6Z" fill="#969696" stroke="#000" stroke-linecap="round" stroke-linejoin="round" stroke-width="0.71"/>
    <path d="M219.9,183.6a2.4,2.4,0,0,0-2.3,2.3v4.8a2.4,2.4,0,0,0,2.3,2.3,2.3,2.3,0,0,0,2.3-2.3v-4.8A2.3,2.3,0,0,0,219.9,183.6Z" fill="#969696" stroke="#000" stroke-linecap="round" stroke-linejoin="round" stroke-width="0.71"/>
    <path d="M223.4,170.4a2.3,2.3,0,0,0-3.1.9l-2.4,4.1a2.3,2.3,0,0,0,.9,3.1,2.2,2.2,0,0,0,3.1-.8l2.4-4.1A2.3,2.3,0,0,0,223.4,170.4Z" fill="#969696" stroke="#000" stroke-linecap="round" stroke-linejoin="round" stroke-width="0.71"/>
  </g>
  <g>
    <path d="M223.2,171a1.7,1.7,0,0,0-2.4.6l-1.9,3.2a1.7,1.7,0,0,0,.2,2c-.1.1,1.9-3.4,2-3.4a1.8,1.8,0,0,1,2.4-.7l.5.4A1.7,1.7,0,0,0,223.2,171Z" fill="#585858"/>
    <path d="M218.7,189v-3.3a2.1,2.1,0,0,0-.5,1.3v3.7a1.8,1.8,0,1,0,3.5-.4A1.8,1.8,0,0,1,218.7,189Z" fill="#585858"/>
    <path d="M218.7,205v-3.3a1.9,1.9,0,0,0-.5,1.3v3.6a1.8,1.8,0,1,0,3.5-.3A1.8,1.8,0,0,1,218.7,205Z" fill="#585858"/>
    <path d="M218.7,221v-3.3a1.9,1.9,0,0,0-.5,1.3v3.6a1.8,1.8,0,1,0,3.5-.3A1.8,1.8,0,0,1,218.7,221Z" fill="#585858"/>
  </g>
</svg>
