<svg id="EAR_ACCESSORIES" data-name="EAR ACCESSORIES" xmlns="http://www.w3.org/2000/svg" viewBox="0 0 283.5 283.5">
  <g>
    <path d="M225,170.3a6.4,6.4,0,0,0-6.4,6.4,6.4,6.4,0,1,0,6.4-6.4Z" fill="#ababab" stroke="#000" stroke-linecap="round" stroke-linejoin="round" stroke-width="0.71"/>
    <path d="M58.4,170.3a6.4,6.4,0,0,0-6.4,6.4,6.4,6.4,0,1,0,6.4-6.4Z" fill="#ababab" stroke="#000" stroke-linecap="round" stroke-linejoin="round" stroke-width="0.71"/>
  </g>
  <g>
    <path d="M225.2,171.1a5.7,5.7,0,0,0-3.6,1.3h.1a5.6,5.6,0,0,1,5.6,5.6,5.3,5.3,0,0,1-2.1,4.3,5.6,5.6,0,1,0,0-11.2Z" fill="#777"/>
    <path d="M52.7,176.7a5.6,5.6,0,0,0,5.5,5.6,5.5,5.5,0,0,1-2-4.3,5.6,5.6,0,0,1,5.6-5.6h0a5.4,5.4,0,0,0-3.5-1.3A5.6,5.6,0,0,0,52.7,176.7Z" fill="#777"/>
  </g>
</svg>
