<svg id="EAR_ACCESSORIES" data-name="EAR ACCESSORIES" xmlns="http://www.w3.org/2000/svg" viewBox="0 0 283.5 283.5">
  <rect x="211.2" y="191.5" width="27.4" height="9.4" fill="#929292" stroke="#000" stroke-linecap="round" stroke-linejoin="round" stroke-width="0.71"/>
  <polygon points="211.8 192.2 211.8 200.2 213.9 200.2 213.9 194 237.8 194 237.8 192.2 211.8 192.2" fill="#545454"/>
  <rect x="220.2" y="181.1" width="9.4" height="37.92" fill="#aeaeae" stroke="#000" stroke-linecap="round" stroke-linejoin="round" stroke-width="0.71"/>
  <polygon points="220.8 181.7 220.8 218 223.6 218 223.6 183.8 228.3 183.8 228.3 181.7 220.8 181.7" fill="#777"/>
  <path d="M57.6,170.3a6.4,6.4,0,0,0-6.4,6.4,6.5,6.5,0,0,0,12.9,0A6.5,6.5,0,0,0,57.6,170.3Z" fill="#aeaeae" stroke="#000" stroke-linecap="round" stroke-linejoin="round" stroke-width="0.71"/>
  <path d="M61,172.4h.1a5.7,5.7,0,0,0-3.6-1.3,5.6,5.6,0,0,0-.1,11.2,5.5,5.5,0,0,1-2-4.3A5.6,5.6,0,0,1,61,172.4Z" fill="#777"/>
  <path d="M224.9,172.4a4.4,4.4,0,0,0-4.4,4.3,4.4,4.4,0,1,0,8.7,0A4.3,4.3,0,0,0,224.9,172.4Z" fill="#aeaeae" stroke="#000" stroke-linecap="round" stroke-linejoin="round" stroke-width="0.71"/>
  <path d="M227,173.9h0a3.2,3.2,0,0,0-2.3-.9,3.6,3.6,0,0,0-3.6,3.6,3.7,3.7,0,0,0,3.6,3.7,3.7,3.7,0,0,1-1.3-2.8A3.7,3.7,0,0,1,227,173.9Z" fill="#777"/>
</svg>
