<svg id="EAR_ACCESSORIES" data-name="EAR ACCESSORIES" xmlns="http://www.w3.org/2000/svg" viewBox="0 0 283.5 283.5">
    <g>
        <g>
            <path d="M66.1,173.7H64.4l-2.8-.2a10.1,10.1,0,0,1,1.4,5.2,9.6,9.6,0,0,1-9.1,9.1,9.5,9.5,0,0,1-9.7-9.4,9.4,9.4,0,0,1,6.9-9l.7-.2a2.3,2.3,0,0,0-.9-4.5,12,12,0,0,0-3.6,1.3,13.9,13.9,0,1,0,20,14.9c-.5-2.4-.9-4.8-1.2-7.3Z"
                  fill="#b1f8fd" stroke="#000" stroke-linecap="round" stroke-linejoin="round" stroke-width="0.71"/>
            <path d="M236.2,166.1a12.6,12.6,0,0,0-3.7-1.3,2.2,2.2,0,0,0-2.6,2.3,2.2,2.2,0,0,0,1.8,2.2l.6.2a9.2,9.2,0,0,1,6.9,9,9.4,9.4,0,0,1-9.6,9.4,9.5,9.5,0,0,1-9.1-9.1,8.5,8.5,0,0,1,1.4-5.2l-2.8.2h-1.7c-.4,2.5-.8,4.9-1.3,7.3a14,14,0,0,0,27.6-.9A13.8,13.8,0,0,0,236.2,166.1Z"
                  fill="#b1f8fd" stroke="#000" stroke-linecap="round" stroke-linejoin="round" stroke-width="0.71"/>
        </g>
        <g>
            <path d="M43.1,180a13,13,0,0,1,9-13.8c-16.7-.2-14.9,26.9,2.3,25.1A12.8,12.8,0,0,1,43.1,180Z"
                  fill="#5fc2c7"/>
            <path d="M57.6,187.9c12-3.4,5.2-13.4,5.2-13.4C66.9,184,57.6,187.9,57.6,187.9Z" fill="#5fc2c7"/>
            <path d="M231.3,166.2a12.9,12.9,0,0,1-2.3,25.1C246.3,193.1,248.1,166,231.3,166.2Z" fill="#5fc2c7"/>
            <path d="M220.7,174.5s-6.9,10,5.2,13.4C225.9,187.9,216.6,184,220.7,174.5Z" fill="#5fc2c7"/>
        </g>
    </g>
</svg>
