<svg id="EAR_ACCESSORIES" data-name="EAR ACCESSORIES" xmlns="http://www.w3.org/2000/svg" viewBox="0 0 283.5 283.5">
  <g>
    <path d="M52.2,171.4a23.5,23.5,0,1,0,23.5,23.5A23.5,23.5,0,0,0,52.2,171.4Zm0,39.3a15.8,15.8,0,1,1,0-31.5,15.8,15.8,0,0,1,0,31.5Z" fill="#ff0" stroke="#000" stroke-linecap="round" stroke-linejoin="round" stroke-width="0.71"/>
    <path d="M231.3,171.4a23.5,23.5,0,1,0,23.5,23.5A23.5,23.5,0,0,0,231.3,171.4Zm0,39.3a15.8,15.8,0,1,1,0-31.5,15.8,15.8,0,0,1,0,31.5Z" fill="#ff0" stroke="#000" stroke-linecap="round" stroke-linejoin="round" stroke-width="0.71"/>
  </g>
  <g>
    <path d="M65.9,184.7c10.5,15.8-8.1,34.4-23.9,23.9a17.2,17.2,0,0,0,14.2,7.5C73.2,216,79.7,194.2,65.9,184.7Z" fill="#c9c300"/>
    <path d="M56.1,176.2A22.2,22.2,0,0,1,69.9,181a22.6,22.6,0,0,0-17.8-8.8c-21.6.1-30.6,27.4-13.9,40.4C26.7,198.1,37.3,176.1,56.1,176.2Z" fill="#c9c300"/>
    <path d="M217.6,184.7c-13.8,9.5-7.3,31.3,9.7,31.4a17.2,17.2,0,0,0,14.2-7.5C225.7,219.1,207.1,200.5,217.6,184.7Z" fill="#c9c300"/>
    <path d="M231.4,172.2a22.5,22.5,0,0,0-17.8,8.8,22.2,22.2,0,0,1,13.8-4.8c18.7-.1,29.3,21.9,17.8,36.4C262,199.6,252.9,172.3,231.4,172.2Z" fill="#c9c300"/>
  </g>
</svg>
