<svg xmlns="http://www.w3.org/2000/svg" viewBox="0 0 283.5 283.5"><path d="M141.7,215.6c-33.6,0-41.9-11.4-41.9-11.4s12.2,36.6,41.9,36.6,42-36.6,42-36.6S175.4,215.6,141.7,215.6Z" stroke="#000" stroke-linecap="round" stroke-linejoin="round" stroke-width="0.71"/><path d="M141.7,215.6c-33.6,0-41.9-11.4-41.9-11.4a71.2,71.2,0,0,0,5,10.9c5.6,3.3,16.7,7.4,36.9,7.4s31.3-4.1,36.9-7.4a66.9,66.9,0,0,0,5.1-10.9S175.4,215.6,141.7,215.6Z" fill="#fff" stroke="#000" stroke-linecap="round" stroke-linejoin="round" stroke-width="0.71"/><path d="M110.6,223.8c6.7,8.7,16.9,17,31.1,17s24.4-8.3,31.2-17a66.1,66.1,0,0,1-62.3,0Z" fill="#fff" stroke="#000" stroke-linecap="round" stroke-linejoin="round" stroke-width="0.71"/><path d="M166.4,230a37.8,37.8,0,0,0,3.8-4.3,52.3,52.3,0,0,1-22.8,6.5h3.2A54.7,54.7,0,0,0,166.4,230Z" fill="#c7c7c7"/><path d="M113.6,226c5.1,6.3,12.7,12.2,23.1,12l2.8-.2a27.4,27.4,0,0,1-16.8-8.2A44.3,44.3,0,0,1,113.6,226Z" fill="#c7c7c7"/><path d="M107.6,210.6c-4.7-2.1-6.3-4.3-6.3-4.3a46.8,46.8,0,0,0,3.9,8.3,32.7,32.7,0,0,0,7.9,3.2l-2.6-1.3A51.7,51.7,0,0,1,107.6,210.6Z" fill="#c7c7c7"/><path d="M178.9,212.9a49.5,49.5,0,0,0,3-6.1s-6.3,7.6-33.4,9.3a99.8,99.8,0,0,1-21.5-.6c5.2,1.4,13.8,2.7,27.2,1.8C165.9,216.6,173.7,214.8,178.9,212.9Z" fill="#c7c7c7"/><path d="M125,214.5v6.9a117.1,117.1,0,0,0,13.1,1.1v-6.9A117.1,117.1,0,0,1,125,214.5Z" stroke="#000" stroke-linecap="round" stroke-linejoin="round" stroke-width="0.71"/></svg>