<svg xmlns="http://www.w3.org/2000/svg" viewBox="0 0 283.5 283.5"><path d="M141.7,210.8c-33.6,0-41.9-11.4-41.9-11.4S112,236,141.7,236s42-36.6,42-36.6S175.4,210.8,141.7,210.8Z" fill="#333" stroke="#000" stroke-miterlimit="10" stroke-width="0.71"/><path d="M178.6,210.3a66.9,66.9,0,0,0,5.1-10.9s-8.3,11.4-42,11.4a117.7,117.7,0,0,1-12.5-.6c6.1,1.6,14.3,2.7,25,2.7A101.2,101.2,0,0,0,178.6,210.3Z"/><path d="M114.7,207.5c-11.4-3.4-14.9-8.1-14.9-8.1S112,236,141.7,236h.5C127.4,230.5,118.7,215.8,114.7,207.5Z"/><path d="M141.7,218.7c-17.9,0-22.3-4.9-22.3-4.9s6.5,15.7,22.3,15.7,22.4-15.7,22.4-15.7S159.7,218.7,141.7,218.7Z" fill="#171717" stroke="#000" stroke-linecap="round" stroke-linejoin="round" stroke-width="0.71"/></svg>