<svg xmlns="http://www.w3.org/2000/svg" viewBox="0 0 283.5 283.5"><path d="M159.7,228.5a5.8,5.8,0,1,0,0-11.6h-36a5.8,5.8,0,1,0,0,11.6Z" fill="#171717" stroke="#000" stroke-miterlimit="10" stroke-width="0.71"/><path d="M157.2,216.9v17.6a6.6,6.6,0,0,1-6.6,6.7h0a6.7,6.7,0,0,1-6.6-6.7V216.9Z" fill="#fff" stroke="#000" stroke-miterlimit="10" stroke-width="0.65"/><path d="M126.2,216.9v17.6a6.7,6.7,0,0,0,6.7,6.7h0a6.7,6.7,0,0,0,6.6-6.7V216.9Z" fill="#fff" stroke="#000" stroke-miterlimit="10" stroke-width="0.65"/><path d="M131.3,220.2H138v-2.7H126.9v16.6c0,3.4,2.4,6.2,5.4,6.3a6.1,6.1,0,0,1-1-3.6Z" fill="#c7c7c7"/><path d="M149,220.2h6.7v-2.7H144.6v16.6c0,3.4,2.4,6.2,5.4,6.3a6.9,6.9,0,0,1-1-3.6Z" fill="#c7c7c7"/></svg>