<svg xmlns="http://www.w3.org/2000/svg" viewBox="0 0 283.5 283.5"><g style="isolation:isolate"><circle cx="123.6" cy="203.1" r="9.6" fill="#728490" stroke="#000" stroke-linecap="round" stroke-linejoin="round" stroke-width="0.71"/><circle cx="159.9" cy="203.1" r="9.6" fill="#728490" stroke="#000" stroke-linecap="round" stroke-linejoin="round" stroke-width="0.71"/><g style="mix-blend-mode:multiply"><path d="M120.2,204.7a8.7,8.7,0,0,1,8.1-8.7,8.4,8.4,0,0,0-4.9-1.6,8.8,8.8,0,0,0,0,17.5h.6A8.5,8.5,0,0,1,120.2,204.7Z" fill="#728490"/></g><g style="mix-blend-mode:multiply"><path d="M163.3,204.7a8.7,8.7,0,0,0-8.1-8.7,8.4,8.4,0,0,1,4.9-1.6,8.8,8.8,0,0,1,0,17.5h-.6A8.5,8.5,0,0,0,163.3,204.7Z" fill="#728490"/></g><path d="M150.9,183.5H132.6a10.7,10.7,0,1,0,0,21.3h18.3a10.7,10.7,0,1,0,0-21.3Zm0,19.6H132.6a9,9,0,0,1,0-18h18.3a9,9,0,0,1,0,18Z" fill="#1d1d1d" stroke="#000" stroke-linecap="round" stroke-linejoin="round" stroke-width="0.71"/><path d="M150.9,185.1H132.6a9,9,0,0,0-9,9,8.4,8.4,0,0,0,1.2,4.5,8.8,8.8,0,0,1,7.8-4.5h18.3a9.1,9.1,0,0,1,7.8,4.5,8.4,8.4,0,0,0,1.2-4.5A9,9,0,0,0,150.9,185.1Z" fill="#9eacb6" stroke="#000" stroke-linecap="round" stroke-linejoin="round" stroke-width="0.71"/><path d="M150.9,194.1H132.6a8.8,8.8,0,0,0-7.8,4.5,8.8,8.8,0,0,0,7.8,4.5h18.3a9.1,9.1,0,0,0,7.8-4.5A9.1,9.1,0,0,0,150.9,194.1Z" fill="#728490" stroke="#000" stroke-linecap="round" stroke-linejoin="round" stroke-width="0.71"/></g></svg>