<svg xmlns="http://www.w3.org/2000/svg" viewBox="0 0 283.5 283.5"><path d="M159.2,192.3s-2.3-13.1-17.5-13.1-17.4,13.1-17.4,13.1" fill="none" stroke="#000" stroke-linecap="round" stroke-linejoin="round" stroke-width="0.83"/><path d="M131.3,204.1a1.1,1.1,0,0,1-1-.6c-1.8-4.1-2.1-7.7-.8-10.8a11.1,11.1,0,0,1,5.6-5.6,1.1,1.1,0,0,1,.7,2,8.6,8.6,0,0,0-4.3,4.5c-1.1,2.5-.8,5.5.8,9a1,1,0,0,1-.6,1.4Z" fill="#fff" stroke="#000" stroke-miterlimit="10" stroke-width="0.71"/><circle cx="130.3" cy="203" r="4.5" fill="#fff" stroke="#000" stroke-miterlimit="10" stroke-width="0.71"/><path d="M133,200.5h.1a3.8,3.8,0,0,0-6.7,2.5,3.9,3.9,0,0,0,3.7,3.9,4,4,0,0,1-1-2.6A3.8,3.8,0,0,1,133,200.5Z" fill="#b6b6b6"/><path d="M152.2,204.1a.9.9,0,0,0,.9-.6q2.7-6.1.9-10.8a11.1,11.1,0,0,0-5.6-5.6,1.2,1.2,0,0,0-1.4.6,1.1,1.1,0,0,0,.6,1.4,8.6,8.6,0,0,1,4.4,4.5c1,2.5.8,5.5-.8,9a1.1,1.1,0,0,0,.5,1.4Z" fill="#fff" stroke="#000" stroke-miterlimit="10" stroke-width="0.71"/><circle cx="153.1" cy="203" r="4.5" fill="#fff" stroke="#000" stroke-miterlimit="10" stroke-width="0.71"/><path d="M133.6,186.1a3.1,3.1,0,0,1,2.8,1.6c.8,1.5-.5,3.4-.5,3.4" fill="none" stroke="#000" stroke-linecap="round" stroke-linejoin="round" stroke-width="0.71"/><path d="M149.8,186.1a3.2,3.2,0,0,0-2.8,1.6c-.8,1.5.5,3.4.5,3.4" fill="none" stroke="#000" stroke-linecap="round" stroke-linejoin="round" stroke-width="0.71"/><path d="M150.5,200.5h-.2a4.1,4.1,0,0,1,2.9-1.3,3.8,3.8,0,0,1,3.9,3.8,3.9,3.9,0,0,1-3.7,3.9,4,4,0,0,0,1-2.6A3.9,3.9,0,0,0,150.5,200.5Z" fill="#b6b6b6"/></svg>