<svg xmlns="http://www.w3.org/2000/svg" viewBox="0 0 283.5 283.5"><path d="M141.7,185c-14.6,0-17.6,9.2-18.2,14.7a3.6,3.6,0,0,0,3.6,3.9h29.3a3.5,3.5,0,0,0,3.5-3.9C159.4,194.2,156.4,185,141.7,185Z" fill="#728490" stroke="#000" stroke-linecap="round" stroke-linejoin="round" stroke-width="0.71"/><path d="M141.7,194.3c-10.3,0-9.1,9.3-9.1,9.3h18.2S152.1,194.3,141.7,194.3Z" fill="#1d1d1d" stroke="#000" stroke-linecap="round" stroke-linejoin="round" stroke-width="0.71"/><path d="M145.9,188.5a21.9,21.9,0,0,1,7.8,1.3c-2.6-2.3-6.5-4-12.4-4-13.6,0-16.4,8.6-16.9,13.6a3.3,3.3,0,0,0,3.3,3.7H129C129.2,198.2,131.5,188.5,145.9,188.5Z" fill="#334451"/></svg>