<svg xmlns="http://www.w3.org/2000/svg" viewBox="0 0 283.5 283.5"><path d="M124.3,176.1v6.8a15.8,15.8,0,0,0,5.3,12.1c2.6,2.3,6.5,4.1,12.1,4.1s9.6-1.8,12.2-4.1a15.8,15.8,0,0,0,5.3-12.1v-6.8" fill="none" stroke="#000" stroke-miterlimit="10" stroke-width="0.83"/><circle cx="157.5" cy="187.8" r="4.5" fill="#fff" stroke="#000" stroke-miterlimit="10" stroke-width="0.71"/><path d="M160.1,185.2h.1a3.7,3.7,0,0,0-2.8-1.3,3.8,3.8,0,0,0-.2,7.6,3.6,3.6,0,0,1-1-2.5A3.9,3.9,0,0,1,160.1,185.2Z" fill="#b6b6b6"/></svg>