<svg xmlns="http://www.w3.org/2000/svg" viewBox="0 0 283.5 283.5"><path d="M151.3,185.4s3.2-9.5-9.6-9.5-9.5,9.5-9.5,9.5c-7.5,0-9.2,6.6-9.5,11.8a5.9,5.9,0,0,0,5.9,6h26.3a5.7,5.7,0,0,0,5.8-6C160.5,192,158.8,185.4,151.3,185.4Z" fill="#728490" stroke="#000" stroke-miterlimit="10" stroke-width="0.71"/><path d="M154.9,195.5H128.6a5.8,5.8,0,0,1-5.2-3,25.4,25.4,0,0,0-.7,4.7,5.9,5.9,0,0,0,5.9,6h26.3a5.7,5.7,0,0,0,5.8-6,15.3,15.3,0,0,0-.7-4.7A5.8,5.8,0,0,1,154.9,195.5Z" fill="#1e1e1e" stroke="#000" stroke-linecap="round" stroke-linejoin="round" stroke-width="0.71"/><path d="M137.6,187.4s-3-8.5,8.9-8.5h1.8a12.6,12.6,0,0,0-6.3-1.3c-11.9,0-8.9,8.5-8.9,8.5-5.4,0-7.6,3.4-8.4,7.1a5.5,5.5,0,0,0,4.1,1.7h.3C129.9,191.2,132,187.4,137.6,187.4Z" fill="#334451"/><path d="M124,194.5a12.4,12.4,0,0,0-.4,3.3c-.2,2.8,2.4,5.1,5.6,5.1h1.1a4.4,4.4,0,0,1-2-3.9c.1-.9.2-1.8.4-2.8h-.4A6,6,0,0,1,124,194.5Z"/></svg>